<svg width="447" height="317" viewBox="0 0 447 317" fill="none" xmlns="http://www.w3.org/2000/svg">
<path d="M400.372 230.205C400.456 230.224 400.543 230.227 400.628 230.213C400.713 230.199 400.794 230.168 400.867 230.122C400.94 230.076 401.004 230.017 401.054 229.947C401.104 229.876 401.139 229.797 401.159 229.713C401.499 228.235 402.287 226.918 403.505 225.797C403.626 225.677 403.696 225.515 403.699 225.345C403.703 225.175 403.641 225.01 403.526 224.884C403.41 224.759 403.251 224.684 403.081 224.674C402.911 224.664 402.744 224.721 402.615 224.831C401.202 226.135 400.282 227.679 399.882 229.418C399.862 229.502 399.86 229.589 399.874 229.674C399.888 229.759 399.919 229.84 399.965 229.913C400.01 229.986 400.07 230.05 400.14 230.1C400.21 230.15 400.289 230.185 400.373 230.205H400.372ZM389.379 238.202C389.202 236.423 389.807 235.098 391.281 234.034C391.353 233.985 391.415 233.921 391.462 233.848C391.509 233.774 391.54 233.692 391.555 233.606C391.57 233.52 391.567 233.432 391.548 233.346C391.528 233.261 391.491 233.181 391.44 233.11C391.389 233.039 391.324 232.98 391.25 232.934C391.175 232.889 391.092 232.859 391.006 232.846C390.919 232.833 390.831 232.838 390.747 232.859C390.662 232.881 390.583 232.919 390.513 232.972C388.648 234.318 387.851 236.07 388.074 238.331C388.162 239.201 389.463 239.071 389.379 238.202ZM393.57 257.277C393.524 257.11 393.414 256.968 393.264 256.881C393.114 256.794 392.936 256.77 392.768 256.813C391.064 257.268 389.176 257.104 387.58 256.362C387.423 256.295 387.246 256.292 387.087 256.353C386.928 256.414 386.799 256.535 386.728 256.69C386.656 256.844 386.648 257.021 386.704 257.182C386.76 257.342 386.877 257.475 387.029 257.551C388.931 258.433 391.081 258.621 393.106 258.081C393.189 258.059 393.267 258.021 393.336 257.968C393.404 257.916 393.462 257.85 393.505 257.776C393.548 257.701 393.576 257.618 393.587 257.533C393.598 257.447 393.593 257.361 393.57 257.277ZM410.164 237.076C410.094 237.023 410.013 236.984 409.927 236.963C409.842 236.942 409.752 236.938 409.665 236.952C409.578 236.966 409.494 236.998 409.42 237.045C409.345 237.092 409.281 237.154 409.23 237.227C409.18 237.3 409.145 237.382 409.128 237.468C409.11 237.555 409.11 237.644 409.128 237.731C409.145 237.817 409.18 237.899 409.23 237.972C409.281 238.045 409.345 238.107 409.42 238.154C411.733 239.757 413.588 239.921 415.869 239.448C415.953 239.431 416.033 239.397 416.105 239.349C416.176 239.301 416.237 239.239 416.284 239.167C416.331 239.095 416.364 239.014 416.38 238.929C416.396 238.845 416.395 238.758 416.378 238.673C416.361 238.589 416.327 238.508 416.279 238.437C416.23 238.366 416.168 238.304 416.096 238.257C416.024 238.21 415.944 238.177 415.859 238.161C415.774 238.145 415.687 238.146 415.603 238.164C414.099 238.475 412.44 238.65 410.163 237.076H410.164ZM381.104 246.077C380.492 244.184 380.597 242.132 381.399 240.311C381.469 240.152 381.474 239.972 381.412 239.81C381.349 239.647 381.225 239.516 381.066 239.446C380.907 239.375 380.727 239.371 380.564 239.433C380.402 239.496 380.271 239.62 380.201 239.779C379.269 241.898 379.147 244.285 379.86 246.487C380.129 247.311 381.378 246.907 381.105 246.077H381.104Z" fill="#CE0606"/>
<path d="M446.92 269.729C446.802 269.519 438.727 255.25 423.561 248.128C429.825 228.639 441.126 224.245 441.283 224.193C441.519 224.114 441.677 223.891 441.703 223.642C441.716 223.521 441.694 223.399 441.641 223.29C441.588 223.181 441.505 223.089 441.401 223.025C441.034 222.789 406.349 201.595 377.026 224.311V169.607C377.012 169.417 376.928 169.239 376.79 169.109L354.479 150.228V105.776C354.479 105.409 354.191 105.12 353.824 105.12H301.21L265.39 74.7953C265.272 74.6948 265.121 74.6396 264.966 74.6396C264.811 74.6396 264.66 74.6948 264.542 74.7953L228.722 105.12H194.843C194.253 93.3823 184.527 84.018 172.663 84.018C160.407 84.018 150.445 93.9856 150.445 106.248C150.445 118.498 160.407 128.466 172.663 128.466C173.594 128.466 174.525 128.413 175.429 128.282V150.229L153.123 169.109C153.051 169.171 152.993 169.248 152.953 169.334C152.913 169.42 152.892 169.514 152.892 169.61V302.352L152.871 302.368C152.729 302.502 152.629 302.674 152.583 302.864C152.536 303.054 152.545 303.253 152.609 303.438H102.652L92.9154 297.62V296.256H97.8481L94.2079 217.771L88.0993 223.916C87.9768 224.039 87.8102 224.109 87.6363 224.11C87.4624 224.11 87.2953 224.042 87.1719 223.919C87.0485 223.797 86.9788 223.63 86.9782 223.456C86.9776 223.282 87.0461 223.115 87.1687 222.991L94.1253 215.996L92.3517 177.733L91.151 177.909C85.5878 178.719 80.5934 174.307 80.7848 168.632L81.2056 155.714C81.2052 155.627 81.2228 155.54 81.2573 155.46C81.2918 155.38 81.3425 155.308 81.4061 155.249C81.4697 155.19 81.545 155.144 81.6271 155.115C81.7092 155.086 81.7965 155.074 81.8833 155.08C82.057 155.086 82.2212 155.161 82.3399 155.288C82.4586 155.415 82.5221 155.583 82.5165 155.757L82.0957 168.676C81.9305 173.523 86.2026 177.313 90.9609 176.61L92.2259 176.426C92.2482 176.423 92.2691 176.431 92.2914 176.429L91.1313 151.445C91.2595 151.404 91.3756 151.332 91.4695 151.235C93.0845 149.384 91.2205 127.46 90.9845 124.952C92.3347 128.952 94.1437 132.362 96.3852 133.988C100.029 136.63 105.155 133.742 107.514 129.923C114.796 118.265 112.676 77.4498 111.253 76.5265C111.48 74.5356 111.744 73.8641 111.853 73.6713C114.751 68.6705 114.373 63.465 112.6 60.7397C112.56 60.5692 113.291 56.2962 109.192 54.3657V49.0802C109.192 48.713 108.891 48.4244 108.537 48.4244H91.4184C91.0514 48.4244 90.763 48.713 90.763 49.0802V63.2578C83.8024 56.6608 77.8905 53.8515 64.6509 53.1722V51.677C65.385 51.782 66.4861 51.782 67.5217 51.2573C69.9428 49.9852 70.4842 45.9443 70.5327 43.2085C71.7911 40.8438 73.7312 36.2207 70.3085 35.1636C70.3085 35.1636 71.9746 33.8521 71.6089 31.4979C71.5949 31.4099 71.5586 31.3269 71.5034 31.2569C71.4482 31.1869 71.3761 31.1322 71.2938 31.098C71.2115 31.0638 71.1219 31.0513 71.0334 31.0616C70.9449 31.0719 70.8605 31.1047 70.7883 31.1569C70.1801 31.6002 69.0161 32.0749 66.9475 31.7628C63.4371 31.2343 55.517 29.6722 54.3241 37.3709C53.6189 41.9114 54.0619 44.419 54.4801 45.6506C54.425 45.867 54.3883 46.0912 54.3883 46.326C54.3883 47.7424 55.4501 48.9097 56.7872 49.0277C56.8134 49.9458 56.7872 51.6901 56.7347 52.9886C38.8325 52.7826 23.0407 66.1025 20.634 89.5539C20.4112 90.931 15.194 123.549 25.3793 132.441C27.7781 134.539 30.8455 135.156 34.4897 134.29L30.7144 150.71C30.662 150.907 30.7144 151.117 30.8324 151.274C30.953 151.407 31.1208 151.488 31.3004 151.5L28.7901 219.748C28.9137 219.631 29.0781 219.567 29.2483 219.569C29.4185 219.572 29.581 219.64 29.7012 219.761L36.7902 226.891C36.8526 226.951 36.9023 227.024 36.9364 227.104C36.9705 227.184 36.9884 227.27 36.9889 227.357C36.9894 227.444 36.9725 227.53 36.9393 227.611C36.9062 227.691 36.8573 227.764 36.7956 227.826C36.7339 227.887 36.6606 227.936 36.5799 227.968C36.4993 228.001 36.413 228.018 36.326 228.017C36.239 228.016 36.153 227.997 36.0732 227.963C35.9933 227.928 35.9211 227.878 35.8608 227.815L28.7718 220.686C28.7652 220.678 28.7626 220.669 28.756 220.662L25.977 296.255H29.8047L29.7169 303.438H0.655423C0.288386 303.438 0 303.739 0 304.094C0 304.461 0.288386 304.749 0.655423 304.749H29.6907L29.5203 312.973C29.4678 314.704 30.8809 316.186 32.6663 316.186H67.7314C69.4617 316.186 70.8775 314.769 70.8775 313.025C70.8775 309.09 67.9281 305.812 64.0086 305.405L58.3458 304.802L58.254 304.749H76.2781L76.1077 312.973C76.1001 313.391 76.1758 313.807 76.3303 314.196C76.4849 314.585 76.7153 314.939 77.0081 315.238C77.3009 315.538 77.6502 315.775 78.0358 315.938C78.4213 316.101 78.8354 316.185 79.2538 316.186H114.319C119.683 316.186 117.96 306.17 110.609 305.405L104.933 304.802L104.841 304.749H431.439C431.793 304.749 432.094 304.461 432.094 304.094C432.094 303.739 431.793 303.438 431.439 303.438H404.304C407.398 301.377 410.029 298.686 412.117 295.385C429.276 268.381 446.068 270.676 446.238 270.702C446.36 270.721 446.485 270.705 446.598 270.656C446.711 270.608 446.809 270.529 446.88 270.428C446.95 270.327 446.992 270.209 446.999 270.086C447.006 269.962 446.979 269.84 446.92 269.732V269.729ZM264.965 76.1567L299.176 105.119H230.754L264.965 76.1567ZM91.6046 297.634L86.5014 301.074L77.7083 298.395V296.253H91.6032V297.634H91.6046ZM65.8595 158.389V169.326C65.8581 170.669 65.3242 171.957 64.3748 172.907C63.4254 173.856 62.1382 174.39 60.7957 174.391C60.6219 174.391 60.4552 174.322 60.3323 174.199C60.2094 174.076 60.1403 173.91 60.1403 173.736C60.1403 173.562 60.2094 173.395 60.3323 173.272C60.4552 173.149 60.6219 173.08 60.7957 173.08C61.7903 173.078 62.7438 172.683 63.447 171.979C64.1503 171.275 64.546 170.321 64.5474 169.326V158.391C64.5474 158.217 64.6164 158.05 64.7393 157.927C64.8623 157.804 65.029 157.735 65.2028 157.735C65.3766 157.735 65.5433 157.804 65.6663 157.927C65.7892 158.05 65.8582 158.217 65.8582 158.391L65.8595 158.389ZM87.6156 230.791L91.1602 227.225C91.2205 227.162 91.2926 227.112 91.3725 227.077C91.4524 227.043 91.5383 227.025 91.6253 227.024C91.7123 227.023 91.7987 227.039 91.8793 227.072C91.9599 227.104 92.0332 227.153 92.0949 227.214C92.1566 227.276 92.2055 227.349 92.2387 227.429C92.2719 227.51 92.2887 227.596 92.2882 227.683C92.2877 227.77 92.2699 227.856 92.2358 227.936C92.2017 228.016 92.152 228.089 92.0896 228.15L88.545 231.717C88.4843 231.778 88.4121 231.827 88.3325 231.86C88.253 231.893 88.1677 231.91 88.0815 231.911C87.9954 231.911 87.91 231.894 87.8303 231.861C87.7506 231.829 87.6781 231.78 87.617 231.72C87.5558 231.659 87.5073 231.586 87.4741 231.507C87.4409 231.427 87.4237 231.342 87.4234 231.256C87.4232 231.17 87.4399 231.084 87.4727 231.004C87.5054 230.925 87.5549 230.852 87.6156 230.791ZM110.726 73.0143C110.595 73.2241 110.228 73.8668 109.952 76.3062H103.726C102.892 72.6864 105.65 69.6305 103.805 69.4469C101.629 69.5033 97.932 69.0534 97.932 66.8763C99.0646 67.7944 102.249 68.041 101.838 67.9518C102.009 67.9518 102.173 67.8853 102.295 67.7662C102.418 67.6472 102.489 67.4851 102.494 67.3144C102.523 66.1602 101.091 67.094 98.7211 65.8061C98.3148 65.3786 98.1522 64.9694 98.1155 64.7123C99.4919 65.3995 101.237 65.8061 102.819 65.7051C103.687 65.6461 103.591 64.3411 102.73 64.3962C100.938 64.5182 97.932 63.7011 97.932 62.1404C100.489 63.6224 107.644 63.8585 107.881 61.7601C107.9 61.6736 107.9 61.5842 107.881 61.4977C107.75 60.6977 106.61 60.3436 104.657 59.7272C103.306 59.3075 100.527 58.4288 100.501 57.6156C101.498 56.8221 107.099 58.4091 108.497 58.8747C108.629 59.0058 111.786 60.1101 112.456 63.9372C113.151 67.78 111.906 70.9945 110.726 73.0143ZM111.276 59.1514C110.424 58.3776 109.612 57.9317 109.192 57.7481V55.8464C110.333 56.5808 111.106 57.8005 111.276 59.1514ZM92.0725 49.7347H107.881V57.3153C105.509 56.5939 101.117 55.4791 99.7017 56.5808C99.3215 56.8694 99.1249 57.3022 99.1642 57.7874C99.2822 59.4137 101.812 60.2138 104.263 60.9744C104.893 61.1843 105.692 61.4335 106.19 61.6433C103.566 62.5181 99.4526 61.604 98.535 60.9744C98.1024 60.6859 97.6436 60.6334 97.2504 60.8433C96.844 61.0662 96.6081 61.5384 96.6212 62.1024C96.6212 62.5483 96.7785 63.0729 97.1455 63.5844C97.1324 63.6106 97.1193 63.6237 97.1062 63.6369C96.7129 64.109 96.6736 64.9615 97.1324 65.8271C95.794 66.9852 96.7916 70.5761 102.953 70.7584C102.31 73.1192 102.14 74.9816 102.415 76.4111H92.0725V49.7347ZM57.086 44.9345C57.3456 44.9345 57.5671 44.9148 57.7415 44.6197C58.5607 45.2427 58.7534 46.8913 58.7534 46.8913V41.8943C58.7534 41.8943 60.7486 42.1199 59.6186 40.1133C59.6186 40.1133 63.0556 36.2482 65.0625 39.2595C66.6513 41.6438 68.3148 40.7258 68.94 40.2392C69.5679 42.7665 69.231 48.8743 66.9174 50.0757C65.9841 50.5675 61.8418 50.7616 61.092 49.6166C60.9884 49.4461 60.7394 49.534 60.7394 49.7163C60.7394 49.7884 60.818 51.2705 63.3388 51.9787V53.2758L61.2283 55.6759L58.043 53.2102C58.1583 49.0513 58.3235 47.5051 57.2565 47.7018C55.357 48.0179 55.0909 44.9345 57.086 44.9345ZM35.9382 133.817C43.5634 131.285 65.6944 119.463 73.2147 112.394C73.3149 112.3 73.3828 112.176 73.4086 112.04C73.4345 111.905 73.4171 111.765 73.3589 111.64L72.5527 109.906C74.6304 109.187 75.4366 107.152 75.7381 105.725C76.0002 106.147 76.269 106.735 76.4499 107.532C76.8693 109.386 77.0791 110.596 78.4948 110.596C79.0584 110.596 79.5277 110.342 79.8358 110.075C80.9592 110.217 82.5374 109.302 82.6462 107.827C82.6685 107.54 82.6829 107.253 82.6895 106.968C86.3599 107.159 85.0398 99.5556 82.6843 96.1785L82.6213 96.088C91.0029 98.9654 93.9916 100.79 95.1006 98.5628C95.6302 97.5018 95.3064 96.1627 94.3311 95.3745C92.3675 93.7875 87.1477 89.9946 81.1099 89.0792C74.4115 88.0745 68.358 94.6007 66.4914 96.8513L65.6695 95.0807C65.6329 95.0025 65.5812 94.9322 65.5174 94.874C65.4536 94.8158 65.3789 94.7708 65.2977 94.7415C65.2164 94.7123 65.1302 94.6994 65.044 94.7036C64.9577 94.7078 64.8732 94.729 64.7951 94.7659L44.1755 104.529L45.8757 94.0066C45.8895 93.9217 45.8864 93.8349 45.8666 93.7511C45.8469 93.6674 45.8108 93.5884 45.7606 93.5186C45.7103 93.4488 45.6468 93.3897 45.5736 93.3444C45.5005 93.2992 45.4192 93.2688 45.3343 93.2551C45.2494 93.2413 45.1627 93.2444 45.079 93.2641C44.9953 93.2839 44.9164 93.32 44.8466 93.3702C44.7769 93.4205 44.7177 93.4841 44.6725 93.5573C44.6273 93.6304 44.597 93.7118 44.5832 93.7967L42.7008 105.429L40.2757 109.611C40.2326 109.686 40.2046 109.768 40.1933 109.853C40.182 109.939 40.1876 110.026 40.2098 110.109C40.232 110.192 40.2704 110.27 40.3228 110.339C40.3751 110.407 40.4404 110.464 40.515 110.508C40.5895 110.551 40.6718 110.579 40.7572 110.59C40.8426 110.601 40.9293 110.596 41.0125 110.574C41.0957 110.551 41.1737 110.513 41.2421 110.461C41.3104 110.408 41.3678 110.343 41.4109 110.268L43.7928 106.16L64.7584 96.2322L71.9655 111.752C70.7202 112.839 66.1034 116.668 57.343 121.779C58.6787 119.129 57.9525 116.529 57.9407 116.491C57.884 116.333 57.769 116.203 57.6192 116.127C57.4695 116.051 57.2964 116.036 57.1355 116.083C56.9746 116.131 56.8381 116.239 56.754 116.384C56.67 116.53 56.6448 116.702 56.6836 116.865C56.74 117.051 57.9394 121.356 53.3645 124.018C45.2989 128.434 32.4487 136.852 26.2431 131.455C19.4267 125.507 20.0625 107.337 21.0404 97.0401C22.561 86.7735 31.4944 82.1176 31.5927 82.0691C31.7467 81.9901 31.8631 81.8533 31.9167 81.6888C31.9704 81.5242 31.9568 81.3451 31.8789 81.1905C31.801 81.0359 31.6652 80.9184 31.5011 80.8635C31.337 80.8087 31.1579 80.8211 31.0028 80.8979C30.9216 80.9372 25.163 83.9419 21.8269 90.3999C21.8859 89.9985 21.9252 89.7507 21.9291 89.7218C25.0096 59.6747 48.3558 55.1893 48.5786 55.15C54.6872 54.1532 56.9025 54.2843 57.3482 54.3237L60.9268 57.091C61.1903 57.2956 61.5822 57.2589 61.8182 56.9992L64.0728 54.4286C75.1993 54.9454 80.2723 57.1513 83.3121 59.0662C81.7418 58.7842 80.5004 58.7776 80.4112 58.775C80.2374 58.775 80.0707 58.8441 79.9478 58.9671C79.8249 59.0901 79.7558 59.2569 79.7558 59.4308C79.7558 59.6047 79.8249 59.7715 79.9478 59.8945C80.0707 60.0175 80.2374 60.0865 80.4112 60.0865H80.4139C80.4676 60.0865 84.897 60.1128 87.3718 62.046C88.2553 62.7542 89.4076 63.7247 90.7617 65.0913V77.0656C90.7617 77.4197 91.0501 77.7213 91.4171 77.7213H94.2433C93.5395 82.4378 93.0252 87.1806 92.7017 91.9383C92.6993 92.1065 92.7614 92.2693 92.8752 92.3932C92.9891 92.5171 93.146 92.5927 93.3138 92.6045C93.4816 92.6162 93.6475 92.5632 93.7774 92.4564C93.9074 92.3496 93.9915 92.197 94.0126 92.0301C94.4845 85.0397 95.2972 79.4394 95.5725 77.7213H110.306C110.609 80.5805 111.851 93.4964 111.227 106.208C110.097 100.402 107.74 96.1037 107.576 95.8125C107.491 95.6609 107.349 95.5493 107.181 95.5023C107.014 95.4553 106.835 95.4768 106.683 95.562C106.532 95.6473 106.42 95.7892 106.373 95.9567C106.326 96.1242 106.348 96.3035 106.433 96.4552C112.724 107.656 109.74 119.129 109.744 119.134C107.377 130.819 101.365 135.966 97.1599 132.924C92.5326 129.57 90.2098 117.815 89.4928 112.106V103.503C89.4928 103.329 89.4237 103.163 89.3008 103.04C89.1779 102.917 89.0112 102.848 88.8374 102.848C88.6635 102.848 88.4968 102.917 88.3739 103.04C88.251 103.163 88.1819 103.329 88.1819 103.503V112.167C88.1819 112.187 88.1924 112.204 88.1937 112.224C88.1937 112.229 88.1911 112.234 88.1937 112.241C88.2239 112.542 90.3134 126.758 90.7328 141.338H53.9518C53.778 141.338 53.6113 141.407 53.4883 141.53C53.3654 141.653 53.2964 141.82 53.2964 141.994C53.2964 142.168 53.3654 142.335 53.4883 142.458C53.6113 142.581 53.778 142.65 53.9518 142.65H90.7656C90.8482 146.65 90.7433 149.333 90.5257 150.196H32.1682L35.9395 133.815L35.9382 133.817ZM79.6077 94.2387C79.0152 95.4558 82.3316 95.4689 83.3829 101.259C84.2927 106.181 82.6908 105.502 82.6489 105.633C82.3683 101.52 79.4504 96.7175 78.2995 97.9766C78.1827 98.1053 78.1218 98.2751 78.1302 98.4488C78.1385 98.6224 78.2155 98.7856 78.344 98.9025C80.8346 101.161 81.827 105.454 81.3079 107.892C81.2004 108.393 80.6052 108.676 80.271 108.747C80.5869 103.64 77.4566 98.8868 76.3214 100.13C75.2098 101.359 79.6208 101.953 78.9444 109.109C78.8594 109.176 78.7606 109.224 78.6551 109.249C78.5495 109.274 78.4397 109.275 78.3335 109.253C77.783 108.168 77.5942 104.905 75.6057 103.687C75.5072 103.627 75.3946 103.594 75.2792 103.591C75.1639 103.589 75.05 103.617 74.9489 103.672C74.8478 103.728 74.7632 103.809 74.7036 103.908C74.644 104.007 74.6115 104.12 74.6094 104.235C74.6094 104.272 74.5111 107.749 72.2276 108.648L67.19 98.071C68.4563 96.4932 74.5439 89.4097 80.9146 90.3749C86.6338 91.2432 91.6255 94.8735 93.5066 96.3949C94.0073 96.7988 94.1843 97.4637 93.9287 97.9752C93.7517 98.332 93.3834 98.5195 90.413 97.4743C80.8648 94.3069 80.0862 93.2747 79.6077 94.2387ZM31.2021 176.868C31.1169 176.855 31.0349 176.826 30.9609 176.782C30.887 176.738 30.8224 176.68 30.7709 176.611C30.7194 176.542 30.682 176.463 30.6609 176.38C30.6397 176.296 30.6352 176.209 30.6476 176.124C30.66 176.039 30.689 175.957 30.7331 175.883C30.7772 175.809 30.8354 175.744 30.9044 175.693C30.9734 175.641 31.0519 175.604 31.1353 175.582C31.2188 175.561 31.3056 175.557 31.3908 175.569L38.4864 176.605C43.2894 177.31 47.5156 173.484 47.3556 168.676L46.9296 155.757C46.9266 155.671 46.9406 155.585 46.9709 155.505C47.0011 155.424 47.0469 155.35 47.1057 155.287C47.1645 155.224 47.2351 155.173 47.3136 155.137C47.392 155.102 47.4767 155.082 47.5627 155.079C47.9901 155.063 48.2287 155.352 48.2405 155.713L48.6665 168.631C48.8513 174.279 43.8898 178.718 38.2977 177.904L31.2021 176.868ZM31.8719 231.124C31.9952 231.002 32.162 230.933 32.3358 230.933C32.5096 230.934 32.6761 231.003 32.7987 231.127L36.3432 234.691C36.4056 234.752 36.4553 234.825 36.4894 234.905C36.5235 234.985 36.5414 235.071 36.5419 235.158C36.5424 235.245 36.5255 235.331 36.4923 235.412C36.4592 235.492 36.4103 235.565 36.3486 235.627C36.2869 235.688 36.2136 235.737 36.1329 235.769C36.0523 235.802 35.966 235.818 35.879 235.817C35.792 235.816 35.706 235.798 35.6261 235.764C35.5463 235.729 35.4741 235.679 35.4138 235.616L31.8693 232.051C31.7468 231.928 31.6782 231.761 31.6787 231.587C31.6792 231.413 31.7487 231.247 31.8719 231.124ZM45.0092 296.255V297.639L39.9035 301.073L31.1129 298.396V296.253H45.0079L45.0092 296.255ZM58.0561 306.099C61.6425 306.904 66.6002 305.561 68.8928 310.228H30.8835L31.0933 299.766L39.8235 302.427C40.0595 302.492 40.2495 302.394 40.3819 302.337L40.3872 302.335L45.683 298.767C56.0125 304.953 57.9014 306.077 58.0561 306.099ZM56.0636 303.436L46.3201 297.622V296.253H51.9226L61.6176 219.437C61.6045 219.437 61.5914 219.437 61.5783 219.434C61.4937 219.419 61.4131 219.386 61.341 219.339C61.269 219.292 61.2069 219.232 61.1583 219.161C61.1097 219.09 61.0756 219.01 61.0579 218.926C61.0402 218.841 61.0394 218.754 61.0553 218.67L66.4625 189.575C66.4784 189.49 66.5107 189.41 66.5577 189.338C66.6046 189.266 66.6654 189.203 66.7363 189.155C66.8073 189.106 66.8871 189.072 66.9713 189.054C67.0554 189.037 67.1422 189.036 67.2268 189.052C67.3113 189.067 67.3918 189.1 67.4639 189.147C67.5359 189.194 67.598 189.255 67.6465 189.326C67.6951 189.397 67.7292 189.476 67.7469 189.561C67.7646 189.645 67.7656 189.732 67.7498 189.816L62.3425 218.91C62.3165 219.046 62.2478 219.17 62.1464 219.263C62.045 219.357 61.9162 219.416 61.7789 219.432L71.1082 296.253H76.3974L76.303 303.436H56.0636ZM110.464 306.702C111.532 306.814 112.555 307.197 113.434 307.814C114.314 308.431 115.023 309.261 115.493 310.228H77.4749C77.8354 292.616 77.357 315.836 77.6925 299.767L86.4228 302.427C86.6718 302.499 86.8436 302.393 86.9746 302.337C87.107 302.248 92.6323 298.531 92.2836 298.767L102.272 304.748C105.511 306.637 102.985 305.842 110.464 306.702ZM439.617 223.512C436.379 225.178 427.57 231.053 422.288 247.565C410.446 242.444 398.526 243.441 386.475 248.47C393.816 239.945 403.556 233.912 415.209 230.765C415.369 230.712 415.502 230.6 415.582 230.452C415.661 230.303 415.682 230.13 415.638 229.968C415.595 229.805 415.491 229.666 415.348 229.577C415.204 229.489 415.033 229.459 414.868 229.493C402.022 232.968 391.47 239.854 383.801 249.69C381.435 250.832 379.168 252.17 377.024 253.69V225.978C402.94 205.124 433.522 220.141 439.617 223.512ZM375.713 301.345L283.562 230.443L302.615 218.114L375.713 170.811V301.345ZM375.272 169.536L354.478 182.991V151.954L375.272 169.533V169.536ZM172.663 127.153C161.128 127.153 151.755 117.775 151.755 106.247C151.755 94.7056 161.128 85.3282 172.663 85.3282C183.806 85.3282 192.942 94.1023 193.532 105.119C193.545 105.486 193.558 105.867 193.558 106.247V106.431C193.466 116.477 186.257 124.858 176.74 126.759C176.307 126.838 175.875 126.917 175.429 126.969C174.525 127.087 173.607 127.153 172.663 127.153ZM194.869 106.431H353.167V183.837L282.455 229.588L265.642 216.653C265.455 216.489 265.215 216.399 264.967 216.399C264.718 216.399 264.479 216.489 264.292 216.653L247.468 229.595L176.74 183.832V128.084C186.991 126.182 194.777 117.211 194.869 106.431ZM175.429 182.984L154.646 169.536L175.429 151.947V182.986V182.984ZM154.203 170.811L246.359 230.446L154.203 301.341V170.814V170.811ZM411.015 294.674C408.629 298.438 405.535 301.376 401.812 303.435H377.303C377.524 302.793 377.1 302.483 377.024 302.352V280.051C399.479 256.994 424.32 264.85 424.621 264.942C424.975 265.06 425.342 264.876 425.447 264.535C425.475 264.453 425.488 264.367 425.483 264.28C425.478 264.194 425.456 264.109 425.418 264.031C425.38 263.953 425.327 263.883 425.263 263.826C425.198 263.768 425.122 263.724 425.041 263.696C424.739 263.604 399.807 255.682 377.024 278.188V255.237C387.472 247.463 405.44 241.652 421.895 248.823C422.314 249.007 422.733 249.203 423.153 249.4C435.462 255.237 442.96 265.912 445.123 269.309C440.745 269.257 426.076 270.962 411.015 294.674Z" fill="#CE0606"/>
<path d="M417.928 255.365C416.357 255.747 415.05 256.506 414.042 257.625C413.459 258.271 414.443 259.138 415.015 258.504C415.843 257.586 416.929 256.959 418.237 256.641C418.406 256.6 418.552 256.493 418.643 256.344C418.733 256.196 418.761 256.017 418.721 255.848C418.678 255.679 418.571 255.534 418.423 255.444C418.275 255.354 418.097 255.325 417.928 255.365ZM405.889 256.393C403.949 256.622 402.635 257.595 401.871 259.364C401.802 259.524 401.799 259.704 401.863 259.866C401.927 260.028 402.053 260.157 402.213 260.226C402.372 260.295 402.553 260.298 402.714 260.234C402.876 260.17 403.005 260.044 403.074 259.885C403.646 258.564 404.587 257.868 406.042 257.694C406.128 257.684 406.21 257.657 406.285 257.615C406.36 257.573 406.426 257.517 406.48 257.449C406.533 257.382 406.572 257.304 406.595 257.221C406.619 257.139 406.625 257.052 406.615 256.966C406.574 256.606 406.243 256.333 405.889 256.393ZM397.967 274.596C396.556 274.234 395.313 273.395 394.448 272.222C394.34 272.095 394.189 272.014 394.024 271.994C393.859 271.975 393.693 272.018 393.558 272.116C393.424 272.214 393.332 272.359 393.3 272.522C393.268 272.686 393.3 272.855 393.387 272.996C394.429 274.422 395.936 275.438 397.648 275.87C397.81 275.896 397.977 275.86 398.114 275.769C398.252 275.679 398.35 275.54 398.39 275.38C398.43 275.22 398.409 275.051 398.331 274.906C398.253 274.762 398.123 274.651 397.967 274.597V274.596ZM411.08 271.324C409.625 271.086 408.288 270.381 407.27 269.313C407.15 269.188 406.985 269.115 406.811 269.111C406.637 269.108 406.469 269.173 406.344 269.294C406.218 269.414 406.146 269.579 406.142 269.753C406.138 269.927 406.204 270.095 406.324 270.221C407.482 271.43 411.345 273.633 411.612 272.083C411.627 271.998 411.625 271.911 411.607 271.827C411.588 271.743 411.553 271.663 411.504 271.593C411.454 271.522 411.391 271.462 411.319 271.416C411.246 271.37 411.165 271.339 411.08 271.324ZM422.042 270.272C420.85 269.898 419.6 269.367 418.603 267.347C418.523 267.197 418.387 267.084 418.225 267.031C418.063 266.979 417.887 266.992 417.734 267.068C417.581 267.143 417.464 267.275 417.407 267.436C417.35 267.597 417.357 267.773 417.428 267.928C418.654 270.412 420.252 271.086 421.653 271.524C421.819 271.576 421.999 271.56 422.153 271.479C422.307 271.398 422.422 271.259 422.474 271.093C422.525 270.927 422.509 270.747 422.428 270.593C422.347 270.439 422.208 270.324 422.042 270.272ZM395.613 257.196C394.062 258.374 392.997 260.082 392.622 261.994C392.459 262.846 393.748 263.091 393.91 262.24C394.223 260.648 395.11 259.225 396.402 258.244C396.541 258.139 396.633 257.984 396.658 257.812C396.682 257.639 396.637 257.464 396.533 257.325C396.428 257.186 396.273 257.094 396.101 257.07C395.928 257.045 395.754 257.09 395.614 257.195L395.613 257.196ZM209.66 145.786H320.243C320.597 145.786 320.877 145.506 320.877 145.151V120.458C320.876 120.29 320.809 120.129 320.691 120.01C320.572 119.891 320.411 119.824 320.243 119.824H209.66C209.493 119.826 209.333 119.894 209.215 120.012C209.096 120.13 209.029 120.29 209.026 120.458V145.151C209.026 145.506 209.318 145.786 209.66 145.786ZM200.428 159.393H329.484C329.657 159.393 329.824 159.324 329.947 159.201C330.07 159.078 330.139 158.911 330.139 158.737C330.139 158.563 330.07 158.396 329.947 158.273C329.824 158.15 329.657 158.081 329.484 158.081H200.428C200.254 158.081 200.088 158.15 199.965 158.273C199.842 158.396 199.773 158.563 199.773 158.737C199.773 158.911 199.842 159.078 199.965 159.201C200.088 159.324 200.254 159.393 200.428 159.393ZM200.428 172.608H329.484C329.657 172.608 329.824 172.539 329.947 172.416C330.07 172.293 330.139 172.126 330.139 171.952C330.139 171.778 330.07 171.611 329.947 171.488C329.824 171.365 329.657 171.296 329.484 171.296H200.428C200.254 171.296 200.088 171.365 199.965 171.488C199.842 171.611 199.773 171.778 199.773 171.952C199.773 172.126 199.842 172.293 199.965 172.416C200.088 172.539 200.254 172.608 200.428 172.608ZM200.428 185.821H329.484C329.657 185.821 329.824 185.752 329.947 185.629C330.07 185.506 330.139 185.34 330.139 185.166C330.139 184.992 330.07 184.825 329.947 184.702C329.824 184.579 329.657 184.51 329.484 184.51H200.428C200.254 184.51 200.088 184.579 199.965 184.702C199.842 184.825 199.773 184.992 199.773 185.166C199.773 185.34 199.842 185.506 199.965 185.629C200.088 185.752 200.254 185.821 200.428 185.821ZM309.485 197.723H220.426C220.253 197.723 220.086 197.793 219.963 197.916C219.84 198.039 219.771 198.205 219.771 198.379C219.771 198.553 219.84 198.72 219.963 198.843C220.086 198.966 220.253 199.035 220.426 199.035H309.485C309.659 199.035 309.826 198.966 309.949 198.843C310.072 198.72 310.141 198.553 310.141 198.379C310.141 198.205 310.072 198.039 309.949 197.916C309.826 197.793 309.659 197.723 309.485 197.723ZM129.013 51.3833C128.991 51.4872 128.996 51.5949 129.026 51.6968C129.056 51.7986 129.111 51.8914 129.185 51.9668C129.26 52.0422 129.352 52.0979 129.454 52.1288C129.555 52.1597 129.663 52.1649 129.767 52.144H134.634C134.723 52.144 134.799 52.1309 134.875 52.0928L141.365 49.3937C146.538 51.5945 149.93 51.4213 155.085 51.4213C169.223 51.4213 180.729 39.9114 180.729 25.7639C180.729 9.43804 165.71 -1.26139 154.653 0.119644C151.684 0.0868557 151.197 0.0606244 150.48 0.130135C136.749 0.60622 125.718 11.9063 125.718 25.7639C125.718 31.4533 127.537 36.8332 130.982 41.3449L129.013 51.3833ZM127.029 25.7639C127.029 12.3286 137.949 1.39576 151.371 1.39576C164.802 1.39576 175.727 12.3286 175.727 25.7639C175.727 44.4466 155.495 56.0956 139.442 46.9976C139.355 46.9483 139.258 46.9196 139.159 46.9134C139.059 46.9073 138.959 46.924 138.867 46.9621L130.535 50.4325L132.324 41.3055C132.343 41.2134 132.341 41.1183 132.319 41.0268C132.298 40.9354 132.257 40.8497 132.199 40.7757C128.834 36.4977 127.012 31.2078 127.029 25.7639Z" fill="#CE0606"/>
<path d="M138.644 29.3762C139.688 29.3731 140.689 28.9567 141.427 28.218C142.165 27.4794 142.582 26.4784 142.585 25.4337C142.585 23.254 140.811 21.4664 138.644 21.4664C137.594 21.4702 136.587 21.8894 135.845 22.6326C135.102 23.3758 134.683 24.3827 134.679 25.4337C134.679 27.6017 136.466 29.3762 138.644 29.3762ZM151.378 29.3762C152.424 29.3759 153.427 28.9608 154.168 28.2219C154.909 27.483 155.328 26.4804 155.331 25.4337C155.331 23.254 153.558 21.4664 151.378 21.4664C149.198 21.4664 147.424 23.254 147.424 25.4337C147.428 26.4804 147.846 27.483 148.587 28.2219C149.328 28.9608 150.332 29.3759 151.378 29.3762ZM164.123 29.3762C165.169 29.3759 166.173 28.9608 166.914 28.2219C167.655 27.483 168.073 26.4804 168.077 25.4337C168.076 24.3839 167.659 23.3772 166.918 22.6337C166.177 21.8902 165.172 21.4705 164.123 21.4664C163.074 21.4709 162.07 21.8907 161.329 22.6342C160.588 23.3776 160.172 24.3841 160.171 25.4337C160.175 26.4801 160.593 27.4823 161.334 28.2211C162.074 28.9598 163.077 29.3752 164.123 29.3762ZM327.515 42.6685L340.138 47.8858L343.874 60.6207C343.907 60.7519 344.104 61.4719 345.015 60.9617L353.859 53.5529L359.312 55.8061H359.315C359.661 55.9241 359.944 55.8127 360.114 55.5569L378.624 27.464C378.861 27.1492 378.686 26.6115 378.26 26.4804C378.25 26.4777 378.241 26.4712 378.23 26.4672C378.115 26.464 378 26.4666 377.886 26.4751L327.58 41.4318H327.579C326.942 41.6246 327.017 42.46 327.516 42.6672L327.515 42.6685ZM359.312 54.3883L345.224 48.5665L345.29 47.5173L345.408 47.4517V47.4385C386.592 21.7929 339.533 51.1134 375.944 28.4214L376.537 28.2457L359.313 54.3883H359.312ZM371.573 29.7211L340.138 45.9972C339.994 46.0759 339.889 46.1939 339.837 46.3382L329.733 42.1662C386.173 25.3787 367.796 30.8451 371.573 29.7211ZM308.716 85.2433C308.747 85.1632 308.762 85.0776 308.76 84.9917C308.758 84.9057 308.74 84.8209 308.705 84.7422C308.67 84.6635 308.62 84.5925 308.558 84.5331C308.496 84.4737 308.423 84.4271 308.342 84.3961C307.133 83.9266 305.993 83.3469 304.961 82.6754C304.888 82.6256 304.807 82.5909 304.721 82.5731C304.636 82.5553 304.547 82.5549 304.461 82.5719C304.375 82.5889 304.294 82.623 304.221 82.672C304.149 82.7211 304.087 82.7843 304.039 82.8577C303.991 82.9311 303.959 83.0134 303.943 83.0996C303.928 83.1859 303.93 83.2743 303.949 83.3598C303.968 83.4452 304.005 83.526 304.056 83.5972C304.107 83.6684 304.171 83.7287 304.246 83.7744C305.387 84.512 306.601 85.13 307.868 85.6184C308.2 85.7483 308.585 85.5856 308.716 85.2433ZM306.861 94.3689C308.188 94.1074 309.487 93.7205 310.741 93.2135C310.821 93.1811 310.894 93.1333 310.955 93.0729C311.016 93.0125 311.065 92.9406 311.098 92.8613C311.132 92.782 311.149 92.6969 311.15 92.6108C311.151 92.5248 311.134 92.4394 311.102 92.3597C311.069 92.2799 311.022 92.2073 310.961 92.1461C310.901 92.0848 310.829 92.036 310.75 92.0025C310.671 91.969 310.586 91.9515 310.5 91.9509C310.413 91.9503 310.328 91.9666 310.248 91.999C309.102 92.4646 307.876 92.8305 306.604 93.0836C306.439 93.1227 306.295 93.2245 306.203 93.3676C306.112 93.5106 306.079 93.6838 306.112 93.8505C306.146 94.0172 306.242 94.1644 306.382 94.2612C306.522 94.3579 306.694 94.3965 306.861 94.3689ZM308.825 64.0845C308.818 64.2583 308.881 64.4278 308.999 64.5556C309.117 64.6835 309.28 64.7593 309.454 64.7665C310.661 64.8124 311.871 65.0825 313.05 65.5665C313.209 65.6234 313.384 65.6168 313.538 65.548C313.692 65.4792 313.814 65.3536 313.878 65.1972C313.943 65.0408 313.944 64.8657 313.882 64.7083C313.821 64.5509 313.701 64.4233 313.548 64.352C312.263 63.8191 310.895 63.5151 309.505 63.4536C309.333 63.4519 309.166 63.516 309.04 63.633C308.913 63.7501 308.836 63.9111 308.824 64.0831L308.825 64.0845ZM298.246 93.9847C298.231 94.1578 298.284 94.3301 298.395 94.4639C298.506 94.5976 298.666 94.6818 298.839 94.6981C300.281 94.8345 301.593 94.8686 302.851 94.8253C303.025 94.8192 303.189 94.7443 303.308 94.6172C303.426 94.49 303.489 94.321 303.483 94.1473C303.473 93.9747 303.398 93.8126 303.271 93.6946C303.145 93.5766 302.978 93.5119 302.805 93.5138C301.554 93.5584 300.287 93.5164 298.961 93.3918C298.616 93.3787 298.282 93.6253 298.246 93.9847ZM311.241 85.945C311.175 86.3017 311.411 86.644 311.768 86.7109C313.076 86.9509 314.421 87.1005 315.766 87.1529H315.792C315.966 87.1564 316.134 87.0906 316.259 86.9701C316.385 86.8496 316.457 86.6842 316.461 86.5103C316.464 86.3363 316.398 86.1682 316.278 86.0427C316.157 85.9173 315.992 85.8449 315.818 85.8414C314.539 85.7922 313.265 85.652 312.005 85.4217C311.92 85.405 311.833 85.4055 311.749 85.4229C311.664 85.4404 311.584 85.4745 311.513 85.5234C311.442 85.5722 311.381 85.6348 311.334 85.7074C311.288 85.78 311.256 85.8599 311.241 85.945ZM305.852 65.3396C306.008 65.2739 306.133 65.1502 306.2 64.9945C306.268 64.8388 306.272 64.6631 306.213 64.5041C306.154 64.3452 306.035 64.2153 305.882 64.1418C305.73 64.0682 305.554 64.0566 305.393 64.1094C304.09 64.6032 302.886 65.3273 301.838 66.2472C301.708 66.3621 301.628 66.5241 301.617 66.6977C301.605 66.8712 301.663 67.0422 301.778 67.1731C302.525 68.0243 302.947 66.4255 305.852 65.3396ZM316.347 87.6342C315.508 88.5804 314.568 89.4311 313.543 90.1707C313.473 90.221 313.413 90.2846 313.368 90.3579C313.322 90.4311 313.292 90.5126 313.278 90.5977C313.264 90.6828 313.267 90.7697 313.287 90.8537C313.306 90.9376 313.342 91.0168 313.393 91.0868C313.443 91.1569 313.506 91.2163 313.58 91.2617C313.653 91.3071 313.734 91.3377 313.819 91.3517C313.904 91.3656 313.991 91.3626 314.075 91.343C314.159 91.3233 314.238 91.2873 314.308 91.237C315.411 90.4398 316.424 89.5236 317.327 88.5051C317.384 88.4407 317.428 88.3656 317.456 88.2842C317.484 88.2029 317.496 88.1167 317.491 88.0307C317.486 87.9447 317.464 87.8606 317.426 87.7831C317.389 87.7056 317.336 87.6363 317.272 87.5792C317.208 87.522 317.133 87.4781 317.051 87.4499C316.97 87.4217 316.884 87.4098 316.798 87.4149C316.712 87.42 316.628 87.442 316.55 87.4797C316.473 87.5173 316.404 87.5698 316.347 87.6342ZM319.718 87.0362C321.075 86.9047 322.421 86.679 323.746 86.3607C323.915 86.32 324.061 86.2138 324.152 86.0654C324.243 85.9169 324.271 85.7385 324.231 85.5692C324.19 85.4 324.084 85.2539 323.935 85.163C323.787 85.0721 323.609 85.0439 323.44 85.0846C322.203 85.3837 320.929 85.6001 319.654 85.7273C318.831 85.8099 318.896 87.0362 319.719 87.0362H319.718ZM302.085 80.2621C301.202 79.2955 300.532 78.2529 300.092 77.1643C300.026 77.0033 299.9 76.8749 299.74 76.8073C299.579 76.7398 299.399 76.7387 299.238 76.8043C299.077 76.8699 298.949 76.9967 298.881 77.157C298.814 77.3172 298.813 77.4977 298.878 77.6588C299.376 78.8903 300.13 80.0628 301.113 81.1448C301.69 81.7796 302.673 80.9113 302.083 80.2621H302.085ZM320.633 77.3715C320.631 77.4578 320.646 77.5436 320.676 77.6241C320.707 77.7046 320.754 77.7782 320.813 77.8407C320.873 77.9032 320.944 77.9534 321.023 77.9883C321.102 78.0233 321.187 78.0423 321.273 78.0444H321.288C321.459 78.0444 321.624 77.9777 321.746 77.8584C321.868 77.739 321.939 77.5766 321.944 77.4056C321.936 77.243 322.062 75.5013 321.48 73.3242C321.433 73.1568 321.323 73.0144 321.173 72.9276C321.023 72.8408 320.844 72.8164 320.676 72.8599C320.508 72.9051 320.365 73.0151 320.278 73.1658C320.191 73.3166 320.167 73.4957 320.212 73.6638C320.742 75.6311 320.626 77.2286 320.633 77.3715ZM327.582 85.1541C328.831 84.6636 330.045 84.0851 331.213 83.4229C331.288 83.3807 331.353 83.324 331.406 83.2563C331.459 83.1886 331.498 83.111 331.521 83.0282C331.544 82.9453 331.55 82.8588 331.54 82.7735C331.529 82.6882 331.502 82.6058 331.459 82.5311C331.417 82.4559 331.361 82.3897 331.293 82.3364C331.226 82.2831 331.148 82.2438 331.065 82.2206C330.983 82.1974 330.896 82.1909 330.811 82.2014C330.725 82.212 330.643 82.2393 330.568 82.2819C329.453 82.9124 328.295 83.4637 327.103 83.9318C326.949 84.0006 326.827 84.1263 326.763 84.2827C326.699 84.4391 326.698 84.6141 326.759 84.7715C326.821 84.9288 326.941 85.0564 327.094 85.1277C327.247 85.1989 327.422 85.2084 327.582 85.1541ZM318.706 70.2696C318.751 70.3458 318.811 70.4121 318.882 70.4646C318.953 70.517 319.034 70.5545 319.121 70.5747C319.207 70.5949 319.296 70.5976 319.383 70.5824C319.47 70.5672 319.553 70.5345 319.627 70.4864C319.702 70.4382 319.765 70.3755 319.815 70.3021C319.864 70.2286 319.898 70.146 319.914 70.0591C319.931 69.9722 319.93 69.8828 319.911 69.7964C319.892 69.7099 319.856 69.6282 319.805 69.5562C319.052 68.4002 318.13 67.3639 317.07 66.4819C316.936 66.3755 316.766 66.3258 316.596 66.3433C316.425 66.3609 316.269 66.4443 316.159 66.5758C316.05 66.7073 315.996 66.8765 316.009 67.0472C316.023 67.2178 316.102 67.3765 316.231 67.4892C317.191 68.2868 318.025 69.2241 318.706 70.2696ZM319.689 85.1935C320.367 83.9869 320.904 82.7265 321.283 81.4451C321.332 81.2782 321.313 81.0985 321.23 80.9456C321.147 80.7928 321.006 80.6792 320.839 80.63C320.673 80.5808 320.493 80.5999 320.34 80.6832C320.187 80.7664 320.074 80.907 320.025 81.074C319.664 82.2845 319.168 83.4508 318.547 84.5508C318.117 85.3115 319.266 85.9463 319.688 85.1935H319.689ZM344.561 63.7094C344.391 63.6757 344.215 63.7096 344.07 63.8039C343.925 63.8982 343.822 64.0454 343.784 64.2143C343.515 65.4663 343.156 66.6975 342.712 67.8984C342.41 68.7168 343.642 69.1653 343.941 68.3548C344.407 67.0942 344.783 65.8022 345.066 64.4884C345.084 64.4041 345.085 64.317 345.07 64.2322C345.054 64.1474 345.022 64.0665 344.975 63.9941C344.928 63.9218 344.867 63.8594 344.796 63.8105C344.725 63.7617 344.646 63.7273 344.561 63.7094ZM295.14 92.8266C294.569 92.7129 294.001 92.5883 293.436 92.4528C293.352 92.4314 293.265 92.4271 293.179 92.44C293.094 92.453 293.012 92.483 292.938 92.5283C292.865 92.5735 292.801 92.6331 292.751 92.7035C292.701 92.7739 292.665 92.8537 292.646 92.9381C292.606 93.1071 292.635 93.2852 292.726 93.4332C292.817 93.5813 292.963 93.6871 293.131 93.7276C294.15 93.9702 295.474 94.5184 295.655 93.5964C295.688 93.426 295.653 93.2492 295.556 93.1049C295.46 92.9606 295.31 92.8605 295.14 92.8266ZM336.608 77.5853C335.717 78.5063 334.763 79.3639 333.753 80.152C333.069 80.6858 333.882 81.7127 334.559 81.1868C335.608 80.3697 336.615 79.4647 337.551 78.4968C337.611 78.435 337.658 78.3619 337.69 78.2817C337.722 78.2014 337.738 78.1157 337.737 78.0294C337.735 77.9431 337.717 77.8579 337.683 77.7787C337.648 77.6995 337.599 77.6278 337.537 77.5678C337.475 77.5078 337.401 77.4607 337.321 77.4291C337.241 77.3975 337.155 77.382 337.069 77.3837C336.983 77.3853 336.898 77.4039 336.818 77.4385C336.739 77.4731 336.668 77.523 336.608 77.5853ZM341.128 71.3975C340.525 72.5163 339.836 73.6101 339.081 74.6462C338.572 75.3479 339.625 76.1203 340.14 75.42C340.929 74.3356 341.645 73.1995 342.283 72.0192C342.359 71.8667 342.373 71.6906 342.322 71.528C342.27 71.3655 342.158 71.2294 342.008 71.1486C341.858 71.0677 341.682 71.0485 341.518 71.095C341.354 71.1415 341.215 71.25 341.129 71.3975H341.128ZM298.777 74.2252C298.863 74.2291 298.949 74.2159 299.03 74.1866C299.111 74.1572 299.185 74.1122 299.248 74.0541C299.312 73.996 299.363 73.9259 299.4 73.8479C299.436 73.77 299.457 73.6856 299.46 73.5996C299.521 72.3807 299.851 71.1903 300.425 70.1135C300.467 70.037 300.494 69.9528 300.504 69.8658C300.513 69.7788 300.505 69.6908 300.48 69.607C300.455 69.5232 300.413 69.4452 300.357 69.3777C300.302 69.3103 300.233 69.2546 300.156 69.2141C300.078 69.1736 299.993 69.149 299.906 69.1417C299.819 69.1345 299.731 69.1449 299.648 69.1721C299.565 69.1993 299.488 69.2429 299.422 69.3003C299.356 69.3577 299.302 69.4278 299.264 69.5063C298.601 70.7532 298.221 72.1312 298.152 73.5419C298.148 73.6278 298.161 73.7137 298.191 73.7946C298.22 73.8755 298.265 73.9498 298.323 74.0133C298.381 74.0767 298.451 74.1281 298.529 74.1645C298.607 74.2009 298.691 74.2215 298.777 74.2252ZM188.355 106.247C188.355 97.5782 181.316 90.5353 172.665 90.5353C164 90.5353 156.961 97.5782 156.961 106.247C156.961 114.904 164 121.946 172.665 121.946C181.316 121.946 188.355 114.904 188.355 106.247ZM176.361 113.028H169.099C168.526 113.028 168.116 112.623 168.116 112.044C168.116 111.484 168.507 111.035 169.099 111.035H171.891V101.946L169.492 103.113C168.016 103.759 167.366 101.894 168.562 101.277L171.76 99.6111C172.675 99.1534 174.028 99.4668 174.028 100.582V111.035H176.361C176.985 111.035 177.371 111.543 177.371 112.044C177.371 112.564 176.968 113.028 176.361 113.028ZM40.1276 105.088C40.0532 105.045 39.971 105.016 39.8857 105.005C39.8003 104.993 39.7135 104.999 39.6303 105.021C39.5471 105.043 39.4691 105.082 39.4008 105.134C39.3325 105.187 39.2752 105.252 39.2323 105.327L37.7576 107.866C37.7144 107.94 37.6863 108.023 37.6749 108.108C37.6634 108.193 37.6689 108.28 37.691 108.363C37.7131 108.447 37.7514 108.525 37.8036 108.593C37.8559 108.662 37.9211 108.719 37.9955 108.762C38.07 108.806 38.1522 108.834 38.2375 108.845C38.3229 108.857 38.4096 108.851 38.4928 108.829C38.576 108.807 38.654 108.769 38.7224 108.716C38.7908 108.664 38.8483 108.599 38.8915 108.524L40.3662 105.985C40.4095 105.911 40.4377 105.828 40.4491 105.743C40.4605 105.657 40.455 105.57 40.4329 105.487C40.4107 105.404 40.3723 105.326 40.32 105.257C40.2676 105.189 40.2022 105.131 40.1276 105.088ZM165.96 201.568C165.786 201.568 165.619 201.637 165.496 201.76C165.373 201.883 165.304 202.05 165.304 202.224V267.639C165.304 267.813 165.373 267.979 165.496 268.102C165.619 268.225 165.786 268.294 165.96 268.294C166.134 268.294 166.3 268.225 166.423 268.102C166.546 267.979 166.615 267.813 166.615 267.639V202.224C166.615 202.05 166.546 201.883 166.423 201.76C166.3 201.637 166.134 201.568 165.96 201.568ZM362.433 200.853C362.259 200.853 362.093 200.922 361.97 201.045C361.847 201.168 361.778 201.335 361.778 201.509V266.925C361.778 267.099 361.847 267.266 361.97 267.389C362.093 267.512 362.259 267.581 362.433 267.581C362.607 267.581 362.774 267.512 362.897 267.389C363.02 267.266 363.089 267.099 363.089 266.925V201.509C363.089 201.335 363.02 201.168 362.897 201.045C362.774 200.922 362.607 200.853 362.433 200.853ZM240.274 40.7891C240.415 40.8864 240.589 40.9246 240.757 40.8956C240.926 40.8665 241.077 40.7725 241.177 40.6337C241.278 40.4949 241.32 40.3222 241.295 40.1527C241.269 39.9832 241.179 39.8303 241.042 39.7268L236.329 36.322C236.259 36.2693 236.18 36.2309 236.095 36.2093C236.01 36.1876 235.922 36.1831 235.836 36.196C235.75 36.2089 235.667 36.2389 235.592 36.2842C235.517 36.3296 235.453 36.3894 235.402 36.4602C235.35 36.531 235.314 36.6113 235.294 36.6964C235.274 36.7815 235.272 36.8697 235.287 36.9557C235.301 37.0418 235.333 37.1241 235.38 37.1977C235.427 37.2713 235.489 37.3348 235.56 37.3844L240.274 40.7891ZM216.472 69.1955C216.939 69.3138 217.428 69.3087 217.892 69.1808C218.356 69.0528 218.779 68.8063 219.119 68.4655C219.46 68.1247 219.706 67.7012 219.833 67.2367C219.96 66.7722 219.965 66.2825 219.846 65.8157C219.725 65.3332 219.475 64.8927 219.124 64.5409C218.772 64.1892 218.332 63.9394 217.85 63.8182C217.383 63.6998 216.894 63.7045 216.43 63.8321C215.966 63.9597 215.542 64.2057 215.202 64.546C214.861 64.8863 214.615 65.3093 214.487 65.7735C214.359 66.2377 214.354 66.7272 214.471 67.1941C214.705 68.1646 215.502 68.9607 216.472 69.1955ZM308.225 10.1558C308.366 10.2531 308.539 10.2913 308.708 10.2622C308.877 10.2332 309.027 10.1392 309.128 10.0004C309.228 9.86151 309.27 9.68886 309.245 9.51936C309.22 9.34986 309.129 9.19698 308.993 9.09344L304.278 5.68871C304.208 5.63593 304.129 5.59759 304.044 5.57594C303.959 5.55429 303.871 5.54977 303.785 5.56265C303.699 5.57552 303.616 5.60552 303.541 5.65089C303.467 5.69627 303.402 5.7561 303.351 5.82688C303.299 5.89765 303.263 5.97794 303.243 6.06304C303.223 6.14813 303.221 6.23632 303.236 6.32241C303.25 6.4085 303.282 6.49076 303.329 6.56437C303.376 6.63798 303.438 6.70145 303.509 6.75105L308.225 10.1558ZM289 42.0023C290.993 40.3494 293.164 38.9225 295.471 37.7477C295.62 37.6652 295.731 37.5283 295.781 37.3657C295.831 37.203 295.816 37.0274 295.739 36.8757C295.662 36.724 295.529 36.6081 295.368 36.5523C295.208 36.4965 295.032 36.5051 294.877 36.5765C292.484 37.7955 290.233 39.2756 288.165 40.9898C288.03 41.1006 287.946 41.2601 287.929 41.4334C287.913 41.6067 287.965 41.7795 288.076 41.9137C288.187 42.048 288.346 42.1328 288.52 42.1494C288.693 42.166 288.865 42.1131 289 42.0023ZM344.383 26.0148C344.747 26.0146 345.107 25.9427 345.443 25.8033C345.779 25.6639 346.084 25.4596 346.341 25.2021C346.598 24.9447 346.802 24.6391 346.941 24.3028C347.08 23.9665 347.152 23.6061 347.151 23.2422C347.151 22.8783 347.079 22.5179 346.94 22.1818C346.801 21.8456 346.597 21.5402 346.339 21.283C346.082 21.0258 345.776 20.8218 345.44 20.6827C345.104 20.5436 344.744 20.4721 344.38 20.4722C343.646 20.4726 342.941 20.7649 342.422 21.2849C341.903 21.8048 341.611 22.5098 341.612 23.2448C341.612 23.9798 341.904 24.6845 342.424 25.204C342.944 25.7235 343.648 26.0151 344.383 26.0148ZM393.877 158.959C394.245 158.967 394.612 158.901 394.955 158.765C395.298 158.629 395.61 158.426 395.874 158.168C396.137 157.91 396.346 157.602 396.489 157.262C396.632 156.921 396.706 156.556 396.705 156.187C396.705 155.818 396.631 155.453 396.488 155.113C396.345 154.773 396.135 154.465 395.872 154.207C395.608 153.949 395.295 153.746 394.952 153.611C394.609 153.475 394.243 153.41 393.874 153.418C393.15 153.434 392.461 153.733 391.955 154.251C391.449 154.769 391.165 155.465 391.166 156.19C391.166 156.914 391.45 157.61 391.957 158.127C392.463 158.645 393.153 158.944 393.877 158.959ZM128.348 174.066C128.489 174.168 128.664 174.21 128.836 174.182C129.008 174.155 129.161 174.06 129.263 173.919C129.365 173.778 129.407 173.602 129.379 173.43C129.351 173.259 129.257 173.105 129.116 173.003L124.402 169.598C124.332 169.545 124.253 169.507 124.168 169.485C124.084 169.464 123.996 169.459 123.909 169.472C123.823 169.485 123.74 169.515 123.665 169.56C123.591 169.606 123.526 169.666 123.475 169.736C123.424 169.807 123.387 169.887 123.367 169.972C123.348 170.058 123.345 170.146 123.36 170.232C123.375 170.318 123.407 170.4 123.454 170.474C123.501 170.547 123.562 170.611 123.634 170.66L128.348 174.066ZM108.694 202.868C108.228 202.749 107.738 202.753 107.274 202.881C106.81 203.008 106.387 203.254 106.046 203.594C105.706 203.934 105.459 204.357 105.331 204.822C105.203 205.286 105.198 205.775 105.316 206.242C105.549 207.213 106.345 208.009 107.316 208.244C107.783 208.362 108.272 208.356 108.736 208.228C109.2 208.1 109.623 207.854 109.963 207.513C110.303 207.172 110.549 206.749 110.676 206.284C110.803 205.82 110.808 205.33 110.689 204.864C110.568 204.381 110.319 203.941 109.967 203.589C109.616 203.238 109.176 202.989 108.694 202.868ZM155.524 149.136C155.524 148.4 155.232 147.695 154.712 147.175C154.192 146.656 153.487 146.364 152.752 146.364C152.017 146.364 151.313 146.656 150.793 147.176C150.273 147.696 149.982 148.402 149.982 149.137C149.982 149.872 150.274 150.577 150.794 151.097C151.051 151.355 151.357 151.559 151.693 151.698C152.029 151.837 152.39 151.909 152.754 151.909C153.117 151.909 153.478 151.837 153.814 151.698C154.15 151.558 154.456 151.354 154.713 151.096C154.97 150.839 155.174 150.533 155.313 150.197C155.453 149.86 155.524 149.5 155.524 149.136ZM416.115 202.959C416.479 202.959 416.839 202.887 417.175 202.748C417.511 202.609 417.816 202.404 418.073 202.147C418.33 201.889 418.534 201.584 418.673 201.247C418.812 200.911 418.884 200.551 418.884 200.187C418.883 199.823 418.812 199.463 418.672 199.126C418.533 198.79 418.329 198.485 418.071 198.228C417.814 197.97 417.509 197.766 417.172 197.627C416.836 197.488 416.476 197.417 416.112 197.417C415.378 197.417 414.673 197.71 414.154 198.23C413.635 198.749 413.344 199.455 413.344 200.19C413.344 200.924 413.636 201.629 414.156 202.149C414.676 202.668 415.38 202.96 416.115 202.959ZM23.1522 64.6799C23.6188 64.7978 24.1081 64.7925 24.572 64.6643C25.036 64.5362 25.4587 64.2897 25.7989 63.949C26.139 63.6083 26.3849 63.1851 26.5124 62.7207C26.6399 62.2564 26.6447 61.7668 26.5263 61.3001C26.4051 60.818 26.1555 60.3779 25.8042 60.0264C25.4529 59.6749 25.013 59.4252 24.5312 59.3039C24.0647 59.1852 23.5755 59.1897 23.1113 59.3171C22.6472 59.4444 22.224 59.6903 21.8835 60.0305C21.5429 60.3708 21.2965 60.7937 21.1684 61.2579C21.0404 61.7221 21.0351 62.2116 21.1531 62.6785C21.3865 63.649 22.1821 64.4451 23.1522 64.6799ZM95.0232 8.19242C95.387 8.19216 95.7471 8.12022 96.0831 7.98071C96.419 7.84121 96.7242 7.63686 96.9812 7.37934C97.2383 7.12183 97.442 6.81618 97.581 6.47986C97.72 6.14353 97.7914 5.78312 97.7911 5.41919C97.7908 5.05527 97.7189 4.69496 97.5795 4.35883C97.4401 4.0227 97.2358 3.71735 96.9784 3.4602C96.7211 3.20304 96.4156 2.99913 96.0794 2.8601C95.7433 2.72107 95.383 2.64964 95.0193 2.6499C94.2847 2.65042 93.5804 2.9429 93.0613 3.46298C92.5423 3.98306 92.2509 4.68815 92.2515 5.42313C92.252 6.15811 92.5443 6.86278 93.0641 7.38213C93.5839 7.90147 94.2886 8.19294 95.0232 8.19242ZM93.7491 109.155C95.7425 107.502 97.9125 106.075 100.219 104.899C100.296 104.86 100.364 104.806 100.42 104.741C100.476 104.676 100.518 104.6 100.545 104.518C100.572 104.436 100.582 104.35 100.575 104.264C100.568 104.179 100.545 104.095 100.506 104.018C100.467 103.942 100.413 103.874 100.348 103.818C100.282 103.762 100.207 103.719 100.125 103.693C100.043 103.666 99.9572 103.656 99.8715 103.663C99.7858 103.669 99.7022 103.693 99.6256 103.732C97.2319 104.95 94.9806 106.431 92.9128 108.145C92.7804 108.257 92.6974 108.416 92.6819 108.588C92.6664 108.761 92.7197 108.932 92.83 109.065C92.9404 109.199 93.0989 109.283 93.2711 109.3C93.4433 109.316 93.6151 109.265 93.7491 109.155ZM419.3 130.945C420.426 130.012 421.608 129.15 422.84 128.364C422.915 128.319 422.981 128.259 423.033 128.189C423.085 128.118 423.122 128.037 423.143 127.952C423.163 127.866 423.166 127.778 423.151 127.691C423.137 127.604 423.105 127.522 423.058 127.448C423.011 127.373 422.949 127.31 422.877 127.26C422.805 127.21 422.723 127.175 422.637 127.158C422.551 127.14 422.462 127.14 422.376 127.157C422.29 127.174 422.208 127.209 422.136 127.258C420.859 128.074 419.633 128.968 418.465 129.934C418.331 130.044 418.247 130.204 418.23 130.377C418.214 130.55 418.267 130.723 418.378 130.857C418.488 130.991 418.648 131.076 418.821 131.092C418.994 131.109 419.166 131.056 419.3 130.945ZM406.155 87.0991C406.296 87.2011 406.472 87.2428 406.644 87.2151C406.815 87.1874 406.969 87.0926 407.071 86.9516C407.173 86.8105 407.214 86.6348 407.187 86.463C407.159 86.2912 407.064 86.1374 406.923 86.0355L402.21 82.6294C402.14 82.5767 402.061 82.5383 401.976 82.5167C401.891 82.495 401.803 82.4905 401.717 82.5034C401.631 82.5163 401.548 82.5463 401.473 82.5916C401.399 82.637 401.334 82.6968 401.283 82.7676C401.231 82.8384 401.195 82.9187 401.175 83.0038C401.155 83.0889 401.153 83.1771 401.168 83.2631C401.182 83.3492 401.214 83.4315 401.261 83.5051C401.308 83.5787 401.37 83.6422 401.441 83.6918L406.155 87.0991ZM378.858 118.854C378.913 118.921 378.98 118.976 379.056 119.016C379.133 119.057 379.216 119.082 379.302 119.09C379.388 119.099 379.474 119.09 379.557 119.065C379.639 119.039 379.716 118.998 379.782 118.943C381.776 117.29 383.946 115.863 386.254 114.688C386.403 114.606 386.514 114.469 386.564 114.306C386.613 114.144 386.598 113.968 386.521 113.816C386.444 113.665 386.312 113.549 386.151 113.493C385.991 113.437 385.815 113.446 385.66 113.517C383.267 114.736 381.016 116.216 378.947 117.931C378.881 117.985 378.826 118.053 378.785 118.129C378.745 118.205 378.72 118.288 378.712 118.374C378.703 118.459 378.712 118.546 378.737 118.628C378.762 118.711 378.803 118.787 378.858 118.854ZM204.016 28.7847C204.717 29.2936 205.487 28.2273 204.784 27.7224L200.071 24.315C200.001 24.2622 199.922 24.2239 199.837 24.2023C199.752 24.1806 199.664 24.1761 199.578 24.189C199.492 24.2018 199.409 24.2318 199.334 24.2772C199.259 24.3226 199.195 24.3824 199.143 24.4532C199.092 24.524 199.056 24.6043 199.036 24.6894C199.016 24.7744 199.014 24.8626 199.029 24.9487C199.043 25.0348 199.075 25.1171 199.122 25.1907C199.169 25.2643 199.23 25.3278 199.302 25.3774L204.016 28.7847ZM54.8851 21.1687C55.0261 21.266 55.1996 21.3042 55.3684 21.2751C55.5372 21.2461 55.6879 21.1521 55.7883 21.0132C55.8887 20.8744 55.9308 20.7018 55.9055 20.5323C55.8803 20.3628 55.7898 20.2099 55.6533 20.1063L50.9395 16.7003C50.8699 16.6475 50.7905 16.6092 50.7059 16.5875C50.6213 16.5659 50.5333 16.5614 50.4469 16.5742C50.3606 16.5871 50.2776 16.6171 50.203 16.6625C50.1284 16.7078 50.0636 16.7677 50.0125 16.8385C49.9613 16.9092 49.9248 16.9895 49.905 17.0746C49.8853 17.1597 49.8827 17.2479 49.8975 17.334C49.9123 17.4201 49.9442 17.5023 49.9912 17.576C50.0382 17.6496 50.0995 17.713 50.1713 17.7626L54.8851 21.1687Z" fill="#CE0606"/>
</svg>
