<svg width="555" height="487" viewBox="0 0 555 487" fill="none" xmlns="http://www.w3.org/2000/svg">
<path d="M545.551 154.162C534.283 194.624 522.972 235.074 511.704 275.536C506.087 295.642 500.069 316.551 487.741 331.116C471.311 350.508 447.174 354.663 424.682 356.027C392.146 358.072 76.754 359.956 60.0747 356.027C39.8996 351.223 9.90673 333.757 3.19578 305.588C-0.885187 288.576 6.075 269.639 17.1042 258.59C28.1443 247.596 42.4754 243.202 56.4814 241.351C69.0147 239.684 81.9923 239.727 93.6283 233.603C105.296 227.511 115.427 212.955 113.663 197.232C112.342 185.62 105.145 176.627 101.01 166.151C92.0484 143.459 98.0658 115.788 107.872 93.7012C125.892 53.1736 156.568 21.8677 191.777 8.10243C226.954 -5.65094 266.288 -1.76615 299.333 18.7729C315.503 28.8257 330.31 42.6993 347.552 49.355C371.483 58.6178 397.33 52.9472 421.705 45.6544C446.091 38.393 470.823 29.5409 495.75 32.7224C520.666 35.9353 546.308 54.5704 553.019 84.9683C558.084 107.77 551.794 131.858 545.551 154.161V154.162Z" fill="#CE0606" fill-opacity="0.2"/>
<path d="M551.852 459.354C531.044 512.088 314.238 474.598 288.644 466.765L288.546 466.732C282.873 464.98 276.854 464.709 271.061 466.05C235.647 474.263 193.812 479.976 154.295 479.976C59.0624 479.976 13.3093 446.793 13.3093 425.489C13.3093 418.9 33.3492 421.388 33.6743 407.269C34.0645 391.029 4.7982 388.216 0.328031 376.541C-7.33759 356.493 121.891 357.152 121.891 357.152H362.905C362.905 357.152 538.2 351.97 549.31 374.604C560.395 397.25 463.571 406.955 463.571 406.955C463.571 406.955 561.456 435.021 551.852 459.354Z" fill="#CE0606" fill-opacity="0.2"/>
<path d="M37.7979 133.029V345.037C37.797 346.628 38.1108 348.202 38.7214 349.672C39.332 351.141 40.2274 352.476 41.3564 353.6C42.4854 354.725 43.8258 355.617 45.3011 356.225C46.7764 356.833 48.3575 357.145 49.9541 357.145H58.2925V120.952H49.9139C43.6225 120.952 38.4537 125.723 37.8577 131.841C37.8185 132.237 37.7979 132.632 37.7979 133.029Z" fill="#B30909"/>
<path d="M320.571 179.748H316.238V178.664H320.571V179.748ZM311.906 179.748H307.573V178.664H311.906V179.748ZM303.24 179.748H298.908V178.664H303.24V179.748ZM294.575 179.748H290.242V178.664H294.575V179.748ZM285.91 179.748H281.577V178.664H285.91V179.748ZM277.245 179.748H272.912V178.664H277.245V179.748ZM268.579 179.748H264.247V178.664H268.579V179.748ZM321.195 174.952H320.112V170.616H321.195V174.952ZM321.195 166.28H320.112V161.943H321.195V166.28ZM321.195 157.607H320.112V153.271H321.195V157.607ZM321.195 148.934H320.112V144.598H321.195V148.934ZM321.195 140.262H320.112V135.925H321.195V140.262ZM321.195 131.589H320.112V127.253H321.195V131.589ZM321.195 122.916H320.112V118.58H321.195V122.916ZM321.195 114.244H320.112V109.907H321.195V114.244ZM321.195 105.571H320.112V101.235H321.195V105.571ZM321.195 96.8983H320.112V92.562H321.195V96.8983Z" fill="#729FE9"/>
<path d="M43.0054 133.068V345.037C43.0045 346.627 43.3171 348.202 43.9254 349.671C44.5336 351.14 45.4255 352.475 46.5501 353.6C47.6746 354.724 49.0098 355.616 50.4794 356.224C51.9489 356.833 53.5239 357.145 55.1144 357.145H278.165C284.859 357.145 290.285 351.729 290.285 345.037V133.068C290.285 126.377 284.859 120.952 278.165 120.952H55.1144C48.4211 120.952 43.0054 126.377 43.0054 133.068Z" fill="white"/>
<path d="M43.0054 133.042V145.479H290.285V133.042C290.285 126.361 284.889 120.952 278.215 120.952H55.0765C48.4125 120.952 43.0054 126.363 43.0054 133.042Z" fill="url(#paint0_linear_64_4123)"/>
<path d="M73.8041 133.719C73.7956 134.223 73.8885 134.724 74.0773 135.192C74.2662 135.661 74.5474 136.087 74.9043 136.447C75.2613 136.806 75.6869 137.092 76.1565 137.287C76.626 137.482 77.13 137.582 77.6391 137.582C78.1482 137.582 78.6522 137.482 79.1217 137.287C79.5913 137.092 80.0169 136.806 80.3739 136.447C80.7308 136.087 81.012 135.661 81.2009 135.192C81.3898 134.724 81.4826 134.223 81.4741 133.719C81.4826 133.214 81.3898 132.713 81.2009 132.245C81.012 131.777 80.7308 131.35 80.3739 130.991C80.0169 130.631 79.5913 130.345 79.1217 130.15C78.6522 129.955 78.1482 129.855 77.6391 129.855C77.13 129.855 76.626 129.955 76.1565 130.15C75.6869 130.345 75.2613 130.631 74.9043 130.991C74.5474 131.35 74.2662 131.777 74.0773 132.245C73.8885 132.713 73.7956 133.214 73.8041 133.719ZM63.3608 133.719C63.3523 134.223 63.4452 134.724 63.6341 135.192C63.823 135.661 64.1041 136.087 64.4611 136.447C64.818 136.806 65.2437 137.092 65.7132 137.287C66.1827 137.482 66.6867 137.582 67.1958 137.582C67.7049 137.582 68.2089 137.482 68.6785 137.287C69.148 137.092 69.5737 136.806 69.9306 136.447C70.2876 136.087 70.5687 135.661 70.7576 135.192C70.9465 134.724 71.0394 134.223 71.0308 133.719C71.0394 133.214 70.9465 132.713 70.7576 132.245C70.5687 131.777 70.2876 131.35 69.9306 130.991C69.5737 130.631 69.148 130.345 68.6785 130.15C68.2089 129.955 67.7049 129.855 67.1958 129.855C66.6867 129.855 66.1827 129.955 65.7132 130.15C65.2437 130.345 64.818 130.631 64.4611 130.991C64.1041 131.35 63.823 131.777 63.6341 132.245C63.4452 132.713 63.3523 133.214 63.3608 133.719ZM52.9165 133.719C52.9165 134.727 53.3206 135.693 54.0399 136.406C54.7592 137.118 55.7348 137.519 56.752 137.519C57.7693 137.519 58.7449 137.118 59.4642 136.406C60.1835 135.693 60.5876 134.727 60.5876 133.719C60.5876 132.711 60.1835 131.744 59.4642 131.032C58.7449 130.319 57.7693 129.919 56.752 129.919C55.7348 129.919 54.7592 130.319 54.0399 131.032C53.3206 131.744 52.9165 132.711 52.9165 133.719Z" fill="white"/>
<path d="M274.662 0C254.943 0 238.115 12.347 231.466 29.7251C231.249 29.7034 231.043 29.7034 230.826 29.7034C215.678 29.7034 203.105 40.7732 200.82 55.2836C200.679 55.262 200.56 55.262 200.43 55.262C187.209 55.262 176.466 65.9753 176.466 79.2096C176.466 92.4211 187.209 103.145 200.43 103.145H189.601C176.379 103.145 165.637 92.4211 165.637 79.2096C165.637 65.9753 176.379 55.262 189.601 55.262C189.731 55.262 189.851 55.262 189.992 55.2836C192.276 40.7732 204.849 29.7034 219.998 29.7034C220.215 29.7034 220.421 29.7034 220.638 29.7251C227.286 12.347 244.114 0 263.834 0H274.662Z" fill="url(#paint1_linear_64_4123)"/>
<path d="M351.265 66.7766C351.265 86.8492 334.984 103.145 314.893 103.145H194.129C180.912 103.145 170.173 92.4221 170.173 79.2104C170.173 65.976 180.912 55.2626 194.129 55.2626C194.259 55.2626 194.379 55.2626 194.52 55.2842C196.803 40.7736 209.37 29.7038 224.515 29.7038C224.732 29.7038 224.937 29.7038 225.154 29.7254C231.8 12.3471 248.622 0 268.334 0C288.349 0 305.41 12.7361 311.807 30.5477C312.825 30.4502 313.843 30.4177 314.893 30.4177C334.984 30.4177 351.264 46.6931 351.264 66.7766H351.265Z" fill="#CE0606"/>
<path d="M228.075 80.4802V70.1692C228.075 68.2446 227.62 66.8842 223.576 66.2095C222.463 66.0145 221.914 65.2921 221.914 64.2556C221.914 63.2223 222.458 62.4977 223.576 62.3006C224.946 62.0732 225.955 61.7547 226.608 61.3475C227.659 60.6901 228.075 60.0836 228.075 58.342V48.0299C228.075 43.6229 230.519 42.165 234.921 42.165H235.507C236.426 42.165 237.219 42.9557 237.219 43.8763C237.219 44.7893 236.432 45.5865 235.507 45.5865H234.773C233.057 45.5865 231.889 45.9006 231.889 47.6389V58.4882C231.889 61.2576 230.421 63.1801 227.488 64.2556C230.421 65.33 231.888 67.2525 231.888 70.0219V80.8712C231.888 82.6095 233.057 82.9236 234.773 82.9236H235.507C236.425 82.9236 237.219 83.7142 237.219 84.6349C237.219 85.5566 236.423 86.3461 235.507 86.3461H234.921C230.532 86.3461 228.075 84.8948 228.075 80.4802ZM299.285 86.345H298.698C297.782 86.345 296.986 85.5555 296.986 84.6338C296.986 83.7164 297.778 82.9236 298.698 82.9236H299.432C301.149 82.9236 302.316 82.6095 302.316 80.8712V70.0219C302.316 67.2525 303.784 65.33 306.717 64.2556C303.784 63.1801 302.318 61.2576 302.318 58.4882V47.6389C302.318 45.9006 301.149 45.5865 299.432 45.5865H298.698C297.783 45.5865 296.986 44.7991 296.986 43.8752C296.986 42.9578 297.778 42.165 298.698 42.165H299.284C303.684 42.165 306.131 43.6229 306.131 48.0299V58.3409C306.131 61.0421 307.75 61.8219 310.629 62.3006C311.742 62.4956 312.292 63.218 312.292 64.2556C312.292 65.2878 311.748 66.0123 310.629 66.2095C307.747 66.6904 306.131 67.4962 306.131 70.1681V80.4802C306.131 84.8959 303.674 86.345 299.284 86.345H299.285ZM242.108 75.3832C241.698 74.9575 241.572 74.3802 241.863 73.686L250.19 54.041C250.545 53.2374 251.187 52.7023 252.083 52.7023H252.409C253.304 52.7023 253.945 53.2352 254.303 54.041L262.629 73.686C263.126 74.8763 262.347 75.8077 261.323 75.8077C260.7 75.8077 260.176 75.4503 259.919 74.8936L257.797 69.8031H246.696L244.573 74.8936C244.082 75.9561 242.759 76.059 242.108 75.3832ZM247.838 67.0943H256.654L252.247 56.4888L247.838 67.0943ZM267.592 74.3391V54.367C267.592 53.558 268.207 52.8659 269.061 52.8659H276.506C282.401 52.8659 285.224 55.9732 285.224 60.1106C285.224 64.1386 282.499 67.3554 276.506 67.3554H270.564V74.3391C270.564 75.1947 269.87 75.8077 269.061 75.8077C268.239 75.8077 267.592 75.1796 267.592 74.3391ZM276.212 64.548C279.554 64.548 282.252 63.4368 282.252 60.1106C282.252 56.791 279.563 55.6722 276.212 55.6722H270.564V64.5491H276.212V64.548ZM289.535 74.3391V54.2046C289.535 53.3934 290.15 52.7023 291.003 52.7023C291.835 52.7023 292.506 53.3717 292.506 54.2035V74.3391C292.506 75.1947 291.812 75.8077 291.003 75.8077C290.18 75.8077 289.535 75.1796 289.535 74.3391Z" fill="white"/>
<path d="M320.439 183.276C324.104 183.276 327.074 180.305 327.074 176.64C327.074 172.975 324.104 170.004 320.439 170.004C316.774 170.004 313.803 172.975 313.803 176.64C313.803 180.305 316.774 183.276 320.439 183.276Z" fill="#EA4335"/>
<path d="M320.439 133.719C322.898 133.719 324.891 131.726 324.891 129.267C324.891 126.809 322.898 124.815 320.439 124.815C317.98 124.815 315.987 126.809 315.987 129.267C315.987 131.726 317.98 133.719 320.439 133.719Z" fill="#EA4335"/>
<path d="M187.476 163.79H184.841C182.683 163.79 180.924 165.567 180.924 167.733V280.461C180.923 280.978 181.024 281.491 181.22 281.969C181.416 282.448 181.704 282.882 182.068 283.249C182.432 283.615 182.864 283.906 183.34 284.105C183.815 284.303 184.325 284.405 184.841 284.406H187.476V163.79Z" fill="#B00909"/>
<path d="M275.837 167.733V280.461C275.838 280.979 275.738 281.493 275.54 281.972C275.343 282.451 275.053 282.887 274.687 283.254C274.321 283.62 273.886 283.911 273.408 284.109C272.929 284.306 272.416 284.407 271.898 284.406H187.54C187.024 284.405 186.512 284.303 186.035 284.105C185.558 283.906 185.124 283.615 184.759 283.249C184.394 282.882 184.105 282.448 183.908 281.969C183.711 281.491 183.611 280.978 183.612 280.461V167.733C183.612 165.567 185.376 163.79 187.54 163.79H271.898C272.943 163.79 273.945 164.205 274.684 164.945C275.422 165.684 275.837 166.687 275.838 167.733H275.837Z" fill="#CE0606"/>
<path d="M245.613 186.132H230.635C230.416 186.132 230.206 186.043 230.051 185.886C229.896 185.728 229.809 185.514 229.809 185.292C229.809 185.069 229.896 184.855 230.051 184.698C230.206 184.54 230.416 184.452 230.635 184.452H245.613C245.832 184.452 246.042 184.54 246.197 184.698C246.352 184.855 246.44 185.069 246.44 185.292C246.44 185.514 246.352 185.728 246.197 185.886C246.042 186.043 245.832 186.132 245.613 186.132Z" fill="white"/>
<path d="M230.669 186.132H208.79C208.573 186.132 208.364 186.043 208.21 185.886C208.057 185.728 207.97 185.514 207.97 185.292C207.97 185.069 208.057 184.855 208.21 184.698C208.364 184.54 208.573 184.452 208.79 184.452H230.669C230.886 184.452 231.095 184.54 231.248 184.698C231.402 184.855 231.489 185.069 231.489 185.292C231.489 185.514 231.402 185.728 231.248 185.886C231.095 186.043 230.886 186.132 230.669 186.132Z" fill="white"/>
<path d="M245.613 193.188H230.635C230.416 193.188 230.206 193.099 230.051 192.942C229.896 192.784 229.809 192.571 229.809 192.348C229.809 192.125 229.896 191.911 230.051 191.754C230.206 191.596 230.416 191.508 230.635 191.508H245.613C245.832 191.508 246.042 191.596 246.197 191.754C246.352 191.911 246.44 192.125 246.44 192.348C246.44 192.571 246.352 192.784 246.197 192.942C246.042 193.099 245.832 193.188 245.613 193.188Z" fill="white"/>
<path d="M230.716 193.16H217.025C216.807 193.16 216.597 193.073 216.443 192.918C216.289 192.763 216.202 192.553 216.202 192.334C216.202 192.115 216.289 191.905 216.443 191.75C216.597 191.595 216.807 191.508 217.025 191.508H230.716C230.934 191.508 231.143 191.595 231.297 191.75C231.452 191.905 231.538 192.115 231.538 192.334C231.538 192.553 231.452 192.763 231.297 192.918C231.143 193.073 230.934 193.16 230.716 193.16ZM244.778 200.243H231.087C230.869 200.243 230.66 200.156 230.506 200.001C230.352 199.847 230.265 199.636 230.265 199.417C230.265 199.198 230.352 198.988 230.506 198.834C230.66 198.679 230.869 198.592 231.087 198.592H244.778C244.996 198.592 245.205 198.679 245.359 198.834C245.514 198.988 245.6 199.198 245.6 199.417C245.6 199.636 245.514 199.847 245.359 200.001C245.205 200.156 244.996 200.243 244.778 200.243Z" fill="white"/>
<path d="M231.096 200.212H208.792C208.574 200.212 208.365 200.125 208.211 199.97C208.057 199.816 207.97 199.606 207.97 199.387C207.97 199.169 208.057 198.959 208.211 198.804C208.365 198.65 208.574 198.563 208.792 198.563H231.096C231.313 198.563 231.522 198.65 231.676 198.804C231.831 198.959 231.917 199.169 231.917 199.387C231.917 199.606 231.831 199.816 231.676 199.97C231.522 200.125 231.313 200.212 231.096 200.212ZM244.778 207.283H218.159C217.941 207.283 217.732 207.196 217.577 207.041C217.423 206.887 217.337 206.677 217.337 206.458C217.337 206.239 217.423 206.029 217.577 205.875C217.732 205.72 217.941 205.633 218.159 205.633H244.778C244.996 205.633 245.205 205.72 245.359 205.875C245.513 206.029 245.6 206.239 245.6 206.458C245.6 206.677 245.513 206.887 245.359 207.041C245.205 207.196 244.996 207.283 244.778 207.283ZM244.778 214.354H230.258C230.04 214.354 229.831 214.267 229.677 214.112C229.523 213.958 229.436 213.748 229.436 213.529C229.436 213.31 229.523 213.1 229.677 212.946C229.831 212.791 230.04 212.704 230.258 212.704H244.778C244.996 212.704 245.205 212.791 245.359 212.946C245.513 213.1 245.6 213.31 245.6 213.529C245.6 213.748 245.513 213.958 245.359 214.112C245.205 214.267 244.996 214.354 244.778 214.354Z" fill="white"/>
<path d="M230.209 214.326H215.849C215.631 214.326 215.422 214.239 215.267 214.084C215.113 213.929 215.026 213.719 215.026 213.5C215.026 213.28 215.113 213.07 215.267 212.915C215.422 212.76 215.631 212.673 215.849 212.673H230.209C230.428 212.673 230.637 212.76 230.792 212.915C230.946 213.07 231.033 213.28 231.033 213.5C231.033 213.719 230.946 213.929 230.792 214.084C230.637 214.239 230.428 214.326 230.209 214.326ZM254.352 221.409H230.209C229.991 221.409 229.781 221.322 229.627 221.167C229.472 221.012 229.386 220.802 229.386 220.582C229.386 220.363 229.472 220.153 229.627 219.998C229.781 219.843 229.991 219.756 230.209 219.756H254.352C254.57 219.756 254.78 219.843 254.934 219.998C255.088 220.153 255.175 220.363 255.175 220.582C255.175 220.802 255.088 221.012 254.934 221.167C254.78 221.322 254.57 221.409 254.352 221.409Z" fill="white"/>
<path d="M220.765 221.382H208.792C208.574 221.382 208.365 221.295 208.211 221.14C208.057 220.985 207.97 220.775 207.97 220.556C207.97 220.337 208.057 220.126 208.211 219.972C208.365 219.817 208.574 219.729 208.792 219.729H220.765C220.983 219.729 221.192 219.817 221.346 219.972C221.5 220.126 221.587 220.337 221.587 220.556C221.587 220.775 221.5 220.985 221.346 221.14C221.192 221.295 220.983 221.382 220.765 221.382ZM244.778 228.465H229.793C229.575 228.465 229.366 228.378 229.211 228.223C229.057 228.068 228.971 227.858 228.971 227.639C228.971 227.419 229.057 227.209 229.211 227.054C229.366 226.899 229.575 226.812 229.793 226.812H244.778C244.996 226.812 245.205 226.899 245.359 227.054C245.513 227.209 245.6 227.419 245.6 227.639C245.6 227.858 245.513 228.068 245.359 228.223C245.205 228.378 244.996 228.465 244.778 228.465Z" fill="white"/>
<path d="M229.824 228.465H208.793C208.575 228.465 208.366 228.376 208.211 228.219C208.057 228.061 207.97 227.847 207.97 227.625C207.97 227.402 208.057 227.188 208.211 227.031C208.366 226.873 208.575 226.785 208.793 226.785H229.825C230.044 226.785 230.253 226.873 230.408 227.031C230.562 227.188 230.649 227.402 230.649 227.625C230.649 227.847 230.562 228.061 230.408 228.219C230.253 228.376 230.043 228.465 229.824 228.465Z" fill="white"/>
<path d="M254.354 235.521H239.029C238.811 235.521 238.602 235.432 238.448 235.275C238.294 235.117 238.208 234.904 238.208 234.681C238.208 234.458 238.294 234.244 238.448 234.087C238.602 233.929 238.811 233.841 239.029 233.841H254.354C254.572 233.841 254.781 233.929 254.935 234.087C255.088 234.244 255.175 234.458 255.175 234.681C255.175 234.904 255.088 235.117 254.935 235.275C254.781 235.432 254.572 235.521 254.354 235.521Z" fill="white"/>
<path d="M223.65 235.493H208.792C208.574 235.493 208.365 235.406 208.211 235.251C208.057 235.096 207.97 234.886 207.97 234.667C207.97 234.448 208.057 234.238 208.211 234.083C208.365 233.928 208.574 233.841 208.792 233.841H223.65C223.868 233.841 224.077 233.928 224.231 234.083C224.385 234.238 224.472 234.448 224.472 234.667C224.472 234.886 224.385 235.096 224.231 235.251C224.077 235.406 223.868 235.493 223.65 235.493ZM254.354 242.576H239.378C239.16 242.576 238.951 242.489 238.797 242.334C238.643 242.18 238.557 241.97 238.557 241.751C238.557 241.532 238.643 241.321 238.797 241.167C238.951 241.012 239.16 240.925 239.378 240.925H254.354C254.571 240.925 254.78 241.012 254.934 241.167C255.089 241.321 255.175 241.532 255.175 241.751C255.175 241.97 255.089 242.18 254.934 242.334C254.78 242.489 254.571 242.576 254.354 242.576Z" fill="white"/>
<path d="M223.649 242.548H208.792C208.574 242.548 208.365 242.461 208.211 242.306C208.057 242.151 207.97 241.941 207.97 241.722C207.97 241.503 208.057 241.293 208.211 241.138C208.365 240.983 208.574 240.896 208.792 240.896H223.649C223.867 240.896 224.076 240.983 224.23 241.138C224.384 241.293 224.471 241.503 224.471 241.722C224.471 241.941 224.384 242.151 224.23 242.306C224.076 242.461 223.867 242.548 223.649 242.548ZM254.353 249.631H229.791C229.573 249.631 229.364 249.544 229.21 249.389C229.056 249.234 228.969 249.024 228.969 248.805C228.969 248.586 229.056 248.376 229.21 248.221C229.364 248.066 229.573 247.979 229.791 247.979H254.353C254.571 247.979 254.78 248.066 254.934 248.221C255.089 248.376 255.175 248.586 255.175 248.805C255.175 249.024 255.089 249.234 254.934 249.389C254.78 249.544 254.571 249.631 254.353 249.631Z" fill="white"/>
<path d="M222.263 249.605H208.793C208.575 249.605 208.365 249.518 208.211 249.363C208.057 249.208 207.97 248.998 207.97 248.778C207.97 248.559 208.057 248.349 208.211 248.194C208.365 248.039 208.575 247.952 208.793 247.952H222.264C222.482 247.952 222.691 248.039 222.845 248.194C223 248.349 223.086 248.559 223.086 248.778C223.086 248.998 223 249.208 222.845 249.363C222.691 249.518 222.482 249.605 222.264 249.605H222.263ZM246.289 256.688H230.271C230.053 256.688 229.844 256.601 229.69 256.446C229.536 256.291 229.449 256.08 229.449 255.861C229.449 255.642 229.536 255.432 229.69 255.277C229.844 255.122 230.053 255.035 230.271 255.035H246.289C246.507 255.035 246.716 255.122 246.871 255.277C247.025 255.432 247.112 255.642 247.112 255.861C247.112 256.08 247.025 256.291 246.871 256.446C246.716 256.601 246.507 256.688 246.289 256.688Z" fill="white"/>
<path d="M230.166 256.687H208.789C208.572 256.687 208.364 256.599 208.21 256.441C208.056 256.284 207.97 256.07 207.97 255.847C207.97 255.624 208.056 255.411 208.21 255.253C208.364 255.096 208.572 255.007 208.789 255.007H230.166C230.383 255.007 230.591 255.096 230.745 255.253C230.898 255.411 230.985 255.624 230.985 255.847C230.985 256.07 230.898 256.284 230.745 256.441C230.591 256.599 230.383 256.687 230.166 256.687Z" fill="white"/>
<path d="M244.776 263.743H221.73C221.511 263.743 221.302 263.654 221.147 263.497C220.993 263.339 220.906 263.126 220.906 262.903C220.906 262.68 220.993 262.467 221.147 262.309C221.302 262.151 221.511 262.063 221.73 262.063H244.776C244.995 262.063 245.204 262.151 245.359 262.309C245.513 262.467 245.6 262.68 245.6 262.903C245.6 263.126 245.513 263.339 245.359 263.497C245.204 263.654 244.995 263.743 244.776 263.743Z" fill="white"/>
<path d="M257.294 267.775H256.707C255.792 267.775 254.996 266.985 254.996 266.063C254.996 265.145 255.789 264.35 256.707 264.35H257.44C259.157 264.35 260.325 264.036 260.325 262.298V229.794C260.325 227.025 261.79 225.1 264.722 224.025C261.79 222.949 260.325 221.025 260.325 218.255V185.751C260.325 184.013 259.157 183.698 257.44 183.698H256.707C255.793 183.698 254.996 182.911 254.996 181.985C254.996 181.067 255.789 180.274 256.707 180.274H257.294C261.691 180.274 264.136 181.734 264.136 186.142V218.108C264.136 220.81 265.754 221.59 268.632 222.069C269.745 222.265 270.294 222.987 270.294 224.025C270.294 225.058 269.75 225.784 268.632 225.98C265.751 226.461 264.136 227.267 264.136 229.941V261.907C264.136 266.325 261.681 267.775 257.294 267.775ZM195.417 261.906V229.941C195.417 227.239 193.799 226.461 190.921 225.98C189.808 225.785 189.258 225.062 189.258 224.025C189.258 222.991 189.803 222.266 190.921 222.069C194.937 221.4 195.417 220.072 195.417 218.108V186.142C195.417 181.734 197.86 180.274 202.259 180.274H202.846C203.763 180.274 204.556 181.066 204.556 181.986C204.556 182.901 203.769 183.698 202.845 183.698H202.113C200.396 183.698 199.228 184.012 199.228 185.751V218.255C199.228 221.025 197.763 222.949 194.831 224.025C197.763 225.1 199.228 227.025 199.228 229.794V262.298C199.228 264.037 200.396 264.351 202.113 264.351H202.846C203.762 264.351 204.556 265.143 204.556 266.064C204.556 266.986 203.76 267.775 202.845 267.775H202.26C197.873 267.775 195.417 266.324 195.417 261.906ZM68.0701 163.79H64.601C63.1953 163.79 61.8474 164.349 60.8535 165.344C59.8595 166.338 59.3009 167.687 59.3003 169.093V229.394C59.2997 230.09 59.4364 230.78 59.7026 231.424C59.9688 232.067 60.3592 232.652 60.8516 233.145C61.3439 233.637 61.9284 234.028 62.5718 234.294C63.2152 234.561 63.9047 234.698 64.601 234.697H68.069V163.791L68.0701 163.79Z" fill="#A40A0A"/>
<path d="M163.116 169.092V229.379C163.117 230.075 162.98 230.765 162.714 231.409C162.448 232.052 162.057 232.637 161.565 233.13C161.073 233.622 160.489 234.013 159.845 234.279C159.202 234.545 158.513 234.682 157.817 234.681H68.1256C67.4297 234.681 66.7405 234.545 66.0975 234.278C65.4545 234.012 64.8702 233.622 64.3781 233.129C63.886 232.637 63.4958 232.052 63.2298 231.408C62.9637 230.765 62.8271 230.075 62.8276 229.379V169.092C62.8282 167.686 63.3866 166.337 64.38 165.343C65.3735 164.349 66.7207 163.79 68.1256 163.79H157.818C159.223 163.79 160.571 164.349 161.564 165.343C162.558 166.337 163.116 167.686 163.117 169.092H163.116Z" fill="#CE0606"/>
<path d="M140.422 205.718L143.784 201.129L140.457 198.668C141.332 196.828 141.825 194.827 141.908 192.789L145.983 192.167L145.119 186.51L141.06 187.13C140.384 185.205 139.323 183.439 137.944 181.94L140.38 178.616L135.804 175.231L133.369 178.555C131.534 177.679 129.542 177.187 127.512 177.108L126.895 173.028L121.273 173.888L121.892 177.982C119.977 178.662 118.222 179.73 116.736 181.121L113.408 178.659L110.047 183.247L113.365 185.701C112.493 187.542 111.999 189.542 111.914 191.58L107.849 192.208L108.711 197.849L112.761 197.24C113.437 199.164 114.5 200.927 115.884 202.419L113.448 205.744L118.025 209.128L120.461 205.803C122.293 206.691 124.287 207.189 126.32 207.269L126.934 211.33L132.559 210.489L131.94 206.394C133.854 205.713 135.608 204.645 137.095 203.256L140.422 205.718ZM122.635 198.02C121.097 196.88 120.072 195.174 119.785 193.276C119.498 191.378 119.973 189.443 121.105 187.896C123.465 184.675 127.987 183.967 131.194 186.338C134.409 188.719 135.081 193.268 132.72 196.489C130.367 199.702 125.851 200.399 122.636 198.02H122.635Z" fill="#F5F5F5"/>
<path d="M109.377 217.181L110.872 212.759L107.65 211.667C107.878 209.981 107.765 208.296 107.326 206.716L110.37 205.212L108.284 201.011L105.254 202.509C104.245 201.175 102.974 200.061 101.52 199.235L102.604 196.031L98.1733 194.531L97.0896 197.735C95.4324 197.51 93.7468 197.624 92.1348 198.069L90.6371 195.039L86.4398 197.114L87.9429 200.157C86.6104 201.166 85.5 202.439 84.6809 203.896L81.4579 202.804L79.9624 207.227L83.1746 208.314C82.9479 209.97 83.0582 211.655 83.4986 213.267L80.4653 214.774L82.5438 218.962L85.5707 217.474C86.5792 218.807 87.8516 219.918 89.3084 220.737L88.2247 223.942L92.655 225.441L93.7387 222.237C95.4315 222.479 97.1091 222.351 98.7 221.916L100.191 224.934L104.396 222.871L102.891 219.829C104.223 218.818 105.334 217.546 106.155 216.09L109.377 217.181ZM93.51 215.616C92.0203 215.111 90.7919 214.035 90.0947 212.624C89.3976 211.214 89.2886 209.584 89.7918 208.094C90.8419 204.988 94.2134 203.306 97.3182 204.357C100.433 205.41 102.09 208.795 101.04 211.9C100.533 213.391 99.456 214.62 98.044 215.317C96.632 216.014 95.0012 216.121 93.51 215.616Z" fill="white"/>
<path d="M93.2339 251.893V275.759C93.2342 276.322 93.1239 276.879 92.9096 277.399C92.6952 277.919 92.3809 278.391 91.9847 278.789C91.5885 279.186 91.1181 279.501 90.6006 279.715C90.0831 279.929 89.5287 280.039 88.969 280.037H65.2351C64.6762 280.038 64.1225 279.928 63.606 279.713C63.0894 279.499 62.62 279.184 62.2248 278.786C61.8295 278.389 61.5161 277.917 61.3025 277.398C61.0889 276.878 60.9793 276.322 60.98 275.759V251.893C60.9793 251.331 61.0889 250.774 61.3025 250.255C61.5161 249.735 61.8295 249.264 62.2248 248.866C62.62 248.469 63.0894 248.154 63.606 247.939C64.1225 247.724 64.6762 247.614 65.2351 247.615H88.969C89.5287 247.613 90.0832 247.723 90.6008 247.937C91.1184 248.151 91.5888 248.466 91.985 248.863C92.3813 249.261 92.6956 249.733 92.9099 250.253C93.1242 250.773 93.2343 251.33 93.2339 251.893Z" fill="#CE0606"/>
<path d="M131.199 251.888V275.767C131.199 276.328 131.088 276.884 130.873 277.403C130.657 277.922 130.342 278.393 129.944 278.789C129.547 279.186 129.075 279.5 128.556 279.715C128.037 279.929 127.481 280.038 126.919 280.037H103.057C102.496 280.038 101.94 279.929 101.421 279.715C100.902 279.5 100.43 279.186 100.032 278.789C99.6347 278.393 99.3193 277.922 99.1039 277.403C98.8886 276.884 98.7776 276.328 98.7773 275.767V251.888C98.7773 251.326 98.8881 250.77 99.1033 250.251C99.3185 249.732 99.6339 249.26 100.031 248.864C100.429 248.467 100.901 248.152 101.42 247.938C101.939 247.724 102.496 247.614 103.057 247.615H126.919C127.481 247.614 128.037 247.724 128.556 247.938C129.076 248.152 129.548 248.467 129.945 248.864C130.343 249.26 130.658 249.732 130.873 250.251C131.088 250.77 131.199 251.326 131.199 251.888Z" fill="#CE0606"/>
<path d="M168.997 251.888V275.767C168.996 276.328 168.886 276.884 168.672 277.403C168.457 277.922 168.144 278.393 167.748 278.789C167.353 279.186 166.883 279.5 166.367 279.715C165.851 279.929 165.297 280.038 164.739 280.037H141.002C140.443 280.038 139.89 279.929 139.373 279.715C138.857 279.501 138.387 279.187 137.991 278.79C137.596 278.393 137.282 277.922 137.068 277.403C136.853 276.885 136.743 276.328 136.743 275.767V251.888C136.743 251.326 136.853 250.77 137.067 250.251C137.281 249.732 137.595 249.26 137.991 248.863C138.386 248.466 138.856 248.152 139.373 247.938C139.889 247.724 140.443 247.614 141.002 247.615H164.739C165.297 247.614 165.851 247.724 166.367 247.938C166.884 248.152 167.353 248.467 167.749 248.864C168.144 249.26 168.458 249.732 168.672 250.251C168.886 250.77 168.997 251.326 168.997 251.888Z" fill="#CE0606"/>
<path d="M82.6611 265.105L74.833 269.925C74.6254 270.053 74.3882 270.122 74.1456 270.126C73.903 270.13 73.6637 270.068 73.4523 269.947C73.2409 269.826 73.065 269.65 72.9425 269.437C72.82 269.224 72.7554 268.982 72.7553 268.735L72.7393 259.096C72.7393 258.01 73.9094 257.337 74.8255 257.897L82.6611 262.717C83.543 263.26 83.543 264.563 82.6611 265.105Z" fill="white"/>
<path d="M161.247 264.987C161.403 263.844 161.328 262.681 161.025 261.569L163.108 260.531L161.681 257.631L159.607 258.664C158.915 257.744 158.045 256.975 157.049 256.405L157.791 254.193L154.758 253.159L154.016 255.369C152.881 255.214 151.726 255.293 150.622 255.6L149.597 253.509L146.723 254.942L147.752 257.042C146.84 257.738 146.079 258.617 145.518 259.622L143.312 258.869L142.287 261.922L144.488 262.672C144.333 263.815 144.408 264.978 144.709 266.091L142.632 267.131L144.057 270.022L146.128 268.995C146.818 269.915 147.69 270.682 148.687 271.248L147.944 273.46L150.979 274.494L151.721 272.282C152.857 272.445 154.013 272.37 155.119 272.062L156.14 274.144L159.017 272.721L157.988 270.621C158.899 269.923 159.66 269.045 160.222 268.04L162.429 268.793L163.453 265.74L161.247 264.987ZM156.72 265.148C156.355 266.152 155.615 266.972 154.658 267.434C153.701 267.896 152.604 267.962 151.599 267.62C150.594 267.277 149.762 266.552 149.28 265.599C148.798 264.646 148.704 263.541 149.018 262.52C149.363 261.49 150.1 260.639 151.066 260.156C152.032 259.672 153.149 259.595 154.172 259.941C155.194 260.291 156.037 261.037 156.514 262.013C156.992 262.989 157.066 264.117 156.719 265.148H156.72Z" fill="white"/>
<path d="M124.48 263.826C124.479 266.343 123.479 268.757 121.698 270.537C119.917 272.317 117.502 273.317 114.983 273.318C109.74 273.318 105.497 269.067 105.497 263.826C105.497 258.586 109.74 254.335 114.983 254.335V263.826H124.48Z" fill="white"/>
<path d="M72.5712 294.988H64.3776C63.4777 294.992 62.6158 295.355 61.9795 295.996C61.3432 296.638 60.9839 297.507 60.98 298.415V337.255C60.9803 338.164 61.3383 339.035 61.9754 339.677C62.6126 340.32 63.4766 340.681 64.3776 340.681H72.5712V294.989V294.988Z" fill="#B30909"/>
<path d="M166.812 295.961V339.719C166.812 340.249 166.378 340.681 165.849 340.681H66.5929C65.6835 340.681 64.8114 340.32 64.1683 339.677C63.5253 339.035 63.1639 338.164 63.1636 337.255V298.415C63.1676 297.507 63.5302 296.638 64.1724 295.996C64.8147 295.355 65.6847 294.992 66.5929 294.988H165.838C166.379 294.988 166.813 295.421 166.813 295.962L166.812 295.961Z" fill="#CE0606"/>
<path d="M82.3989 330.098C89.0325 330.098 94.4101 324.645 94.4101 317.919C94.4101 311.193 89.0325 305.74 82.3989 305.74C75.7653 305.74 70.3877 311.193 70.3877 317.919C70.3877 324.645 75.7653 330.098 82.3989 330.098Z" fill="url(#paint2_linear_64_4123)"/>
<path d="M82.3987 316.155C83.6512 316.155 84.6666 315.102 84.6666 313.804C84.6666 312.505 83.6512 311.452 82.3987 311.452C81.1462 311.452 80.1309 312.505 80.1309 313.804C80.1309 315.102 81.1462 316.155 82.3987 316.155Z" fill="white"/>
<path d="M88.1943 323.378C88.0706 320.204 85.5265 317.667 82.3987 317.667C79.2698 317.667 76.7267 320.204 76.603 323.379L88.1943 323.378Z" fill="white"/>
<path d="M100.29 304.158H146.277V313.254H100.29V304.158ZM100.29 317.963H160.597V319.919H100.29V317.963ZM100.29 323.761H160.597V325.717H100.29V323.761ZM100.29 329.558H114.626V331.514H100.29V329.558ZM120.145 329.558H126.788V331.514H120.145V329.558ZM128.935 329.558H138.133V331.514H128.935V329.558ZM271.974 299.114V336.556C271.974 337.441 271.255 338.162 270.37 338.162H182.473C182.262 338.162 182.054 338.121 181.859 338.041C181.664 337.96 181.487 337.842 181.338 337.693C181.189 337.544 181.071 337.367 180.99 337.172C180.91 336.977 180.869 336.768 180.869 336.557V299.114C180.869 298.23 181.58 297.509 182.473 297.509H270.37C271.255 297.509 271.974 298.23 271.974 299.113V299.114Z" fill="white"/>
<path d="M272.682 338.162H185.085C184.605 338.162 184.145 337.972 183.806 337.632C183.466 337.293 183.275 336.833 183.275 336.354V299.316C183.275 298.319 184.086 297.509 185.085 297.509H272.682C273.683 297.509 274.493 298.318 274.493 299.317V336.355C274.493 337.352 273.683 338.162 272.682 338.162Z" fill="#CE0606"/>
<path d="M195.511 328.468V321.764C195.511 320.008 194.458 319.502 192.588 319.19C191.864 319.062 191.508 318.593 191.508 317.918C191.508 317.247 191.861 316.776 192.588 316.648C194.479 316.333 195.511 315.8 195.511 314.073V307.368C195.511 304.503 197.098 303.556 199.957 303.556H200.339C200.935 303.556 201.451 304.069 201.451 304.668C201.451 305.262 200.939 305.78 200.339 305.78H199.862C198.746 305.78 197.988 305.985 197.988 307.114V314.169C197.988 315.97 197.034 317.22 195.129 317.919C197.035 318.617 197.988 319.868 197.988 321.669V328.723C197.988 329.854 198.746 330.057 199.862 330.057H200.339C200.935 330.057 201.451 330.572 201.451 331.17C201.451 331.769 200.933 332.282 200.339 332.282H199.957C197.107 332.282 195.511 331.339 195.511 328.468ZM260.165 332.282H259.784C259.491 332.276 259.211 332.157 259.004 331.95C258.797 331.742 258.678 331.463 258.672 331.17C258.672 330.573 259.187 330.057 259.784 330.057H260.26C261.376 330.057 262.135 329.853 262.135 328.723V321.669C262.135 319.868 263.089 318.617 264.993 317.918C263.087 317.22 262.135 315.97 262.135 314.169V307.114C262.135 305.985 261.376 305.78 260.26 305.78H259.784C259.49 305.774 259.211 305.655 259.004 305.448C258.796 305.241 258.677 304.961 258.672 304.668C258.672 304.072 259.187 303.556 259.784 303.556H260.165C263.024 303.556 264.612 304.503 264.612 307.368V314.073C264.612 315.324 264.908 316.21 267.536 316.648C268.258 316.776 268.615 317.244 268.615 317.918C268.615 318.59 268.261 319.062 267.536 319.19C265.662 319.502 264.612 320.026 264.612 321.764V328.468C264.612 331.341 263.017 332.282 260.165 332.282ZM208.097 323.343V312.512C208.095 312.407 208.114 312.303 208.153 312.205C208.191 312.107 208.249 312.018 208.322 311.943C208.396 311.868 208.483 311.808 208.58 311.767C208.677 311.726 208.781 311.705 208.886 311.705C209.334 311.705 209.693 312.065 209.693 312.512V317.182H216.344V312.512C216.342 312.407 216.361 312.303 216.4 312.205C216.438 312.107 216.496 312.018 216.57 311.943C216.643 311.868 216.731 311.808 216.828 311.767C216.925 311.726 217.029 311.705 217.134 311.705C217.581 311.705 217.94 312.065 217.94 312.512V323.343C217.94 323.448 217.919 323.552 217.878 323.649C217.837 323.746 217.778 323.834 217.703 323.907C217.628 323.98 217.539 324.038 217.441 324.077C217.344 324.116 217.239 324.135 217.134 324.133C217.03 324.134 216.927 324.115 216.83 324.076C216.733 324.037 216.646 323.979 216.572 323.906C216.498 323.832 216.44 323.744 216.401 323.648C216.362 323.551 216.343 323.448 216.344 323.343V318.674H209.693V323.343C209.693 323.449 209.672 323.553 209.631 323.649C209.59 323.746 209.53 323.834 209.455 323.907C209.38 323.981 209.291 324.039 209.193 324.077C209.096 324.116 208.991 324.135 208.886 324.133C208.782 324.134 208.679 324.115 208.582 324.076C208.486 324.037 208.398 323.979 208.324 323.905C208.251 323.832 208.193 323.744 208.154 323.647C208.115 323.551 208.096 323.448 208.097 323.343ZM224.188 323.343V313.284H220.608C220.511 313.287 220.414 313.27 220.323 313.234C220.232 313.198 220.15 313.144 220.081 313.075C220.012 313.006 219.958 312.923 219.922 312.833C219.886 312.742 219.869 312.645 219.871 312.547C219.871 312.137 220.172 311.793 220.608 311.793H229.346C229.77 311.793 230.101 312.123 230.101 312.547C230.101 312.981 229.76 313.284 229.346 313.284H225.784V323.343C225.784 323.449 225.763 323.553 225.722 323.649C225.681 323.746 225.621 323.834 225.546 323.907C225.471 323.981 225.382 324.039 225.284 324.077C225.187 324.116 225.082 324.135 224.977 324.133C224.873 324.134 224.769 324.115 224.673 324.076C224.576 324.037 224.488 323.979 224.415 323.906C224.341 323.832 224.283 323.744 224.244 323.648C224.205 323.551 224.187 323.448 224.188 323.343ZM232.031 323.343V312.864C232.03 312.713 232.058 312.563 232.115 312.423C232.171 312.283 232.255 312.155 232.361 312.047C232.467 311.94 232.593 311.854 232.732 311.795C232.871 311.736 233.02 311.705 233.171 311.704H233.751C234.238 311.704 234.642 312.04 234.821 312.442L238.805 322.378L242.788 312.442C242.967 312.039 243.371 311.705 243.858 311.705H244.437C245.082 311.705 245.577 312.236 245.577 312.864V323.343C245.577 323.793 245.231 324.133 244.788 324.133C244.683 324.135 244.579 324.116 244.481 324.077C244.383 324.039 244.294 323.981 244.219 323.907C244.144 323.834 244.084 323.746 244.043 323.649C244.002 323.553 243.981 323.449 243.981 323.343V313.372L239.927 323.395C239.833 323.615 239.677 323.802 239.477 323.933C239.277 324.065 239.043 324.134 238.805 324.133C238.322 324.133 237.873 323.851 237.681 323.395L233.628 313.372V323.343C233.628 323.449 233.607 323.553 233.566 323.65C233.525 323.747 233.465 323.834 233.39 323.908C233.315 323.981 233.225 324.039 233.128 324.078C233.03 324.116 232.925 324.135 232.82 324.133C232.716 324.134 232.613 324.115 232.516 324.076C232.42 324.037 232.332 323.979 232.258 323.905C232.185 323.832 232.127 323.744 232.088 323.647C232.049 323.551 232.029 323.448 232.031 323.343ZM248.981 322.939V312.511C248.979 312.406 248.998 312.302 249.037 312.204C249.076 312.107 249.134 312.018 249.207 311.943C249.28 311.868 249.368 311.808 249.465 311.767C249.561 311.726 249.665 311.705 249.77 311.705C250.218 311.705 250.578 312.065 250.578 312.512V322.448H256.316C256.76 322.448 257.123 322.804 257.123 323.256C257.123 323.361 257.102 323.465 257.061 323.562C257.02 323.658 256.96 323.746 256.885 323.82C256.81 323.893 256.721 323.951 256.623 323.989C256.526 324.028 256.421 324.047 256.316 324.045H250.087C249.475 324.045 248.981 323.553 248.981 322.939Z" fill="white"/>
<path d="M466.001 289.045C466.001 289.045 465.324 290.242 464.14 292.153C459.635 299.505 447.871 317.427 440.257 317.664C434.869 317.827 427.707 311.835 421.148 304.742C411.857 294.658 401.494 282.889 401.494 282.889L405.576 271.302L435.246 292.952L441.752 284.629L452.796 286.636L462.323 288.364L466.001 289.045Z" fill="#FF8277"/>
<path d="M405.526 271.322L401.427 282.893C401.427 282.893 382.291 279.992 382.685 268.79C383.092 257.589 400.108 268.527 400.108 268.527C400.108 268.527 399.451 265.625 401.818 264.049C404.198 262.473 405.526 271.322 405.526 271.322Z" fill="#FF8277"/>
<path d="M480.784 369.912H489.688V438.116H480.784V369.912Z" fill="#CE0606"/>
<path d="M478.265 430.892H492.208V441.307H478.265V430.892Z" fill="#A40A0A"/>
<path d="M521.438 445.019V445.03C521.436 445.691 521.169 446.324 520.694 446.791C520.219 447.258 519.576 447.521 518.905 447.523H451.568C450.897 447.521 450.253 447.258 449.778 446.791C449.303 446.324 449.036 445.691 449.035 445.03C449.035 443.997 449.459 443.075 450.14 442.395C450.853 441.7 451.815 441.31 452.818 441.307H517.665C518.161 441.306 518.652 441.402 519.11 441.588C519.568 441.775 519.984 442.048 520.335 442.393C520.685 442.738 520.963 443.147 521.152 443.598C521.342 444.049 521.439 444.532 521.438 445.019Z" fill="#CE0606"/>
<path d="M520.262 452.053C520.262 454.56 518.264 456.594 515.787 456.594C513.31 456.594 511.312 454.56 511.312 452.053C511.312 450.851 511.783 449.699 512.623 448.849C513.462 448 514.6 447.522 515.787 447.522C516.974 447.522 518.112 448 518.951 448.849C519.79 449.699 520.262 450.851 520.262 452.053ZM459.16 452.053C459.16 454.56 457.162 456.594 454.685 456.594C452.208 456.594 450.21 454.56 450.21 452.053C450.21 450.851 450.682 449.699 451.521 448.849C452.36 448 453.499 447.522 454.685 447.522C455.872 447.522 457.011 448 457.85 448.849C458.689 449.699 459.16 450.851 459.16 452.053Z" fill="#A40A0A"/>
<path d="M392.254 430.387L392.513 442.878C392.518 442.908 392.534 442.936 392.558 442.956C392.582 442.976 392.612 442.987 392.644 442.986L406.287 442.839L406.954 436.425L407.541 430.821L392.254 430.387Z" fill="#D9E7FF"/>
<path d="M376.295 455.701C376.295 455.79 376.305 455.89 376.305 455.99C376.313 456.109 376.365 456.221 376.451 456.304C376.537 456.387 376.651 456.434 376.771 456.436C379.917 456.467 396.978 456.755 405.652 456.467C407.766 456.396 409.305 454.448 408.907 452.37L406.555 442.518L392.532 441.901C392.502 441.901 392.482 441.901 392.462 441.922L381.108 449.577C378.27 451.008 376.295 452.847 376.295 455.701ZM464.49 328.663L441.83 361.514L440.299 363.736L408.969 374.135V437.367L405.153 437.31L390.975 437.122C390.975 437.122 378.3 368.356 383.826 353.86C389.994 337.68 448.773 327.074 448.773 327.074L464.49 328.663Z" fill="#A40A0A"/>
<path d="M441.811 361.577L440.279 363.795L408.937 374.172V437.275L405.12 437.219C404.289 431.856 403.911 426.436 403.533 421.026C402.825 410.79 402.106 400.545 401.397 390.311C400.934 383.738 400.49 377.015 402.323 370.699C404.44 363.371 409.486 357.167 415.419 352.37C419.379 349.17 428.885 340.738 434.365 343.627C439.977 346.582 441.403 355.071 441.811 361.577Z" fill="#112817"/>
<path d="M464.154 292.222C459.64 299.559 447.879 317.427 440.257 317.664C434.873 317.833 427.704 311.859 421.148 304.777C423.635 305.023 426.14 305.032 428.628 304.805C435.053 304.229 441.455 301.969 446.245 297.649C447.744 296.289 449.05 294.73 450.127 293.017C451.346 291.078 452.271 288.943 452.801 286.721C453.083 285.539 453.254 284.337 453.291 283.127C453.311 282.588 453.055 281.312 453.49 280.887C454.038 280.357 454.973 281.152 455.511 281.473C457.07 282.409 458.467 283.591 459.696 284.924C460.694 286.005 461.577 287.187 462.331 288.45C463.053 289.648 463.663 290.911 464.154 292.222Z" fill="#CE0606"/>
<path d="M456.93 253.999L456.342 270.119L455.354 297.004L446.227 290.356L439.291 285.313C445.506 273.132 452.214 258.344 456.93 253.999Z" fill="#CE0606"/>
<path d="M456.258 270.145L455.274 297.005L446.179 290.363C446.595 290.014 446.983 289.628 447.36 289.212C450.434 285.825 451.54 281.089 451.909 276.533C451.909 274.9 451.455 267.702 453.213 267.608C454.187 267.56 455.266 268.692 456.258 270.145Z" fill="#A40A0A"/>
<path d="M436.1 426.05L442.184 437.055C442.202 437.08 442.229 437.097 442.259 437.104C442.289 437.111 442.321 437.107 442.348 437.092L454.242 430.59L451.82 424.567L449.709 419.3L436.1 426.05Z" fill="#D9E7FF"/>
<path d="M433.731 455.948C433.772 456.027 433.829 456.111 433.874 456.198C433.937 456.3 434.036 456.375 434.151 456.408C434.266 456.441 434.39 456.429 434.497 456.375C437.296 454.929 452.535 447.197 460.08 442.881C461.918 441.831 462.368 439.391 461.045 437.742L454.353 430.146L441.649 436.167C441.623 436.181 441.605 436.189 441.597 436.216L435.127 448.289C433.283 450.882 432.395 453.43 433.731 455.948ZM514.718 346.193L512.294 355.877C511.963 357.197 511.263 358.396 510.274 359.332C509.286 360.269 508.051 360.904 506.714 361.164L440.731 374.003L454.137 423.13C454.966 424.823 436.837 433.677 436.007 431.984C436.007 431.984 402.775 381.076 409.882 359.772C414.834 344.929 460.673 327.411 460.673 327.411L514.718 346.193Z" fill="#A40A0A"/>
<path d="M516.397 347.723C514.978 349.502 461.754 337.942 448.866 327.139C448.866 327.139 449.783 322.481 450.785 316.667C451.267 313.94 451.759 310.957 452.194 308.079C452.884 303.543 453.424 299.263 453.47 296.679C453.688 285.942 449.623 261.75 456.969 253.863C465.773 244.423 500.039 245.124 506.942 256.041C516.596 271.323 516.397 347.723 516.397 347.723Z" fill="#A40A0A"/>
<path d="M490.879 297.46C486.466 308.34 474.735 314.868 463.061 316.379C458.952 316.918 454.833 316.936 450.714 316.616C451.197 313.896 451.69 310.92 452.125 308.048C458.384 304.828 463.857 300.085 467.739 294.219C470.654 289.818 472.7 284.935 474.82 280.136C477.452 274.185 481.449 263.955 488.465 272.211C493.861 278.569 493.861 290.11 490.879 297.46Z" fill="#A40A0A"/>
<path d="M522.037 300.895C520.875 301.015 519.8 301.567 519.025 302.442C518.249 303.316 517.83 304.449 517.85 305.618C518.067 318.079 518.153 351.654 496.864 357.69C473.011 364.453 464.227 360.694 460.316 362.745C458.83 363.525 457.332 370.011 461.44 371.989C465.548 373.966 508.12 373.473 518.416 364.35C527.964 355.89 527.48 319.451 527.211 305.449C527.198 304.801 527.05 304.163 526.778 303.575C526.505 302.987 526.113 302.462 525.626 302.034C525.14 301.606 524.569 301.283 523.952 301.087C523.334 300.891 522.682 300.826 522.037 300.895Z" fill="#CE0606"/>
<path d="M518.412 364.343C508.119 373.473 465.54 373.968 461.438 371.987C459.51 371.061 458.81 369.156 458.778 367.303C467.899 368.714 504.554 367.616 514.02 359.229C523.441 350.875 523.097 315.24 522.817 300.868C523.99 300.94 525.094 301.45 525.908 302.298C526.722 303.145 527.187 304.268 527.211 305.443C527.48 319.45 527.964 355.893 518.412 364.343Z" fill="#A40A0A"/>
<path d="M439.291 315.043V317.667H400.381L381.503 268.278H384.758L403.129 314.098L439.291 315.043Z" fill="#112817"/>
<path d="M400.317 317.667H345.468L327.578 267.774L381.428 268.399L400.317 317.667Z" fill="#CE0606"/>
<path d="M553.524 319.33V330.116C553.524 330.335 553.481 330.551 553.397 330.753C553.313 330.954 553.19 331.137 553.035 331.292C552.88 331.446 552.695 331.568 552.493 331.652C552.29 331.735 552.073 331.778 551.854 331.778H320.176C319.734 331.778 319.309 331.603 318.996 331.291C318.683 330.98 318.507 330.557 318.507 330.116V319.329C318.507 318.402 319.245 317.667 320.176 317.667H551.854C552.785 317.667 553.524 318.402 553.524 319.329V319.33Z" fill="#CE0606"/>
<path d="M530.201 331.778H539.245V456.594H530.201V331.778ZM332.954 331.778H341.998V456.594H332.954V331.778Z" fill="#A40A0A"/>
<path d="M479.289 287.598L472.485 300.899L424.909 307.415L424.844 317.668H486.552C491.078 317.668 495.13 314.857 496.714 310.627L500.943 299.371L479.289 287.598Z" fill="#FF8277"/>
<path d="M498.517 256.054C492.64 253.824 487.61 258.682 483.054 266.836C479.856 272.558 474.951 289.576 474.951 289.576C473.599 293.291 502.535 304.512 503.887 300.797C503.887 300.797 507.593 281.617 507.972 272.862C508.18 268.048 507.356 259.407 498.517 256.054Z" fill="#CE0606"/>
<path d="M490.36 228.844C489 234.014 488.409 240.536 488.139 247.625C488.139 247.625 473.368 257.752 467.542 256.187C465.046 255.51 472.134 248.45 472.134 248.45L471.922 241.469L471.12 232.936L479.793 228.633L490.36 228.844Z" fill="#FF8277"/>
<path d="M482.01 233.026C479.78 236.886 471.845 241.568 471.845 241.568L471.041 232.97L479.737 228.633C480.405 229.439 482.667 231.892 482.01 233.026Z" fill="#E9685C"/>
<path d="M463.821 237.574C471.523 241.69 488.762 228.689 490.436 227.423C490.523 227.336 490.566 227.307 490.566 227.307C490.566 227.307 497.288 226.135 496.895 220.506C496.327 212.654 490.786 217.912 490.786 217.912L495.183 203.807L489.373 195.371L462.305 198.542C462.305 198.542 461.126 204.781 460.384 212.299C459.364 222.508 459.161 235.087 463.82 237.575L463.821 237.574Z" fill="#FF8277"/>
<path d="M457.874 209.818C458.908 210.11 482.947 207.985 484.651 208.218C486.631 208.495 487.346 218.768 488.614 219.423C489.88 220.078 490.769 217.893 490.769 217.893C490.769 217.893 496.312 212.625 496.88 220.491C497.274 226.129 490.575 227.299 490.575 227.299C490.575 227.299 489.06 228.403 488.973 228.49L488.796 237.704C503.302 227.288 507.75 209.239 501.153 199.334C494.555 189.443 483.429 189.254 474.996 190.055C466.564 190.856 463.352 184.747 456.944 187.865C450.536 190.968 450.476 207.75 457.874 209.818Z" fill="#112817"/>
<path d="M469.696 229.304C469.511 231.13 468.082 232.477 466.512 232.315C464.948 232.153 463.82 230.54 464.005 228.715C464.009 228.682 464.019 228.657 464.022 228.633C465.579 229.177 467.468 229.373 469.696 229.221C469.694 229.246 469.699 229.271 469.696 229.304Z" fill="white"/>
<path d="M426.525 317.654L404.724 317.667C402.413 304.59 420.304 308.186 421.208 308.391C420.941 308.25 418.948 307.094 420.036 304.241C421.201 301.172 425.043 307.376 425.043 307.376L426.525 317.653V317.654Z" fill="#FF8277"/>
<path d="M398.803 167.659L398.063 172.253C397.976 172.855 398.493 173.389 399.095 173.285L404.463 172.425C407.645 174.256 411.253 175.217 414.924 175.213C426.52 175.213 435.931 165.818 435.931 154.223C435.931 142.626 426.52 133.215 414.924 133.215C403.328 133.215 393.934 142.626 393.934 154.223C393.934 159.332 395.775 164.029 398.803 167.659Z" fill="#CE0606"/>
<path d="M409.194 158.022L401.823 154.673C401.427 154.485 401.158 154.147 401.158 153.702V153.551C401.158 153.101 401.43 152.766 401.823 152.578L409.194 149.231C409.474 149.125 409.791 149.162 410.016 149.39C410.39 149.767 410.258 150.412 409.729 150.633L403.079 153.626L409.729 156.619C410.254 156.838 410.391 157.483 410.016 157.863C409.792 158.09 409.471 158.126 409.194 158.022Z" fill="white"/>
<path d="M408.987 158.545L408.955 158.532L401.633 155.207C401.039 154.924 400.654 154.402 400.654 153.744V153.595C400.654 152.944 401.033 152.418 401.624 152.135L408.955 148.806C409.565 148.574 410.023 148.719 410.376 149.077C411.009 149.718 410.807 150.827 409.915 151.201L404.429 153.669L409.928 156.142C410.788 156.503 411.02 157.611 410.374 158.263C409.993 158.65 409.445 158.721 408.987 158.545ZM409.379 157.528C409.49 157.565 409.567 157.537 409.611 157.491C409.737 157.367 409.611 157.191 409.502 157.145L401.775 153.669L409.489 150.198C409.686 150.116 409.679 149.916 409.613 149.849C409.565 149.799 409.485 149.77 409.365 149.816L402.075 153.126C401.878 153.221 401.732 153.374 401.732 153.596V153.744C401.732 153.969 401.881 154.118 402.084 154.216L409.379 157.528ZM412.288 160.71C412.095 160.506 412.018 160.234 412.131 159.891L416.995 145.496C417.188 144.907 417.904 144.83 418.251 145.199C418.443 145.401 418.521 145.669 418.409 146.017L413.545 160.412C413.351 161.005 412.633 161.076 412.288 160.71Z" fill="white"/>
<path d="M411.933 161.047C411.612 160.712 411.471 160.23 411.654 159.685L416.523 145.353C416.836 144.388 418.058 144.201 418.682 144.859C419.009 145.2 419.135 145.673 418.962 146.214L414.089 160.551C413.774 161.515 412.563 161.712 411.933 161.047ZM417.546 145.699L412.675 160.033C412.642 160.135 412.629 160.209 412.71 160.294L412.712 160.295C412.781 160.37 413.009 160.374 413.066 160.204L417.938 145.871C417.97 145.77 417.983 145.694 417.902 145.61C417.819 145.52 417.608 145.514 417.546 145.699ZM420.358 157.324C420.358 157.015 420.572 156.74 420.855 156.621L427.468 153.663L420.854 150.705C420.331 150.486 420.198 149.851 420.57 149.477C420.676 149.374 420.81 149.304 420.955 149.276C421.1 149.249 421.25 149.263 421.387 149.319L428.717 152.628C429.109 152.814 429.38 153.147 429.38 153.589V153.738C429.38 154.177 429.112 154.513 428.718 154.699L421.388 158.009C421.276 158.059 421.153 158.079 421.03 158.069C420.908 158.058 420.79 158.017 420.688 157.949C420.585 157.881 420.501 157.788 420.444 157.679C420.386 157.57 420.357 157.448 420.358 157.324Z" fill="white"/>
<path d="M419.805 157.293C419.805 156.765 420.152 156.291 420.645 156.086L426.217 153.623L420.633 151.155C419.761 150.794 419.527 149.694 420.178 149.041C420.554 148.67 421.152 148.575 421.61 148.766L429.057 152.088C429.665 152.374 430.052 152.899 430.052 153.549V153.698C430.052 154.346 429.663 154.874 429.066 155.154L421.622 158.476C420.786 158.828 419.805 158.263 419.805 157.293ZM421.098 157.489L428.608 154.164C428.808 154.07 428.957 153.917 428.957 153.698V153.549C428.957 153.323 428.801 153.172 428.599 153.077L421.171 149.764C421.022 149.757 420.986 149.777 420.952 149.811C420.831 149.934 420.956 150.109 421.066 150.155L428.914 153.623L421.077 157.086C421.021 157.106 420.972 157.144 420.938 157.193C420.901 157.365 420.909 157.49 421.098 157.49V157.489Z" fill="white"/>
<defs>
<linearGradient id="paint0_linear_64_4123" x1="290.285" y1="133.215" x2="43.0054" y2="133.215" gradientUnits="userSpaceOnUse">
<stop stop-color="#CE0606"/>
<stop offset="1" stop-color="#A40A0A"/>
</linearGradient>
<linearGradient id="paint1_linear_64_4123" x1="203.313" y1="19.3032" x2="217.555" y2="39.6921" gradientUnits="userSpaceOnUse">
<stop stop-color="#A40A0A"/>
<stop offset="1" stop-color="#A40A0A"/>
</linearGradient>
<linearGradient id="paint2_linear_64_4123" x1="82.3989" y1="311.854" x2="82.3989" y2="320.523" gradientUnits="userSpaceOnUse">
<stop stop-color="#F3584B"/>
<stop offset="1" stop-color="#E24D40"/>
</linearGradient>
</defs>
</svg>
