<svg width="981" height="735" viewBox="0 0 981 735" fill="none" xmlns="http://www.w3.org/2000/svg">
<path d="M438.303 19.2267C565.623 12.2627 682.157 49.1265 760.237 112.143C884.189 155.365 972.034 244.611 979.83 352.023C991.374 511.59 821.74 650.68 600.935 662.716C540.417 666.009 482.32 659.423 429.674 644.814C426.873 645.041 424.072 645.192 421.234 645.344C200.429 657.379 12.1363 537.78 0.554826 378.289C-6.0307 287.19 46.4643 202.713 133.779 144.806C202.284 74.636 311.853 26.115 438.303 19.2267Z" fill="#CE0606" fill-opacity="0.2"/>
<path fill-rule="evenodd" clip-rule="evenodd" d="M705.131 309.747C685.147 287.152 666.98 226.898 678.107 182.313C681.438 168.65 693.095 121.454 720.27 128.948C730.034 142.687 719.437 178.945 749.602 170.24C762.962 161.61 725.341 138.826 731.094 124.52C741.427 106.277 775.755 86.3311 797.631 96.6257C803.156 105.633 781.772 161.648 794.792 166.304C808.152 167.553 801.529 129.023 804.973 110.402C810.348 92.0082 841.459 95.7552 860.685 96.058C844.373 114.414 834.646 132.468 842.026 137.009C860.988 145.714 849.558 103.514 860.685 96.058C888.466 96.55 895.922 85.5741 908.79 95.1875C914.656 113.771 916.889 122.438 912.423 140.378C901.826 179.134 839.755 166.644 843.086 179.853C850.958 189.277 891.948 166.266 897.133 171.716C909.623 181.026 902.583 212.44 889.904 217.739C871.207 225.573 819.015 212.667 816.479 223.53C813.262 237.079 879.798 225.687 890.888 247.033C898.382 265.389 885.816 291.164 874.538 306.87C863.448 331.131 798.312 262.361 791.386 269.061C785.292 293.472 874.424 318.755 844.789 345.551C827.606 358.571 805.995 357.662 785.027 355.581C752.592 352.288 718.907 326.286 705.131 309.747ZM848.915 246.806C846.833 244.194 842.783 243.93 839.869 246.276C836.955 248.547 836.273 252.597 838.393 255.246C840.512 257.82 844.562 258.085 847.476 255.738C850.391 253.467 851.034 249.417 848.915 246.806ZM782.643 202.524C781.016 212.629 771.554 201.048 771.326 195.409C769.623 188.672 768.942 178.491 775.452 174.214C783.703 177.317 784.27 189.807 782.643 202.524ZM746.688 226.027C758.269 216.566 739.913 192.002 731.738 192.873C724.774 195.901 736.885 230.342 746.688 226.027ZM775.414 291.315C779.047 295.554 770.834 295.365 768.412 293.472C765.006 291.731 760.464 288.363 760.994 284.124C765.233 281.777 770.721 286.016 775.414 291.315ZM853.721 189.996C848.688 186.212 840.323 188.066 834.949 190.602C834.419 195.295 841.421 195.56 845.735 196.09C850.429 196.96 856.068 193.743 853.721 189.996Z" fill="#FF6F6F"/>
<path d="M650.251 391.725C649.04 390.741 648.699 388.962 649.532 387.562C678.751 338.965 711.603 293.131 747.217 251.347C787.412 204.189 832.64 160.437 881.615 121.302C883.016 120.205 885.021 120.432 886.119 121.794C887.217 123.195 886.99 125.2 885.627 126.298C792.824 200.518 717.393 287.038 655.02 390.855C654.112 392.368 652.144 392.861 650.63 391.952C650.516 391.914 650.403 391.839 650.251 391.725Z" fill="#393939"/>
<path d="M815.117 184.508C814.662 184.13 814.284 183.6 814.095 182.994C810.007 170.429 809.061 158.015 811.256 146.131C813.3 135.117 818.069 124.444 825.449 114.414C826.509 112.976 828.515 112.673 829.915 113.733C831.353 114.793 831.656 116.798 830.596 118.199C816.441 137.463 812.921 158.583 820.188 180.988C820.718 182.692 819.81 184.47 818.144 185.038C817.047 185.379 815.949 185.152 815.117 184.508ZM737.945 267.547C737.907 267.509 737.831 267.471 737.793 267.433C705.017 237.685 693.738 198.058 705.131 152.868C705.547 151.164 707.326 150.105 709.029 150.559C710.732 150.975 711.792 152.754 711.338 154.457C700.551 197.225 711.186 234.695 742.07 262.702C743.395 263.875 743.47 265.919 742.297 267.244C741.2 268.455 739.269 268.606 737.945 267.547ZM794.111 251.007C786.617 244.951 779.123 237.533 771.326 228.412C770.191 227.049 770.342 225.043 771.667 223.908C773.03 222.773 775.036 222.924 776.171 224.249C803.232 255.852 828.628 268.455 863.827 267.736C865.606 267.698 867.082 269.098 867.119 270.877C867.157 272.656 865.757 274.132 863.978 274.17C843.994 274.586 826.736 270.764 811.256 262.513C805.465 259.334 799.788 255.549 794.111 251.007ZM738.285 312.699C729.694 305.773 723.373 298.128 718.188 290.785C717.166 289.347 717.507 287.341 718.945 286.319C720.383 285.297 722.389 285.638 723.411 287.076C737.793 307.476 762.054 330.79 822.61 330.033C824.389 329.995 825.827 331.434 825.865 333.213C825.903 334.991 824.465 336.43 822.686 336.467C780.637 336.997 755.128 326.286 738.285 312.699Z" fill="#393939"/>
<path fill-rule="evenodd" clip-rule="evenodd" d="M638.102 295.63C608.164 291.958 554.61 258.917 533.415 218.155C526.792 205.703 504.234 162.708 529.554 150.218C545.98 154.079 562.066 188.18 578.87 161.686C583.109 146.396 539.887 154.306 534.702 139.81C530.349 119.259 542.763 81.5621 565.964 74.7874C576.107 77.8909 597.226 134.019 610.057 128.834C620.881 120.924 590.414 96.4363 580.611 80.2375C572.474 62.9031 598.21 45.039 612.858 32.587C612.782 57.1503 617.475 77.1339 626.029 75.5822C645.974 69.5644 609.413 45.531 612.858 32.587C633.977 14.4957 632.274 1.40037 648.283 0C665.012 10.0297 672.392 15.0634 681.022 31.4894C698.734 67.5206 643.968 99.3128 655.247 106.958C667.396 108.813 682.838 64.4549 690.294 65.0605C705.812 63.7358 721.405 91.9703 715.387 104.271C706.607 122.551 658.994 147.531 664.293 157.296C670.84 169.596 713.154 116.912 735.56 125.541C753.387 134.36 761.032 161.913 763 181.14C770.797 206.649 676.48 198.436 675.723 208.012C687.342 230.342 770.797 190.11 766.406 229.85C762.167 250.969 745.439 264.67 728.331 277.046C701.838 296.008 659.41 298.922 638.102 295.63ZM703.995 153.17C700.702 152.603 697.523 155.138 696.918 158.772C696.274 162.443 698.432 165.887 701.762 166.417C705.055 166.985 708.272 164.487 708.878 160.816C709.521 157.22 707.326 153.776 703.995 153.17ZM625.045 164.033C630.495 172.624 615.772 170.202 611.873 166.19C606.158 162.254 598.892 155.101 600.898 147.569C609.073 144.427 617.853 153.36 625.045 164.033ZM613.69 205.438C616.112 190.678 586.061 184.47 580.498 190.526C577.281 197.377 609.186 215.127 613.69 205.438ZM678.448 235.224C684.012 236.019 677.729 241.318 674.663 241.507C670.954 242.529 665.315 242.983 662.93 239.426C664.596 234.884 671.484 234.43 678.448 235.224ZM669.932 107.488C663.649 107.98 658.616 114.944 656.269 120.394C658.994 124.217 664.368 119.788 668.002 117.328C672.052 114.868 674.133 108.699 669.932 107.488Z" fill="#FF6F6F"/>
<path d="M648.775 393.315C648.056 392.747 647.526 391.914 647.337 390.93C636.929 335.218 631.138 279.09 630.116 224.097C628.943 162.102 633.788 99.3504 644.498 37.4691C644.877 35.2739 646.959 33.8357 649.116 34.2142C651.311 34.5927 652.749 36.6743 652.371 38.8316C632.122 155.971 633.031 270.65 655.172 389.454C655.588 391.649 654.15 393.731 651.954 394.147C650.819 394.337 649.646 393.996 648.775 393.315Z" fill="#393939"/>
<path d="M625.082 122.211C618.308 116.723 612.706 110.402 608.391 103.211C602.563 93.5222 599.005 82.2435 597.87 69.7537C597.681 67.5585 599.308 65.5904 601.503 65.4012C603.698 65.212 605.666 66.8394 605.856 69.0346C608.013 92.576 619.292 110.516 639.351 122.324C641.243 123.46 641.887 125.92 640.789 127.812C639.654 129.705 637.194 130.348 635.301 129.251C631.592 127.093 628.224 124.747 625.082 122.211ZM565.888 219.48C553.02 209.11 542.12 195.409 533.377 178.566C532.355 176.598 533.112 174.176 535.08 173.154C537.048 172.132 539.471 172.889 540.492 174.857C560.703 213.803 593.214 234.619 634.582 235.073C636.815 235.111 638.556 236.928 638.556 239.123C638.518 241.318 636.702 243.097 634.507 243.097C607.937 242.794 584.812 234.77 565.888 219.48ZM631.63 190.791C630.57 189.921 629.965 188.558 630.154 187.12C630.457 184.925 632.463 183.411 634.658 183.714C675.609 189.353 702.784 182.01 728.445 158.356C730.072 156.842 732.608 156.955 734.122 158.583C735.636 160.21 735.522 162.746 733.895 164.26C719.096 177.885 703.579 186.514 686.358 190.64C671.332 194.235 654.566 194.576 633.598 191.662C632.841 191.548 632.198 191.245 631.63 190.791ZM633.522 272.807C632.349 271.861 631.781 270.31 632.122 268.758C632.614 266.6 634.771 265.276 636.929 265.768C661.038 271.445 694.42 272.807 738.929 232.31C740.556 230.834 743.092 230.948 744.606 232.575C746.082 234.203 745.968 236.738 744.341 238.252C722.843 257.82 702.178 269.628 681.249 274.397C662.022 278.787 646.504 276.252 635.112 273.564C634.506 273.451 633.977 273.148 633.522 272.807Z" fill="#393939"/>
<path fill-rule="evenodd" clip-rule="evenodd" d="M496.286 734.4C733.479 734.4 926.957 724.976 926.957 713.432C926.957 701.888 733.479 692.464 496.286 692.464C259.056 692.464 65.5775 701.888 65.5775 713.432C65.5775 725.014 259.056 734.4 496.286 734.4Z" fill="#EDC5C5"/>
<path d="M157.661 289.763H330.058V339.495H227.831V395.283H325.63V445.015H227.831V551.481H157.661V289.763ZM420.477 289.763H504.65L603.736 551.481H529.138L510.555 496.034H409.804L390.274 551.481H321.202L420.477 289.763ZM461.163 348.124L427.289 446.302H493.939L461.163 348.124ZM806.676 542.435L865.227 600.835H788.244L749.034 557.158H741.464C699.605 557.158 667.169 545.274 644.233 521.505C621.26 497.737 609.792 464.09 609.792 420.49C609.792 377.532 621.298 343.923 644.309 319.663C667.321 295.402 699.226 283.291 739.988 283.291C780.637 283.291 812.391 295.402 835.289 319.663C858.187 343.923 869.655 377.532 869.655 420.49C869.655 449.708 864.47 474.385 854.1 494.52C843.729 514.693 827.909 530.627 806.676 542.435ZM739.988 334.121C721.935 334.121 707.401 341.88 696.426 357.435C685.45 372.953 679.924 393.731 679.924 419.77C679.924 445.923 685.374 466.815 696.312 482.371C707.25 497.964 721.784 505.761 739.951 505.761C758.004 505.761 772.424 498.002 783.248 482.446C794.035 466.929 799.447 445.999 799.447 419.733C799.447 393.845 793.997 373.066 783.135 357.473C772.311 341.917 757.928 334.121 739.988 334.121Z" fill="#A40A0A"/>
<path d="M122.841 289.763H295.238V339.495H193.011V395.283H290.81V445.015H193.011V551.481H122.841V289.763ZM385.657 289.763H469.831L568.916 551.481H494.318L475.735 496.034H374.984L355.454 551.481H286.42L385.657 289.763ZM426.381 348.124L392.507 446.302H459.195L426.381 348.124ZM771.856 542.435L830.407 600.835H753.424L714.214 557.158H706.645C664.785 557.158 632.349 545.274 609.413 521.505C586.44 497.737 574.972 464.09 574.972 420.49C574.972 377.532 586.478 343.923 609.489 319.663C632.501 295.402 664.406 283.291 705.168 283.291C745.817 283.291 777.571 295.402 800.469 319.663C823.367 343.923 834.835 377.532 834.835 420.49C834.835 449.708 829.65 474.385 819.28 494.52C808.909 514.693 793.127 530.627 771.856 542.435ZM705.206 334.121C687.153 334.121 672.619 341.88 661.643 357.435C650.668 372.953 645.142 393.731 645.142 419.77C645.142 445.923 650.592 466.815 661.53 482.371C672.468 497.964 687.001 505.761 705.168 505.761C723.222 505.761 737.642 498.002 748.466 482.446C759.253 466.929 764.665 445.999 764.665 419.733C764.665 393.845 759.215 373.066 748.353 357.473C737.528 341.917 723.146 334.121 705.206 334.121Z" fill="#CE0606"/>
<path fill-rule="evenodd" clip-rule="evenodd" d="M554.231 632.4C550.068 632.514 545.943 632.589 541.855 632.741C541.552 620.1 538.335 601.743 541.06 594.817C543.596 579.943 622.812 578.505 626.331 589.064L625.31 627.783L611.533 627.101C612.366 616.428 617.513 601.365 614.031 595.044C603.812 589.405 565.434 590.805 553.096 599.624C549.576 604.923 553.853 621.538 554.231 632.4Z" fill="#FF6F6F"/>
<path fill-rule="evenodd" clip-rule="evenodd" d="M629.738 623.089C628.754 627.82 628.867 632.437 627.883 637.168C627.202 642.959 625.802 650.529 622.282 653.67C621.336 662.337 569.976 655.789 520.849 658.628L524.71 629.031L629.738 623.089Z" fill="#FF6F6F"/>
<path fill-rule="evenodd" clip-rule="evenodd" d="M577.924 634.595L592.231 600.077L623.266 496.336L661.038 497.775L628.337 635.768L577.924 634.595Z" fill="#FF6F6F"/>
<path fill-rule="evenodd" clip-rule="evenodd" d="M522.969 647.463L522.401 662.375L521.531 698.444H539.887L549.727 621.688L522.969 647.463Z" fill="#B10505"/>
<path fill-rule="evenodd" clip-rule="evenodd" d="M617.097 546.939L626.483 542.587C634.166 543.684 639.957 538.121 646.694 535.925L622.32 510.794L631.933 504.966C643.893 517.077 670.121 536.985 667.888 541.224C670.727 545.35 633.712 564.803 616.604 576.574L617.097 546.939Z" fill="#CE0606"/>
<path fill-rule="evenodd" clip-rule="evenodd" d="M603.244 544.403L593.48 535.168L586.553 522.338L622.357 510.832L624.326 500.311C606.348 505.117 571.603 510.302 570.43 514.731C564.11 520.711 579.665 554.168 584.282 573.811L603.244 544.403Z" fill="#CE0606"/>
<path fill-rule="evenodd" clip-rule="evenodd" d="M610.057 533.617C603.396 533.655 593.442 533.617 591.057 536.758L573.307 600.04L614.371 608.328C619.784 586.793 624.931 566.166 630.343 544.593C629.208 541.262 623.758 539.029 619.027 536.266C616.075 535.396 613.085 534.487 610.057 533.617Z" fill="#CE0606"/>
<path fill-rule="evenodd" clip-rule="evenodd" d="M573.307 600.078L614.372 608.367C614.107 643.527 556.805 632.287 552.15 636.866L494.053 703.403L473.653 702.684C493.183 675.168 524.71 620.667 531.56 616.58C536.026 611.849 564.337 608.48 573.307 600.078Z" fill="#B10505"/>
<path fill-rule="evenodd" clip-rule="evenodd" d="M626.899 516.093L613.728 510.87L609.83 531.8C608.656 538.196 619.973 541.754 621.487 536.19L626.899 516.093Z" fill="#EC675C"/>
<path fill-rule="evenodd" clip-rule="evenodd" d="M636.853 499.516L607.824 492.893C606.159 503.679 602.941 517.986 607.332 524.571C608.921 527.978 618.156 531.27 623.493 530.135C627.808 528.886 635.415 512.649 636.853 499.516Z" fill="#FF8277"/>
<path fill-rule="evenodd" clip-rule="evenodd" d="M631.214 501.56C623.152 499.516 610.17 499.44 607.029 495.542C603.131 490.357 591.549 488.692 594.88 482.712C598.778 477.754 619.065 487.859 631.138 490.433C633.258 491.227 632.425 492.552 633.106 493.65C636.134 496.186 643.325 496.564 642.19 501.181C641.168 506.404 634.885 513.406 631.176 519.576C629.397 515.185 633.371 507.313 631.214 501.56Z" fill="#2F2F2F"/>
<path fill-rule="evenodd" clip-rule="evenodd" d="M629.132 513.103C629.738 510.681 630.419 508.296 631.062 505.836C632.387 503.679 636.513 504.133 636.664 507.161C636.777 511.4 629.851 514.958 629.132 513.103Z" fill="#FF8277"/>
<path fill-rule="evenodd" clip-rule="evenodd" d="M539.887 698.444L521.076 698.823C509.949 704.689 486.029 707.225 490.912 715.703C508.208 714.757 525.543 713.773 542.839 712.864C543.596 709.193 541.59 702.153 539.887 698.444Z" fill="#CE0606"/>
<path fill-rule="evenodd" clip-rule="evenodd" d="M494.545 703.365L473.653 702.646C462.526 708.512 439.401 711.805 444.283 720.283C461.618 719.336 478.914 718.352 496.211 717.444C497.005 713.773 496.248 707.074 494.545 703.365Z" fill="#CE0606"/>
<path fill-rule="evenodd" clip-rule="evenodd" d="M559.189 647.085C555.291 647.161 551.355 647.274 547.457 647.388C547.154 634.746 544.088 616.39 546.662 609.464C549.122 594.59 619.216 593.152 622.585 603.711L620.049 642.089L613.577 641.748C614.334 631.075 619.216 616.05 615.923 609.691C606.234 604.09 569.862 605.49 558.167 614.271C554.761 619.57 558.849 636.147 559.189 647.085ZM557.638 652.8L545.753 657.909L546.737 718.163L555.064 718.087L557.638 652.8ZM622.925 651.778L611.079 657.077C610.7 677.742 612.063 698.444 611.646 719.147L620.011 719.185L622.925 651.778Z" fill="#FF6F6F"/>
<path fill-rule="evenodd" clip-rule="evenodd" d="M182.754 572.298L155.542 576.915L156.639 705.371H175.412L183.739 628.237L190.097 705.371L207.696 705.106L208.983 567.718L183.852 561.738L182.754 572.298Z" fill="#CE0606"/>
<path fill-rule="evenodd" clip-rule="evenodd" d="M237.18 544.555L243.954 535.623C246.831 536.304 249.102 537.023 252.13 537.023C255.385 534.752 260.91 530.097 262.159 532.368C261.781 533.617 257.769 536.872 257.504 538.651C259.359 541.187 269.048 539.332 278.207 537.742C281.083 537.742 276.693 543.76 262.765 546.523C257.542 547.696 248.118 543.912 237.18 544.555Z" fill="#FF8277"/>
<path fill-rule="evenodd" clip-rule="evenodd" d="M161.143 475.937C164.247 474.839 167.313 473.628 169.848 472.076C174.882 472.795 179.159 473.098 184.193 473.855C188.091 473.666 193.844 476.807 197.061 479.608C198.613 481.425 200.013 483.809 201.376 486.572V574.265C189.681 576.574 178.099 577.369 161.143 575.212V475.937Z" fill="white"/>
<path fill-rule="evenodd" clip-rule="evenodd" d="M178.023 474.839L166.139 472.039L161.257 473.931C162.96 478.132 164.663 482.295 166.328 486.496C168.524 479.76 172.914 477.754 178.023 474.839Z" fill="#E3E5E8"/>
<path fill-rule="evenodd" clip-rule="evenodd" d="M174.882 478.019C179.613 504.853 182.149 531.763 181.619 559.467L186.085 563.971C188.318 561.36 190.551 558.71 192.784 556.099C191.8 528.47 187.826 501.598 178.364 477.716L174.882 478.019Z" fill="#E97970"/>
<path fill-rule="evenodd" clip-rule="evenodd" d="M163.566 473.06C177.91 507.237 179.878 553.903 178.175 594.703C169.47 594.4 159.327 592.962 146.534 589.934L152.968 561.586C145.285 551.632 131.433 538.499 129.919 531.686C127.648 529.037 140.516 495.012 148.464 481.803C151.644 477.791 157.737 475.634 163.566 473.06ZM153.687 521.884L150.66 526.804C152.401 530.702 153.687 535.131 155.92 538.537C155.769 533.049 154.444 527.447 153.687 521.884Z" fill="#B10505"/>
<path fill-rule="evenodd" clip-rule="evenodd" d="M241.986 533.503L245.128 534.487L243.235 547.015C243.235 547.015 239.186 545.501 239.072 546.599C238.959 547.696 241.911 533.995 241.986 533.503Z" fill="white"/>
<path fill-rule="evenodd" clip-rule="evenodd" d="M179.727 472.871L177.115 475.748C180.824 475.596 183.095 477.829 184.231 479.873L186.956 482.825L189.075 474.536L179.727 472.871Z" fill="#E3E5E8"/>
<path fill-rule="evenodd" clip-rule="evenodd" d="M181.581 473.098C192.481 511.4 197.894 553.449 199.521 593.114C203.192 592.281 206.864 591.297 210.686 590.162L207.28 544.025L240.927 547.81L242.819 533.806L213.336 524.004C207.923 508.751 203.495 487.329 197.061 478.245C194.714 475.747 186.236 473.477 181.581 473.098Z" fill="#B10505"/>
<path fill-rule="evenodd" clip-rule="evenodd" d="M177.304 481.539L178.818 480.176L180.332 478.814L179.5 476.959L178.629 475.104L176.623 475.332L174.579 475.521L174.201 477.527L173.747 479.533L175.526 480.555L177.304 481.539Z" fill="#EA4335"/>
<path fill-rule="evenodd" clip-rule="evenodd" d="M156.337 561.776L163.263 555.834C164.587 558.294 165.95 560.754 167.275 563.252C172.422 566.621 174.806 572.146 174.049 576.348L161.37 577.559C160.689 574.077 159.364 570.519 159.97 566.658L156.337 561.776Z" fill="#FF8277"/>
<path fill-rule="evenodd" clip-rule="evenodd" d="M155.92 571.692L175.639 573.849L173.747 591.221L154.028 589.064L155.92 571.692Z" fill="#CE0606"/>
<path d="M175.753 575.477L157.548 573.546L157.661 572.524L174.844 574.341L174.882 574L155.428 572.07L155.504 571.048L175.98 573.092L175.753 575.477Z" fill="#B10505"/>
<path fill-rule="evenodd" clip-rule="evenodd" d="M153.233 560.83L163.717 552.768L165.269 555.039L154.785 562.949L153.233 560.83Z" fill="white"/>
<path d="M207.091 544.252C206.371 529.075 203.76 514.201 201.111 500.311L201.716 500.197C204.366 514.125 206.977 528.999 207.696 544.252H207.091Z" fill="#2F2F2F"/>
<path fill-rule="evenodd" clip-rule="evenodd" d="M162.657 473.628C161.56 479.722 161.181 488.124 161.181 494.293L166.291 495.126C165.269 496.98 163.074 499.554 162.052 501.409L175.033 525.858L176.51 528.962C175.412 518.743 173.217 505.648 170.643 494.52C168.713 486.989 166.366 480.062 163.566 473.363C163.225 473.401 162.922 473.477 162.657 473.628Z" fill="#B10505"/>
<path d="M177.153 531.27L174.655 526.009L161.56 501.371L161.673 501.181C162.203 500.235 163.036 499.1 163.831 498.002C164.474 497.132 165.117 496.223 165.609 495.428L160.765 494.634V494.293C160.765 491.341 160.878 481.16 162.241 473.552L162.279 473.325L162.468 473.25C162.657 473.174 162.847 473.098 163.036 473.06C163.149 473.022 163.263 472.985 163.414 472.947L163.793 472.795L163.944 473.174C166.821 480.024 169.129 486.95 171.022 494.407C173.52 505.231 175.79 518.478 176.888 528.924L177.153 531.27ZM162.506 501.371L175.374 525.631L175.79 526.502C174.617 516.51 172.536 504.512 170.227 494.558C168.372 487.291 166.101 480.479 163.339 473.817H163.301C163.187 473.855 163.111 473.893 162.998 473.893C161.711 481.122 161.56 490.622 161.56 493.915L166.896 494.785L166.631 495.315C166.101 496.261 165.269 497.397 164.474 498.494C163.755 499.478 162.998 500.5 162.506 501.371Z" fill="#CE0606"/>
<path fill-rule="evenodd" clip-rule="evenodd" d="M182.414 473.401L191.535 487.026L190.135 491.038L192.33 492.363L192.595 521.733C189.832 504.815 186.199 489.411 181.619 473.363C181.884 473.401 182.111 473.401 182.414 473.401Z" fill="#B10505"/>
<path d="M192.179 521.846C189.605 506.026 186.123 490.697 181.24 473.514L181.089 472.947L181.657 472.985H181.96C182.111 472.985 182.262 472.985 182.452 473.022L182.641 473.06L191.951 487.026L190.589 490.925L192.708 492.173L192.973 521.771L192.179 521.846ZM182.149 473.817C186.426 488.956 189.643 502.695 192.103 516.623L191.914 492.628L189.605 491.265L191.043 487.14L182.149 473.817Z" fill="#CE0606"/>
<path fill-rule="evenodd" clip-rule="evenodd" d="M190.059 704.5L207.772 704.197C215.682 712.07 232.524 706.127 230.064 718.239L202.511 717.709L198.651 715.287L198.575 718.012L189.113 718.239C188.886 713.962 188.962 709.231 190.059 704.5Z" fill="#A40A0A"/>
<path fill-rule="evenodd" clip-rule="evenodd" d="M156.98 705.484L174.731 705.219C182.641 712.523 199.483 706.998 196.985 718.314L169.432 717.822L165.571 715.551L165.496 718.087L156.034 718.314C155.807 714.264 155.882 709.874 156.98 705.484Z" fill="#A40A0A"/>
<path fill-rule="evenodd" clip-rule="evenodd" d="M179.235 452.433L164.02 451.638L165.344 472.379C167.388 474.158 171.816 475.407 175.677 475.899C178.023 475.293 179.727 474.347 180.635 472.984L179.235 452.433Z" fill="#EC675C"/>
<path fill-rule="evenodd" clip-rule="evenodd" d="M162.657 438.619L188.924 441.041C189.756 449.746 189.605 466.777 188.848 467.232C182.452 471.168 172.157 469.048 166.366 463.182C163.301 455.31 160.5 443.387 162.657 438.619Z" fill="#FF8277"/>
<path fill-rule="evenodd" clip-rule="evenodd" d="M164.89 442.328C161.219 446.718 163.944 452.887 164.739 458.981C159.44 453.72 158.153 444.447 156.564 436.537C156.904 432.79 161.446 433.093 163.717 433.964C162.96 431.655 163.301 428.135 167.578 427.302C183.814 425.599 192.936 435.099 188.999 441.987C176.964 438.732 164.739 438.43 164.89 442.328Z" fill="#2F2F2F"/>
<path fill-rule="evenodd" clip-rule="evenodd" d="M188.848 467.232C189.34 463.902 189.908 461.176 189.491 456.938C189.454 452.282 182.906 460.912 174.428 459.814C170.87 457.619 165.761 444.675 165.269 436.765L161.749 438.922C166.972 448.535 163.831 462.161 170.113 466.097C175.866 469.919 186.956 471.547 188.848 467.232Z" fill="#2F2F2F"/>
<path fill-rule="evenodd" clip-rule="evenodd" d="M164.852 450.957L164.587 446.037C163.906 443.463 160.954 441.684 160.235 444.75C159.629 447.475 163.83 452.32 164.852 450.957Z" fill="#FF8277"/>
<path fill-rule="evenodd" clip-rule="evenodd" d="M186.047 461.668C185.328 463.295 183.663 464.544 181.695 464.734C179.802 464.923 178.099 464.128 177.153 462.803C178.97 462.917 179.765 462.803 181.468 462.614C183.133 462.463 184.344 462.311 186.047 461.668Z" fill="white"/>
<path fill-rule="evenodd" clip-rule="evenodd" d="M473.615 223.681L491.631 221.334C493.523 224.476 497.157 229.585 497.308 230.796C499.73 234.203 480.655 252.673 472.707 262.059L465.819 249.985C469.83 243.551 478.46 235.262 478.536 230.986L473.615 223.681ZM413.437 223.681L395.422 221.334C393.529 224.476 389.858 229.585 389.744 230.796C387.322 234.203 406.397 252.673 414.308 262.059L421.234 249.985C417.184 243.551 408.593 235.262 408.479 230.986L413.437 223.681Z" fill="#FF8277"/>
<path fill-rule="evenodd" clip-rule="evenodd" d="M443.678 276.441L443.602 276.403L443.526 276.441V276.403L415.784 273.186L414.27 191.926C418.32 188.52 428.463 185.227 435.389 185.114L443.64 188.671L451.853 185.114C458.779 185.189 468.43 188.785 472.972 191.926L472.215 273.072L443.678 276.441Z" fill="#CE0606"/>
<path fill-rule="evenodd" clip-rule="evenodd" d="M451.815 174.819L435.502 176.295L435.389 191.018C435.124 197.301 451.512 197.604 451.701 191.132L451.815 174.819Z" fill="#E47C73"/>
<path fill-rule="evenodd" clip-rule="evenodd" d="M447.198 142.611L443.64 143.254L440.044 142.611L440.082 143.936L427.327 146.32C428.198 157.372 427.252 174.971 429.939 179.475C432.513 183.411 438.947 184.925 443.64 184.811C448.333 184.887 454.767 183.373 457.303 179.475C459.99 175.009 459.044 157.372 459.914 146.32L447.198 143.936V142.611Z" fill="#FF8277"/>
<path fill-rule="evenodd" clip-rule="evenodd" d="M432.323 147.493C429.258 148.931 429.333 157.75 427.857 162.897C426.381 154.041 423.58 145.639 426.873 138.75C428.728 134.814 437.622 131.181 444.662 132.165C448.257 132.468 451.361 133.262 454.502 135.041C457.038 136.782 457.038 136.934 457.341 138.523C458.703 137.993 460.671 139.091 461.882 141.059C465.402 146.547 460.558 155.176 459.347 163.049C458.022 158.091 459.119 148.969 455.41 148.175C452.004 147.19 445.759 149.84 443.791 149.953C439.363 150.672 436.259 145.828 432.323 147.493Z" fill="#2F2F2F"/>
<path fill-rule="evenodd" clip-rule="evenodd" d="M427.706 161.648L428.614 158.923C431.831 170.202 427.971 182.162 443.526 181.481L443.564 186.969C425.548 183.26 426.76 174.592 427.706 161.648ZM459.498 161.648L458.627 158.923C455.41 170.202 459.233 182.162 443.678 181.481L443.64 186.969C461.655 183.26 460.444 174.592 459.498 161.648Z" fill="#2F2F2F"/>
<path fill-rule="evenodd" clip-rule="evenodd" d="M435.502 182.162C436.789 180.421 438.038 177.544 439.249 176.863C440.12 176.636 441.407 176.712 442.656 176.75V176.787C442.958 176.825 443.261 176.787 443.602 176.787C443.942 176.787 444.207 176.825 444.51 176.787V176.75C445.797 176.712 447.046 176.674 447.917 176.863C449.165 177.544 450.452 180.421 451.663 182.162L453.745 180.307C452.761 178.339 450.452 174.63 449.128 174.062C447.841 173.684 445.57 173.835 443.564 173.911C441.558 173.835 439.249 173.684 437.963 174.062C436.638 174.63 434.367 178.339 433.345 180.307L435.502 182.162Z" fill="#2F2F2F"/>
<path fill-rule="evenodd" clip-rule="evenodd" d="M403.975 235.338H483.229C483.493 235.338 483.683 235.603 483.607 235.943C481.79 245.897 480.201 255.019 478.649 263.383C477.286 271.104 475.962 278.22 474.789 284.843C474.751 285.032 474.524 285.184 474.334 285.184H412.604C412.377 285.184 412.188 285.032 412.15 284.843C411.015 278.22 409.728 271.104 408.403 263.383C406.927 255.019 405.338 245.897 403.559 235.943C403.521 235.603 403.672 235.338 403.975 235.338Z" fill="white"/>
<path fill-rule="evenodd" clip-rule="evenodd" d="M485.727 287.341L481.639 300.134C488.187 304.221 494.81 308.12 501.358 312.245C505.975 315.084 512.75 296.273 506.997 295.1L485.727 287.341Z" fill="#CE0606"/>
<path fill-rule="evenodd" clip-rule="evenodd" d="M487.241 299.225L489.436 292.526C489.474 292.375 489.625 292.299 489.776 292.337L490.798 292.677C490.95 292.753 491.063 292.905 490.988 293.018L488.792 299.755C488.755 299.869 488.603 299.982 488.452 299.906L487.43 299.566C487.278 299.528 487.203 299.377 487.241 299.225ZM490.609 300.739L492.804 294.04C492.88 293.889 493.031 293.813 493.145 293.851L494.205 294.191C494.318 294.229 494.432 294.381 494.356 294.532L492.161 301.231C492.085 301.382 491.934 301.496 491.782 301.42L490.76 301.08C490.609 301.042 490.571 300.89 490.609 300.739Z" fill="#CAD4E4"/>
<path fill-rule="evenodd" clip-rule="evenodd" d="M479.179 284.957L474.713 297.901L481.753 300.058C485.386 297.825 488.035 290.861 485.802 287.454L479.179 284.957Z" fill="#FF8277"/>
<path fill-rule="evenodd" clip-rule="evenodd" d="M399.926 249.796C381.229 241.962 366.922 273.527 389.707 279.28L475.659 299.907L481.033 284.389C454.237 273.262 426.684 260.961 399.926 249.796Z" fill="#A40A0A"/>
<path fill-rule="evenodd" clip-rule="evenodd" d="M401.439 287.341L405.527 300.134C398.979 304.221 392.356 308.12 385.808 312.245C381.191 315.084 374.416 296.273 380.207 295.1L401.439 287.341Z" fill="#CE0606"/>
<path fill-rule="evenodd" clip-rule="evenodd" d="M399.963 299.225L397.768 292.526C397.73 292.375 397.579 292.299 397.428 292.337L396.406 292.677C396.254 292.753 396.179 292.905 396.216 293.018L398.412 299.755C398.449 299.869 398.601 299.982 398.752 299.906L399.774 299.566C399.926 299.528 400.039 299.377 399.963 299.225ZM396.595 300.739L394.4 294.04C394.362 293.889 394.21 293.813 394.059 293.851L392.999 294.191C392.886 294.229 392.772 294.381 392.848 294.532L395.043 301.231C395.081 301.382 395.232 301.496 395.384 301.42L396.406 301.08C396.557 301.042 396.633 300.89 396.595 300.739Z" fill="#CAD4E4"/>
<path fill-rule="evenodd" clip-rule="evenodd" d="M408.025 284.957L412.491 297.901C410.144 298.62 407.836 299.339 405.451 300.058C401.818 297.825 399.169 290.861 401.402 287.454L408.025 284.957Z" fill="#FF8277"/>
<path fill-rule="evenodd" clip-rule="evenodd" d="M487.278 249.796C505.975 241.962 520.282 273.527 497.497 279.28L411.545 299.907L406.17 284.389C432.967 273.262 460.482 260.961 487.278 249.796Z" fill="#A40A0A"/>
<path fill-rule="evenodd" clip-rule="evenodd" d="M425.397 206.99C421.726 201.918 418.055 196.885 414.346 191.813C411.28 194.917 400.796 212.629 394.021 223L411.583 227.617L425.397 206.99ZM461.807 207.028C465.478 201.994 469.187 196.922 472.858 191.889C475.924 194.992 486.408 212.667 493.22 223.075L475.659 227.693L461.807 207.028Z" fill="#A40A0A"/>
<path fill-rule="evenodd" clip-rule="evenodd" d="M199.635 110.629C192.708 115.398 185.555 119.637 177.229 123.762C152.287 87.0879 165.193 56.469 200.051 35.0849C238.012 16.3881 266.285 22.633 286.874 52.6842C302.429 81.4864 301.218 92.4244 295.73 105.066C283.619 131.559 290.28 143.784 297.055 154.041L292.816 164.335L286.117 165.168L285.814 162.443C277.677 168.309 269.237 173.797 260.078 178.793C253.719 168.991 245.885 154.873 249.934 136.025C253.644 120.053 264.165 103.135 250.578 79.7075C242.138 65.4389 231.995 59.1562 216.363 68.4289C208.68 74.7116 203.874 84.817 212.389 101.205L208.188 111.5L199.635 110.629Z" fill="#B10505"/>
<path fill-rule="evenodd" clip-rule="evenodd" d="M208.226 111.5C196.91 120.394 186.501 127.434 173.028 134.095C148.086 97.4204 160.992 66.8015 195.85 45.4174C233.811 26.7206 262.084 32.9655 282.673 63.0167C298.228 91.8189 297.017 102.757 291.529 115.398C279.418 141.892 286.079 154.116 292.854 164.373C281.272 173.419 269.35 181.821 255.914 189.126C249.556 179.323 241.721 165.206 245.771 146.358C249.48 130.386 260.002 113.468 246.415 90.0401C237.974 75.7714 227.831 69.4887 212.2 78.7614C204.517 85.0063 199.71 95.1117 208.226 111.5Z" fill="#CE0606"/>
<path fill-rule="evenodd" clip-rule="evenodd" d="M285.133 181.291C297.206 174.289 313.367 179.663 321.278 193.289C329.188 206.914 325.819 223.643 313.746 230.645C301.672 237.646 285.474 232.272 277.601 218.647C269.691 204.984 273.059 188.293 285.133 181.291Z" fill="#B10505"/>
<path fill-rule="evenodd" clip-rule="evenodd" d="M281.197 186.968C293.27 179.966 309.431 185.341 317.341 198.966C325.252 212.591 321.883 229.32 309.81 236.322C297.736 243.324 281.575 237.949 273.665 224.324C265.755 210.699 269.123 193.97 281.197 186.968Z" fill="#CE0606"/>
<path fill-rule="evenodd" clip-rule="evenodd" d="M925.443 504.512L890.093 493.271L926.427 374.088L935.094 372.574L976.802 387.184L933.618 502.317L925.443 504.512Z" fill="#B10505"/>
<path fill-rule="evenodd" clip-rule="evenodd" d="M926.276 374.012L967.151 389.757L925.254 504.436L889.904 493.195L926.276 374.012Z" fill="#CE0606"/>
<path fill-rule="evenodd" clip-rule="evenodd" d="M911.174 510.341C922.15 513.86 927.827 526.767 923.853 539.181C919.879 551.595 907.73 558.786 896.754 555.266C885.778 551.746 880.101 538.802 884.075 526.388C888.049 514.012 900.16 506.821 911.174 510.341Z" fill="#B10505"/>
<path fill-rule="evenodd" clip-rule="evenodd" d="M905.497 511.098C916.473 514.617 922.15 527.524 918.176 539.938C914.202 552.352 902.053 559.543 891.077 556.023C880.101 552.503 874.424 539.559 878.398 527.145C882.372 514.769 894.483 507.54 905.497 511.098Z" fill="#CE0606"/>
</svg>
