<svg width="968" height="770" viewBox="0 0 968 770" fill="none" xmlns="http://www.w3.org/2000/svg">
<path d="M930.138 312.317C895.442 271.537 834.192 268.913 804.538 201.619C780.632 147.372 801.794 116.684 776.862 93.0492C724.63 43.5302 606.354 154.159 504.374 101.565C457.702 77.4952 468.371 47.0579 417.092 20.6696C342.283 -17.8281 225.377 -1.53912 182.922 61.1168C140.387 123.889 209.011 179.43 172.278 265.483C131.103 361.943 16.6477 358.291 1.97186 431.531C-4.58632 464.26 2.30986 536.747 96.1784 614.61C226.801 693.384 331.654 618.989 488.001 608.549C610.816 600.348 752.082 757.114 887.276 584.779C1009.39 429.116 963.64 351.693 930.138 312.317Z" fill="#CE0606" fill-opacity="0.2"/>
<path d="M327.588 728.109V499.482H319.968V728.109H301.78V733.815H347.006V728.109H327.588ZM250.245 290.722H257.455V475.886H250.245V290.722Z" fill="#DF3426" fill-opacity="0.7"/>
<path d="M385.194 653.466L373.825 683.52C382.155 689.9 391.243 693.928 401.66 693.835L415.588 663.973L385.194 653.466Z" fill="#FBBC05"/>
<path d="M414.374 684.058C397.083 680.641 388.33 677.09 374.216 668.279C379.959 644.924 394.788 540.549 417.497 485.401C381.549 453.937 236.825 493.698 293.557 357.938L367.407 372.981C363.841 388.371 478.526 417.858 489.223 457.255C501.069 500.884 444.933 608.206 414.374 684.058Z" fill="#CE0606"/>
<path d="M373.826 683.521C366.307 689.272 362.177 697.739 361.228 708.753L433.583 736.559C449.523 711.309 402.578 708.102 401.66 693.835C391.066 693.175 382.126 689.023 373.826 683.521Z" fill="#CE0606"/>
<path d="M494.47 672.73L494.368 704.863C504.408 707.914 514.332 708.497 524.053 704.757L526.619 671.905L494.47 672.73Z" fill="#FBBC05"/>
<path d="M532.527 691.14C515.137 694.006 505.694 693.752 489.387 690.454C486.57 666.568 463.838 563.626 465.755 504.016C439.043 493.946 360.498 504.084 314.315 484.49C283.212 471.294 274.62 445.961 276.832 386.788L374.452 381.503C376.513 397.165 499.208 419.356 523.047 452.496C549.447 489.194 534.533 609.388 532.527 691.14ZM494.369 704.863C489.345 712.887 488.449 722.264 491.425 732.911L568.936 733.565C575.004 704.327 529.917 717.793 524.054 704.757C513.901 707.855 504.072 707.103 494.369 704.863Z" fill="#DF3426"/>
<path d="M494.913 319.584C494.913 319.584 536.815 325.114 543.223 331.963C549.631 338.812 555.426 359.513 549.284 355.67C543.143 351.827 536.141 345.696 528.481 342.688C520.805 339.675 516.734 347.319 511.769 344.683C506.805 342.047 492.924 339.164 492.924 339.164L494.913 319.584Z" fill="#EBB5B0"/>
<path d="M373.334 207.865C402.029 232.562 408.389 278.432 419.073 295.272L497.349 314.64L493.924 340.519C493.924 340.519 421.093 337.772 408.813 331.444C396.535 325.116 332.563 257.6 332.563 257.6C332.563 257.6 335.353 175.175 373.334 207.865Z" fill="#DE6B61"/>
<path d="M342.374 202.971C341.189 202.779 339.974 202.884 338.839 203.276C330.469 206.186 295.245 220.634 287.32 259.907C282.18 285.373 275.348 364.328 273.449 387.021C273.146 390.645 275.513 393.965 279.053 394.799C314.389 403.116 366.158 398.475 380.724 386.085C382.544 384.538 383.473 382.198 383.28 379.818C378.583 321.947 400.074 308.187 395.952 243.515C394.987 228.373 380.086 213.845 375.01 209.313C373.957 208.373 372.655 207.757 371.261 207.539L342.374 202.971Z" fill="#EA4335"/>
<path d="M367.589 177.87C356.588 179.527 351.546 184.131 339.027 176.021C319.977 163.681 308.08 125.667 337.665 113.777C340.392 108.458 342.613 106.563 350.007 106.093C357.396 105.625 364.261 109.852 374.152 111.179C384.041 112.504 399.536 104.463 405.961 120.113C412.387 135.761 389.371 143.682 377.614 149.126C365.855 154.569 367.475 167.281 367.589 177.87Z" fill="#053211"/>
<path d="M340.628 202.694C350.593 216.221 361.33 220.149 373.334 207.866L373.977 184.786L374.259 175.07L348.268 171.129L346.872 176.968L340.628 202.694Z" fill="#FF8277"/>
<path d="M345.863 181.128C351.114 189.829 368.472 194.75 373.772 192.165L374.259 175.071L349.783 160.139L345.863 181.128Z" fill="#FC675A"/>
<path d="M394.464 131.663C397.203 145.87 397.372 176.386 384.252 185.735C375.945 191.653 350.076 184.954 347.635 164.846C341.992 159.294 339.036 147.398 345.647 143.205C350.36 140.218 354.228 150.587 361.73 150.106C364.577 149.924 358.904 130.228 367.988 128.343C377.073 126.458 385.125 134.749 394.464 131.663ZM489.825 331.768C489.825 331.768 525.794 326.997 533.87 331.768C541.946 336.54 553.324 354.778 546.35 352.816C539.376 350.854 530.934 346.939 522.736 346.205C514.525 345.469 512.765 353.95 507.259 352.816C501.753 351.682 487.622 352.816 487.622 352.816L489.825 331.768Z" fill="#FF8277"/>
<path d="M340.534 236.648C376.739 256.262 416.163 327.486 416.163 327.486L499.065 331.53L498.09 358.821C498.09 358.821 406.309 368.81 393.477 363.694C380.647 358.578 328.121 313.53 311.694 292.689C285.476 259.424 312.757 221.602 340.534 236.648Z" fill="#ED7C72"/>
<path d="M579.951 262.71L565.173 351.28H474.508V363.478H577.27L594.082 262.71H579.951Z" fill="#EA4335"/>
<path d="M411.745 504.726H243.104C242.304 504.726 241.536 504.408 240.97 503.842C240.404 503.276 240.086 502.508 240.086 501.708V476.611C240.086 475.81 240.404 475.042 240.97 474.477C241.536 473.911 242.304 473.593 243.104 473.593H411.745C412.545 473.593 413.313 473.911 413.879 474.477C414.445 475.042 414.762 475.81 414.762 476.611V501.708C414.762 502.508 414.445 503.276 413.879 503.842C413.313 504.408 412.545 504.726 411.745 504.726ZM267.139 352.99H241.381C240.56 352.99 239.772 352.663 239.191 352.082C238.61 351.502 238.284 350.714 238.284 349.892V208.121C238.284 207.299 238.61 206.511 239.191 205.93C239.772 205.349 240.56 205.023 241.381 205.023H267.139C267.961 205.023 268.749 205.349 269.329 205.93C269.91 206.511 270.237 207.299 270.237 208.121V349.892C270.237 350.714 269.91 351.502 269.329 352.082C268.749 352.663 267.961 352.99 267.139 352.99ZM448.874 363.478H818.99V383.304H448.874V363.478Z" fill="#CE0606"/>
<path d="M629.313 383.304H636.124V731.007H629.313V383.304Z" fill="#DF3426" fill-opacity="0.7"/>
<path d="M608.541 728.197H656.896V733.815H608.541V728.197Z" fill="#E66E65"/>
<path d="M168.165 708.884C161.944 682.134 157.819 605.275 172.13 553.749C184.517 509.141 172.344 482.978 172.221 482.716L174.865 481.44C175.392 482.536 187.668 508.77 174.956 554.534C160.78 605.588 164.862 681.723 171.025 708.219L168.165 708.884Z" fill="#CE0606"/>
<path d="M182.916 711.066C180.914 710.366 171.135 703.145 175.071 629.575C179.036 555.395 140.468 543.394 140.078 543.282L140.893 540.46C142.576 540.949 182.093 553.244 178.002 629.73C174.157 701.629 183.925 708.297 184.025 708.354L182.916 711.066Z" fill="#CE0606"/>
<path d="M177.76 706.875C175.585 697.532 179.595 677.117 183.838 655.503C186.694 640.957 189.649 625.912 190.243 615.705C190.848 605.299 189.225 592.894 187.654 580.893C185.452 564.07 183.374 548.179 186.86 536.955C189.062 529.874 194.205 524.599 200.973 522.481C208.255 520.219 216.454 521.862 222.917 526.911L221.11 529.221C215.405 524.765 208.204 523.284 201.851 525.285C195.93 527.137 191.602 531.589 189.663 537.828C186.366 548.438 188.408 564.02 190.564 580.513C192.153 592.648 193.795 605.194 193.173 615.878C192.568 626.282 189.595 641.426 186.72 656.072C182.72 676.43 178.587 697.481 180.622 706.211L177.76 706.875Z" fill="#CE0606"/>
<path d="M93.162 576.681C101.654 573.18 111.532 556.573 120.81 556.963C122.928 567.53 107.274 567.984 101.395 574.255C96.5323 580.723 119.617 584.267 129.59 577.645C137.952 572.572 134.385 560.568 143.358 542.603C150.808 527.138 156.394 526.633 156.994 517.385C158.089 500.466 140.521 485.124 138.656 486.23C137.903 486.677 140.048 489.571 140.986 497.176C141.657 497.797 141.66 527.746 133.883 517.929C128.433 505.503 142.559 496.251 133.053 482.165C125.922 471.605 107.634 472.003 107.245 473.316C116.531 475.44 122.507 499.224 118.537 508.818C115.681 514.376 113.366 509.717 112.533 504.119C107.351 486.065 105.872 476.192 92.5406 469.008C76.1997 460.202 63.458 475.786 42.874 479.417C42.874 479.417 38.1857 504.621 48.3958 518.474C58.2224 531.807 71.7527 519.076 82.5379 522.188C87.3398 523.079 88.5917 529.217 85.6327 532.218C81.5033 538.32 71.8019 538.947 64.8011 539.323C53.2022 539.939 49.0513 537.501 47.7556 539.665C44.134 545.279 62.3402 560.535 72.122 556.924C84.5311 557.772 98.141 536.703 110.675 541.979C111.083 551.828 86.535 563.039 75.9546 563.855C70.3381 563.648 66.5073 561.162 65.9832 562.035C68.6891 567.474 85.3251 579.314 93.162 576.681Z" fill="#DF3426"/>
<path d="M113.998 574.602C116.843 574.215 119.552 573.145 121.894 571.484C124.166 569.882 125.955 567.76 127.325 565.355C128.822 562.715 129.855 559.858 130.963 557.042C132.169 553.993 133.533 551.003 135.09 548.118C135.798 546.817 136.495 545.484 137.342 544.27C138.048 543.257 138.97 542.288 140.263 542.148C140.278 542.147 140.282 542.134 140.296 542.133C140.495 542.246 140.699 542.347 140.896 542.468C141.556 542.86 142.21 543.269 142.847 543.707C142.884 543.604 142.932 543.512 142.981 543.412C141.82 542.631 140.617 541.915 139.375 541.269C139.372 541.261 139.367 541.252 139.361 541.25C138.92 540.842 138.556 540.332 138.252 539.809C137.964 539.32 137.666 538.744 137.671 538.163C137.684 537.297 138.029 536.427 138.346 535.63C138.671 534.835 139.014 534.04 139.375 533.258C141.907 527.755 145.196 522.569 147.016 516.758C148.508 511.982 149.024 506.719 147.179 501.964C147.105 501.772 146.81 501.905 146.888 502.104C147.959 504.876 148.225 507.876 147.934 510.825C147.363 516.596 144.785 521.849 142.168 526.944C140.716 529.766 139.232 532.575 138.044 535.52C137.608 536.604 137.098 537.873 137.521 539.03C137.752 539.677 138.131 540.316 138.58 540.871C135.047 539.151 131.271 538.004 127.523 536.851C127.352 536.796 127.171 536.743 126.999 536.688L126.996 536.68C125.025 534.589 123.799 531.925 123.159 529.139C121.85 523.46 123.147 517.767 124.624 512.258C125.029 510.751 125.441 509.24 125.822 507.724C126.181 506.304 126.535 504.861 126.691 503.393C126.948 500.899 126.529 498.166 124.669 496.335C124.522 496.192 124.269 496.396 124.422 496.541C126.763 498.842 126.663 502.34 126.054 505.331C124.839 511.272 122.503 517.026 122.284 523.151C122.116 527.854 123.258 532.903 126.413 536.509C122.902 535.423 119.388 534.273 116.115 532.574C114.327 531.642 112.657 530.532 111.071 529.31C111.061 529.299 111.06 529.285 111.043 529.272C111.024 529.265 111.009 529.252 110.985 529.243C109.554 528.124 108.176 526.937 106.856 525.688C104.652 523.615 102.547 521.442 100.366 519.344C99.0704 516.435 98.5321 513.239 98.2165 510.09C97.6451 504.439 98.0627 498.578 96.2107 493.126C94.5582 488.275 90.5056 483.608 85.0536 483.422C84.8444 483.414 84.8175 483.733 85.0268 483.741C88.0582 483.842 90.7703 485.462 92.7573 487.695C96.5988 492.019 97.2105 498.014 97.4859 503.552C97.7381 508.648 97.8543 514.002 99.7876 518.797C99.5077 518.531 99.2287 518.258 98.9426 517.989C96.0909 515.358 93.0059 513.047 89.6517 511.099C82.7787 507.106 75.2101 504.536 67.7121 502.012C67.518 501.941 67.408 502.244 67.6021 502.315C68.5204 502.622 69.4379 502.928 70.3545 503.24C77.5645 505.701 84.8175 508.37 91.2809 512.467C89.2537 512.058 87.1094 512.555 85.1305 512.995C82.6508 513.546 79.7446 514.081 77.5341 512.46C77.366 512.337 77.1809 512.598 77.349 512.722C79.4174 514.244 82.1554 513.964 84.5215 513.459C86.9842 512.935 89.6803 512.132 92.142 513.042C92.1537 513.046 92.1581 513.034 92.1707 513.038L92.1769 513.04C95.3773 515.167 98.2317 517.696 100.976 520.376C103.603 522.946 106.144 525.601 108.937 527.998C109.204 528.225 109.48 528.449 109.749 528.671C106.974 527.661 103.785 528.161 101.089 529.286C97.9714 530.588 95.3907 532.869 92.8699 535.06C90.367 537.238 87.7863 539.257 84.9025 540.898C79.3285 544.059 73.1074 545.91 66.7115 546.308C66.5031 546.315 66.5639 546.638 66.7687 546.623C73.3869 546.212 79.8162 544.252 85.5392 540.903C88.3193 539.266 90.8052 537.281 93.2339 535.172C95.7654 532.971 98.3685 530.706 101.529 529.454C104.447 528.3 107.984 527.898 110.815 529.513C113.144 531.296 115.641 532.809 118.347 533.993C122.064 535.607 125.978 536.696 129.836 537.901L130.819 538.218C128.62 538.564 126.534 539.561 124.731 540.854C122.791 542.241 121.183 544.038 119.604 545.81C117.972 547.653 116.323 549.468 114.507 551.135C110.988 554.37 107.057 557.128 102.817 559.337C102.631 559.435 102.77 559.732 102.95 559.632C107.363 557.338 111.442 554.452 115.074 551.053C116.827 549.406 118.422 547.625 120.016 545.83C121.616 544.038 123.262 542.235 125.259 540.875C127.111 539.614 129.248 538.669 131.496 538.451C131.505 538.448 131.501 538.439 131.507 538.441C134.383 539.386 137.211 540.463 139.866 541.897C138.745 542.148 137.879 542.979 137.216 543.897C136.234 545.236 135.462 546.752 134.677 548.21C133.171 551.038 131.828 553.95 130.657 556.933C129.527 559.809 128.479 562.743 126.915 565.421C125.493 567.855 123.629 569.956 121.283 571.517C119.076 572.985 116.565 573.932 113.939 574.287C113.738 574.315 113.795 574.63 113.998 574.602Z" fill="#8DACE0"/>
<path d="M278.33 507.636C269.248 509.012 255.695 522.784 246.777 520.192C247.241 509.425 262.552 512.717 269.755 508.028C276.019 502.906 254.446 493.96 243.183 498.013C233.852 500.945 234.453 513.454 221.455 528.76C210.533 542.002 204.987 541.161 202.198 549.998C197.1 566.169 210.503 585.257 212.578 584.628C213.416 584.374 212.023 581.051 212.926 573.443C212.424 572.679 219.562 543.594 224.774 554.982C227.102 568.348 211.179 573.965 217.051 589.912C221.459 601.868 239.314 605.843 240.005 604.66C231.494 600.383 231.361 575.859 237.505 567.489C241.604 562.773 242.741 567.849 242.216 573.485C242.943 592.253 242.025 602.194 253.258 612.351C267.028 624.8 283.118 612.704 303.973 614.086C303.973 614.086 314.538 590.727 307.925 574.838C301.562 559.547 285.385 568.684 275.653 563.091C271.202 561.082 271.45 554.821 275.039 552.612C280.505 547.67 290.076 549.375 296.964 550.679C308.375 552.847 311.825 556.205 313.6 554.412C318.455 549.824 304.413 530.665 294.051 531.841C282.204 528.057 263.962 545.273 253.047 537.161C255.001 527.499 281.513 522.464 291.981 524.195C297.387 525.735 300.515 529.064 301.232 528.34C299.9 522.413 286.568 506.949 278.33 507.636Z" fill="#DF3426"/>
<path d="M257.6 504.687C254.744 504.384 251.858 504.776 249.188 505.831C246.599 506.845 244.356 508.48 242.452 510.488C240.369 512.696 238.685 515.223 236.938 517.695C235.039 520.368 233.002 522.947 230.801 525.376C229.804 526.471 228.809 527.598 227.696 528.576C226.77 529.391 225.643 530.112 224.353 529.939C224.339 529.938 224.331 529.948 224.317 529.947C224.151 529.788 223.977 529.642 223.815 529.478C223.263 528.94 222.73 528.384 222.215 527.81C222.155 527.901 222.087 527.979 222.015 528.063C222.956 529.099 223.955 530.081 225.006 531.005C225.007 531.014 225.01 531.022 225.015 531.026C225.347 531.528 225.579 532.109 225.748 532.689C225.912 533.234 226.064 533.863 225.92 534.427C225.701 535.265 225.159 536.028 224.66 536.727C224.154 537.424 223.633 538.11 223.096 538.784C219.324 543.524 214.894 547.777 211.741 552.986C209.153 557.269 207.396 562.257 208.055 567.316C208.08 567.52 208.399 567.462 208.371 567.249C207.992 564.302 208.449 561.324 209.435 558.53C211.366 553.061 215.122 548.575 218.878 544.251C220.962 541.858 223.072 539.483 224.929 536.907C225.611 535.958 226.409 534.848 226.273 533.624C226.203 532.94 225.988 532.23 225.683 531.583C228.706 534.096 232.098 536.111 235.463 538.122C235.617 538.217 235.779 538.311 235.933 538.407L235.934 538.416C237.35 540.916 237.906 543.795 237.862 546.654C237.78 552.483 235.163 557.7 232.414 562.699C231.662 564.066 230.9 565.434 230.169 566.816C229.482 568.11 228.794 569.427 228.293 570.814C227.448 573.176 227.203 575.93 228.572 578.151C228.681 578.325 228.975 578.188 228.861 578.01C227.137 575.218 228.068 571.844 229.373 569.084C231.97 563.604 235.61 558.573 237.284 552.677C238.568 548.15 238.665 542.974 236.459 538.72C239.611 540.612 242.749 542.566 245.522 544.997C247.037 546.33 248.394 547.804 249.643 549.371C249.65 549.383 249.648 549.398 249.661 549.414C249.677 549.424 249.689 549.441 249.711 549.455C250.834 550.883 251.888 552.364 252.872 553.892C254.518 556.431 256.044 559.044 257.661 561.601C258.226 564.735 257.988 567.967 257.543 571.1C256.75 576.724 254.946 582.317 255.444 588.053C255.892 593.158 258.716 598.656 263.965 600.138C264.168 600.195 264.27 599.891 264.067 599.834C261.148 599.012 258.9 596.793 257.503 594.15C254.802 589.036 255.639 583.068 256.691 577.624C257.661 572.616 258.826 567.387 258.091 562.27C258.3 562.596 258.505 562.927 258.719 563.257C260.862 566.492 263.306 569.472 266.099 572.164C271.822 577.681 278.559 581.981 285.239 586.221C285.41 586.335 285.589 586.067 285.418 585.952C284.599 585.435 283.781 584.919 282.966 584.396C276.55 580.287 270.144 575.967 264.843 570.446C266.714 571.326 268.914 571.355 270.941 571.401C273.482 571.456 276.431 571.631 278.191 573.732C278.325 573.891 278.566 573.681 278.433 573.522C276.788 571.55 274.062 571.17 271.644 571.095C269.127 571.016 266.318 571.154 264.144 569.683C264.134 569.675 264.126 569.687 264.116 569.679L264.11 569.676C261.509 566.848 259.341 563.71 257.314 560.453C255.377 557.331 253.542 554.146 251.401 551.153C251.196 550.869 250.981 550.585 250.773 550.305C253.228 551.949 256.444 552.223 259.33 551.774C262.668 551.252 265.717 549.653 268.688 548.126C271.637 546.608 274.625 545.263 277.817 544.356C283.984 542.615 290.467 542.302 296.773 543.44C296.977 543.483 296.996 543.154 296.794 543.12C293.366 542.498 289.875 542.304 286.4 542.542C283.282 542.754 280.197 543.31 277.202 544.2C274.111 545.127 271.224 546.462 268.361 547.93C265.378 549.464 262.311 551.043 258.943 551.505C255.833 551.93 252.302 551.477 249.938 549.233C248.1 546.947 246.036 544.882 243.691 543.087C240.466 540.633 236.924 538.642 233.466 536.551L232.587 536.009C234.804 536.198 237.068 535.727 239.128 534.901C241.343 534.016 243.332 532.655 245.289 531.309C247.313 529.909 249.348 528.539 251.507 527.353C255.697 525.05 260.171 523.309 264.816 522.176C265.021 522.126 264.956 521.804 264.758 521.858C262.212 522.479 259.714 523.281 257.283 524.259C255.105 525.135 252.986 526.15 250.939 527.3C248.843 528.482 246.869 529.83 244.894 531.193C242.912 532.552 240.885 533.912 238.62 534.755C236.52 535.538 234.22 535.947 231.985 535.622C231.975 535.623 231.977 535.633 231.971 535.629C229.404 534.027 226.915 532.307 224.678 530.28C225.826 530.304 226.865 529.703 227.729 528.97C229.001 527.904 230.113 526.615 231.223 525.386C233.36 522.999 235.358 520.491 237.207 517.874C238.99 515.349 240.707 512.749 242.866 510.523C244.827 508.499 247.138 506.902 249.789 505.945C252.282 505.046 254.946 504.726 257.582 505.007C257.783 505.027 257.803 504.707 257.6 504.687Z" fill="#8DACE0"/>
<path d="M116.919 467.632C125.018 471.965 144.118 469.042 149.713 476.455C142.898 484.804 132.601 473.003 124.023 472.448C115.939 472.804 127.87 492.881 139.318 496.374C148.548 499.609 155.554 489.228 175.126 484.743C191.801 480.671 195.74 484.664 203.264 479.252C217.025 469.348 217.711 446.034 215.673 445.297C214.85 444.999 213.976 448.494 208.7 454.05C208.646 454.962 185.52 473.992 188.16 461.749C194.295 449.647 210.412 454.677 215.252 438.386C218.876 426.17 206.949 412.301 205.688 412.836C209.947 421.356 195.377 441.082 185.445 444.112C179.34 445.437 181.466 440.69 185.259 436.489C195.909 421.017 202.594 413.602 199.672 398.743C196.091 380.529 175.96 380.59 160.08 367.001C160.08 367.001 137.637 379.393 133.426 396.08C129.374 412.138 147.801 414.499 152.25 424.805C154.613 429.078 150.668 433.946 146.47 433.568C139.135 434.256 132.486 427.163 127.749 421.995C119.904 413.43 119.149 408.676 116.654 409.05C110.018 409.821 109.804 433.573 118.808 438.831C126.035 448.953 150.953 446.076 154.843 459.109C147.495 465.681 123.242 453.848 115.891 446.195C112.481 441.727 111.968 437.189 110.96 437.338C108.48 442.884 109.907 463.253 116.919 467.632Z" fill="#CE0606"/>
<path d="M131.761 482.401C133.867 484.352 136.415 485.765 139.186 486.518C141.867 487.254 144.641 487.287 147.369 486.816C150.359 486.295 153.221 485.278 156.1 484.345C159.22 483.339 162.396 482.492 165.613 481.862C167.067 481.581 168.539 481.274 170.016 481.157C171.246 481.057 172.579 481.155 173.509 482.064C173.52 482.074 173.532 482.07 173.542 482.081C173.581 482.307 173.632 482.528 173.665 482.756C173.782 483.515 173.881 484.28 173.948 485.05C174.051 485.013 174.152 484.992 174.261 484.967C174.126 483.574 173.914 482.19 173.625 480.82C173.628 480.812 173.632 480.803 173.63 480.797C173.665 480.197 173.827 479.593 174.038 479.025C174.233 478.491 174.488 477.895 174.94 477.531C175.618 476.991 176.509 476.704 177.326 476.442C178.149 476.187 178.977 475.949 179.81 475.73C185.669 474.189 191.764 473.433 197.407 471.148C202.044 469.265 206.435 466.32 208.936 461.874C209.037 461.695 208.747 461.551 208.642 461.738C207.181 464.327 205.034 466.439 202.572 468.087C197.752 471.313 192.059 472.659 186.461 473.875C183.36 474.546 180.248 475.185 177.219 476.138C176.104 476.49 174.8 476.902 174.176 477.963C173.823 478.554 173.571 479.251 173.428 479.951C172.511 476.13 170.998 472.486 169.507 468.859C169.441 468.69 169.366 468.519 169.3 468.351L169.304 468.343C169.666 465.493 170.944 462.853 172.689 460.589C176.244 455.969 181.463 453.355 186.657 450.995C188.077 450.35 189.506 449.708 190.919 449.04C192.244 448.415 193.584 447.771 194.816 446.96C196.906 445.573 198.75 443.513 198.982 440.914C198.999 440.71 198.681 440.644 198.667 440.854C198.377 444.124 195.613 446.269 192.916 447.7C187.555 450.536 181.628 452.388 176.759 456.111C173.021 458.969 169.847 463.058 169.066 467.786C167.675 464.386 166.329 460.94 165.562 457.334C165.147 455.359 164.942 453.366 164.878 451.364C164.879 451.351 164.891 451.34 164.89 451.319C164.884 451.301 164.883 451.28 164.874 451.256C164.829 449.439 164.87 447.622 164.997 445.809C165.197 442.79 165.538 439.784 165.773 436.767C167.196 433.918 169.322 431.471 171.554 429.228C175.554 425.196 180.346 421.795 183.379 416.9C186.075 412.543 187.105 406.447 183.785 402.12C183.658 401.952 183.394 402.135 183.521 402.302C185.368 404.708 185.841 407.831 185.379 410.785C184.482 416.499 180.24 420.778 176.139 424.51C172.364 427.943 168.302 431.435 165.828 435.975C165.856 435.588 165.89 435.2 165.916 434.808C166.135 430.934 165.96 427.083 165.334 423.255C164.049 415.411 161.226 407.934 158.412 400.54C158.343 400.346 158.039 400.454 158.107 400.648C158.454 401.551 158.8 402.455 159.141 403.361C161.822 410.493 164.37 417.788 165.312 425.384C164.339 423.558 162.595 422.218 160.998 420.969C158.995 419.405 156.736 417.5 156.584 414.763C156.572 414.555 156.252 414.579 156.264 414.787C156.403 417.351 158.359 419.288 160.252 420.794C162.221 422.363 164.554 423.934 165.415 426.414C165.419 426.425 165.432 426.421 165.435 426.433L165.438 426.44C165.83 430.262 165.69 434.073 165.363 437.895C165.047 441.556 164.612 445.206 164.535 448.885C164.529 449.236 164.531 449.591 164.531 449.94C163.549 447.153 161.136 445.01 158.554 443.643C155.569 442.062 152.168 441.518 148.874 440.964C145.602 440.415 142.403 439.704 139.304 438.52C133.321 436.224 127.94 432.596 123.568 427.911C123.432 427.754 123.22 428.005 123.361 428.155C125.734 430.704 128.415 432.95 131.342 434.839C133.967 436.535 136.771 437.936 139.704 439.016C142.733 440.122 145.846 440.781 149.018 441.317C152.326 441.873 155.729 442.443 158.703 444.089C161.449 445.61 164.006 448.086 164.557 451.298C164.662 454.229 165.08 457.118 165.884 459.96C166.999 463.855 168.646 467.571 170.165 471.316L170.545 472.276C168.881 470.798 166.785 469.821 164.641 469.25C162.337 468.634 159.928 468.533 157.556 468.44C155.097 468.351 152.646 468.231 150.206 467.887C145.471 467.225 140.845 465.942 136.445 464.071C136.251 463.989 136.11 464.285 136.301 464.361C138.712 465.386 141.194 466.239 143.727 466.911C145.996 467.513 148.301 467.967 150.629 468.271C153.015 468.578 155.403 468.679 157.802 468.769C160.203 468.867 162.641 468.991 164.961 469.671C167.111 470.3 169.198 471.349 170.795 472.947C170.803 472.951 170.807 472.942 170.81 472.949C171.908 475.769 172.872 478.637 173.452 481.599C172.546 480.893 171.354 480.753 170.223 480.823C168.566 480.915 166.905 481.284 165.28 481.604C162.139 482.237 159.036 483.051 155.989 484.041C153.05 484.996 150.118 486.052 147.057 486.544C144.273 486.992 141.467 486.889 138.77 486.069C136.234 485.298 133.907 483.96 131.965 482.156C131.818 482.018 131.61 482.263 131.761 482.401Z" fill="#DAE3F2"/>
<path d="M210.088 683.194C209.719 687.949 203.45 726.479 202.869 733.884H147.596C146.921 726.102 140.059 688.28 139.625 683.194H210.088Z" fill="#EA4335"/>
<path d="M139.625 683.194L140.178 689.593H161.457C180.805 689.593 194.611 706.017 194.534 725.365C194.517 729.611 192.816 732.185 190.623 733.884H202.868C203.449 726.477 209.718 687.948 210.087 683.194H139.625Z" fill="#C43E33"/>
<path d="M208.708 683.197H141.006C136.464 683.197 132.781 680.209 132.781 676.524C132.781 672.84 136.463 669.854 141.006 669.854H208.708C213.252 669.854 216.935 672.84 216.935 676.524C216.935 680.21 213.252 683.197 208.708 683.197Z" fill="#EA4335"/>
<path d="M703.201 38.3252H474.118C467.04 38.3252 461.304 44.4989 461.304 52.1194V207.89C461.304 215.51 467.04 221.709 474.118 221.709H703.201C710.279 221.709 716.014 215.51 716.014 207.89V52.1194C716.015 44.4989 710.279 38.3252 703.201 38.3252ZM712.475 206.779C712.475 213.496 706.895 218.92 699.998 218.92H477.296C470.425 218.92 464.845 213.497 464.845 206.779V69.7631C464.845 63.0467 470.425 57.5964 477.296 57.5964H699.998C706.895 57.5964 712.475 63.0467 712.475 69.7631V206.779Z" fill="#CE0606"/>
<path d="M712.475 69.7627V206.779C712.475 213.495 706.895 218.92 699.998 218.92H477.296C470.425 218.92 464.845 213.496 464.845 206.779V69.7627C464.845 63.0463 470.425 57.596 477.296 57.596H699.998C706.895 57.596 712.475 63.0463 712.475 69.7627ZM508.103 48.2318C508.103 46.9602 507.147 45.9292 505.966 45.9292C504.786 45.9292 503.829 46.9602 503.829 48.2318C503.829 49.5034 504.786 50.5344 505.966 50.5344C507.147 50.5344 508.103 49.5034 508.103 48.2318ZM497.273 48.2318C497.273 46.9602 496.317 45.9292 495.136 45.9292C493.956 45.9292 492.999 46.9602 492.999 48.2318C492.999 49.5034 493.956 50.5344 495.136 50.5344C496.317 50.5344 497.273 49.5034 497.273 48.2318ZM486.445 48.2318C486.445 46.9602 485.488 45.9292 484.307 45.9292C483.127 45.9292 482.17 46.9602 482.17 48.2318C482.17 49.5034 483.127 50.5344 484.307 50.5344C485.488 50.5344 486.445 49.5034 486.445 48.2318ZM645.57 50.5344H694.692C695.303 50.5344 695.889 50.2918 696.32 49.86C696.752 49.4282 696.995 48.8425 696.995 48.2318C696.995 47.6211 696.752 47.0354 696.32 46.6036C695.889 46.1718 695.303 45.9292 694.692 45.9292H645.57C644.959 45.9292 644.374 46.1718 643.942 46.6036C643.51 47.0354 643.268 47.6211 643.268 48.2318C643.268 48.8425 643.51 49.4282 643.942 49.86C644.374 50.2918 644.959 50.5344 645.57 50.5344Z" fill="white"/>
<path d="M595.25 131.155C613.142 125.056 622.702 105.609 616.604 87.7168C610.506 69.825 591.058 60.2643 573.166 66.3625C555.274 72.4607 545.714 91.9085 551.812 109.8C557.91 127.692 577.358 137.253 595.25 131.155Z" fill="#ED7C72"/>
<path d="M586.75 101.964C593.891 100.277 598.314 93.1206 596.628 85.9787C594.941 78.8368 587.784 74.4143 580.642 76.1007C573.501 77.7872 569.078 84.9439 570.764 92.0858C572.451 99.2277 579.608 103.65 586.75 101.964Z" fill="white"/>
<path d="M595.885 102.462C595.366 102.059 594.725 101.844 594.068 101.853C593.411 101.863 592.776 102.096 592.269 102.514C589.899 104.451 586.931 105.508 583.87 105.504C580.785 105.504 577.948 104.453 575.696 102.687C574.625 101.847 573.105 101.864 572.071 102.751C569.39 105.049 567.758 108.364 567.758 112.672V113.06C567.758 113.59 567.862 114.115 568.065 114.604C568.268 115.094 568.565 115.538 568.94 115.913C569.315 116.288 569.759 116.585 570.249 116.787C570.738 116.99 571.263 117.094 571.793 117.094H596.622C597.692 117.094 598.718 116.669 599.475 115.913C600.232 115.156 600.657 114.13 600.657 113.06V112.672C600.657 108.179 598.834 104.766 595.885 102.462Z" fill="white"/>
<path d="M618.563 154.837H536.249C535.71 154.837 535.176 154.731 534.678 154.525C534.18 154.319 533.727 154.016 533.346 153.635C532.965 153.254 532.663 152.801 532.456 152.303C532.25 151.805 532.144 151.271 532.144 150.732V149.49C532.144 148.401 532.577 147.357 533.346 146.587C534.116 145.817 535.161 145.384 536.249 145.384H618.563C619.652 145.384 620.696 145.817 621.466 146.587C622.236 147.357 622.668 148.401 622.668 149.49V150.732C622.668 151.82 622.236 152.865 621.466 153.635C620.696 154.405 619.652 154.837 618.563 154.837ZM618.563 176.593H536.498C535.959 176.593 535.425 176.487 534.927 176.281C534.429 176.075 533.976 175.772 533.595 175.391C533.214 175.01 532.911 174.557 532.705 174.059C532.499 173.561 532.393 173.027 532.393 172.488V171.246C532.393 170.707 532.499 170.173 532.705 169.675C532.911 169.177 533.214 168.724 533.595 168.343C533.976 167.961 534.429 167.659 534.927 167.453C535.425 167.247 535.959 167.14 536.498 167.141H618.563C619.652 167.141 620.696 167.573 621.466 168.343C622.236 169.113 622.668 170.157 622.668 171.246V172.488C622.668 173.577 622.236 174.621 621.466 175.391C620.696 176.161 619.652 176.593 618.563 176.593ZM641.069 154.837H631.575C630.486 154.837 629.442 154.405 628.672 153.635C627.902 152.865 627.469 151.82 627.469 150.732V149.49C627.469 148.401 627.902 147.357 628.672 146.587C629.442 145.817 630.486 145.384 631.575 145.384H641.069C642.158 145.384 643.202 145.817 643.972 146.587C644.742 147.357 645.175 148.401 645.175 149.49V150.732C645.175 151.82 644.742 152.865 643.972 153.635C643.202 154.405 642.158 154.837 641.069 154.837ZM641.069 176.593H631.575C630.486 176.593 629.442 176.161 628.672 175.391C627.902 174.621 627.469 173.577 627.469 172.488V171.246C627.469 170.157 627.902 169.113 628.672 168.343C629.442 167.573 630.486 167.141 631.575 167.141H641.069C642.158 167.141 643.202 167.573 643.972 168.343C644.742 169.113 645.175 170.157 645.175 171.246V172.488C645.175 173.577 644.742 174.621 643.972 175.391C643.202 176.161 642.158 176.593 641.069 176.593Z" fill="#ED7C72"/>
<path d="M540.86 168.913L541.136 170.845C541.139 170.868 541.147 170.889 541.16 170.908C541.173 170.927 541.189 170.943 541.209 170.955C541.229 170.967 541.251 170.974 541.273 170.976C541.296 170.978 541.319 170.976 541.341 170.968L543.173 170.293C543.337 170.233 543.458 170.451 543.32 170.558L541.784 171.763C541.766 171.777 541.752 171.795 541.741 171.815C541.731 171.836 541.726 171.858 541.725 171.881C541.725 171.904 541.73 171.927 541.739 171.948C541.749 171.968 541.763 171.987 541.781 172.001L543.28 173.252C543.414 173.363 543.287 173.577 543.125 173.512L541.313 172.784C541.292 172.775 541.269 172.771 541.246 172.773C541.223 172.774 541.201 172.781 541.181 172.792C541.161 172.803 541.144 172.819 541.13 172.837C541.117 172.856 541.108 172.878 541.105 172.9L540.772 174.824C540.742 174.996 540.493 174.993 540.469 174.819L540.193 172.887C540.19 172.864 540.182 172.842 540.169 172.823C540.156 172.804 540.14 172.788 540.12 172.777C540.1 172.765 540.078 172.758 540.056 172.756C540.033 172.753 540.01 172.756 539.989 172.764L538.156 173.438C537.992 173.499 537.871 173.281 538.009 173.174L539.545 171.969C539.563 171.955 539.578 171.937 539.588 171.917C539.598 171.896 539.603 171.874 539.604 171.851C539.604 171.828 539.599 171.805 539.59 171.784C539.58 171.764 539.566 171.745 539.549 171.73L538.049 170.48C537.915 170.369 538.042 170.155 538.205 170.22L540.016 170.948C540.037 170.957 540.06 170.96 540.083 170.959C540.106 170.958 540.128 170.951 540.148 170.94C540.168 170.929 540.186 170.913 540.199 170.895C540.212 170.876 540.221 170.854 540.225 170.832L540.557 168.908C540.587 168.736 540.835 168.739 540.86 168.913ZM549.493 168.913L549.769 170.845C549.772 170.868 549.78 170.889 549.793 170.908C549.805 170.927 549.822 170.943 549.842 170.955C549.861 170.967 549.883 170.974 549.906 170.976C549.929 170.978 549.952 170.976 549.973 170.968L551.806 170.293C551.97 170.233 552.091 170.451 551.953 170.558L550.417 171.763C550.399 171.777 550.384 171.795 550.374 171.815C550.364 171.836 550.359 171.858 550.358 171.881C550.358 171.904 550.363 171.927 550.372 171.948C550.382 171.968 550.396 171.987 550.413 172.001L551.913 173.252C552.047 173.363 551.92 173.577 551.757 173.512L549.946 172.784C549.924 172.775 549.902 172.771 549.879 172.773C549.856 172.774 549.834 172.781 549.814 172.792C549.794 172.803 549.776 172.819 549.763 172.837C549.75 172.856 549.741 172.878 549.737 172.9L549.405 174.824C549.375 174.996 549.126 174.993 549.101 174.819L548.826 172.887C548.823 172.864 548.814 172.842 548.802 172.823C548.789 172.804 548.772 172.788 548.753 172.777C548.733 172.765 548.711 172.758 548.688 172.756C548.666 172.753 548.643 172.756 548.621 172.764L546.789 173.438C546.624 173.499 546.504 173.281 546.641 173.174L548.178 171.969C548.196 171.955 548.21 171.937 548.22 171.917C548.231 171.896 548.236 171.874 548.236 171.851C548.237 171.828 548.232 171.805 548.222 171.784C548.213 171.764 548.199 171.745 548.181 171.73L546.682 170.48C546.548 170.369 546.675 170.155 546.837 170.22L548.649 170.948C548.67 170.957 548.693 170.96 548.716 170.959C548.739 170.958 548.761 170.951 548.781 170.94C548.801 170.929 548.818 170.913 548.832 170.895C548.845 170.876 548.854 170.854 548.857 170.832L549.19 168.908C549.22 168.736 549.468 168.739 549.493 168.913ZM558.125 168.913L558.4 170.845C558.404 170.868 558.412 170.889 558.425 170.908C558.437 170.927 558.454 170.943 558.474 170.955C558.493 170.967 558.515 170.974 558.538 170.976C558.561 170.978 558.584 170.976 558.605 170.968L560.437 170.293C560.602 170.233 560.723 170.451 560.585 170.558L559.049 171.763C559.031 171.777 559.016 171.795 559.006 171.815C558.996 171.836 558.99 171.858 558.99 171.881C558.99 171.904 558.995 171.927 559.004 171.948C559.014 171.968 559.028 171.987 559.045 172.001L560.545 173.252C560.679 173.363 560.552 173.577 560.389 173.512L558.577 172.784C558.556 172.775 558.533 172.771 558.51 172.772C558.488 172.774 558.465 172.78 558.445 172.792C558.425 172.803 558.408 172.818 558.395 172.837C558.382 172.856 558.373 172.877 558.369 172.9L558.036 174.824C558.007 174.996 557.757 174.993 557.733 174.819L557.458 172.887C557.455 172.864 557.446 172.842 557.434 172.823C557.421 172.804 557.404 172.788 557.385 172.777C557.365 172.765 557.343 172.758 557.32 172.756C557.298 172.753 557.275 172.756 557.253 172.764L555.421 173.438C555.256 173.499 555.136 173.281 555.273 173.174L556.81 171.969C556.828 171.955 556.842 171.937 556.852 171.917C556.862 171.896 556.868 171.874 556.868 171.851C556.869 171.828 556.864 171.805 556.854 171.784C556.845 171.764 556.831 171.745 556.813 171.73L555.314 170.48C555.179 170.369 555.306 170.155 555.469 170.22L557.281 170.948C557.302 170.957 557.325 170.96 557.348 170.959C557.371 170.958 557.393 170.951 557.413 170.94C557.433 170.929 557.45 170.913 557.463 170.895C557.477 170.876 557.485 170.854 557.489 170.832L557.822 168.908C557.851 168.736 558.101 168.739 558.125 168.913ZM566.758 168.913L567.033 170.845C567.036 170.868 567.045 170.889 567.057 170.908C567.07 170.927 567.087 170.943 567.106 170.955C567.126 170.967 567.148 170.974 567.171 170.976C567.193 170.978 567.216 170.976 567.238 170.968L569.07 170.293C569.235 170.233 569.355 170.451 569.218 170.558L567.681 171.763C567.664 171.777 567.649 171.795 567.639 171.815C567.629 171.836 567.623 171.858 567.623 171.881C567.623 171.904 567.627 171.927 567.637 171.948C567.646 171.968 567.66 171.987 567.678 172.001L569.177 173.252C569.312 173.363 569.185 173.577 569.022 173.512L567.21 172.784C567.189 172.775 567.166 172.771 567.143 172.772C567.12 172.774 567.098 172.78 567.078 172.792C567.058 172.803 567.041 172.818 567.027 172.837C567.014 172.856 567.006 172.877 567.002 172.9L566.669 174.824C566.64 174.996 566.39 174.993 566.366 174.819L566.091 172.887C566.087 172.864 566.079 172.842 566.066 172.823C566.054 172.804 566.037 172.788 566.017 172.777C565.998 172.765 565.976 172.758 565.953 172.756C565.93 172.753 565.907 172.756 565.886 172.764L564.054 173.438C563.889 173.499 563.768 173.281 563.906 173.174L565.442 171.969C565.46 171.955 565.475 171.937 565.485 171.917C565.495 171.896 565.501 171.874 565.501 171.851C565.501 171.828 565.497 171.805 565.487 171.784C565.478 171.764 565.463 171.745 565.446 171.73L563.946 170.48C563.812 170.369 563.939 170.155 564.102 170.22L565.914 170.948C565.935 170.957 565.958 170.96 565.981 170.959C566.003 170.958 566.026 170.951 566.046 170.94C566.066 170.929 566.083 170.913 566.096 170.895C566.109 170.876 566.118 170.854 566.122 170.832L566.455 168.908C566.484 168.736 566.734 168.739 566.758 168.913ZM575.39 168.913L575.666 170.845C575.669 170.868 575.677 170.889 575.69 170.908C575.703 170.927 575.72 170.943 575.739 170.955C575.759 170.967 575.781 170.974 575.804 170.976C575.826 170.978 575.849 170.976 575.871 170.968L577.703 170.293C577.867 170.233 577.988 170.451 577.851 170.558L576.314 171.763C576.296 171.777 576.282 171.795 576.272 171.815C576.261 171.836 576.256 171.858 576.256 171.881C576.255 171.904 576.26 171.927 576.27 171.948C576.279 171.968 576.293 171.987 576.311 172.001L577.81 173.252C577.945 173.363 577.817 173.577 577.655 173.512L575.843 172.784C575.822 172.775 575.799 172.771 575.776 172.773C575.753 172.774 575.731 172.781 575.711 172.792C575.691 172.803 575.674 172.819 575.66 172.837C575.647 172.856 575.638 172.878 575.635 172.9L575.302 174.824C575.272 174.996 575.023 174.993 574.999 174.819L574.723 172.887C574.72 172.864 574.712 172.842 574.699 172.823C574.687 172.804 574.67 172.788 574.65 172.777C574.631 172.765 574.609 172.758 574.586 172.756C574.563 172.753 574.54 172.756 574.519 172.764L572.686 173.438C572.522 173.499 572.401 173.281 572.539 173.174L574.075 171.969C574.093 171.955 574.108 171.937 574.118 171.917C574.128 171.896 574.133 171.874 574.134 171.851C574.134 171.828 574.129 171.805 574.12 171.784C574.11 171.764 574.096 171.745 574.079 171.73L572.579 170.48C572.445 170.369 572.572 170.155 572.735 170.22L574.546 170.948C574.568 170.957 574.59 170.96 574.613 170.959C574.636 170.958 574.658 170.951 574.678 170.94C574.698 170.929 574.716 170.913 574.729 170.895C574.742 170.876 574.751 170.854 574.755 170.832L575.087 168.908C575.117 168.736 575.366 168.739 575.39 168.913Z" fill="white"/>
<path d="M539.983 151.219C540.595 151.219 541.092 150.723 541.092 150.11C541.092 149.498 540.595 149.001 539.983 149.001C539.371 149.001 538.874 149.498 538.874 150.11C538.874 150.723 539.371 151.219 539.983 151.219Z" fill="white"/>
<path d="M542.455 150.11C542.455 149.816 542.571 149.534 542.779 149.326C542.987 149.118 543.269 149.001 543.563 149.001C543.857 149.001 544.14 149.118 544.347 149.326C544.555 149.534 544.672 149.816 544.672 150.11C544.672 150.404 544.555 150.686 544.347 150.894C544.14 151.102 543.857 151.219 543.563 151.219C543.269 151.219 542.987 151.102 542.779 150.894C542.571 150.686 542.455 150.404 542.455 150.11Z" fill="white"/>
<path d="M547.142 151.219C547.754 151.219 548.251 150.723 548.251 150.11C548.251 149.498 547.754 149.001 547.142 149.001C546.53 149.001 546.033 149.498 546.033 150.11C546.033 150.723 546.53 151.219 547.142 151.219Z" fill="white"/>
<path d="M549.613 150.11C549.613 149.816 549.73 149.534 549.938 149.326C550.145 149.118 550.428 149.001 550.722 149.001C551.016 149.001 551.298 149.118 551.506 149.326C551.714 149.534 551.83 149.816 551.83 150.11C551.83 150.404 551.714 150.686 551.506 150.894C551.298 151.102 551.016 151.219 550.722 151.219C550.428 151.219 550.145 151.102 549.938 150.894C549.73 150.686 549.613 150.404 549.613 150.11Z" fill="white"/>
<path d="M554.3 151.219C554.913 151.219 555.409 150.723 555.409 150.11C555.409 149.498 554.913 149.001 554.3 149.001C553.688 149.001 553.191 149.498 553.191 150.11C553.191 150.723 553.688 151.219 554.3 151.219Z" fill="white"/>
<path d="M556.772 150.11C556.772 149.816 556.889 149.534 557.097 149.326C557.305 149.118 557.587 149.001 557.881 149.001C558.175 149.001 558.457 149.118 558.665 149.326C558.873 149.534 558.99 149.816 558.99 150.11C558.99 150.404 558.873 150.686 558.665 150.894C558.457 151.102 558.175 151.219 557.881 151.219C557.587 151.219 557.305 151.102 557.097 150.894C556.889 150.686 556.772 150.404 556.772 150.11Z" fill="white"/>
<path d="M561.459 151.219C562.072 151.219 562.568 150.723 562.568 150.11C562.568 149.498 562.072 149.001 561.459 149.001C560.847 149.001 560.35 149.498 560.35 150.11C560.35 150.723 560.847 151.219 561.459 151.219Z" fill="white"/>
<path d="M563.93 150.11C563.93 149.816 564.047 149.534 564.255 149.326C564.463 149.118 564.745 149.001 565.039 149.001C565.333 149.001 565.615 149.118 565.823 149.326C566.031 149.534 566.148 149.816 566.148 150.11C566.148 150.404 566.031 150.686 565.823 150.894C565.615 151.102 565.333 151.219 565.039 151.219C564.745 151.219 564.463 151.102 564.255 150.894C564.047 150.686 563.93 150.404 563.93 150.11Z" fill="white"/>
<path d="M604.632 206.837H566.326C564.742 206.837 563.222 206.207 562.101 205.087C560.981 203.966 560.351 202.447 560.351 200.862V199.054C560.351 197.469 560.981 195.949 562.101 194.829C563.222 193.708 564.742 193.079 566.326 193.079H604.632C606.217 193.079 607.736 193.708 608.857 194.829C609.978 195.949 610.607 197.469 610.607 199.054V200.862C610.607 202.447 609.978 203.966 608.857 205.087C607.736 206.207 606.217 206.837 604.632 206.837Z" fill="#ED7C72"/>
<path d="M565.079 200.706L567.147 200.577C567.191 200.913 567.282 201.169 567.42 201.344C567.644 201.628 567.964 201.77 568.38 201.77C568.69 201.77 568.929 201.698 569.097 201.552C569.265 201.407 569.349 201.238 569.349 201.046C569.349 200.864 569.269 200.701 569.109 200.557C568.949 200.413 568.578 200.277 567.996 200.149C567.043 199.935 566.363 199.65 565.957 199.295C565.759 199.13 565.602 198.922 565.495 198.687C565.389 198.452 565.337 198.196 565.343 197.938C565.343 197.577 565.448 197.235 565.657 196.914C565.866 196.593 566.182 196.34 566.602 196.156C567.022 195.971 567.599 195.879 568.331 195.879C569.23 195.879 569.915 196.047 570.387 196.381C570.859 196.715 571.139 197.247 571.23 197.976L569.181 198.096C569.126 197.78 569.012 197.549 568.837 197.406C568.663 197.262 568.423 197.189 568.116 197.189C567.864 197.189 567.673 197.243 567.545 197.35C567.486 197.396 567.437 197.456 567.404 197.523C567.37 197.591 567.353 197.666 567.353 197.741C567.353 197.853 567.406 197.954 567.511 198.043C567.614 198.136 567.857 198.222 568.24 198.303C569.19 198.507 569.87 198.714 570.282 198.924C570.692 199.133 570.992 199.394 571.179 199.704C571.365 200.014 571.459 200.361 571.459 200.745C571.459 201.195 571.334 201.611 571.085 201.992C570.829 202.378 570.465 202.679 570.038 202.858C569.59 203.055 569.026 203.153 568.345 203.153C567.148 203.153 566.32 202.922 565.86 202.462C565.4 202.001 565.14 201.416 565.079 200.706ZM572.496 196H574.448V197.329H572.496V196ZM572.496 197.938H574.448V203.032H572.496V197.938ZM579.241 197.938H581.069V202.75L581.073 202.975C581.073 203.295 581.005 203.599 580.869 203.889C580.746 204.162 580.56 204.403 580.327 204.592C580.102 204.771 579.816 204.9 579.469 204.981C579.077 205.065 578.677 205.105 578.277 205.101C577.253 205.101 576.551 204.947 576.168 204.64C575.786 204.333 575.595 203.922 575.595 203.407C575.595 203.343 575.599 203.257 575.605 203.148L577.5 203.363C577.547 203.539 577.621 203.661 577.721 203.728C577.865 203.827 578.045 203.876 578.263 203.876C578.544 203.876 578.754 203.801 578.894 203.651C579.033 203.501 579.102 203.239 579.102 202.864V202.092C578.91 202.319 578.719 202.483 578.526 202.586C578.227 202.746 577.892 202.828 577.553 202.826C576.871 202.826 576.321 202.528 575.903 201.933C575.605 201.511 575.457 200.953 575.457 200.259C575.457 199.466 575.649 198.862 576.032 198.446C576.416 198.03 576.919 197.823 577.539 197.823C577.935 197.823 578.263 197.89 578.52 198.025C578.778 198.159 579.018 198.381 579.242 198.692L579.241 197.938ZM577.403 200.409C577.403 200.776 577.481 201.049 577.638 201.227C577.715 201.314 577.811 201.384 577.918 201.43C578.025 201.476 578.141 201.497 578.257 201.493C578.5 201.493 578.704 201.401 578.869 201.218C579.033 201.034 579.116 200.756 579.116 200.385C579.116 200.014 579.03 199.731 578.856 199.534C578.779 199.441 578.683 199.366 578.573 199.315C578.464 199.264 578.344 199.238 578.223 199.239C578.109 199.235 577.996 199.257 577.893 199.304C577.789 199.351 577.698 199.421 577.626 199.51C577.477 199.691 577.403 199.99 577.403 200.409ZM582.248 197.938H584.066V198.768C584.338 198.429 584.613 198.186 584.891 198.041C585.169 197.895 585.508 197.823 585.908 197.823C586.448 197.823 586.871 197.983 587.177 198.305C587.482 198.626 587.635 199.123 587.635 199.794V203.032H585.673V200.231C585.673 199.911 585.614 199.684 585.496 199.552C585.378 199.42 585.212 199.353 584.997 199.353C584.76 199.353 584.569 199.442 584.421 199.621C584.273 199.8 584.2 200.122 584.2 200.585V203.031H582.248V197.938ZM596.784 196H598.952V200.19C598.952 200.606 598.887 200.998 598.758 201.367C598.631 201.732 598.423 202.063 598.149 202.336C597.904 202.591 597.607 202.789 597.278 202.918C596.856 203.074 596.349 203.153 595.757 203.153C595.414 203.153 595.042 203.129 594.637 203.08C594.231 203.032 593.893 202.937 593.622 202.795C593.337 202.642 593.084 202.437 592.876 202.189C592.666 201.955 592.508 201.679 592.413 201.379C592.278 200.932 592.211 200.535 592.211 200.19V195.999H594.38V200.289C594.38 200.672 594.486 200.972 594.699 201.187C594.912 201.403 595.207 201.511 595.584 201.511C595.959 201.511 596.252 201.405 596.464 201.192C596.677 200.979 596.784 200.679 596.784 200.289V196ZM600.271 204.971V197.938H602.099V198.691C602.352 198.374 602.583 198.16 602.794 198.048C603.086 197.896 603.411 197.819 603.74 197.823C604.421 197.823 604.948 198.084 605.321 198.605C605.693 199.126 605.879 199.771 605.879 200.538C605.879 201.386 605.676 202.032 605.27 202.479C604.864 202.925 604.35 203.148 603.73 203.148C603.429 203.148 603.155 203.097 602.907 202.994C602.657 202.89 602.43 202.735 602.243 202.539V204.971H600.271ZM602.228 200.5C602.228 200.903 602.313 201.202 602.482 201.397C602.561 201.491 602.659 201.566 602.77 201.616C602.882 201.667 603.003 201.692 603.125 201.689C603.236 201.69 603.345 201.665 603.444 201.616C603.543 201.567 603.629 201.496 603.696 201.408C603.85 201.221 603.927 200.904 603.927 200.456C603.927 200.044 603.846 199.741 603.687 199.547C603.618 199.456 603.53 199.383 603.428 199.333C603.327 199.283 603.215 199.257 603.102 199.257C602.983 199.255 602.865 199.281 602.757 199.331C602.649 199.382 602.554 199.456 602.479 199.549C602.312 199.745 602.228 200.062 602.228 200.5Z" fill="white"/>
<path d="M788.141 150.851H679.968C674.535 150.851 670.131 146.447 670.131 141.014V93.1722C670.131 87.739 674.535 83.335 679.968 83.335H788.142C793.576 83.335 797.98 87.739 797.98 93.1722V141.014C797.979 146.447 793.575 150.851 788.141 150.851Z" fill="#ED7C72"/>
<path d="M714.022 99.8731H682.509C682.181 99.8731 681.867 99.743 681.635 99.5114C681.404 99.2799 681.274 98.9657 681.274 98.6382C681.274 98.3107 681.404 97.9966 681.635 97.765C681.867 97.5334 682.181 97.4033 682.509 97.4033H714.022C714.349 97.4033 714.663 97.5334 714.895 97.765C715.126 97.9966 715.256 98.3107 715.256 98.6382C715.256 98.9657 715.126 99.2799 714.895 99.5114C714.663 99.743 714.349 99.8731 714.022 99.8731ZM769.684 99.8731H720.859C720.531 99.8731 720.217 99.743 719.986 99.5114C719.754 99.2799 719.624 98.9657 719.624 98.6382C719.624 98.3107 719.754 97.9966 719.986 97.765C720.217 97.5334 720.531 97.4033 720.859 97.4033H769.684C770.011 97.4033 770.325 97.5334 770.557 97.765C770.789 97.9966 770.919 98.3107 770.919 98.6382C770.919 98.9657 770.789 99.2799 770.557 99.5114C770.325 99.743 770.011 99.8731 769.684 99.8731ZM787.956 99.8731H777.711C777.426 99.8731 777.153 99.7599 776.951 99.5583C776.75 99.3568 776.636 99.0834 776.636 98.7983C776.636 98.5132 776.75 98.2398 776.951 98.0383C777.153 97.8367 777.426 97.7235 777.711 97.7235H787.956C788.241 97.7235 788.515 97.8367 788.716 98.0383C788.918 98.2398 789.031 98.5132 789.031 98.7983C789.031 99.0834 788.918 99.3568 788.716 99.5583C788.515 99.7599 788.241 99.8731 787.956 99.8731ZM787.796 112.634H682.508C682.18 112.634 681.866 112.504 681.634 112.273C681.403 112.041 681.273 111.727 681.273 111.4C681.273 111.072 681.403 110.758 681.634 110.526C681.866 110.295 682.18 110.165 682.508 110.165H787.796C788.124 110.165 788.438 110.295 788.669 110.526C788.901 110.758 789.031 111.072 789.031 111.4C789.031 111.727 788.901 112.041 788.669 112.273C788.438 112.504 788.124 112.634 787.796 112.634ZM714.022 136.784H682.509C682.181 136.784 681.867 136.654 681.635 136.422C681.404 136.19 681.274 135.876 681.274 135.549C681.274 135.221 681.404 134.907 681.635 134.676C681.867 134.444 682.181 134.314 682.509 134.314H714.022C714.349 134.314 714.663 134.444 714.895 134.676C715.126 134.907 715.256 135.221 715.256 135.549C715.256 135.876 715.126 136.19 714.895 136.422C714.663 136.654 714.349 136.784 714.022 136.784ZM769.684 136.784H720.859C720.531 136.784 720.217 136.654 719.986 136.422C719.754 136.19 719.624 135.876 719.624 135.549C719.624 135.221 719.754 134.907 719.986 134.676C720.217 134.444 720.531 134.314 720.859 134.314H769.684C770.011 134.314 770.325 134.444 770.557 134.676C770.789 134.907 770.919 135.221 770.919 135.549C770.919 135.876 770.789 136.19 770.557 136.422C770.325 136.654 770.011 136.784 769.684 136.784ZM734.901 124.023H682.508C682.18 124.023 681.866 123.893 681.634 123.662C681.403 123.43 681.273 123.116 681.273 122.788C681.273 122.461 681.403 122.147 681.634 121.915C681.866 121.684 682.18 121.553 682.508 121.553H734.901C735.228 121.553 735.542 121.684 735.774 121.915C736.005 122.147 736.135 122.461 736.135 122.788C736.135 123.116 736.005 123.43 735.774 123.662C735.542 123.893 735.228 124.023 734.901 124.023ZM787.796 124.023H747.455C747.128 124.023 746.814 123.893 746.582 123.662C746.351 123.43 746.22 123.116 746.22 122.788C746.22 122.461 746.351 122.147 746.582 121.915C746.814 121.684 747.128 121.553 747.455 121.553H787.796C788.124 121.553 788.438 121.684 788.669 121.915C788.901 122.147 789.031 122.461 789.031 122.788C789.031 123.116 788.901 123.43 788.669 123.662C788.438 123.893 788.124 124.023 787.796 124.023ZM787.956 136.784H777.711C777.426 136.784 777.153 136.67 776.951 136.469C776.75 136.267 776.636 135.994 776.636 135.709C776.636 135.424 776.75 135.15 776.951 134.949C777.153 134.747 777.426 134.634 777.711 134.634H787.956C788.241 134.634 788.515 134.747 788.716 134.949C788.918 135.15 789.031 135.424 789.031 135.709C789.031 135.994 788.918 136.267 788.716 136.469C788.515 136.67 788.241 136.784 787.956 136.784Z" fill="white"/>
<path d="M278.633 132.067H167.033C161.6 132.067 157.196 127.663 157.196 122.229V72.578C157.196 67.1456 161.6 62.7407 167.033 62.7407H278.634C284.066 62.7407 288.471 67.1447 288.471 72.578V122.229C288.47 127.662 284.066 132.067 278.633 132.067Z" fill="#ED7C72"/>
<path d="M202.263 79.722H169.905C169.568 79.722 169.246 79.5884 169.008 79.3506C168.77 79.1128 168.637 78.7903 168.637 78.454C168.637 78.1177 168.77 77.7952 169.008 77.5574C169.246 77.3196 169.568 77.186 169.905 77.186H202.263C202.599 77.186 202.922 77.3196 203.159 77.5574C203.397 77.7952 203.531 78.1177 203.531 78.454C203.531 78.7903 203.397 79.1128 203.159 79.3506C202.922 79.5884 202.599 79.722 202.263 79.722ZM259.417 79.722H209.284C208.948 79.722 208.625 79.5884 208.388 79.3506C208.15 79.1128 208.016 78.7903 208.016 78.454C208.016 78.1177 208.15 77.7952 208.388 77.5574C208.625 77.3196 208.948 77.186 209.284 77.186H259.417C259.754 77.186 260.076 77.3196 260.314 77.5574C260.552 77.7952 260.685 78.1177 260.685 78.454C260.685 78.7903 260.552 79.1128 260.314 79.3506C260.076 79.5884 259.754 79.722 259.417 79.722ZM278.179 79.722H267.659C267.367 79.722 267.086 79.6058 266.879 79.3988C266.672 79.1919 266.556 78.9112 266.556 78.6186C266.556 78.3259 266.672 78.0452 266.879 77.8383C267.086 77.6314 267.367 77.5151 267.659 77.5151H278.179C278.472 77.5151 278.752 77.6314 278.959 77.8383C279.166 78.0452 279.282 78.3259 279.282 78.6186C279.282 78.9112 279.166 79.1919 278.959 79.3988C278.752 79.6058 278.472 79.722 278.179 79.722ZM278.014 92.825H169.905C169.568 92.825 169.246 92.6914 169.008 92.4536C168.77 92.2158 168.637 91.8933 168.637 91.557C168.637 91.2207 168.77 90.8982 169.008 90.6604C169.246 90.4226 169.568 90.289 169.905 90.289H278.014C278.351 90.289 278.673 90.4226 278.911 90.6604C279.149 90.8982 279.282 91.2207 279.282 91.557C279.282 91.8933 279.149 92.2158 278.911 92.4536C278.673 92.6914 278.351 92.825 278.014 92.825ZM202.263 117.622H169.905C169.568 117.622 169.246 117.488 169.008 117.25C168.77 117.012 168.637 116.69 168.637 116.354C168.637 116.017 168.77 115.695 169.008 115.457C169.246 115.219 169.568 115.086 169.905 115.086H202.263C202.599 115.086 202.922 115.219 203.159 115.457C203.397 115.695 203.531 116.017 203.531 116.354C203.531 116.69 203.397 117.012 203.159 117.25C202.922 117.488 202.599 117.622 202.263 117.622ZM259.417 117.622H209.284C208.948 117.622 208.625 117.488 208.388 117.25C208.15 117.012 208.016 116.69 208.016 116.354C208.016 116.017 208.15 115.695 208.388 115.457C208.625 115.219 208.948 115.086 209.284 115.086H259.417C259.754 115.086 260.076 115.219 260.314 115.457C260.552 115.695 260.685 116.017 260.685 116.354C260.685 116.69 260.552 117.012 260.314 117.25C260.076 117.488 259.754 117.622 259.417 117.622ZM223.702 104.519H169.905C169.568 104.519 169.246 104.385 169.008 104.147C168.77 103.909 168.637 103.587 168.637 103.251C168.637 102.914 168.77 102.592 169.008 102.354C169.246 102.116 169.568 101.983 169.905 101.983H223.702C224.038 101.983 224.36 102.116 224.598 102.354C224.836 102.592 224.97 102.914 224.97 103.251C224.97 103.587 224.836 103.909 224.598 104.147C224.36 104.385 224.038 104.519 223.702 104.519ZM278.014 104.519H236.594C236.257 104.519 235.935 104.385 235.697 104.147C235.459 103.909 235.326 103.587 235.326 103.251C235.326 102.914 235.459 102.592 235.697 102.354C235.935 102.116 236.257 101.983 236.594 101.983H278.015C278.352 101.983 278.674 102.116 278.912 102.354C279.15 102.592 279.283 102.915 279.283 103.251C279.283 103.587 279.149 103.91 278.911 104.148C278.673 104.385 278.351 104.519 278.014 104.519ZM278.179 117.622H267.659C267.367 117.622 267.086 117.505 266.879 117.298C266.672 117.091 266.556 116.811 266.556 116.518C266.556 116.225 266.672 115.945 266.879 115.738C267.086 115.531 267.367 115.415 267.659 115.415H278.179C278.472 115.415 278.752 115.531 278.959 115.738C279.166 115.945 279.282 116.225 279.282 116.518C279.282 116.811 279.166 117.091 278.959 117.298C278.752 117.505 278.472 117.622 278.179 117.622Z" fill="white"/>
<path d="M715.673 593.75L739.919 734.617C765.862 737.269 792.008 737.269 817.951 734.617L842.197 593.75H715.673ZM822.081 603.345L822.036 616.343L810.759 622.804L799.525 616.267L799.569 603.269L803.486 601.026H818.095L822.081 603.345ZM820.064 601.025H825.908L822.996 602.694V602.731L820.064 601.025ZM724.995 617.225L725.53 616.918L725.531 616.88L725.627 616.936L725.007 617.291L724.995 617.225ZM725.185 618.33L725.642 618.069L736.876 624.605L736.832 637.603L729.25 641.946L725.185 618.33ZM737.767 638.332L749.001 644.868L748.958 657.866L737.68 664.326L732.593 661.367L729.449 643.096L737.767 638.332ZM797.666 644.867L797.622 657.865L786.344 664.326L775.11 657.788L775.154 644.791L786.432 638.33L797.666 644.867ZM787.401 637.526L787.445 624.529L798.722 618.068L809.957 624.605L809.913 637.602L798.634 644.063L787.401 637.526ZM785.707 666.127L785.663 679.126L774.444 685.552L763.152 678.982L763.195 666.051L774.473 659.591L785.707 666.127ZM785.663 637.602L774.386 644.063L763.152 637.526L763.195 624.529L774.473 618.068L785.707 624.605L785.663 637.602ZM773.416 644.867L773.372 657.865L762.094 664.326L750.86 657.788L750.903 644.791L762.181 638.33L773.416 644.867ZM761.248 637.602L749.97 644.063L738.736 637.526L738.78 624.529L750.058 618.068L761.292 624.605L761.248 637.602ZM738.78 666.051L750.058 659.591L761.292 666.127L761.249 679.126L750.029 685.552L738.737 678.982L738.78 666.051ZM751.402 686.314L762.622 679.888L773.914 686.458L773.87 699.389L762.593 705.849L751.359 699.313L751.402 686.314ZM763.692 707.574L774.971 701.114L786.205 707.651L786.161 720.649L774.884 727.109L763.65 720.573L763.692 707.574ZM775.608 699.313L775.653 686.314L786.872 679.888L798.165 686.458L798.121 699.389L786.843 705.849L775.608 699.313ZM787.401 678.982L787.445 666.051L798.722 659.591L809.957 666.127L809.913 679.126L798.693 685.552L787.401 678.982ZM799.525 657.789L799.569 644.791L810.847 638.331L822.081 644.867L822.036 657.865L810.759 664.326L799.525 657.789ZM798.58 602.694V602.731L795.648 601.025H801.493L798.58 602.694ZM797.666 603.345L797.622 616.343L786.344 622.804L775.11 616.267L775.154 603.269L779.07 601.026H793.679L797.666 603.345ZM774.216 602.664L771.398 601.025H777.077L774.216 602.664ZM773.416 603.345L773.372 616.343L762.094 622.804L750.86 616.267L750.903 603.269L754.82 601.026H769.429L773.416 603.345ZM749.915 602.694V602.731L746.983 601.025H752.828L749.915 602.694ZM749.001 603.345L748.958 616.343L737.68 622.804L726.446 616.267L726.49 603.269L730.407 601.026H745.016L749.001 603.345ZM725.5 602.694V602.731L722.568 601.025H728.412L725.5 602.694ZM724.586 603.345L724.548 614.624L722.386 602.066L724.586 603.345ZM736.876 666.127L736.832 679.126L735.755 679.743L733.027 663.888L736.876 666.127ZM738.206 679.888L749.499 686.458L749.456 699.389L740.064 704.768L735.999 681.152L738.206 679.888ZM740.432 706.913L750.556 701.114L761.79 707.651L761.745 720.649L750.467 727.109L743.177 722.868L740.432 706.913ZM762.68 721.377L772.933 727.343H752.265L762.68 721.377ZM786.93 721.377L797.183 727.343H776.515L786.93 721.377ZM787.898 720.572L787.943 707.573L799.221 701.113L810.455 707.65L810.41 720.648L799.132 727.108L787.898 720.572ZM800.023 699.313L800.066 686.314L811.286 679.888L821.105 685.601L818.316 701.805L811.257 705.849L800.023 699.313ZM812.357 707.574L817.866 704.419L814.834 722.038L812.314 720.573L812.357 707.574ZM821.295 684.498L811.816 678.982L811.859 666.051L823.137 659.591L825.359 660.884L821.295 684.498ZM823.94 657.789L823.984 644.791L828.583 642.157L825.715 658.822L823.94 657.789ZM823.05 644.063L811.816 637.526L811.86 624.529L823.138 618.068L831.857 623.141L828.825 640.754L823.05 644.063ZM832.212 621.079L823.941 616.266L823.985 603.269L827.902 601.025H835.663L832.212 621.079ZM743.44 724.388L748.519 727.343H743.949L743.44 724.388ZM800.93 727.343L811.345 721.377L814.62 723.282L813.921 727.343H800.93Z" fill="#CE0606"/>
<path d="M844.745 600.87H713.124C711.021 600.87 709.317 598.416 709.317 595.39C709.317 592.363 711.021 589.909 713.124 589.909H844.745C846.847 589.909 848.552 592.364 848.552 595.39C848.553 598.417 846.847 600.87 844.745 600.87Z" fill="#DF3426"/>
<path d="M926.643 737.746H40.5804C40.026 737.746 39.4942 737.526 39.1021 737.133C38.71 736.741 38.4897 736.21 38.4897 735.655C38.4897 735.101 38.71 734.569 39.1021 734.177C39.4942 733.785 40.026 733.564 40.5804 733.564H926.643C927.197 733.564 927.729 733.785 928.121 734.177C928.513 734.569 928.733 735.101 928.733 735.655C928.733 736.21 928.513 736.741 928.121 737.133C927.729 737.526 927.197 737.746 926.643 737.746ZM365.26 769.24H105.523C104.968 769.24 104.437 769.02 104.045 768.628C103.652 768.236 103.432 767.704 103.432 767.149C103.432 766.595 103.652 766.063 104.045 765.671C104.437 765.279 104.968 765.059 105.523 765.059H365.259C365.534 765.059 365.806 765.113 366.059 765.218C366.313 765.323 366.544 765.477 366.738 765.671C366.932 765.865 367.086 766.095 367.191 766.349C367.296 766.603 367.35 766.874 367.35 767.149C367.351 767.424 367.297 767.695 367.192 767.949C367.087 768.203 366.933 768.433 366.738 768.627C366.544 768.822 366.314 768.976 366.06 769.081C365.807 769.186 365.535 769.24 365.26 769.24ZM527.519 769.24H408.663C408.108 769.24 407.577 769.02 407.184 768.628C406.792 768.236 406.572 767.704 406.572 767.149C406.572 766.595 406.792 766.063 407.184 765.671C407.577 765.279 408.108 765.059 408.663 765.059H527.519C528.063 765.075 528.579 765.302 528.959 765.692C529.338 766.083 529.55 766.605 529.55 767.149C529.55 767.694 529.338 768.216 528.959 768.607C528.579 768.997 528.063 769.224 527.519 769.24Z" fill="#DF3426" fill-opacity="0.7"/>
<path d="M675.193 220.278C675.193 218.247 674.386 216.299 672.95 214.863C671.514 213.427 669.566 212.62 667.535 212.62C665.504 212.62 663.556 213.427 662.12 214.863C660.684 216.299 659.877 218.247 659.877 220.278C659.877 222.309 660.684 224.256 662.12 225.692C663.556 227.129 665.504 227.935 667.535 227.935C669.566 227.935 671.514 227.129 672.95 225.692C674.386 224.256 675.193 222.309 675.193 220.278Z" fill="white"/>
<path d="M725.444 357.383L760.139 262.109L690.186 192.157L688.639 193.704L757.606 262.671L723.388 356.634L725.444 357.383Z" fill="#DF3426"/>
<path d="M730.913 355.195L765.608 259.922L695.655 189.97L694.108 191.517L763.076 260.484L728.858 354.447L730.913 355.195Z" fill="#ED7C72"/>
<path d="M765.983 261.843C765.983 260.392 765.406 259.001 764.381 257.976C763.355 256.95 761.964 256.374 760.513 256.374C759.062 256.374 757.671 256.95 756.646 257.976C755.62 259.001 755.044 260.392 755.044 261.843C755.044 263.294 755.62 264.685 756.646 265.711C757.671 266.736 759.062 267.312 760.513 267.312C761.964 267.312 763.355 266.736 764.381 265.711C765.406 264.685 765.983 263.294 765.983 261.843ZM684.969 211.763L696.748 198.818C697.425 198.074 697.948 197.204 698.289 196.258C698.629 195.312 698.78 194.308 698.733 193.304C698.686 192.299 698.441 191.314 698.013 190.404C697.584 189.495 696.981 188.678 696.237 188.001C695.494 187.325 694.624 186.801 693.678 186.46C692.732 186.119 691.728 185.968 690.723 186.016C689.719 186.063 688.734 186.308 687.824 186.736C686.914 187.164 686.098 187.767 685.421 188.511L673.641 201.456L684.969 211.763Z" fill="#CE0606"/>
<path d="M651.426 208.581L681.229 235.7L691.963 223.903C699.452 215.673 698.851 202.931 690.621 195.441C682.392 187.952 669.649 188.553 662.16 196.784L651.426 208.581Z" fill="#EA4335"/>
<path d="M712.766 363.478H741.855C741.855 355.445 735.343 348.934 727.311 348.934C719.278 348.934 712.766 355.445 712.766 363.478Z" fill="#EA4335"/>
</svg>
