<svg width="104" height="104" viewBox="0 0 104 104" fill="none" xmlns="http://www.w3.org/2000/svg">
<path d="M48.8545 60.8557H44.5598L42.8528 56.414H35.0371L33.4239 60.8557H29.2354L36.8512 41.3035H41.0244L48.8545 60.8557ZM41.5867 53.1207L38.8929 45.8657L36.2516 53.1207H41.5867ZM50.9506 60.8557V41.3035H57.286C58.8567 41.2407 60.4297 41.3391 61.9804 41.5971C63.1088 41.8959 64.1015 42.5705 64.7948 43.5095C65.5888 44.6158 65.9879 45.9569 65.9279 47.3173C65.962 48.3647 65.7377 49.4045 65.2748 50.3447C64.8841 51.1112 64.3147 51.7724 63.6147 52.2725C62.9997 52.7143 62.3032 53.0296 61.5654 53.2C60.2118 53.4178 58.8412 53.5116 57.4706 53.4802H54.8963V60.8557H50.9506ZM54.8991 44.6111V50.1573H57.0594C58.1094 50.2163 59.1623 50.1128 60.1807 49.8503C60.6804 49.6659 61.1111 49.332 61.4143 48.8941C61.7164 48.4454 61.8727 47.9145 61.8618 47.3737C61.8855 46.7284 61.6614 46.0986 61.2355 45.6133C60.82 45.1527 60.2602 44.8471 59.648 44.7469C58.7057 44.6311 57.756 44.5864 56.8069 44.613L54.8991 44.6111ZM69.0464 60.8557V41.3035H72.9949V60.8557H69.0464Z" fill="#CE0606"/>
<path d="M51.9918 18.966C44.9758 18.9659 38.1442 21.2129 32.4984 25.3779C26.8525 29.5428 22.6892 35.4065 20.6187 42.1097C18.5481 48.8129 18.6793 56.003 20.9928 62.6263C23.3064 69.2495 27.6807 74.9576 33.4747 78.9139C39.2687 82.8702 46.1777 84.8668 53.189 84.6108C60.2003 84.3549 66.9453 81.86 72.4354 77.4918C77.9255 73.1236 81.872 67.1118 83.6965 60.3375C85.521 53.5632 85.1275 46.3827 82.5738 39.8483C80.187 33.6827 75.9862 28.3861 70.5261 24.6578C65.066 20.9294 58.6035 18.9448 51.9918 18.966ZM79.4448 63.8164C76.6645 70.1672 71.7679 75.3575 65.5896 78.5028C59.4112 81.6482 52.3332 82.5541 45.5618 81.066C38.7904 79.5779 32.7444 75.7881 28.4542 70.3421C24.164 64.8962 21.895 58.1312 22.0337 51.1999C22.1725 44.2686 24.7105 37.5999 29.2153 32.3301C33.7201 27.0602 39.9129 23.5154 46.7385 22.2996C53.564 21.0837 60.6 22.2721 66.6476 25.6623C72.6951 29.0524 77.3799 34.4345 79.9038 40.8915C81.3471 44.5533 82.0496 48.4649 81.9708 52.3999C81.8921 56.335 81.0335 60.2153 79.4448 63.8164Z" fill="#CE0606"/>
<path d="M95.6003 54.5616C95.7078 52.7526 95.703 50.9386 95.586 49.1302L103.505 42.2835C103.734 42.0853 103.894 41.8199 103.963 41.5252C104.031 41.2304 104.005 40.9215 103.887 40.6426L96.6436 23.4122C96.5318 23.1413 96.339 22.9116 96.0917 22.7545C95.8444 22.5974 95.5545 22.5205 95.2618 22.5344L84.647 22.979C83.4442 21.6246 82.1573 20.3471 80.7942 19.1541L81.5506 8.71579C81.573 8.4134 81.499 8.11169 81.3392 7.85398C81.1794 7.59627 80.9421 7.39583 80.6612 7.28144L63.3525 0.218673C63.0815 0.108136 62.7831 0.0831535 62.4975 0.147081C62.2119 0.211009 61.9526 0.360786 61.7546 0.576305L54.5643 8.4031C52.7574 8.29588 50.9455 8.30099 49.1393 8.4184L42.2923 0.495025C42.0941 0.266315 41.8286 0.106152 41.5339 0.0374496C41.2391 -0.0312524 40.9302 -0.00497205 40.6513 0.11253L23.4181 7.35698C23.1482 7.47032 22.9193 7.66356 22.7624 7.91073C22.6055 8.1579 22.528 8.44718 22.5403 8.7397L22.9859 19.3539C21.6317 20.5574 20.3541 21.8445 19.1607 23.2076L8.71622 22.4512C8.41476 22.4336 8.11522 22.5095 7.8585 22.6685C7.60178 22.8275 7.40038 23.0618 7.28179 23.3395L0.219639 40.6474C0.108983 40.9183 0.0838469 41.2166 0.147605 41.5022C0.211364 41.7878 0.360966 42.0471 0.576333 42.2453L8.40256 49.441C8.2945 51.2481 8.29897 53.0601 8.41595 54.8666L0.495049 61.7133C0.266328 61.9115 0.106157 62.1769 0.0374515 62.4717C-0.0312539 62.7664 -0.00497229 63.0753 0.112536 63.3542L7.3583 80.5808C7.47252 80.8499 7.66585 81.0778 7.91265 81.2344C8.15945 81.391 8.44804 81.4689 8.74012 81.4577L19.3549 81.014C20.5584 82.3681 21.8455 83.6456 23.2087 84.8389L22.4523 95.281C22.4299 95.5834 22.5039 95.8851 22.6637 96.1428C22.8234 96.4006 23.0608 96.601 23.3416 96.7154L40.6503 103.777C40.9212 103.888 41.2193 103.913 41.5047 103.849C41.7901 103.785 42.0493 103.636 42.2473 103.421L49.4443 95.5966C51.2506 95.7042 53.0618 95.6988 54.8674 95.5803L61.7163 103.505C61.9146 103.734 62.1802 103.894 62.4752 103.963C62.7701 104.031 63.0792 104.005 63.3582 103.887L80.5886 96.6398C80.8582 96.5264 81.0867 96.3333 81.2434 96.0863C81.4002 95.8393 81.4776 95.5503 81.4655 95.2581L81.0218 84.6439C82.3754 83.4395 83.6529 82.1521 84.8469 80.7893L95.2933 81.5543C95.5957 81.5767 95.8975 81.5027 96.1552 81.3429C96.4129 81.1831 96.6134 80.9458 96.7278 80.665L103.789 63.3571C103.899 63.0863 103.924 62.7882 103.861 62.5028C103.797 62.2173 103.647 61.9582 103.432 61.7602L95.6003 54.5616ZM94.4528 78.6138L84.3248 77.8766C84.0992 77.8594 83.8729 77.8962 83.6644 77.9838C83.4558 78.0714 83.2712 78.2074 83.1256 78.3805C81.7442 80.0132 80.2366 81.5348 78.6167 82.9312C78.4526 83.0725 78.3225 83.2492 78.2364 83.4479C78.1503 83.6467 78.1103 83.8623 78.1194 84.0787L78.5498 94.3831L63.1976 100.84L56.5581 93.1582C56.4234 93.0024 56.2568 92.8774 56.0695 92.7918C55.8822 92.7062 55.6787 92.6619 55.4727 92.6619C55.4335 92.6619 55.3934 92.6619 55.3532 92.6667C53.2243 92.8426 51.0848 92.85 48.9547 92.6887C48.7385 92.671 48.5212 92.7032 48.3194 92.7828C48.1177 92.8624 47.9368 92.9872 47.7909 93.1477L40.8024 100.744L25.3823 94.452L26.1196 84.3254C26.1361 84.1 26.099 83.8739 26.0114 83.6655C25.9238 83.4571 25.7882 83.2723 25.6157 83.1263C23.9826 81.7466 22.4615 80.2396 21.0666 78.6196C20.9253 78.4554 20.7486 78.3254 20.5499 78.2393C20.3512 78.1532 20.1355 78.1132 19.9191 78.1223L9.61321 78.5536L3.16212 63.1964L10.8401 56.5601C11.0108 56.4126 11.1443 56.2268 11.2297 56.018C11.3151 55.8091 11.35 55.583 11.3317 55.3582C11.1574 53.2263 11.1513 51.0841 11.3135 48.9514C11.3298 48.7353 11.297 48.5184 11.2175 48.3168C11.138 48.1153 11.0139 47.9343 10.8545 47.7876L3.25584 40.8004L9.54819 25.383L19.6771 26.1193C19.9023 26.1345 20.1279 26.0969 20.336 26.0094C20.544 25.9219 20.7287 25.7869 20.8754 25.6154C22.2565 23.9833 23.7638 22.4624 25.3833 21.0665C25.5476 20.9253 25.6778 20.7487 25.7641 20.55C25.8504 20.3512 25.8905 20.1355 25.8815 19.9191L25.4493 9.61179L40.8034 3.15719L47.4409 10.8377C47.5886 11.0085 47.7745 11.1421 47.9836 11.2275C48.1926 11.3129 48.4189 11.3477 48.6439 11.3292C50.7758 11.1555 52.918 11.1485 55.051 11.3082C55.2671 11.3245 55.484 11.2917 55.6856 11.2122C55.8872 11.1327 56.0681 11.0086 56.2148 10.8492L63.2024 3.25186L78.6177 9.54198L77.8813 19.6781C77.8649 19.9035 77.902 20.1297 77.9896 20.3381C78.0771 20.5464 78.2127 20.7312 78.3853 20.8772C80.0177 22.2566 81.5379 23.7636 82.9315 25.384C83.0729 25.5481 83.2495 25.6783 83.4482 25.7647C83.6469 25.8511 83.8625 25.8916 84.079 25.8831L94.3849 25.4518L100.839 40.8042L93.1618 47.4405C92.9909 47.5882 92.8574 47.7741 92.772 47.9831C92.6866 48.1922 92.6517 48.4184 92.6702 48.6435C92.8448 50.7752 92.8512 52.9175 92.6894 55.0502C92.6731 55.2664 92.7061 55.4834 92.7858 55.6849C92.8654 55.8865 92.9897 56.0674 93.1493 56.214L100.746 63.2002L94.4528 78.6138Z" fill="#CE0606"/>
</svg>
