<svg width="28" height="32" viewBox="0 0 28 32" fill="none" xmlns="http://www.w3.org/2000/svg">
<path fill-rule="evenodd" clip-rule="evenodd" d="M0 8.17052H27.8261V26.1819C27.8261 27.725 27.1834 29.205 26.0394 30.2961C24.8954 31.3873 23.3438 32.0003 21.7259 32.0003H6.10017C4.4823 32.0003 2.9307 31.3873 1.7867 30.2961C0.642695 29.205 0 27.725 0 26.1819V8.17052ZM2.78407 10.826V26.1819C2.78407 27.0208 3.13344 27.8253 3.75533 28.4184C4.37722 29.0116 5.22068 29.3448 6.10017 29.3448H21.7259C22.6054 29.3448 23.4489 29.0116 24.0708 28.4184C24.6926 27.8253 25.042 27.0208 25.042 26.1819V10.826H2.78407Z" fill="#CE0606"/>
<path fill-rule="evenodd" clip-rule="evenodd" d="M13.9131 2.72483C12.8061 2.72483 11.7444 3.15545 10.9616 3.92196C10.1789 4.68847 9.73914 5.72807 9.73914 6.81208V13.617H6.95653V6.81208C6.95653 5.0054 7.68944 3.27272 8.99405 1.99521C10.2986 0.717699 12.0681 0 13.9131 0C15.758 0 17.5275 0.717699 18.8321 1.99521C20.1367 3.27272 20.8696 5.0054 20.8696 6.81208V13.617H18.087V6.81208C18.087 5.72807 17.6472 4.68847 16.8645 3.92196C16.0817 3.15545 15.02 2.72483 13.9131 2.72483Z" fill="#CE0606"/>
</svg>
