<svg width="99" height="99" viewBox="0 0 99 99" fill="none" xmlns="http://www.w3.org/2000/svg">
<path d="M63.2521 99H17.4337C15.6175 98.9959 13.8769 98.2726 12.5927 96.9884C11.3084 95.7042 10.5851 93.9635 10.5811 92.1473V6.85266C10.5851 5.03647 11.3084 3.29585 12.5927 2.01161C13.8769 0.727372 15.6175 0.00408591 17.4337 0L63.2521 0C65.0683 0.00408591 66.809 0.727372 68.0932 2.01161C69.3774 3.29585 70.1007 5.03647 70.1048 6.85266V20.1867C70.1048 20.3918 70.0233 20.5886 69.8783 20.7336C69.7332 20.8787 69.5365 20.9602 69.3314 20.9602C69.1262 20.9602 68.9295 20.8787 68.7845 20.7336C68.6394 20.5886 68.5579 20.3918 68.5579 20.1867V6.85266C68.5498 5.44798 67.9882 4.10315 66.9949 3.10987C66.0017 2.1166 64.6568 1.55499 63.2521 1.54688H17.4337C16.0249 1.55089 14.6745 2.11021 13.6754 3.10349C12.6764 4.09677 12.1092 5.4439 12.097 6.85266V92.1473C12.1092 93.5561 12.6764 94.9032 13.6754 95.8965C14.6745 96.8898 16.0249 97.4491 17.4337 97.4531H63.2521C64.6649 97.449 66.0183 96.885 67.0158 95.8846C68.0133 94.8842 68.5734 93.5291 68.5734 92.1164V51.5728C68.5734 51.3677 68.6549 51.171 68.7999 51.0259C68.945 50.8809 69.1417 50.7994 69.3468 50.7994C69.552 50.7994 69.7487 50.8809 69.8937 51.0259C70.0388 51.171 70.1203 51.3677 70.1203 51.5728V92.1473C70.1162 93.9662 69.3908 95.7092 68.1032 96.9938C66.8156 98.2785 65.071 99 63.2521 99Z" fill="#CE0606"/>
<path d="M63.9631 87.2283H16.7061C15.065 87.2283 13.4912 86.5764 12.3308 85.416C11.1704 84.2556 10.5186 82.6818 10.5186 81.0408C10.5186 80.8356 10.6 80.6389 10.7451 80.4939C10.8901 80.3488 11.0869 80.2673 11.292 80.2673C11.4971 80.2673 11.6938 80.3488 11.8389 80.4939C11.9839 80.6389 12.0654 80.8356 12.0654 81.0408C12.0654 82.2715 12.5544 83.4519 13.4246 84.3222C14.2949 85.1925 15.4753 85.6814 16.7061 85.6814H63.9631C65.1939 85.6814 66.3742 85.1925 67.2445 84.3222C68.1148 83.4519 68.6037 82.2715 68.6037 81.0408C68.6037 80.8356 68.6852 80.6389 68.8302 80.4939C68.9753 80.3488 69.172 80.2673 69.3771 80.2673C69.5823 80.2673 69.779 80.3488 69.924 80.4939C70.0691 80.6389 70.1506 80.8356 70.1506 81.0408C70.1506 82.6818 69.4987 84.2556 68.3383 85.416C67.1779 86.5764 65.6041 87.2283 63.9631 87.2283ZM69.3307 17.2322C69.1297 17.2322 68.9369 17.1523 68.7948 17.0102C68.6526 16.868 68.5728 16.6752 68.5728 16.4742C68.5728 15.2434 68.0839 14.0631 67.2136 13.1928C66.3433 12.3225 65.1629 11.8336 63.9322 11.8336H16.7061C15.4753 11.8336 14.2949 12.3225 13.4246 13.1928C12.5544 14.0631 12.0654 15.2434 12.0654 16.4742C12.0654 16.6793 11.9839 16.8761 11.8389 17.0211C11.6938 17.1662 11.4971 17.2477 11.292 17.2477C11.0869 17.2477 10.8901 17.1662 10.7451 17.0211C10.6 16.8761 10.5186 16.6793 10.5186 16.4742C10.5186 14.8332 11.1704 13.2594 12.3308 12.099C13.4912 10.9386 15.065 10.2867 16.7061 10.2867H63.9631C65.6041 10.2867 67.1779 10.9386 68.3383 12.099C69.4987 13.2594 70.1506 14.8332 70.1506 16.4742C70.1509 16.5792 70.1295 16.6831 70.0876 16.7793C70.0457 16.8756 69.9842 16.962 69.9072 17.0333C69.8301 17.1046 69.7391 17.159 69.6398 17.1933C69.5406 17.2275 69.4354 17.2408 69.3307 17.2322ZM33.6753 6.69797C33.4728 6.69801 33.2784 6.61865 33.1338 6.47693C32.9892 6.33521 32.9059 6.14243 32.9018 5.94C32.8998 5.83917 32.9179 5.73894 32.955 5.64518C32.9922 5.55143 33.0477 5.46604 33.1183 5.39401C33.1889 5.32198 33.2731 5.26476 33.3661 5.2257C33.4591 5.18665 33.559 5.16654 33.6598 5.16656C33.8649 5.16656 34.0617 5.24805 34.2067 5.3931C34.3518 5.53814 34.4332 5.73487 34.4332 5.94C34.4332 6.14513 34.3518 6.34185 34.2067 6.4869C34.0617 6.63195 33.8649 6.71344 33.6598 6.71344L33.6753 6.69797ZM47.0403 6.69797H37.6662C37.4611 6.69797 37.2644 6.61648 37.1193 6.47143C36.9743 6.32639 36.8928 6.12966 36.8928 5.92453C36.8928 5.7194 36.9743 5.52267 37.1193 5.37763C37.2644 5.23258 37.4611 5.15109 37.6662 5.15109H47.0403C47.2454 5.15109 47.4421 5.23258 47.5872 5.37763C47.7322 5.52267 47.8137 5.7194 47.8137 5.92453C47.8137 6.12966 47.7322 6.32639 47.5872 6.47143C47.4421 6.61648 47.2454 6.69797 47.0403 6.69797ZM40.3423 96.0609C39.6074 96.064 38.8881 95.8489 38.2756 95.4428C37.663 95.0367 37.1848 94.458 36.9014 93.7799C36.618 93.1018 36.5423 92.3549 36.6838 91.6337C36.8253 90.9125 37.1776 90.2496 37.6962 89.7288C38.2148 89.2081 38.8763 88.853 39.5969 88.7085C40.3174 88.5639 41.0647 88.6366 41.744 88.9171C42.4232 89.1976 43.004 89.6734 43.4126 90.2843C43.8212 90.8951 44.0393 91.6135 44.0393 92.3484C44.0353 93.3291 43.645 94.2687 42.953 94.9637C42.261 95.6586 41.323 96.0528 40.3423 96.0609ZM40.3423 90.1828C39.9096 90.1798 39.4858 90.3055 39.1248 90.5439C38.7637 90.7824 38.4818 91.1229 38.3148 91.5221C38.1478 91.9212 38.1033 92.361 38.187 92.7856C38.2706 93.2101 38.4787 93.6002 38.7846 93.9061C39.0906 94.2121 39.4806 94.4201 39.9052 94.5038C40.3297 94.5875 40.7695 94.5429 41.1687 94.376C41.5678 94.209 41.9083 93.927 42.1468 93.566C42.3853 93.2049 42.511 92.7811 42.5079 92.3484C42.5039 91.7753 42.2744 91.2268 41.8692 90.8216C41.4639 90.4163 40.9154 90.1869 40.3423 90.1828ZM69.3307 44.9677C67.5349 44.9677 65.7793 44.4351 64.2861 43.4374C62.7929 42.4396 61.629 41.0215 60.9418 39.3623C60.2545 37.7031 60.0747 35.8774 60.4251 34.116C60.7754 32.3547 61.6402 30.7367 62.9101 29.4669C64.18 28.197 65.7979 27.3322 67.5593 26.9818C69.3207 26.6315 71.1464 26.8113 72.8056 27.4985C74.4648 28.1858 75.8829 29.3496 76.8806 30.8428C77.8784 32.3361 78.4109 34.0916 78.4109 35.8875C78.4109 38.2957 77.4542 40.6053 75.7514 42.3081C74.0485 44.011 71.7389 44.9677 69.3307 44.9677ZM69.3307 28.3233C67.8347 28.3233 66.3722 28.7669 65.1283 29.5981C63.8844 30.4292 62.9148 31.6106 62.3423 32.9928C61.7698 34.375 61.62 35.8959 61.9119 37.3632C62.2037 38.8305 62.9242 40.1783 63.982 41.2362C65.0399 42.2941 66.3877 43.0145 67.855 43.3064C69.3224 43.5982 70.8433 43.4484 72.2254 42.8759C73.6076 42.3034 74.789 41.3339 75.6202 40.09C76.4513 38.846 76.895 37.3836 76.895 35.8875C76.895 33.8813 76.098 31.9574 74.6795 30.5388C73.2609 29.1202 71.3369 28.3233 69.3307 28.3233Z" fill="#CE0606"/>
<path d="M54.4806 54.4191C54.339 54.4221 54.1994 54.3845 54.0784 54.3108C53.9638 54.2357 53.8707 54.132 53.8083 54.0099C53.7459 53.8878 53.7164 53.7516 53.7227 53.6147L54.2486 45.9731C51.708 43.2248 50.28 39.63 50.2422 35.8875C50.2422 26.8073 58.8119 19.4287 69.3306 19.4287C79.8494 19.4287 88.4191 26.8073 88.4191 35.8875C88.4191 44.9676 79.8648 52.3308 69.3306 52.3308C66.517 52.3672 63.7244 51.8413 61.1167 50.7839L54.9292 54.3727C54.7868 54.429 54.6316 54.445 54.4806 54.4191ZM69.3306 20.9447C59.6472 20.9447 51.7581 27.6581 51.7581 35.8875C51.8061 39.3543 53.1723 42.6729 55.5789 45.1687C55.6493 45.2457 55.7034 45.336 55.7379 45.4344C55.7725 45.5327 55.7868 45.6371 55.78 45.7411L55.3469 52.2689L60.6836 49.1751C60.7901 49.1254 60.9063 49.0996 61.0239 49.0996C61.1415 49.0996 61.2577 49.1254 61.3642 49.1751C63.8771 50.267 66.5909 50.8203 69.3306 50.7994C79.0141 50.7994 86.9031 44.1014 86.9031 35.872C86.9031 27.6426 79.0141 20.9447 69.3306 20.9447Z" fill="#CE0606"/>
<path d="M71.8521 37.5272C71.8541 37.8294 71.7963 38.1291 71.6819 38.4089C71.5561 38.6701 71.377 38.9019 71.156 39.0895C70.9063 39.2873 70.6235 39.4392 70.3207 39.5381C69.9732 39.664 69.6074 39.732 69.2379 39.7392L69.0986 41.0541H68.9749H68.5572H68.4335C68.4253 41.04 68.421 41.0239 68.421 41.0077C68.421 40.9914 68.4253 40.9754 68.4335 40.9612L68.5727 39.6619L68.0313 39.5691L67.5827 39.4453L67.2579 39.3061L67.0568 39.1669C67.0455 39.1107 67.0455 39.0529 67.0568 38.9967C67.0454 38.9042 67.0454 38.8107 67.0568 38.7183C67.0479 38.6412 67.0479 38.5633 67.0568 38.4862C67.0495 38.4401 67.0495 38.3932 67.0568 38.347H67.1496C67.231 38.3582 67.3097 38.3845 67.3816 38.4244L67.7683 38.6255C67.9546 38.7046 68.1458 38.7718 68.3407 38.8266C68.6159 38.8797 68.8957 38.9056 69.176 38.9039C69.6325 38.9346 70.087 38.8209 70.4754 38.5791C70.6184 38.4711 70.7337 38.3306 70.8117 38.1692C70.8897 38.0078 70.9282 37.8301 70.9239 37.6509C70.9287 37.4422 70.8693 37.2371 70.7538 37.0631C70.6412 36.8943 70.4935 36.7518 70.3207 36.6455C70.1291 36.5291 69.9271 36.4307 69.7174 36.3516L69.0213 36.1041L68.3252 35.8102C68.105 35.7072 67.9016 35.5716 67.7219 35.408C67.536 35.2464 67.3881 35.0456 67.2888 34.8202C67.1713 34.5522 67.1133 34.2619 67.1186 33.9694C67.1157 33.7101 67.163 33.4527 67.2579 33.2114C67.353 32.9786 67.4952 32.7679 67.6755 32.5927C67.8858 32.4081 68.1266 32.2616 68.3871 32.1595C68.7007 32.0464 69.0288 31.9787 69.3616 31.9584L69.4854 30.7519C69.4839 30.7261 69.4839 30.7003 69.4854 30.6745H69.6091H70.0268H70.1505C70.1505 30.6745 70.1505 30.6745 70.1505 30.7519L70.0113 31.9739C70.1398 31.9602 70.2695 31.9602 70.398 31.9739L70.7538 32.0667L71.0632 32.1905L71.2643 32.3142C71.2643 32.3142 71.2643 32.3142 71.2643 32.407V32.4998C71.2643 32.4998 71.2643 32.5772 71.2643 32.6236C71.2643 32.67 71.2643 32.7319 71.2643 32.7938C71.2643 32.8556 71.2643 32.933 71.2643 32.9948C71.273 33.0356 71.273 33.0778 71.2643 33.1186L71.0632 33.0412L70.6919 32.8711C70.5276 32.7982 70.3566 32.7412 70.1814 32.7009C69.9662 32.6668 69.747 32.6668 69.5318 32.7009C69.3062 32.6661 69.0767 32.6661 68.8511 32.7009C68.6814 32.735 68.5222 32.8092 68.3871 32.9175C68.2664 33.0011 68.1746 33.12 68.1241 33.2578C68.0502 33.4206 68.0119 33.5973 68.0119 33.776C68.0119 33.9548 68.0502 34.1315 68.1241 34.2942C68.2398 34.4604 68.3869 34.6023 68.5572 34.7119C68.7532 34.826 68.9606 34.9194 69.176 34.9903L69.8721 35.2533C70.1153 35.33 70.353 35.423 70.5836 35.5317C70.8065 35.6384 71.0145 35.7736 71.2024 35.9339C71.3839 36.0995 71.5311 36.2992 71.6355 36.5217C71.7943 36.8322 71.869 37.1789 71.8521 37.5272ZM69.3307 63.4219C69.2189 63.4494 69.1021 63.4494 68.9904 63.4219L58.3479 58.1625L47.365 63.4219C47.1716 63.5001 46.9552 63.5001 46.7618 63.4219C46.5707 63.349 46.4154 63.2048 46.3286 63.0197L41.0693 50.7994L30.2411 60.0806C30.1015 60.2078 29.9195 60.2783 29.7307 60.2783C29.5418 60.2783 29.3598 60.2078 29.2202 60.0806L19.3357 50.6138L11.9261 59.4464C11.7867 59.5405 11.6199 59.5856 11.4521 59.5745C11.2842 59.5634 11.1249 59.4967 10.999 59.3851C10.8732 59.2735 10.7881 59.1231 10.7571 58.9578C10.7261 58.7925 10.751 58.6215 10.8279 58.4719L18.7479 49.005C18.8198 48.9325 18.9053 48.875 18.9996 48.8357C19.0938 48.7964 19.1949 48.7762 19.297 48.7762C19.3991 48.7762 19.5002 48.7964 19.5944 48.8357C19.6887 48.875 19.7742 48.9325 19.8461 49.005L29.8699 58.4719L40.9146 48.9895C41.004 48.9115 41.1104 48.8555 41.2254 48.8261C41.3404 48.7967 41.4606 48.7948 41.5765 48.8203C41.6924 48.8459 41.8006 48.8984 41.8925 48.9734C41.9844 49.0485 42.0575 49.1441 42.1057 49.2525L47.4733 61.7048L58.0849 56.6156C58.1898 56.5701 58.303 56.5466 58.4175 56.5466C58.5319 56.5466 58.6451 56.5701 58.75 56.6156L69.6091 61.9833C69.7873 62.076 69.9224 62.2343 69.9859 62.4249C70.0494 62.6154 70.0364 62.8232 69.9494 63.0042C69.8923 63.1223 69.805 63.2231 69.6964 63.2965C69.5877 63.3698 69.4615 63.4131 69.3307 63.4219Z" fill="#CE0606"/>
</svg>
