<svg width="27" height="27" viewBox="0 0 27 27" fill="none" xmlns="http://www.w3.org/2000/svg">
<path d="M6.81783 17.5914L5.45415 18.9551L-0.00069809 13.5003L5.45415 8.04541L6.81789 9.40915L3.69101 12.536H17.3564V14.4645H3.69101L6.81783 17.5914Z" fill="#CE0606"/>
<path d="M5.33327 21.6823C7.51871 23.8678 10.4243 25.0714 13.5149 25.0714C16.6059 25.0714 19.5119 23.8678 21.6976 21.6823C23.8834 19.4967 25.0705 16.5908 25.0705 13.5C25.0705 10.4094 23.8834 7.50365 21.6976 5.31798C19.5118 3.1323 16.6058 1.92857 13.5149 1.92857C10.4245 1.92857 7.51883 3.1323 5.33327 5.31792C5.18174 5.46981 5.03437 5.6258 4.89133 5.78571H2.43656C4.87584 2.28849 8.92795 0 13.5149 0C20.971 0 26.999 6.04475 26.999 13.5C26.999 20.956 20.971 27 13.5149 27C8.92783 27 4.87554 24.7116 2.43638 21.2143H4.89109C5.03417 21.3743 5.18163 21.5304 5.33327 21.6823Z" fill="#CE0606"/>
</svg>
