<svg width="85" height="92" viewBox="0 0 85 92" fill="none" xmlns="http://www.w3.org/2000/svg">
<path d="M3 30C3 15.0883 15.0883 3 30 3H55C69.9117 3 82 15.0883 82 30V44.75C82 59.6617 69.9117 71.75 55 71.75H21.5332C18.4224 71.75 15.4328 72.9563 13.1931 75.1153L10.3372 77.8683C7.58659 80.5198 3 78.5705 3 74.75V30Z" stroke="#CE0606" stroke-width="6"/>
<path d="M39.0356 42.9291C39.0356 41.5756 39.1512 40.4181 39.3824 39.4564C39.6466 38.4591 40.0758 37.5152 40.6703 36.6248C41.2977 35.7344 42.1398 34.8083 43.1965 33.8466C44.4844 32.6713 45.475 31.6918 46.1685 30.9082C46.895 30.1246 47.4068 29.3588 47.7041 28.6109C48.0013 27.8629 48.1499 26.9547 48.1499 25.8861C48.1499 24.1765 47.638 22.8586 46.6143 21.9326C45.5906 21.0065 44.1046 20.5435 42.1563 20.5435C40.5382 20.5435 39.1017 20.775 37.8468 21.2381C37.3089 21.4213 36.7801 21.6208 36.2604 21.8368C35.1495 22.2984 33.8363 21.8263 33.3793 20.7135C32.9884 19.7615 33.3633 18.658 34.2993 18.2301C35.1684 17.8329 36.0867 17.482 37.0543 17.1777C38.6724 16.679 40.4721 16.4297 42.4535 16.4297C45.5906 16.4297 48.0178 17.2667 49.7349 18.9407C51.4521 20.6147 52.3107 22.8943 52.3107 25.7793C52.3107 27.3821 52.063 28.7533 51.5677 29.8931C51.1054 30.9972 50.4284 32.0302 49.5368 32.9918C48.6782 33.9179 47.6545 34.9152 46.4657 35.9837C45.376 36.981 44.5339 37.8536 43.9395 38.6016C43.3781 39.3495 42.9983 40.0975 42.8002 40.8455C42.6021 41.5578 42.503 42.4305 42.503 43.4634C42.503 43.965 42.0964 44.3716 41.5948 44.3716H40.4781C39.6815 44.3716 39.0356 43.7258 39.0356 42.9291ZM37.8964 52.2253C37.8964 50.9074 38.1771 49.9814 38.7384 49.4471C39.3328 48.9128 40.0758 48.6457 40.9675 48.6457C41.793 48.6457 42.503 48.9128 43.0974 49.4471C43.6918 49.9814 43.989 50.9074 43.989 52.2253C43.989 53.5075 43.6918 54.4336 43.0974 55.0034C42.503 55.5733 41.793 55.8583 40.9675 55.8583C40.0758 55.8583 39.3328 55.5733 38.7384 55.0034C38.1771 54.4336 37.8964 53.5075 37.8964 52.2253Z" fill="#CE0606"/>
</svg>
