<svg width="56" height="56" viewBox="0 0 56 56" fill="none" xmlns="http://www.w3.org/2000/svg">
<circle cx="28" cy="28" r="28" fill="white"/>
<path fill-rule="evenodd" clip-rule="evenodd" d="M17.5601 28.0011C17.5601 26.8371 17.7534 25.7211 18.0984 24.6745L12.059 20.0625C10.8819 22.4524 10.2188 25.1453 10.2188 28.0011C10.2188 30.8544 10.8811 33.5457 12.0565 35.9339L18.0927 31.313C17.7509 30.2712 17.5601 29.1593 17.5601 28.0011Z" fill="#FBBC05"/>
<path fill-rule="evenodd" clip-rule="evenodd" d="M28.1663 17.4129C30.6949 17.4129 32.9789 18.3089 34.7735 19.7751L39.994 14.562C36.8127 11.7926 32.7342 10.082 28.1663 10.082C21.0745 10.082 14.9796 14.1377 12.061 20.0635L18.1005 24.6754C19.4921 20.4512 23.4588 17.4129 28.1663 17.4129Z" fill="#EB4335"/>
<path fill-rule="evenodd" clip-rule="evenodd" d="M28.1663 38.5906C23.4588 38.5906 19.4921 35.5524 18.1005 31.3281L12.061 35.9393C14.9796 41.8659 21.0745 45.9215 28.1663 45.9215C32.5433 45.9215 36.7222 44.3674 39.8585 41.4554L34.1258 37.0234C32.5082 38.0424 30.4714 38.5906 28.1663 38.5906Z" fill="#34A853"/>
<path fill-rule="evenodd" clip-rule="evenodd" d="M45.2982 28.0023C45.2982 26.9434 45.1351 25.803 44.8904 24.7441H28.1685V31.6678H37.7937C37.3125 34.0283 36.0025 35.8431 34.128 37.0242L39.8607 41.4562C43.1554 38.3984 45.2982 33.8434 45.2982 28.0023Z" fill="#4285F4"/>
</svg>
