<svg width="71" height="70" viewBox="0 0 71 70" fill="none" xmlns="http://www.w3.org/2000/svg">
<path d="M62.1632 42.9711C57.8073 57.8986 42.1638 66.4308 27.2226 62.0284C12.2813 57.6259 3.70026 41.956 8.05621 27.0285C12.4122 12.1011 28.0556 3.56887 42.9969 7.97129C57.9381 12.3737 66.5192 28.0437 62.1632 42.9711Z" fill="white"/>
<path fill-rule="evenodd" clip-rule="evenodd" d="M20.2206 20.6166C22.6229 18.312 26.0698 17.5865 30.1369 17.6729L39.3659 17.869C43.4331 17.9553 46.8502 18.8266 49.1649 21.2314C51.4796 23.6361 52.2155 27.0796 52.1399 31.1402L51.9684 40.3542C51.8928 44.4148 51.0294 47.8243 48.6271 50.1289C46.2248 52.4335 42.7779 53.1589 38.7107 53.0725L29.4818 52.8765C25.4146 52.7901 21.9974 51.9189 19.6828 49.5141C17.3681 47.1094 16.6322 43.6659 16.7078 39.6053L16.8793 30.3913C16.9548 26.3307 17.8183 22.9212 20.2206 20.6166ZM23.3417 23.8592C22.2189 24.9364 21.4441 26.8691 21.3768 30.4868L21.2053 39.7008C21.138 43.3185 21.8402 45.2826 22.9221 46.4066C24.004 47.5306 25.9418 48.3093 29.5654 48.3863L38.7943 48.5823C42.4179 48.6593 44.3831 47.9634 45.506 46.8862C46.6288 45.8091 47.4036 43.8764 47.4709 40.2587L47.6424 31.0447C47.7097 27.4269 47.0075 25.4629 45.9256 24.3389C44.8437 23.2149 42.9059 22.4362 39.2823 22.3592L30.0534 22.1632C26.4298 22.0862 24.4646 22.7821 23.3417 23.8592Z" fill="#CE0606"/>
<path fill-rule="evenodd" clip-rule="evenodd" d="M26.9608 33.2013C28.0892 29.2832 32.2646 27.0553 36.2868 28.2251C40.309 29.3949 42.6549 33.5195 41.5265 37.4376C40.3981 41.3557 36.2227 43.5836 32.2005 42.4138C28.1783 41.2439 25.8324 37.1194 26.9608 33.2013ZM35.0849 32.3982C33.4287 31.9165 31.7094 32.8339 31.2448 34.4472C30.7802 36.0606 31.7461 37.7589 33.4023 38.2406C35.0586 38.7223 36.7778 37.805 37.2425 36.1916C37.7071 34.5783 36.7411 32.8799 35.0849 32.3982Z" fill="#CE0606"/>
<path fill-rule="evenodd" clip-rule="evenodd" d="M40.0644 27.9186C40.0935 26.3507 41.4551 25.108 43.1055 25.1431L43.1952 25.145C44.8456 25.18 46.1599 26.4795 46.1307 28.0474C46.1015 29.6154 44.7399 30.858 43.0895 30.823L42.9999 30.8211C41.3494 30.786 40.0352 29.4865 40.0644 27.9186Z" fill="#CE0606"/>
</svg>
