<svg width="62" height="60" viewBox="0 0 62 60" fill="none" xmlns="http://www.w3.org/2000/svg">
<ellipse cx="19.7257" cy="19.7257" rx="19.7257" ry="19.7257" transform="matrix(1.0001 0.000149586 0.000149688 0.999903 11.5566 8.99976)" fill="white"/>
<path fill-rule="evenodd" clip-rule="evenodd" d="M20.7372 19.0242C22.3812 17.3689 24.7803 16.8015 27.6259 16.7919L34.0828 16.7702C36.9283 16.7606 39.3316 17.3119 40.9877 18.9562C42.6438 20.6004 43.2121 22.9992 43.2225 25.8442L43.2461 32.2999C43.2565 35.1449 42.7059 37.5475 41.0618 39.2028C39.4178 40.8581 37.0186 41.4255 34.1731 41.4351L27.7162 41.4568C24.8706 41.4664 22.4674 40.9151 20.8113 39.2708C19.1552 37.6266 18.5869 35.2278 18.5765 32.3828L18.5529 25.9271C18.5424 23.0821 19.0931 20.6795 20.7372 19.0242ZM22.9703 21.2413C22.2019 22.015 21.6902 23.3818 21.6995 25.9165L21.7231 32.3722C21.7324 34.9069 22.2541 36.2703 23.0282 37.0388C23.8022 37.8073 25.1695 38.3193 27.7047 38.3108L34.1616 38.2891C36.6968 38.2805 38.0602 37.7594 38.8287 36.9857C39.5971 36.212 40.1088 34.8452 40.0995 32.3105L40.0759 25.8548C40.0666 23.3201 39.5449 21.9567 38.7708 21.1882C37.9967 20.4197 36.6295 19.9077 34.0943 19.9162L27.6374 19.9379C25.1022 19.9465 23.7388 20.4676 22.9703 21.2413Z" fill="#342828"/>
<path fill-rule="evenodd" clip-rule="evenodd" d="M25.4613 29.1309C25.4509 26.2747 27.8176 23.9512 30.7477 23.9414C33.6777 23.9316 36.0615 26.239 36.0719 29.0952C36.0824 31.9515 33.7156 34.2749 30.7855 34.2847C27.8555 34.2946 25.4718 31.9871 25.4613 29.1309ZM30.7588 26.9836C29.5523 26.9876 28.5778 27.9443 28.5821 29.1204C28.5864 30.2965 29.5679 31.2466 30.7744 31.2426C31.9809 31.2385 32.9555 30.2818 32.9511 29.1057C32.9468 27.9296 31.9653 26.9795 30.7588 26.9836Z" fill="#342828"/>
<path fill-rule="evenodd" clip-rule="evenodd" d="M34.726 23.796C34.722 22.6974 35.6548 21.8037 36.8095 21.7999L36.8722 21.7996C38.0269 21.7958 38.9662 22.6832 38.9703 23.7817C38.9743 24.8803 38.0415 25.774 36.8868 25.7779L36.8241 25.7781C35.6694 25.7819 34.7301 24.8945 34.726 23.796Z" fill="#342828"/>
</svg>
