<svg width="40" height="40" viewBox="0 0 40 40" fill="none" xmlns="http://www.w3.org/2000/svg">
<path d="M20 40C31.0457 40 40 31.0457 40 20C40 8.9543 31.0457 0 20 0C8.9543 0 0 8.9543 0 20C0 31.0457 8.9543 40 20 40Z" fill="white"/>
<path fill-rule="evenodd" clip-rule="evenodd" d="M7.84375 11.7407C7.84375 10.8875 8.52892 10.1958 9.37412 10.1958H31.4114C32.2566 10.1958 32.9418 10.8875 32.9418 11.7407V26.5713C32.9418 28.7897 31.1604 30.588 28.9628 30.588H11.8227C9.6252 30.588 7.84375 28.7897 7.84375 26.5713V11.7407ZM10.9045 13.2855V26.5713C10.9045 27.0833 11.3156 27.4982 11.8227 27.4982H28.9628C29.47 27.4982 29.8811 27.0833 29.8811 26.5713V13.2855H10.9045Z" fill="#342828"/>
<path fill-rule="evenodd" clip-rule="evenodd" d="M8.29198 10.6702C8.88963 10.0377 9.85861 10.0377 10.4563 10.6702L20.3928 21.1873L30.3293 10.6702C30.9269 10.0377 31.8959 10.0377 32.4936 10.6702C33.0912 11.3028 33.0912 12.3284 32.4936 12.9609L21.4749 24.6233C20.8773 25.2559 19.9083 25.2559 19.3106 24.6233L8.29198 12.9609C7.69434 12.3284 7.69434 11.3028 8.29198 10.6702Z" fill="#342828"/>
</svg>
