<svg width="57" height="57" viewBox="0 0 57 57" fill="none" xmlns="http://www.w3.org/2000/svg">
<path d="M28.5 57C44.2401 57 57 44.2401 57 28.5C57 12.7599 44.2401 0 28.5 0C12.7599 0 0 12.7599 0 28.5C0 44.2401 12.7599 57 28.5 57Z" fill="white"/>
<path fill-rule="evenodd" clip-rule="evenodd" d="M11.1777 16.7302C11.1777 15.5144 12.1541 14.5288 13.3585 14.5288H44.7617C45.9661 14.5288 46.9424 15.5144 46.9424 16.7302V37.8639C46.9424 41.0251 44.4039 43.5876 41.2724 43.5876H16.8477C13.7163 43.5876 11.1777 41.0251 11.1777 37.8639V16.7302ZM15.5393 18.9317V37.8639C15.5393 38.5934 16.1251 39.1848 16.8477 39.1848H41.2724C41.9951 39.1848 42.5809 38.5935 42.5809 37.8639V18.9317H15.5393Z" fill="#CE0606"/>
<path fill-rule="evenodd" clip-rule="evenodd" d="M11.8165 15.2049C12.6681 14.3035 14.0489 14.3035 14.9005 15.2049L29.0601 30.1917L43.2196 15.2049C44.0713 14.3035 45.4521 14.3035 46.3037 15.2049C47.1554 16.1063 47.1554 17.5677 46.3037 18.4691L30.6021 35.088C29.7505 35.9895 28.3697 35.9895 27.518 35.088L11.8165 18.4691C10.9648 17.5677 10.9648 16.1063 11.8165 15.2049Z" fill="#CE0606"/>
</svg>
