<svg width="56" height="74" viewBox="0 0 56 74" fill="none" xmlns="http://www.w3.org/2000/svg">
<path d="M48.042 23.1247V67.833C48.042 69.0596 47.5547 70.236 46.6874 71.1034C45.82 71.9707 44.6436 72.458 43.417 72.458H6.41699C5.19037 72.458 4.01398 71.9707 3.14662 71.1034C2.27927 70.236 1.79199 69.0596 1.79199 67.833V12.333C1.79199 11.1064 2.27927 9.92999 3.14662 9.06264C4.01398 8.19528 5.19037 7.70801 6.41699 7.70801H32.6253L48.042 23.1247Z" stroke="#CE0606" stroke-width="2" stroke-linecap="round" stroke-linejoin="round"/>
<path d="M35.7087 32.3745H14.1253C12.4224 32.3745 11.042 33.755 11.042 35.4578V60.1245C11.042 61.8274 12.4224 63.2078 14.1253 63.2078H35.7087C37.4115 63.2078 38.792 61.8274 38.792 60.1245V35.4578C38.792 33.755 37.4115 32.3745 35.7087 32.3745Z" stroke="#CE0606" stroke-width="2" stroke-linecap="round" stroke-linejoin="round"/>
<path d="M11.042 53.9578H29.542V63.2078M20.292 53.9578V63.2078M11.042 41.6245H38.792M20.292 32.3745V41.6245M29.542 32.3745V41.6245" stroke="#CE0606" stroke-width="2" stroke-linecap="round" stroke-linejoin="round"/>
<path d="M11.042 1.5415H38.792L54.2087 16.9582V63.1465" stroke="#CE0606" stroke-width="2" stroke-linecap="round" stroke-linejoin="round"/>
</svg>
