<svg width="40" height="40" viewBox="0 0 40 40" fill="none" xmlns="http://www.w3.org/2000/svg">
<path d="M6.28661 0C2.7125 0 0 2.86786 0 6.40893V33.592C0 37.1304 2.89107 40 6.46518 40H33.5366C37.108 40 40 37.1304 40 33.592V33.3143C39.8795 33.2643 29.6902 28.9777 24.4196 26.4661C20.8643 30.8027 16.2786 33.4304 11.5179 33.4304C3.46607 33.4304 0.732143 26.4464 4.54464 21.8482C5.37589 20.8464 6.79018 19.8893 8.98482 19.3482C12.4179 18.5125 17.8813 19.8705 23.0027 21.5455C23.9567 19.7974 24.7188 17.9513 25.2759 16.0393H9.49464V14.4643H17.6313V11.6223H7.77589V10.0375H17.6313V5.98214C17.6313 5.98214 17.6313 5.29911 18.3295 5.29911H22.3071V10.0313H32.0536V11.6161H22.3071V14.4643H30.2607C29.5433 17.4201 28.4094 20.2589 26.8929 22.8955C29.3036 23.7607 31.2955 24.5813 32.9098 25.1179C38.2955 26.9036 39.8054 27.1223 40 27.1446V6.40893C40 2.86786 37.1071 0 33.5366 0H6.28661ZM10.7143 21.6723C10.3685 21.6759 10.0211 21.6946 9.67232 21.7286C8.66339 21.8295 6.77054 22.2705 5.73571 23.1777C2.63393 25.8563 4.49107 30.7607 10.7688 30.7607C14.4179 30.7607 18.0643 28.4482 20.9286 24.7455C17.2357 22.9598 14.0536 21.6339 10.7143 21.6723Z" fill="white"/>
</svg>
