<svg width="40" height="40" viewBox="0 0 40 40" fill="none" xmlns="http://www.w3.org/2000/svg">
<g clip-path="url(#clip0_1_5768)">
<path d="M22.4589 17.6963V20.6911C21.6715 20.7306 20.848 20.7523 20.0001 20.7523C19.0788 20.7523 18.1872 20.7271 17.339 20.6798V18.2888H17.3384V17.7055C12.6328 17.9319 9.14941 18.7456 9.14941 19.7148C9.14941 20.8597 14.0074 21.7872 20.0002 21.7872C25.9927 21.7872 30.8511 20.8597 30.8511 19.7148C30.8509 18.7313 27.2668 17.9088 22.4589 17.6963Z" fill="white"/>
<path d="M20.0001 -0.000488281C8.95452 -0.000488281 0 8.95351 0 19.9994C0 31.0448 8.95452 39.9997 20.0001 39.9997C31.0457 39.9997 40 31.0448 40 19.9994C40 8.95351 31.0455 -0.000488281 20.0001 -0.000488281ZM22.4585 23.395V32.2171H17.3383V23.383C11.8571 23.0659 7.75687 21.791 7.75687 20.2656C7.75687 18.7406 11.8571 17.4658 17.3383 17.1482V14.6761H10.3677V9.55604H29.4298V14.6761H22.4585L22.4589 17.1363C28.0422 17.4334 32.2437 18.7219 32.2437 20.2656C32.2435 21.8097 28.0422 23.0983 22.4585 23.395Z" fill="white"/>
</g>
<defs>
<clipPath id="clip0_1_5768">
<rect width="40" height="40" fill="white"/>
</clipPath>
</defs>
</svg>
