<svg width="40" height="40" viewBox="0 0 40 40" fill="none" xmlns="http://www.w3.org/2000/svg">
<path d="M20 40C31.0457 40 40 31.0457 40 20C40 8.9543 31.0457 0 20 0C8.9543 0 0 8.9543 0 20C0 31.0457 8.9543 40 20 40Z" fill="white"/>
<path d="M20.2218 12.3742C23.3315 12.3742 25.7984 14.2622 26.7352 17.0699H33C31.8651 11.0671 26.8338 7 20.2719 7C12.8201 7 7 12.5682 7 20.0249C7 27.4816 12.6746 33 20.2719 33C26.6867 33 31.8181 28.9329 32.9541 22.8803H26.7347C25.8464 25.6885 23.3815 27.6258 20.2698 27.6258C15.9762 27.6258 12.9671 24.3814 12.9671 20.0249C12.9692 15.6186 15.9298 12.3742 20.2218 12.3742Z" fill="#342828"/>
</svg>
