<svg width="40" height="40" viewBox="0 0 40 40" fill="none" xmlns="http://www.w3.org/2000/svg">
<path d="M20 40C31.0457 40 40 31.0457 40 20C40 8.9543 31.0457 0 20 0C8.9543 0 0 8.9543 0 20C0 31.0457 8.9543 40 20 40Z" fill="white"/>
<path d="M29.1068 16.1672L16.6179 23.3146L16.5287 23.3733C16.4101 23.4325 16.2789 23.4622 16.1463 23.4599C15.995 23.4607 15.8462 23.4204 15.716 23.3431C15.5858 23.2659 15.479 23.1547 15.4071 23.0215L15.3485 22.9042L13.0161 17.8699C12.9856 17.8113 12.9856 17.7527 12.9856 17.694C12.9856 17.4595 13.1627 17.2849 13.3985 17.2849C13.4877 17.2849 13.5769 17.3142 13.6649 17.3729L16.4114 19.3037C16.6179 19.421 16.855 19.5089 17.1201 19.5089C17.2722 19.5081 17.4227 19.4783 17.5636 19.421L28.1102 14.7716C26.2889 12.7005 23.3575 11.333 20.0005 11.333C14.3671 11.333 9.93183 15.1845 9.93183 19.7447C9.93183 21.4857 10.5691 23.1515 11.7569 24.5636C11.8181 24.6363 11.9099 24.7382 12.0297 24.8632C12.5306 25.3849 12.9149 26.0072 13.1568 26.6889C13.3987 27.3705 13.4929 28.0959 13.4329 28.8167L13.401 29.1952L14.3136 28.6395C15.3455 28.0104 16.5673 27.7683 17.7611 27.9564C18.0313 27.9984 18.2531 28.0316 18.4239 28.0532C18.9413 28.1221 19.469 28.1565 20.0005 28.1565C25.6338 28.1565 30.0691 24.3049 30.0691 19.7447C30.0691 18.4753 29.725 17.2594 29.1068 16.1672ZM12.5981 32.6721C12.3975 32.7973 12.166 32.8642 11.9294 32.8654C11.6929 32.8665 11.4608 32.8019 11.2589 32.6786C11.0571 32.5553 10.8935 32.3783 10.7866 32.1674C10.6796 31.9564 10.6334 31.7199 10.6532 31.4842L10.8928 28.6051C10.9229 28.2447 10.8759 27.8821 10.7551 27.5413C10.6342 27.2005 10.4422 26.8893 10.1918 26.6283C10.0582 26.4911 9.92894 26.3495 9.80438 26.2039C8.28262 24.3929 7.38281 22.1599 7.38281 19.7447C7.38281 13.6908 13.0314 8.78394 20.0005 8.78394C26.9695 8.78394 32.6181 13.6908 32.6181 19.7447C32.6181 25.7986 26.9695 30.7055 20.0005 30.7055C19.3505 30.7055 18.7132 30.6634 18.09 30.5806C17.8478 30.5479 17.6061 30.5122 17.3648 30.4735C16.7677 30.3793 16.1565 30.5004 15.6404 30.8151L12.5981 32.6708V32.6721Z" fill="#342828"/>
</svg>
