<svg width="104" height="87" viewBox="0 0 104 87" fill="none" xmlns="http://www.w3.org/2000/svg">
<path d="M4 55.912C4.00053 56.1845 3.94921 56.4545 3.84897 56.7064C3.74873 56.9584 3.60155 57.1875 3.41581 57.3805C3.23008 57.5735 3.00945 57.7268 2.76652 57.8315C2.52359 57.9362 2.26313 57.9903 2 57.9907C0.895004 57.9907 4.16703e-06 57.0596 4.16703e-06 55.912V3.1175C-0.000652989 2.70878 0.076423 2.30394 0.226832 1.92607C0.37724 1.54821 0.598036 1.20473 0.876612 0.915238C1.15519 0.625752 1.48609 0.395929 1.85042 0.238892C2.21475 0.0818555 2.60538 0.000679494 3 0H101C102.657 0 104 1.39511 104 3.1175V83.8825C104.001 84.2912 103.924 84.6961 103.773 85.0739C103.623 85.4518 103.402 85.7953 103.123 86.0848C102.845 86.3742 102.514 86.6041 102.15 86.7611C101.785 86.9181 101.395 86.9993 101 87H3.602C1.945 87 0.602004 85.6049 0.602004 83.8825C0.602004 83.4081 0.706004 82.94 0.906004 82.5154L22.072 37.5032C22.2745 37.071 22.5712 36.6933 22.9387 36.4001C23.3061 36.1068 23.7343 35.9059 24.1895 35.8132C24.6446 35.7206 25.1144 35.7386 25.5616 35.866C26.0089 35.9934 26.4216 36.2266 26.767 36.5472L37.642 46.6486L49.777 27.1005C49.9898 26.7567 50.266 26.4599 50.5898 26.227C50.9136 25.9941 51.2786 25.8297 51.664 25.7432C52.0493 25.6568 52.4473 25.6501 52.8351 25.7234C53.223 25.7967 53.593 25.9486 53.924 26.1704L53.927 26.1725L65.98 34.2718L73.697 20.9991C73.8322 20.7657 74.0107 20.5622 74.2221 20.4004C74.4334 20.2385 74.6736 20.1216 74.9287 20.0561C75.1839 19.9907 75.449 19.9781 75.7089 20.019C75.9687 20.06 76.2182 20.1537 76.443 20.2948C76.8975 20.5808 77.224 21.0417 77.3511 21.5765C77.4781 22.1113 77.3954 22.6764 77.121 23.1482L68.871 37.3385L68.822 37.4204C68.6088 37.7638 68.3322 38.0602 68.008 38.2926C67.6839 38.525 67.3187 38.6888 66.9333 38.7746C66.5479 38.8605 66.1499 38.8666 65.7622 38.7928C65.3745 38.7189 65.0047 38.5665 64.674 38.3442L52.595 30.2273L40.37 49.9235C40.136 50.3019 39.8254 50.6232 39.4596 50.8649C39.0938 51.1067 38.6817 51.2631 38.2518 51.3235C37.8218 51.3839 37.3843 51.3468 36.9696 51.2147C36.5549 51.0825 36.1729 50.8586 35.85 50.5584L25.087 40.5606L5.203 82.8437H100V4.15632H4V55.912Z" fill="#CE0606"/>
</svg>
