<svg width="103" height="115" viewBox="0 0 103 115" fill="none" xmlns="http://www.w3.org/2000/svg">
<path fill-rule="evenodd" clip-rule="evenodd" d="M61.2471 105.235C57.0393 106.678 52.5235 107.461 47.8241 107.461C25.0547 107.461 6.59643 89.0722 6.59643 66.3886C6.59643 43.7049 25.0547 25.3162 47.8241 25.3162C70.5935 25.3162 89.0517 43.7049 89.0517 66.3886C89.0517 68.5323 88.8869 70.6376 88.5691 72.6927L94.2235 77.9774C95.1541 74.2676 95.6482 70.3856 95.6482 66.3886C95.6482 40.0756 74.2366 18.7446 47.8241 18.7446C21.4116 18.7446 0 40.0756 0 66.3886C0 92.7016 21.4116 114.033 47.8241 114.033C54.4842 114.033 60.8263 112.676 66.5873 110.226L61.2471 105.235Z" fill="#CE0606"/>
<path d="M89.3369 84.3887L79.4269 69.4517L102.761 72.4834L89.3369 84.3887Z" fill="#CE0606"/>
<path fill-rule="evenodd" clip-rule="evenodd" d="M34.043 46.3199C33.4842 46.3199 32.9484 46.5501 32.5533 46.9599C32.1583 47.3696 31.9363 47.9253 31.9363 48.5048V85.2107C31.9363 85.7901 32.1583 86.3459 32.5533 86.7556C32.9484 87.1654 33.4842 87.3955 34.043 87.3955H57.6376C58.1963 87.3955 58.7321 87.1654 59.1272 86.7556C59.5223 86.3459 59.7442 85.7901 59.7442 85.2107V56.0041L50.4068 46.3199H34.043ZM31.3616 45.7239C32.0728 44.9864 33.0373 44.572 34.043 44.572H50.7558C50.9793 44.572 51.1936 44.6641 51.3517 44.828L61.1827 55.0241C61.3408 55.188 61.4295 55.4103 61.4295 55.642V85.2107C61.4295 86.2537 61.03 87.254 60.3189 87.9916C59.6078 88.7291 58.6433 89.1434 57.6376 89.1434H34.043C33.0373 89.1434 32.0728 88.7291 31.3616 87.9916C30.6505 87.254 30.251 86.2537 30.251 85.2107V48.5048C30.251 47.4618 30.6505 46.4614 31.3616 45.7239Z" fill="#CE0606"/>
<path fill-rule="evenodd" clip-rule="evenodd" d="M39.69 63.3389C39.1355 63.3389 38.6859 63.8236 38.6859 64.4216V79.5795C38.6859 80.1775 39.1355 80.6622 39.69 80.6622H51.9908C52.5453 80.6622 52.9949 80.1775 52.9949 79.5795V64.4216C52.9949 63.8236 52.5453 63.3389 51.9908 63.3389H39.69ZM37.1797 64.4216C37.1797 62.9267 38.3036 61.7148 39.69 61.7148H51.9908C53.3772 61.7148 54.5011 62.9267 54.5011 64.4216V79.5795C54.5011 81.0744 53.3772 82.2863 51.9908 82.2863H39.69C38.3036 82.2863 37.1797 81.0744 37.1797 79.5795V64.4216Z" fill="#CE0606"/>
<path fill-rule="evenodd" clip-rule="evenodd" d="M43.2045 61.7148C43.6205 61.7148 43.9576 62.0784 43.9576 62.5269V67.3991H47.7232V62.5269C47.7232 62.0784 48.0603 61.7148 48.4763 61.7148C48.8922 61.7148 49.2294 62.0784 49.2294 62.5269V67.3991H53.748C54.1639 67.3991 54.5011 67.7626 54.5011 68.2111C54.5011 68.6596 54.1639 69.0231 53.748 69.0231H37.9328C37.5169 69.0231 37.1797 68.6596 37.1797 68.2111C37.1797 67.7626 37.5169 67.3991 37.9328 67.3991H42.4514V62.5269C42.4514 62.0784 42.7886 61.7148 43.2045 61.7148ZM37.1797 75.79C37.1797 75.3416 37.5169 74.978 37.9328 74.978H48.4763C48.8922 74.978 49.2294 75.3416 49.2294 75.79V81.4742C49.2294 81.9227 48.8922 82.2863 48.4763 82.2863C48.0603 82.2863 47.7232 81.9227 47.7232 81.4742V76.6021H43.9576V81.4742C43.9576 81.9227 43.6205 82.2863 43.2045 82.2863C42.7886 82.2863 42.4514 81.9227 42.4514 81.4742V76.6021H37.9328C37.5169 76.6021 37.1797 76.2385 37.1797 75.79Z" fill="#CE0606"/>
<path fill-rule="evenodd" clip-rule="evenodd" d="M37.1797 41.9893C37.1797 41.5219 37.5376 41.1431 37.9791 41.1431H54.7676C54.9796 41.1431 55.183 41.2322 55.3329 41.3909L64.6598 51.2634C64.8097 51.4221 64.894 51.6373 64.894 51.8618V81.4397C64.894 81.9071 64.536 82.2859 64.0945 82.2859C63.653 82.2859 63.2951 81.9071 63.2951 81.4397V52.2123L54.4365 42.8355H37.9791C37.5376 42.8355 37.1797 42.4566 37.1797 41.9893Z" fill="#CE0606"/>
</svg>
