<svg width="37" height="37" viewBox="0 0 37 37" fill="none" xmlns="http://www.w3.org/2000/svg">
<path d="M18.5 36.4375C28.4066 36.4375 36.4375 28.4066 36.4375 18.5C36.4375 8.59339 28.4066 0.5625 18.5 0.5625C8.59339 0.5625 0.5625 8.59339 0.5625 18.5C0.5625 28.4066 8.59339 36.4375 18.5 36.4375Z" fill="url(#paint0_linear_67_3729)"/>
<path d="M27.4516 11.08C27.6112 10.048 26.63 9.23342 25.7124 9.63631L7.43617 17.6605C6.77813 17.9494 6.82627 18.9463 7.50876 19.1636L11.2777 20.3638C11.9971 20.5929 12.776 20.4744 13.4042 20.0404L21.9017 14.1698C22.158 13.9927 22.4373 14.3571 22.2183 14.5827L16.1016 20.889C15.5083 21.5008 15.626 22.5375 16.3398 22.985L23.1881 27.2795C23.9562 27.7611 24.9443 27.2773 25.0879 26.3491L27.4516 11.08Z" fill="white"/>
<defs>
<linearGradient id="paint0_linear_67_3729" x1="18.5" y1="0.5625" x2="18.5" y2="36.4375" gradientUnits="userSpaceOnUse">
<stop stop-color="#37BBFE"/>
<stop offset="1" stop-color="#007DBB"/>
</linearGradient>
</defs>
</svg>
