<svg width="41" height="40" viewBox="0 0 41 40" fill="none" xmlns="http://www.w3.org/2000/svg">
<path d="M20.7832 40C31.8289 40 40.7832 31.0457 40.7832 20C40.7832 8.9543 31.8289 0 20.7832 0C9.73751 0 0.783203 8.9543 0.783203 20C0.783203 31.0457 9.73751 40 20.7832 40Z" fill="white"/>
<path d="M29.7831 12.0245C29.9664 10.8061 28.8402 9.84444 27.7869 10.3201L6.80993 19.7932C6.05465 20.1343 6.1099 21.3111 6.89324 21.5677L11.2192 22.9847C12.0449 23.2551 12.9389 23.1152 13.6599 22.6029L23.4131 15.6721C23.7072 15.4631 24.0278 15.8933 23.7765 16.1596L16.7559 23.6047C16.0749 24.327 16.21 25.5508 17.0293 26.0792L24.8896 31.1491C25.7712 31.7177 26.9053 31.1465 27.0702 30.0507L29.7831 12.0245Z" fill="#342828"/>
</svg>
