<svg width="57" height="57" viewBox="0 0 57 57" fill="none" xmlns="http://www.w3.org/2000/svg">
<path d="M28.5 57C44.2401 57 57 44.2401 57 28.5C57 12.7599 44.2401 0 28.5 0C12.7599 0 0 12.7599 0 28.5C0 44.2401 12.7599 57 28.5 57Z" fill="white"/>
<path d="M41.3216 17.1358C41.5827 15.3996 39.9779 14.0292 38.4771 14.707L8.58482 28.2063C7.50855 28.6923 7.58728 30.3693 8.70353 30.7348L14.868 32.7541C16.0446 33.1395 17.3186 32.9401 18.346 32.21L32.2444 22.3337C32.6635 22.0358 33.1203 22.6488 32.7622 23.0284L22.7579 33.6376C21.7874 34.6668 21.98 36.4108 23.1474 37.1637L34.3483 44.3884C35.6046 45.1986 37.2208 44.3847 37.4557 42.8231L41.3216 17.1358Z" fill="#CE0606"/>
</svg>
