<svg width="128" height="128" viewBox="0 0 128 128" fill="none" xmlns="http://www.w3.org/2000/svg">
<path d="M71.8686 56.6284V66.2119C69.349 66.3383 66.7136 66.4078 64.0004 66.4078C61.0524 66.4078 58.1992 66.327 55.4849 66.1758V58.5243H55.4832V56.6578C40.4253 57.3825 29.2783 59.9862 29.2783 63.0878C29.2783 66.7515 44.8239 69.7193 64.001 69.7193C83.177 69.7193 98.7237 66.7515 98.7237 63.0878C98.7231 59.9405 87.2539 57.3086 71.8686 56.6284Z" fill="white"/>
<path d="M64.0003 -0.000976562C28.6545 -0.000976562 0 28.6518 0 63.9987C0 99.344 28.6545 128 64.0003 128C99.3461 128 128 99.344 128 63.9987C128 28.6518 99.3455 -0.000976562 64.0003 -0.000976562ZM71.8673 74.8646V103.095H55.4824V74.8262C37.9428 73.8114 24.822 69.7317 24.822 64.8505C24.822 59.9704 37.9428 55.8913 55.4824 54.8747V46.9642H33.1767V30.5799H94.1753V46.9642H71.8673L71.8685 54.8369C89.735 55.7874 103.18 59.9106 103.18 64.8505C103.179 69.7915 89.735 73.9152 71.8673 74.8646Z" fill="white"/>
</svg>
