<svg width="18" height="12" viewBox="0 0 18 12" fill="none" xmlns="http://www.w3.org/2000/svg">
<path d="M8.93526 4.51792C9.75201 4.51792 10.4175 5.18411 10.4175 6.00017C10.4175 6.81623 9.75132 7.46111 8.93526 7.46111C8.1192 7.46111 7.47432 6.81623 7.47432 6.00017C7.47432 5.18411 8.1192 4.51792 8.93526 4.51792ZM8.93526 0.865234C13.7911 0.865234 17.2925 5.41992 17.2925 5.41992C17.529 5.72105 17.529 6.25798 17.2925 6.55842C17.2925 6.55842 13.7904 11.1131 8.93526 11.1131C4.08014 11.1131 0.57801 6.55842 0.57801 6.55842C0.34151 6.2573 0.34151 5.72036 0.57801 5.41992C0.57801 5.41992 4.08014 0.865234 8.93526 0.865234ZM8.93526 9.67417C10.9551 9.67417 12.6093 8.02005 12.6093 6.00017C12.6093 3.9803 10.9551 2.32617 8.93526 2.32617C6.91539 2.32617 5.26126 3.9803 5.26126 6.00017C5.26126 8.02005 6.91539 9.67417 8.93526 9.67417Z" fill="#342828"/>
</svg>
