<svg width="41" height="37" viewBox="0 0 41 37" fill="none" xmlns="http://www.w3.org/2000/svg">
<path d="M33.7097 19.3556C27.1647 27.487 14.1057 27.4377 7.64149 19.1977C13.9532 10.6464 27.4757 10.688 33.7097 19.3556Z" stroke="#CE0606"/>
<path fill-rule="evenodd" clip-rule="evenodd" d="M20.7577 22.847C22.8935 22.847 24.6249 21.2177 24.6249 19.2077C24.6249 18.58 24.456 17.9894 24.1587 17.4739C24.0212 18.0048 23.5126 18.3989 22.9062 18.3989C22.1943 18.3989 21.6172 17.8558 21.6172 17.1858C21.6172 16.6151 22.0359 16.1364 22.6 16.0071C22.0523 15.7273 21.4248 15.5684 20.7577 15.5684C18.622 15.5684 16.8906 17.1977 16.8906 19.2077C16.8906 21.2177 18.622 22.847 20.7577 22.847Z" fill="#CE0606"/>
</svg>
