<svg width="100" height="89" viewBox="0 0 100 89" fill="none" xmlns="http://www.w3.org/2000/svg">
<path fill-rule="evenodd" clip-rule="evenodd" d="M85.694 30.0795C83.5837 30.0795 81.5599 30.8457 80.0677 32.2095C78.5755 33.5733 77.7372 35.423 77.7372 37.3518C77.7372 39.2805 78.5755 41.1302 80.0677 42.494C81.5599 43.8578 83.5837 44.624 85.694 44.624H97.3613V30.0795H85.694ZM78.2019 30.5043C80.189 28.6882 82.8839 27.668 85.694 27.668H98.6805C99.4092 27.668 99.9998 28.2078 99.9998 28.8737V45.8298C99.9998 46.4957 99.4092 47.0356 98.6805 47.0356H85.694C82.8839 47.0356 80.189 46.0153 78.2019 44.1992C76.2149 42.3832 75.0986 39.9201 75.0986 37.3518C75.0986 34.7835 76.2149 32.3204 78.2019 30.5043Z" fill="#CE0606"/>
<path fill-rule="evenodd" clip-rule="evenodd" d="M8.69531 1.29762C8.69531 0.580964 9.28349 0 10.009 0H91.2962C93.6045 0 95.8183 0.905724 97.4505 2.51792C99.0827 4.13012 99.9997 6.31673 99.9997 8.59673V63.34C99.9997 65.62 99.0827 67.8066 97.4505 69.4188C95.8183 71.031 93.6045 71.9368 91.2962 71.9368H46.9577C46.2322 71.9368 45.644 71.3558 45.644 70.6391C45.644 69.9225 46.2322 69.3415 46.9577 69.3415H91.2962C92.9076 69.3415 94.4531 68.7092 95.5926 67.5837C96.732 66.4582 97.3722 64.9317 97.3722 63.34V8.59673C97.3722 7.00503 96.732 5.47853 95.5926 4.35303C94.4531 3.22754 92.9076 2.59524 91.2962 2.59524H11.3228V48.7418C11.3228 49.4585 10.7346 50.0394 10.009 50.0394C9.28349 50.0394 8.69531 49.4585 8.69531 48.7418V1.29762Z" fill="#CE0606"/>
<path fill-rule="evenodd" clip-rule="evenodd" d="M23.5178 46.7454C11.9825 46.7454 2.63136 55.5465 2.63136 66.4032C2.63136 77.2599 11.9825 86.061 23.5178 86.061C35.053 86.061 44.4042 77.2599 44.4042 66.4032C44.4042 55.5465 35.053 46.7454 23.5178 46.7454ZM0 66.4032C0 54.1787 10.5293 44.2688 23.5178 44.2688C36.5063 44.2688 47.0356 54.1787 47.0356 66.4032C47.0356 78.6277 36.5063 88.5376 23.5178 88.5376C10.5293 88.5376 0 78.6277 0 66.4032Z" fill="#CE0606"/>
<path fill-rule="evenodd" clip-rule="evenodd" d="M23.5178 58.1028C24.1837 58.1028 24.7235 58.6426 24.7235 59.3085V66.5808H31.9958C32.6617 66.5808 33.2016 67.1207 33.2016 67.7866C33.2016 68.4525 32.6617 68.9923 31.9958 68.9923H24.7235V76.2646C24.7235 76.9305 24.1837 77.4704 23.5178 77.4704C22.8519 77.4704 22.312 76.9305 22.312 76.2646V68.9923H15.0397C14.3738 68.9923 13.834 68.4525 13.834 67.7866C13.834 67.1207 14.3738 66.5808 15.0397 66.5808H22.312V59.3085C22.312 58.6426 22.8519 58.1028 23.5178 58.1028Z" fill="#CE0606"/>
</svg>
