<svg width="676" height="494" viewBox="0 0 676 494" fill="none" xmlns="http://www.w3.org/2000/svg">
<path fill-rule="evenodd" clip-rule="evenodd" d="M338.223 0C405.547 0 397.86 122.841 446.464 160.286C510.791 209.845 621.458 185.308 621.458 270.36C621.458 419.676 477.914 473.776 321.486 473.776C165.057 473.776 31.5818 390.96 78.1622 242.038C124.738 93.1201 181.794 0 338.223 0Z" fill="#CE0606" fill-opacity="0.2"/>
<path d="M81.6436 471.644C126.734 471.644 163.287 466.052 163.287 459.154C163.287 452.255 126.734 446.663 81.6436 446.663C36.5531 446.663 0 452.255 0 459.154C0 466.052 36.5531 471.644 81.6436 471.644Z" fill="#FF6F6F"/>
<path fill-rule="evenodd" clip-rule="evenodd" d="M96.3528 245.112C95.067 243.337 93.3014 242.002 91.5358 240.825C91.065 240.512 90.3859 240.725 90.1278 241.241C88.7606 243.962 87.493 246.751 85.9266 249.349C85.4105 250.205 84.6726 251.341 84.0207 251.848C83.9799 251.88 83.8124 251.966 83.74 252.011C83.7309 251.998 83.7219 251.984 83.7083 251.961C83.5815 251.758 83.5046 251.54 83.4366 251.305C82.2143 247.308 83.6947 243.02 82.7349 238.996C82.2234 236.863 80.9603 234.64 79.5206 233.088C77.9542 231.394 75.8581 230.611 74.8848 228.334C74.7354 227.99 74.4728 227.827 74.1876 227.8H73.9929C73.6443 227.831 73.2912 228.044 73.092 228.343C70.8374 231.802 67.682 235.378 67.0798 239.706C66.5456 243.55 68.4923 246.755 70.5703 249.671C71.5754 251.079 72.5668 252.518 73.3455 254.085C73.7756 254.949 74.5181 256.511 73.7348 257.358C72.9154 258.241 71.675 256.661 71.0276 255.95C69.7056 254.488 68.5829 252.826 67.4375 251.21C65.5406 248.539 62.5345 244.478 58.9626 245.211C57.3871 245.537 56.7488 247.271 56.6628 248.788C56.5315 251.192 57.6361 253.777 58.7407 255.796C61.2579 260.373 66.3555 261.7 69.6332 265.394C70.3892 266.24 72.4536 269.151 71.2675 270.342C70.851 270.758 69.8912 270.618 69.4023 270.537C68.1981 270.342 66.8807 269.867 65.9118 269.074C62.2222 266.032 60.8776 260.74 57.0068 257.856C55.3091 256.593 52.6924 255.819 50.6461 256.339C48.9167 256.778 48.1199 258.517 48.0384 260.269C47.9434 262.392 48.8533 264.583 49.8538 266.358C51.0128 268.409 52.6064 270.125 54.5576 271.311C58.4646 273.678 63.4083 273.977 66.0024 278.342C66.3555 278.939 66.7403 279.718 66.5683 280.447C66.437 281.008 65.6855 281.189 65.2418 281.293C63.2408 281.764 60.6105 280.976 58.8539 279.976C56.7261 278.767 55.1824 276.585 53.548 274.76C51.8277 272.827 49.9082 271.256 47.4952 270.473C45.7431 269.907 43.5882 269.998 42.4564 271.745C41.4197 273.353 41.6279 275.507 42.0535 277.291C42.6148 279.65 43.8191 281.837 45.2995 283.67C46.8976 285.648 49.4192 286.771 51.6828 287.582C54.0325 288.424 56.4771 288.935 58.7996 289.868C59.4153 290.112 59.8907 290.289 60.5652 290.339C61.285 290.393 62.0094 290.357 62.7111 290.551C63.3042 290.714 62.9103 291.38 62.7111 291.842C62.2312 292.946 60.6874 292.896 59.7141 292.982C58.7905 293.059 57.8851 293.308 56.9616 293.317C55.9022 293.322 54.8473 293.114 53.8016 292.942C51.7372 292.607 49.5505 292.217 47.5042 292.878C45.5258 293.521 44.136 295.504 43.7783 297.636C43.0359 302.109 47.717 304.835 51.1984 305.405C53.4258 305.767 55.4495 305.251 57.4052 304.07C59.8182 302.616 61.7196 300.511 64.5084 300.149C64.6895 301.34 64.2911 302.29 63.2996 303.182C61.937 304.409 60.0491 305.075 58.4057 305.722C55.1642 307.008 50.4197 308.149 48.6813 311.73C48.4685 312.164 48.5138 312.707 48.8579 313.061C50.3971 314.627 52.1672 315.854 54.3267 316.04C56.1195 316.189 57.867 315.302 59.3202 314.274C61.9188 312.436 64.1553 309.575 67.0753 308.28C66.6724 309.068 65.9978 309.606 65.183 310.285C63.7252 311.494 62.9782 313.169 62.5753 315.057C61.9641 317.918 62.8922 321.01 66.0386 321.029C67.7544 321.038 69.4793 320.119 70.9099 319.2C72.5487 318.149 73.8616 316.624 74.8802 314.917C76.1433 312.798 76.845 310.353 77.2344 307.85C79.8647 313.319 85.578 319.032 90.9699 314.306C95.5741 310.263 87.991 307.166 84.994 303.988C85.5871 304.246 86.1575 304.568 86.7053 304.866C88.2672 305.722 89.7883 306.668 91.4181 307.374C94.4604 308.696 97.8739 308.57 99.6938 305.229C101.265 302.349 98.0097 301.009 96.0042 300.366C94.3744 299.841 91.323 299.28 90.1414 297.528C94.1616 297.999 98.639 298.528 102.107 296.052C103.682 294.925 105.57 292.761 105.756 290.651C105.91 288.926 104.158 288.315 102.899 288.184C99.4675 287.821 96.1264 289.438 92.6857 289.32C91.8572 289.288 91.0378 289.198 90.232 289.003C89.9287 288.931 89.6208 288.84 89.3401 288.704C89.2315 288.654 89.1228 288.555 89.0459 288.496C89.064 288.446 89.0911 288.383 89.1409 288.319C89.4488 287.939 89.8472 287.658 90.232 287.382C91.1103 286.767 92.0383 286.404 93.0841 286.287C95.0806 286.06 97.0771 286.327 99.0736 285.956C101.315 285.54 103.135 284.154 104.615 282.371C105.928 280.791 107.2 278.781 107.408 276.626C107.626 274.394 106.358 272.886 104.493 272.126C99.2728 269.993 96.2169 275.747 92.4956 278.36C91.5087 279.052 90.3361 279.51 89.2134 279.876C88.7561 280.026 87.407 280.519 86.9633 280.139C86.6962 279.908 87.5836 278.396 87.7511 278.106C88.5026 276.811 89.4578 275.906 90.6892 275.154C93.8039 273.253 97.6023 272.664 100.051 269.658C101.663 267.684 102.931 264.343 101.355 261.939C99.6848 259.391 95.9589 260.079 93.8583 261.564C91.2144 263.429 89.8788 267.209 86.7008 268.11C86.4246 266.503 87.0131 265.018 88.0272 263.587C89.5122 261.496 91.4272 259.775 93.1882 257.96C94.8769 256.226 96.6153 254.334 97.4936 251.966C98.3945 249.567 97.815 247.122 96.3528 245.112ZM175.008 322.572C175.515 320.395 175.411 318.09 175.185 315.881C175.126 315.293 174.547 314.853 174.008 314.958C171.156 315.492 168.322 316.157 165.438 316.451C164.487 316.551 163.197 316.637 162.418 316.402C162.368 316.384 162.205 316.298 162.124 316.266C162.129 316.248 162.133 316.23 162.138 316.207C162.21 315.972 162.323 315.777 162.45 315.578C164.641 312.074 168.711 310.67 171.079 307.365C172.333 305.618 173.184 303.187 173.437 301.018C173.714 298.66 172.994 296.419 174.067 294.191C174.461 293.376 173.65 292.652 172.953 292.697C169.01 292.951 164.424 292.516 160.865 294.689C157.71 296.618 156.551 300.235 155.691 303.78C155.274 305.496 154.831 307.216 154.156 308.841C153.785 309.733 153.097 311.322 151.988 311.191C150.829 311.055 151.222 309.031 151.349 308.054C151.603 306.039 152.137 304.07 152.617 302.109C153.409 298.863 154.541 293.834 151.784 291.294C150.571 290.176 148.895 290.714 147.727 291.584C145.876 292.964 144.653 295.486 143.857 297.664C142.046 302.607 144.223 307.7 143.535 312.735C143.377 313.894 142.512 317.429 140.9 317.171C140.339 317.081 139.846 316.189 139.601 315.732C139.004 314.6 138.533 313.201 138.524 311.897C138.478 306.922 141.543 302.526 141.267 297.496C141.145 295.291 140.095 292.616 138.451 291.226C137.057 290.049 135.282 290.456 133.942 291.475C132.321 292.711 131.271 294.825 130.583 296.763C129.791 299.004 129.515 301.399 129.85 303.771C130.52 308.511 133.358 312.839 131.756 317.719C131.538 318.385 131.199 319.186 130.56 319.494C130.062 319.729 129.469 319.213 129.116 318.905C127.532 317.52 126.481 314.826 126.133 312.739C125.707 310.213 126.359 307.565 126.694 305.066C127.047 302.426 127.02 299.846 126.101 297.338C125.436 295.518 124.032 293.766 122.045 293.902C120.225 294.024 118.762 295.536 117.712 296.994C116.322 298.927 115.458 301.29 115.027 303.662C114.561 306.229 115.295 309.036 116.1 311.431C116.938 313.921 118.074 316.284 118.821 318.815C119.02 319.48 119.183 319.987 119.564 320.585C119.967 321.219 120.442 321.807 120.736 322.518C120.985 323.116 120.247 323.197 119.786 323.315C118.676 323.595 117.757 322.278 117.092 321.513C116.463 320.789 115.72 320.177 115.145 319.412C114.484 318.529 113.982 317.511 113.466 316.533C112.438 314.591 111.369 312.517 109.613 311.218C107.92 309.955 105.593 310.018 103.805 311.042C100.051 313.187 100.943 318.797 102.677 322.065C103.786 324.157 105.421 325.529 107.503 326.443C110.07 327.566 112.791 327.856 114.788 329.97C114.022 330.853 113.076 331.111 111.804 330.834C110.057 330.454 108.4 329.282 106.901 328.308C103.949 326.384 100.174 323.12 96.4614 323.876C96.0087 323.967 95.6329 324.338 95.5877 324.845C95.3885 327.104 95.5786 329.345 96.7783 331.269C97.7743 332.867 99.5127 333.782 101.17 334.366C104.13 335.407 107.621 335.516 110.378 337.159C109.55 337.308 108.735 337.082 107.73 336.81C105.937 336.335 104.239 336.747 102.6 337.575C100.115 338.834 98.4126 341.528 100.35 344.176C101.405 345.625 103.153 346.494 104.715 347.128C106.503 347.852 108.44 348.006 110.328 347.802C112.669 347.549 114.905 346.621 116.988 345.403C114.593 350.99 113.923 359.315 120.736 360.909C126.558 362.267 124.145 353.991 124.634 349.514C124.811 350.17 124.928 350.849 125.046 351.488C125.386 353.33 125.63 355.186 126.115 356.993C127.025 360.361 129.229 363.145 132.815 362.602C135.907 362.136 134.879 358.577 134.114 356.504C133.489 354.811 132.018 351.909 132.57 349.831C134.712 353.493 137.093 357.572 141.063 358.948C142.865 359.569 145.627 359.813 147.297 358.663C148.665 357.722 148.031 355.879 147.347 354.738C145.487 351.641 142.236 349.84 140.19 346.883C139.701 346.173 139.262 345.43 138.904 344.633C138.773 344.335 138.646 344.022 138.569 343.701C138.542 343.579 138.546 343.425 138.542 343.325C138.592 343.311 138.65 343.298 138.727 343.302C139.198 343.32 139.651 343.479 140.095 343.637C141.095 343.995 141.933 344.547 142.666 345.353C144.065 346.888 145.106 348.726 146.614 350.17C148.307 351.791 150.453 352.456 152.68 352.597C154.659 352.719 156.922 352.538 158.638 351.379C160.413 350.184 160.739 348.183 160.146 346.15C158.484 340.459 152.359 341.46 148.13 339.957C147.012 339.554 145.948 338.857 144.984 338.146C144.59 337.856 143.395 337.032 143.399 336.421C143.404 336.059 145.065 335.864 145.382 335.823C146.804 335.651 148.058 335.891 149.371 336.462C152.698 337.892 155.483 340.713 159.213 340.907C161.662 341.039 164.908 340.034 165.7 337.222C166.543 334.243 163.731 331.55 161.336 330.703C158.33 329.639 154.722 330.862 152.087 328.756C153.101 327.53 154.555 327.104 156.239 327.072C158.697 327.023 161.146 327.561 163.573 327.914C165.895 328.258 168.362 328.544 170.649 327.815C172.989 327.036 174.433 325.04 175.008 322.572Z" fill="#CE0606"/>
<path fill-rule="evenodd" clip-rule="evenodd" d="M35.2214 261.949C33.2612 261.138 31.1062 260.957 29.0237 260.921C28.4714 260.912 27.9915 261.469 28.0141 262.048C28.1545 265.131 28.4125 268.219 28.322 271.311C28.2903 272.325 28.2088 273.706 27.8874 274.498C27.8693 274.548 27.7651 274.711 27.7244 274.788C27.7108 274.783 27.6972 274.779 27.6746 274.765C27.4663 274.661 27.2988 274.512 27.1268 274.349C24.1479 271.591 23.3556 267.105 20.585 264.176C19.1182 262.628 16.9632 261.423 14.9803 260.876C12.8254 260.287 10.6478 260.762 8.71466 259.345C8.00841 258.829 7.22973 259.594 7.18446 260.337C6.92188 264.543 5.93495 269.341 7.51042 273.384C8.9048 276.974 12.1191 278.654 15.3063 280.012C16.85 280.673 18.3893 281.361 19.8154 282.276C20.5986 282.778 21.9884 283.711 21.7258 284.87C21.4497 286.079 19.6252 285.404 18.7243 285.146C16.8863 284.621 15.1206 283.81 13.3596 283.054C10.444 281.809 5.90779 279.976 3.20053 282.565C2.00534 283.706 2.29508 285.549 2.95152 286.893C3.99731 289.026 6.18847 290.637 8.11706 291.76C12.4813 294.3 17.4929 292.643 22.0835 294.006C23.1383 294.318 26.3119 295.681 25.8728 297.356C25.7188 297.94 24.827 298.347 24.3652 298.551C23.2379 299.04 21.8798 299.361 20.6665 299.207C16.0397 298.628 12.3319 294.825 7.6236 294.481C5.55467 294.332 2.93794 295.106 1.43944 296.672C0.167292 297.999 0.321217 299.927 1.0999 301.476C2.04156 303.345 3.87508 304.726 5.59089 305.699C7.57381 306.822 9.7695 307.42 12.0105 307.365C16.506 307.257 20.8883 304.794 25.2163 307.116C25.8094 307.433 26.5111 307.886 26.7148 308.606C26.8733 309.163 26.3164 309.729 25.9814 310.059C24.492 311.567 21.8571 312.332 19.8697 312.44C17.4657 312.572 15.0844 311.549 12.8027 310.879C10.3942 310.168 7.99483 309.874 5.54561 310.53C3.76642 311.005 1.96459 312.268 1.83783 314.387C1.72013 316.334 2.94246 318.068 4.16481 319.363C5.78555 321.083 7.86806 322.292 10.023 323.052C12.35 323.867 15.0527 323.446 17.3797 322.903C19.8018 322.332 22.1423 321.427 24.587 320.956C25.2344 320.834 25.7279 320.721 26.33 320.395C26.9729 320.046 27.5795 319.616 28.2722 319.399C28.8607 319.213 28.8426 320.001 28.8924 320.508C29.0101 321.717 27.6655 322.527 26.8733 323.129C26.1218 323.704 25.4608 324.41 24.6731 324.922C23.7676 325.511 22.7626 325.913 21.7847 326.339C19.8516 327.181 17.7872 328.05 16.3566 329.743C14.9713 331.378 14.7313 333.845 15.4557 335.864C16.9723 340.106 22.3053 339.875 25.5649 338.454C27.652 337.539 29.1323 335.986 30.2415 333.899C31.6087 331.323 32.2244 328.48 34.4428 326.638C35.1716 327.557 35.2893 328.594 34.8728 329.902C34.2979 331.704 32.9986 333.306 31.903 334.769C29.7435 337.648 26.2259 341.233 26.4613 345.258C26.4885 345.747 26.7873 346.191 27.2536 346.304C29.327 346.802 31.4367 346.883 33.3789 345.856C34.9905 345 36.059 343.28 36.8105 341.6C38.1505 338.599 38.6938 334.918 40.5726 332.206C40.6088 333.103 40.2874 333.931 39.9161 334.959C39.2461 336.797 39.4136 338.648 39.9795 340.487C40.8352 343.275 43.1214 345.417 45.8287 343.705C47.3045 342.773 48.3367 341.034 49.1245 339.463C50.0254 337.662 50.4147 335.633 50.4645 333.61C50.5279 331.097 49.9484 328.616 49.0792 326.257C53.9731 329.499 61.6241 331.26 63.9692 324.252C65.9702 318.258 57.9706 319.77 53.869 318.683C54.5028 318.579 55.1457 318.543 55.7614 318.498C57.5134 318.376 59.2745 318.348 61.0129 318.063C64.2589 317.529 67.1247 315.542 67.0749 311.68C67.0341 308.348 63.598 308.986 61.5698 309.534C59.9219 309.982 57.029 311.168 55.1728 310.322C58.8489 308.515 62.9415 306.514 64.7207 302.485C65.5311 300.656 66.1015 297.763 65.2459 295.848C64.5441 294.286 62.7514 294.721 61.606 295.3C58.4913 296.88 56.4042 300.095 53.3982 301.883C52.6738 302.313 51.9268 302.684 51.1436 302.96C50.8493 303.065 50.5415 303.16 50.2336 303.196C50.1159 303.21 49.9756 303.187 49.8805 303.178C49.8715 303.123 49.8669 303.056 49.8805 302.974C49.9575 302.481 50.1657 302.019 50.3649 301.571C50.8222 300.557 51.4379 299.742 52.2845 299.063C53.8916 297.777 55.7297 296.908 57.2599 295.495C58.9802 293.911 59.8721 291.724 60.284 289.383C60.6462 287.305 60.7685 284.888 59.9083 282.923C59.0164 280.89 57.201 280.293 55.2362 280.664C49.7356 281.705 49.8896 288.315 47.9565 292.598C47.4449 293.73 46.6572 294.771 45.8739 295.699C45.5525 296.079 44.638 297.243 44.0721 297.161C43.7326 297.111 43.7643 295.328 43.7688 294.988C43.7869 293.462 44.1717 292.163 44.8644 290.846C46.6164 287.509 49.5908 284.915 50.2427 280.994C50.6728 278.414 50.1476 274.856 47.6396 273.656C44.9776 272.393 42.1164 275.023 41.0253 277.454C39.6581 280.506 40.3372 284.476 38.0419 286.998C37.0278 285.771 36.8195 284.177 37.0006 282.389C37.2677 279.777 38.0781 277.255 38.7164 274.733C39.3276 272.316 39.9026 269.74 39.5178 267.232C39.1194 264.651 37.4443 262.872 35.2214 261.949Z" fill="#CE0606"/>
<path fill-rule="evenodd" clip-rule="evenodd" d="M135.367 292.267C135.087 290.044 134.19 287.944 133.217 285.979C132.959 285.458 132.266 285.277 131.805 285.585C129.342 287.206 126.933 288.94 124.357 290.352C123.511 290.814 122.338 291.407 121.537 291.488C121.487 291.498 121.301 291.484 121.215 291.479C121.215 291.461 121.211 291.443 121.211 291.421C121.197 291.176 121.234 290.945 121.283 290.705C122.107 286.595 125.403 283.679 126.462 279.677C127.024 277.563 126.974 274.964 126.458 272.85C125.901 270.55 124.452 268.753 124.683 266.258C124.765 265.348 123.764 264.991 123.13 265.308C119.554 267.096 115.14 268.499 112.587 271.922C110.318 274.955 110.495 278.776 110.921 282.407C111.124 284.163 111.305 285.938 111.247 287.708C111.21 288.686 111.12 290.434 110.047 290.746C108.924 291.077 108.589 289.044 108.367 288.079C107.91 286.106 107.724 284.068 107.489 282.058C107.104 278.731 106.411 273.611 102.975 272.334C101.459 271.777 100.091 272.931 99.3083 274.199C98.0633 276.209 97.8007 279.034 97.8143 281.375C97.837 286.681 101.626 290.556 102.726 295.509C102.98 296.65 103.401 300.271 101.812 300.67C101.255 300.805 100.49 300.172 100.105 299.841C99.1544 299.026 98.2354 297.913 97.7736 296.704C96.0125 292.1 97.339 286.803 95.3425 282.239C94.4687 280.238 92.5673 278.165 90.5527 277.517C88.8505 276.974 87.3429 278.047 86.451 279.523C85.3736 281.311 85.1246 283.693 85.1608 285.762C85.197 288.161 85.7719 290.497 86.8992 292.561C89.1628 296.704 93.3007 299.606 93.4954 304.771C93.5225 305.478 93.4863 306.356 92.9974 306.895C92.6171 307.311 91.8837 307.062 91.4491 306.917C89.4978 306.252 87.5919 304.165 86.5416 302.358C85.2694 300.176 84.9616 297.46 84.4093 295.002C83.8252 292.412 82.9062 290.026 81.1859 288.057C79.9364 286.626 78.0304 285.553 76.2286 286.459C74.5762 287.287 73.7432 289.27 73.2723 291.04C72.6476 293.385 72.6612 295.916 73.0822 298.293C73.5349 300.864 75.1874 303.182 76.7673 305.093C78.4062 307.08 80.2805 308.828 81.8469 310.883C82.2588 311.426 82.5939 311.834 83.1507 312.237C83.7483 312.667 84.3912 313.024 84.9073 313.568C85.3419 314.029 84.6899 314.396 84.3006 314.681C83.3635 315.383 82.0551 314.514 81.1723 314.066C80.3393 313.64 79.4339 313.368 78.6371 312.884C77.7181 312.323 76.8986 311.576 76.0792 310.869C74.4494 309.475 72.7427 307.968 70.6601 307.447C68.6501 306.944 66.5087 307.913 65.2003 309.566C62.4523 313.038 65.223 317.9 67.9665 320.259C69.723 321.766 71.715 322.4 73.965 322.427C76.7402 322.464 79.3705 321.658 81.951 322.835C81.5481 323.962 80.7558 324.573 79.4791 324.813C77.7226 325.148 75.7804 324.709 74.051 324.397C70.642 323.767 66.0017 322.219 62.8145 324.388C62.4252 324.65 62.2078 325.148 62.3391 325.633C62.9322 327.81 63.8874 329.82 65.6712 331.133C67.1516 332.229 69.0802 332.396 70.8231 332.283C73.9333 332.084 77.2155 330.807 80.3484 331.251C79.6285 331.717 78.7955 331.821 77.7679 331.971C75.9389 332.233 74.5037 333.284 73.2678 334.701C71.3936 336.847 70.7416 340.025 73.458 341.722C74.9383 342.65 76.8624 342.773 78.533 342.75C80.448 342.718 82.2996 342.098 83.9837 341.165C86.0753 340.011 87.8273 338.273 89.3439 336.317C89.0497 342.451 91.3042 350.451 98.1901 349.247C104.075 348.219 98.9688 341.478 97.8686 337.123C98.258 337.661 98.6021 338.245 98.9371 338.798C99.8878 340.373 100.757 342.003 101.834 343.492C103.845 346.268 106.86 347.983 110.002 346.068C112.713 344.416 110.531 341.519 109.096 339.889C107.933 338.567 105.556 336.444 105.357 334.298C108.616 336.856 112.238 339.712 116.403 339.427C118.291 339.296 120.944 338.436 122.098 336.706C123.044 335.298 121.818 333.831 120.785 333.044C117.983 330.898 114.339 330.504 111.419 328.562C110.717 328.095 110.051 327.575 109.445 326.977C109.218 326.755 108.992 326.511 108.811 326.244C108.743 326.14 108.693 325.995 108.657 325.9C108.698 325.868 108.748 325.832 108.82 325.805C109.264 325.637 109.739 325.605 110.205 325.578C111.26 325.515 112.224 325.696 113.189 326.158C115.022 327.032 116.625 328.331 118.522 329.078C120.654 329.92 122.881 329.694 125 328.942C126.883 328.277 128.921 327.222 130.116 325.47C131.352 323.654 130.962 321.667 129.708 320.01C126.195 315.374 120.844 318.715 116.398 318.982C115.221 319.055 113.99 318.819 112.845 318.539C112.378 318.421 110.979 318.127 110.776 317.561C110.653 317.221 112.129 316.384 112.41 316.221C113.669 315.505 114.923 315.234 116.34 315.243C119.925 315.265 123.493 316.786 127.024 315.501C129.346 314.659 132.013 312.445 131.782 309.52C131.533 306.419 127.988 305.025 125.471 305.183C122.306 305.382 119.377 307.936 116.199 307.012C116.715 305.473 117.92 304.509 119.472 303.816C121.741 302.802 124.203 302.34 126.585 301.715C128.862 301.118 131.252 300.407 133.126 298.836C135.037 297.211 135.684 294.789 135.367 292.267Z" fill="#B10505"/>
<path fill-rule="evenodd" clip-rule="evenodd" d="M120.13 270.971C118.934 276.508 117.898 282.085 116.408 287.545C114.878 293.15 112.701 298.333 109.699 303.218C103.506 313.305 95.6194 322.042 89.2406 331.989C88.978 332.401 89.0233 332.803 89.2315 333.102C88.0001 335.583 87.2893 338.399 86.7778 341.093C85.8859 345.788 85.6143 350.6 85.4377 355.381C85.2204 361.221 85.2611 367.025 85.5147 372.86C85.8135 379.719 86.239 386.582 85.9674 393.45C85.9493 393.848 85.9312 394.247 85.9085 394.645C85.8316 396.067 87.9005 396.058 87.9729 394.645C88.3261 387.94 87.9639 381.231 87.656 374.531C87.3799 368.559 87.2576 362.62 87.4568 356.644C87.6108 352.021 87.8281 347.39 88.566 342.831C89.2406 338.684 90.3135 333.99 93.2471 330.956C93.6636 330.526 93.6229 329.983 93.3603 329.594C99.3226 320.947 106.154 313.001 111.677 304.006C114.634 299.194 116.739 293.996 118.292 288.491C119.858 282.932 120.89 277.219 122.113 271.559C122.42 270.174 120.428 269.586 120.13 270.971Z" fill="#B10505"/>
<path fill-rule="evenodd" clip-rule="evenodd" d="M86.4281 394.976C85.3099 384.26 80.6876 374.671 75.9023 365.35C71.1578 356.11 66.1553 346.743 64.702 336.158C64.5074 334.755 62.5199 335.357 62.7101 336.747C65.6165 357.862 82.1363 373.657 84.3637 394.976C84.5086 396.37 86.5775 396.388 86.4281 394.976Z" fill="#B10505"/>
<path fill-rule="evenodd" clip-rule="evenodd" d="M116.793 344.76C107.956 348.875 99.2954 355.173 93.3648 363.376C90.1278 367.853 88.2219 372.942 87.0312 378.28C86.5785 372.716 85.6233 367.206 84.6273 361.733C82.3003 348.957 80.5075 336.118 79.3803 323.152C78.9321 318.004 78.6016 312.852 78.3752 307.691C78.3164 306.274 76.2474 306.27 76.3108 307.691C76.931 322.015 78.4748 336.267 80.5573 350.433C81.9653 360.012 84.3466 369.479 85.0347 379.162C84.256 373.929 83.0835 368.763 81.5805 363.725C79.4255 356.526 76.5281 349.527 72.766 343.112C72.7886 342.836 72.7117 342.551 72.4989 342.288C72.2454 341.985 71.9828 341.682 71.7247 341.387C70.7921 339.889 69.8143 338.427 68.7821 337.001C68.3203 336.367 67.6593 336.593 67.3153 337.105C65.7353 335.81 64.0466 334.66 62.2267 333.655C57.9802 331.314 52.6969 329.793 50.6642 324.659C50.1481 323.356 48.3689 324.483 48.8805 325.773C50.9041 330.875 55.8388 332.772 60.1487 335.009C64.0194 337.014 67.2881 339.595 70.2127 342.886C74.3415 349.586 77.42 357.033 79.6972 364.648C82.4633 373.893 84.0433 383.608 84.0614 393.323C84.0614 393.378 84.0659 393.428 84.0704 393.477C83.9301 394.197 84.4643 394.673 85.0257 394.718C85.3018 395.718 86.9633 395.578 87.0539 394.319C87.8099 383.898 88.9236 372.956 95.1802 364.453C100.957 356.608 109.328 350.632 117.839 346.666C119.052 346.096 118.002 344.194 116.793 344.76Z" fill="#CE0606"/>
<path fill-rule="evenodd" clip-rule="evenodd" d="M54.983 270.736C53.1087 269.726 50.9764 269.323 48.9075 269.07C48.3597 269.002 47.83 269.509 47.8028 270.088C47.6625 273.171 47.6399 276.272 47.2686 279.342C47.1464 280.351 46.9381 281.714 46.5488 282.466C46.5262 282.515 46.4085 282.669 46.3587 282.742C46.3451 282.733 46.3315 282.724 46.3089 282.71C46.1097 282.588 45.9557 282.42 45.8018 282.244C43.09 279.192 42.7052 274.647 40.2107 271.446C38.8933 269.753 36.8561 268.332 34.9275 267.585C32.8359 266.774 30.6266 267.028 28.8293 265.416C28.1729 264.828 27.3263 265.507 27.2131 266.245C26.5702 270.401 25.1578 275.077 26.3575 279.26C27.4214 282.977 30.4682 284.978 33.515 286.658C34.9908 287.473 36.4622 288.319 37.7977 289.379C38.5311 289.963 39.8304 291.031 39.4683 292.154C39.088 293.331 37.3269 292.471 36.4577 292.122C34.6739 291.407 32.9944 290.42 31.3057 289.487C28.5169 287.944 24.1708 285.653 21.2372 287.953C19.947 288.967 20.0647 290.832 20.5989 292.235C21.4455 294.467 23.4827 296.301 25.2981 297.614C29.4088 300.593 34.5472 299.456 38.9974 301.285C40.0206 301.706 43.0583 303.39 42.4653 305.011C42.257 305.577 41.3335 305.894 40.8581 306.043C39.6901 306.415 38.3093 306.591 37.1141 306.315C32.5597 305.26 29.2187 301.095 24.5602 300.267C22.5184 299.904 19.8428 300.402 18.204 301.806C16.8186 302.997 16.796 304.934 17.4343 306.555C18.204 308.515 19.9017 310.077 21.5224 311.218C23.3967 312.544 25.5245 313.364 27.7609 313.536C32.2428 313.889 36.8289 311.897 40.9305 314.645C41.4919 315.021 42.1529 315.546 42.2887 316.279C42.3928 316.85 41.7907 317.352 41.4285 317.651C39.8078 318.996 37.1186 319.489 35.1312 319.39C32.7273 319.272 30.4501 318.009 28.2408 317.103C25.9093 316.148 23.5415 315.609 21.0471 316.008C19.2362 316.297 17.3257 317.366 17.0088 319.462C16.7145 321.386 17.7739 323.238 18.874 324.659C20.3318 326.533 22.2966 327.955 24.37 328.928C26.611 329.983 29.3409 329.838 31.7086 329.535C34.1714 329.218 36.5844 328.562 39.0563 328.34C39.7082 328.285 40.2107 328.222 40.84 327.96C41.51 327.679 42.1529 327.317 42.8637 327.167C43.4612 327.045 43.3752 327.824 43.3798 328.335C43.3888 329.553 41.9763 330.219 41.1343 330.735C40.3329 331.224 39.6131 331.866 38.7801 332.297C37.8294 332.786 36.7881 333.084 35.7786 333.406C33.7776 334.049 31.6452 334.701 30.0653 336.231C28.5396 337.716 28.0778 340.147 28.612 342.234C29.7393 346.616 35.0678 346.933 38.4406 345.851C40.6001 345.158 42.2163 343.764 43.511 341.804C45.1046 339.382 45.9739 336.611 48.3461 335.008C48.989 336 49.0116 337.041 48.4774 338.304C47.7395 340.038 46.3043 341.5 45.0775 342.84C42.6645 345.484 38.8435 348.694 38.7122 352.719C38.6941 353.208 38.9522 353.683 39.4049 353.842C41.424 354.552 43.5156 354.851 45.5438 354.027C47.2234 353.344 48.4457 351.741 49.3466 350.147C50.9538 347.295 51.823 343.692 53.9417 341.183C53.8965 342.08 53.5026 342.872 53.0363 343.859C52.2033 345.62 52.2033 347.476 52.6017 349.364C53.1993 352.23 55.2863 354.598 58.1339 353.172C59.6913 352.393 60.8729 350.772 61.8009 349.283C62.8603 347.585 63.4307 345.607 63.6616 343.592C63.9514 341.102 63.5983 338.571 62.9463 336.136C67.5233 339.866 74.9796 342.41 77.9495 335.674C80.4847 329.915 72.3856 330.594 68.4016 329.091C69.04 329.055 69.6873 329.087 70.2985 329.1C72.0551 329.159 73.8071 329.318 75.5637 329.209C78.8459 329.01 81.8746 327.33 82.1779 323.478C82.4359 320.155 78.9591 320.44 76.8901 320.779C75.206 321.056 72.2226 321.943 70.4524 320.906C74.2734 319.485 78.529 317.914 80.6658 314.088C81.6346 312.354 82.4676 309.534 81.7886 307.537C81.2317 305.912 79.4072 306.157 78.2121 306.618C74.9661 307.868 72.6029 310.851 69.4474 312.323C68.6868 312.676 67.9127 312.965 67.1023 313.165C66.799 313.237 66.4866 313.3 66.1742 313.305C66.0565 313.309 65.9162 313.269 65.8256 313.246C65.8211 313.196 65.8211 313.124 65.8438 313.047C65.966 312.563 66.2105 312.123 66.4549 311.698C67.0027 310.738 67.6908 309.991 68.5918 309.403C70.3076 308.284 72.2181 307.61 73.866 306.365C75.7221 304.961 76.8086 302.874 77.4289 300.593C77.9812 298.56 78.3162 296.165 77.6371 294.123C76.9354 292.004 75.1834 291.226 73.1914 291.393C67.6229 291.86 67.1747 298.456 64.8659 302.517C64.2547 303.594 63.3764 304.545 62.5117 305.391C62.1586 305.74 61.14 306.799 60.5831 306.659C60.2527 306.573 60.4428 304.798 60.479 304.463C60.6375 302.947 61.1354 301.697 61.9458 300.452C63.9921 297.31 67.1838 295.038 68.1934 291.199C68.8543 288.677 68.6551 285.078 66.2648 283.629C63.7295 282.09 60.642 284.421 59.3382 286.726C57.6993 289.623 58.0162 293.643 55.5081 295.916C54.6117 294.589 54.5484 292.987 54.8879 291.226C55.3859 288.654 56.4272 286.223 57.2873 283.779C58.1158 281.438 58.9216 278.934 58.7632 276.395C58.6183 273.823 57.1108 271.881 54.983 270.736Z" fill="#FF6F6F"/>
<path fill-rule="evenodd" clip-rule="evenodd" d="M109.879 459.746H65.3315L50.7539 398.285H123.443L109.879 459.746Z" fill="#B10505"/>
<path d="M127.292 390.295H45.8975V398.285H127.292V390.295Z" fill="#CE0606"/>
<path fill-rule="evenodd" clip-rule="evenodd" d="M87.0983 398.285H50.7539L65.3315 459.746H87.0983V398.285Z" fill="#CE0606"/>
<path d="M87.1041 390.295H45.8975V398.285H87.1041V390.295Z" fill="#680505"/>
<path fill-rule="evenodd" clip-rule="evenodd" d="M109.879 460.67H65.3315L50.7539 452.372H123.443L109.879 460.67Z" fill="#CE0606"/>
<path fill-rule="evenodd" clip-rule="evenodd" d="M87.0983 452.372H50.7539L65.3315 460.67H87.0983V452.372Z" fill="#680505"/>
<path fill-rule="evenodd" clip-rule="evenodd" d="M115.181 77.6328H280.51C296.45 77.6328 310.53 90.644 311.834 106.584L341.193 464.899C342.497 480.839 330.549 493.85 314.614 493.85H149.285C133.344 493.85 119.265 480.839 117.961 464.899L88.6019 106.584C87.2935 90.644 99.2408 77.6328 115.181 77.6328Z" fill="#B10505"/>
<path fill-rule="evenodd" clip-rule="evenodd" d="M115.815 85.3516H281.144C292.82 85.3516 303.156 94.904 304.115 106.584L333.474 464.899C334.43 476.574 325.66 486.131 313.985 486.131H148.651C136.975 486.131 126.64 476.579 125.68 464.899L96.3257 106.584C95.366 94.904 104.14 85.3516 115.815 85.3516Z" fill="white"/>
<path fill-rule="evenodd" clip-rule="evenodd" d="M116.53 94.062C170.748 94.062 227.641 94.062 281.859 94.062C288.745 94.062 294.843 99.6984 295.404 106.584L324.763 464.899C325.329 471.785 320.155 477.421 313.269 477.421H147.935C141.049 477.421 134.951 471.785 134.39 464.899L105.031 106.584C104.47 99.6984 109.64 94.062 116.53 94.062Z" fill="#FF8C8C"/>
<path fill-rule="evenodd" clip-rule="evenodd" d="M368.546 132.47L369.384 130.927C383.155 135.658 392.11 141.48 388.909 147.107C386.628 154.178 379.176 157.003 372.512 163.776C369.447 160.127 366.405 157.701 363.381 156.496C361.429 148.737 361.493 142.548 363.562 137.939L368.053 133.376L368.546 132.47ZM195.326 116.833C198.726 117.078 204.086 116.422 205.037 115.217C208.65 110.627 211.158 105.832 212.086 102.817C211.38 100.807 210.642 98.2719 209.872 95.2025C196.775 86.3065 194.982 79.724 204.503 75.4548C206.422 76.5323 208.799 79.8417 211.647 85.392C213.915 85.3015 215.64 84.138 216.812 81.9106C214.105 72.5438 212.348 64.9381 211.534 59.089C217.985 49.4959 233.083 48.1286 253.066 50.7137C253.994 56.0331 254.755 61.6695 255.348 67.6182C258.884 70.8733 258.426 82.9428 255.171 96.8504C256.797 104.759 251.916 109.078 240.521 109.798C240.354 112.605 240.616 116.046 240.802 116.435C241.087 117.042 242.101 117.626 243.5 118.128C243.871 131.189 227.818 130.755 195.326 116.833Z" fill="#FF8277"/>
<path fill-rule="evenodd" clip-rule="evenodd" d="M253.062 50.7183C233.074 48.1287 217.98 49.5005 211.525 59.0891C212.344 64.9337 214.101 72.5439 216.803 81.9107C215.631 84.1381 213.91 85.3016 211.642 85.3921C208.799 79.8418 206.418 76.5279 204.498 75.4549C194.982 79.7241 196.77 86.3021 209.868 95.2026C210.637 98.2675 211.375 100.807 212.081 102.817C200.297 100.178 190.441 89.6386 189.051 85.0798C175.307 57.989 190.636 46.5442 198.839 42.3746C202.461 15.5464 241.418 39.2599 260.939 26.3257C268.699 37.0416 259.105 50.4828 253.062 50.7183Z" fill="#CE0606"/>
<path fill-rule="evenodd" clip-rule="evenodd" d="M372.997 164.356C363.109 206.703 345.734 239.566 320.879 262.944C311.925 260.224 303.975 254.103 297.039 244.578C297.406 275.209 296.645 305.699 294.748 336.041C276.608 344.642 252.523 344.086 222.494 334.375L210.311 319.376C207.183 318.769 200.08 322.224 196.666 327.493C168.145 305.727 148.914 282.335 137.568 259.096C140.633 209.166 147.415 169.77 157.918 140.909C163.224 132.747 175.696 124.724 195.326 116.833C227.823 130.759 243.881 131.194 243.491 118.133C253.048 121.27 265.724 126.82 281.524 134.784C294.699 144.789 305.917 171.911 315.184 216.151C330.26 197.259 345.901 177.231 362.109 156.062C365.712 157.085 369.339 159.846 372.997 164.356ZM203.743 305.84C213.195 274.751 207.975 236.397 188.083 190.772C183.076 213.281 177.666 235.437 171.848 257.24C178.607 260.445 189.233 276.648 203.743 305.84Z" fill="#CE0606"/>
<path fill-rule="evenodd" clip-rule="evenodd" d="M200.207 346.363C204.815 346.005 212.244 342.008 222.489 334.375C252.518 344.09 276.603 344.642 294.744 336.041C297.551 380.489 288.41 426.811 275.489 477.421H235.51C236.433 457.374 239.136 431.184 239.313 412.641C231.322 430.451 225.387 453.399 216.5 477.421H180.405C180.228 421.872 185.643 371.896 196.662 327.489C198.758 332.835 199.935 339.124 200.207 346.363Z" fill="#B10505"/>
<path fill-rule="evenodd" clip-rule="evenodd" d="M222.49 334.375C212.245 342.008 204.816 346.006 200.207 346.363C199.935 339.124 198.754 332.836 196.662 327.494C200.071 322.224 207.179 318.77 210.307 319.377L222.49 334.375Z" fill="#FF8277"/>
<path fill-rule="evenodd" clip-rule="evenodd" d="M297.039 244.577C296.048 214.829 293.662 190.441 289.882 171.409C299.507 211.814 308.828 238.629 317.855 251.853C323.56 251.672 330.785 248.29 339.536 241.712C333.873 249.494 327.652 256.574 320.88 262.944C311.92 260.228 303.97 254.107 297.039 244.577ZM210.307 319.376C208.56 315.052 206.373 310.539 203.743 305.84C213.195 274.751 207.976 236.397 188.083 190.772C217.016 231.906 225.224 275.756 212.697 322.323L210.307 319.376Z" fill="#B10505"/>
<path fill-rule="evenodd" clip-rule="evenodd" d="M227.379 107.05C230.571 108.63 234.948 109.545 240.512 109.807C240.404 111.691 240.485 113.859 240.603 115.199C235.012 114.122 230.602 111.405 227.379 107.05Z" fill="#EA4335"/>
<path fill-rule="evenodd" clip-rule="evenodd" d="M199.903 353.62C200.229 350.994 200.329 348.577 200.211 346.363C204.82 346.001 212.249 342.008 222.494 334.375C224.93 335.163 227.325 335.892 229.679 336.557C222.467 344.054 212.543 349.745 199.903 353.62Z" fill="#CE0606"/>
<path fill-rule="evenodd" clip-rule="evenodd" d="M489.684 106.955C483.07 102.98 466.297 118.744 452.222 142.163C438.147 165.582 432.098 187.793 438.713 191.768C445.327 195.743 462.1 179.979 476.175 156.56C490.255 133.14 496.303 110.934 489.684 106.955Z" fill="#B10505"/>
<path fill-rule="evenodd" clip-rule="evenodd" d="M393.908 85.9669L380.145 77.6957C377.017 75.8169 370.299 81.2495 365.142 89.8286C359.986 98.4121 358.338 106.892 361.47 108.77L375.233 117.042C372.105 115.163 373.748 106.679 378.905 98.0952C384.066 89.5207 390.78 84.0881 393.908 85.9669Z" fill="#B10505"/>
<path fill-rule="evenodd" clip-rule="evenodd" d="M378.904 98.1043C383.676 90.1681 389.778 84.9256 393.142 85.668C422.935 99.7884 453.268 106.905 484.13 107.014C475.972 110.124 463.268 123.787 452.222 142.168C441.049 160.761 434.932 178.589 436.196 187.141C420.006 158.058 399.475 134.517 374.603 116.516C372.371 113.886 374.137 106.04 378.904 98.1043Z" fill="#CE0606"/>
<path fill-rule="evenodd" clip-rule="evenodd" d="M465.505 142.824L456.066 136.056C454.771 138.025 453.485 140.063 452.222 142.163C450.574 144.911 449.031 147.641 447.604 150.33L458.108 155.125C461.693 156.764 465.922 156.053 467.954 152.671C469.991 149.289 468.715 145.124 465.505 142.824Z" fill="#CE0606"/>
<path fill-rule="evenodd" clip-rule="evenodd" d="M362.738 130.202L370.04 134.589C367.605 135.241 365.418 136.427 363.476 138.143L359.424 135.707C357.151 134.34 355.644 132.172 355.046 129.777C354.449 127.382 354.761 124.761 356.128 122.488L363.598 110.056L369.103 113.366L361.633 125.797C361.181 126.549 361.076 127.423 361.276 128.224C361.479 129.025 361.982 129.749 362.738 130.202ZM387.909 145.029C386.882 146.727 385.668 147.632 384.26 147.741C380.018 146.772 375.636 144.898 371.109 142.122C370.335 141.674 369.746 141.267 369.343 140.895C369.244 141.09 369.144 141.285 369.035 141.479L383.382 150.099C385.646 151.462 388.267 151.77 390.666 151.172C393.066 150.584 395.234 149.076 396.597 146.803L401.047 139.397C399.508 137.812 397.941 136.255 396.357 134.725L391.087 143.494C390.635 144.246 389.91 144.748 389.113 144.947L389.109 144.961C388.724 145.061 388.317 145.083 387.909 145.029Z" fill="#CE0606"/>
<path d="M619.679 287.581C650.31 287.581 675.141 262.75 675.141 232.119C675.141 201.487 650.31 176.656 619.679 176.656C589.047 176.656 564.216 201.487 564.216 232.119C564.216 262.75 589.047 287.581 619.679 287.581Z" fill="#CE0606"/>
<path fill-rule="evenodd" clip-rule="evenodd" d="M619.679 183.977C646.267 183.977 667.821 205.531 667.821 232.123C667.821 258.712 646.267 280.266 619.679 280.266C593.091 280.266 571.532 258.712 571.532 232.123C571.537 205.531 593.091 183.977 619.679 183.977Z" fill="#E9EFF8" fill-opacity="0.2"/>
<path fill-rule="evenodd" clip-rule="evenodd" d="M627.344 241.078C626.343 240.227 625.723 237.339 625.651 234.785C625.773 233.835 625.859 232.649 625.909 231.223C630.839 226.08 631.011 223.015 626.42 222.028C625.678 222.68 624.94 224.364 624.211 227.071C623.206 227.243 622.337 226.895 621.612 226.021C621.925 221.643 621.984 218.13 621.798 215.481C618.054 211.864 611.286 212.679 602.729 215.69C602.82 218.121 603.015 220.67 603.314 223.345C602.064 225.111 603.395 230.38 606.134 236.198C606.161 239.833 608.714 241.273 613.799 240.521L613.396 241.803C611.811 242.024 610.199 242.287 608.565 242.581C600.135 259.671 616.311 266.612 631.794 241.911C630.563 241.708 629.082 241.427 627.344 241.078Z" fill="#FF6F6F"/>
<path fill-rule="evenodd" clip-rule="evenodd" d="M601.679 219.66C609.334 219.261 614.944 212.919 621.902 218.777C622.092 221.425 621.925 221.652 621.612 226.025C622.337 226.899 623.206 227.247 624.211 227.075C624.944 224.368 625.678 222.684 626.42 222.032C631.011 223.019 630.839 226.084 625.909 231.227C625.859 232.648 625.773 233.839 625.651 234.79C625.723 237.343 626.343 240.231 627.344 241.083C629.082 241.431 630.563 241.707 631.789 241.92C633.881 242.382 635.868 242.93 637.72 243.559C642.27 245.103 646 247.145 648.409 249.684C650.061 254.809 651.483 260.645 652.669 267.191C654.163 265.783 655.571 264.284 656.875 262.7C655.693 261.043 654.883 258.431 655.317 253.867C656.386 242.595 641.926 246.416 641.084 232.508C639.717 209.809 630.327 207.292 625.813 206.943C620.399 201.94 605.993 198.269 599.714 204.838C594.137 210.664 595.771 219.379 601.679 219.66ZM635.14 277.73C636.647 277.219 638.123 276.635 639.558 275.983C639.323 273.95 639.128 271.818 638.974 269.59C637.412 272.026 636.136 274.738 635.14 277.73ZM602.951 226.835C603.309 229.307 604.454 232.653 606.125 236.207C606.152 239.842 608.705 241.282 613.789 240.53L613.386 241.811C611.797 242.033 610.19 242.296 608.551 242.59C604.599 243.292 602.412 244.591 601.738 245.506C600.371 246.248 599.203 246.959 598.202 247.647C598.505 245.75 599.366 243.917 600.439 242.151C602.978 237.972 596.219 240.897 599.184 234.382C600.891 230.638 601.837 229.144 602.951 226.835Z" fill="#680505"/>
<path fill-rule="evenodd" clip-rule="evenodd" d="M631.79 241.92C616.302 266.62 600.126 259.68 608.56 242.59C604.124 243.373 601.915 244.917 601.57 245.818C589.931 258.508 594.141 265.828 597.849 275.041C604.405 278.382 611.825 280.265 619.684 280.265C625.089 280.265 630.291 279.373 635.144 277.73C636.14 274.738 637.421 272.026 638.983 269.59C632.69 275.331 632.862 244.623 637.725 243.554C635.864 242.929 633.877 242.382 631.79 241.92Z" fill="#B10505"/>
<path fill-rule="evenodd" clip-rule="evenodd" d="M652.665 267.187C651.478 260.64 650.057 254.8 648.404 249.675C645.996 247.136 642.266 245.098 637.716 243.555C632.854 244.623 632.686 275.331 638.974 269.591C639.128 271.818 639.323 273.946 639.558 275.983C644.412 273.778 648.83 270.795 652.665 267.187ZM597.845 275.041C594.137 265.829 589.927 258.508 601.566 245.818C601.602 245.723 601.661 245.615 601.747 245.506C595.165 249.069 593.245 251.916 592.326 255.072C591.013 259.581 589.994 264.353 589.166 269.364C591.833 271.551 594.744 273.457 597.845 275.041Z" fill="#FF6F6F"/>
<path fill-rule="evenodd" clip-rule="evenodd" d="M612.725 243.849L612.992 243.034C614.446 242.215 617.103 240.512 620.965 237.927C618.76 239.122 616.37 239.992 613.794 240.53L613.391 241.812C612.589 241.925 611.784 242.047 610.969 242.178C611.82 242.572 612.404 243.134 612.725 243.849Z" fill="#B10505"/>
<path fill-rule="evenodd" clip-rule="evenodd" d="M630.947 278.935C632.369 278.595 633.768 278.192 635.139 277.726C636.135 274.733 637.417 272.022 638.979 269.586C634.578 273.602 633.338 259.793 634.655 250.762C633.347 259.35 632.948 266.467 633.469 272.117C632.491 274.222 631.649 276.494 630.947 278.935Z" fill="#CE0606"/>
<path d="M481.559 325.166C503.218 303.506 503.218 268.389 481.558 246.73C459.898 225.07 424.781 225.071 403.122 246.731C381.462 268.391 381.463 303.508 403.123 325.167C424.783 346.826 459.9 346.826 481.559 325.166Z" fill="#CE0606"/>
<path fill-rule="evenodd" clip-rule="evenodd" d="M442.348 237.805C468.937 237.805 490.495 259.359 490.495 285.947C490.495 312.535 468.941 334.089 442.348 334.089C415.76 334.089 394.206 312.535 394.206 285.947C394.202 259.359 415.76 237.805 442.348 237.805Z" fill="#E9EFF8" fill-opacity="0.2"/>
<path fill-rule="evenodd" clip-rule="evenodd" d="M456.754 294.399C455.224 294.508 452.811 294.214 452.385 293.675C450.76 291.611 449.633 289.451 449.212 288.098C449.529 287.192 449.859 286.051 450.208 284.675C456.102 280.673 456.908 277.712 452.625 275.793C451.761 276.277 450.692 277.766 449.411 280.266C448.388 280.225 447.614 279.7 447.088 278.699C448.306 274.484 449.099 271.062 449.465 268.431C446.563 264.117 439.773 263.501 430.781 264.665C430.365 267.06 430.021 269.59 429.754 272.27C428.165 273.733 427.264 278.667 428.726 284.924C427.277 288.261 431.298 290.923 436.422 291.249C436.495 292.512 436.377 294.06 436.296 294.232C436.169 294.504 435.712 294.771 435.082 294.993C434.915 300.86 442.136 300.665 456.754 294.399Z" fill="#FF6F6F"/>
<path fill-rule="evenodd" clip-rule="evenodd" d="M430.781 264.656C439.772 263.492 446.563 264.108 449.47 268.422C449.103 271.053 448.311 274.475 447.093 278.69C447.618 279.695 448.392 280.216 449.415 280.256C450.696 277.762 451.765 276.268 452.63 275.784C456.912 277.703 456.106 280.664 450.212 284.666C449.863 286.047 449.533 287.188 449.216 288.089C455.07 288.894 459.615 283.267 459.574 280.107C468.416 271.016 458.864 262.772 455.169 260.894C454.803 255.094 429.704 250.558 427.92 260.604C427.481 263.103 428.902 264.583 430.781 264.656Z" fill="#680505"/>
<path fill-rule="evenodd" clip-rule="evenodd" d="M477.53 318.81C476.38 313.821 477.059 306.745 475.578 302.684C473.188 299.013 465.587 297.949 456.754 294.399C442.136 300.665 434.911 300.86 435.087 294.983C430.786 296.396 425.082 295.794 417.974 299.375C414.312 302.159 410.98 310.992 407.987 319.666C416.725 328.566 428.889 334.089 442.344 334.089C447.999 334.089 453.427 333.112 458.47 331.319C458.959 330.11 459.471 328.892 460.009 327.656C460.218 328.602 460.43 329.544 460.643 330.481C467.094 327.837 472.844 323.826 477.53 318.81Z" fill="#B10505"/>
<path fill-rule="evenodd" clip-rule="evenodd" d="M458.475 331.324C458.964 330.115 459.476 328.897 460.014 327.661C459.068 329.006 458.172 330.355 457.325 331.713C457.71 331.586 458.095 331.459 458.475 331.324Z" fill="#CE0606"/>
<path fill-rule="evenodd" clip-rule="evenodd" d="M442.334 289.999C440.899 290.71 438.93 291.122 436.426 291.239C436.476 292.086 436.44 293.064 436.386 293.666C438.903 293.182 440.886 291.959 442.334 289.999Z" fill="#B10505"/>
<path fill-rule="evenodd" clip-rule="evenodd" d="M586.717 41.0073C617.348 41.0073 642.179 65.839 642.179 96.4701C642.179 127.101 617.348 151.933 586.717 151.933C556.086 151.933 531.254 127.101 531.254 96.4701C531.254 65.839 556.086 41.0073 586.717 41.0073Z" fill="#CE0606"/>
<path fill-rule="evenodd" clip-rule="evenodd" d="M586.717 48.3232C560.129 48.3232 538.57 69.8773 538.57 96.4701C538.57 123.058 560.124 144.612 586.717 144.612C613.305 144.612 634.859 123.058 634.859 96.4701C634.864 69.8818 613.31 48.3232 586.717 48.3232Z" fill="#E9EFF8" fill-opacity="0.2"/>
<path fill-rule="evenodd" clip-rule="evenodd" d="M591.782 112.252C594.716 113.941 595.617 116.72 597.604 117.748C603.368 118.291 609.045 118.735 611.752 120.609C614.731 124.208 617.547 127.694 620.204 131.058C611.539 139.447 599.732 144.612 586.721 144.612C573.474 144.612 561.477 139.261 552.771 130.605C555.981 126.368 558.974 122.588 561.735 119.251C566.697 118.092 570.405 117.485 572.845 117.436C573.891 116.2 575.439 115.14 577.495 114.262C576.299 120.849 575.847 128.749 575.91 134.331C585.318 127.436 590.61 118.432 591.782 112.252Z" fill="#B10505"/>
<path fill-rule="evenodd" clip-rule="evenodd" d="M572.845 117.44C571.741 120.686 571.148 123.371 571.075 125.489C572.343 124.48 573.28 123.792 573.882 123.421C574.344 128.636 575.023 132.276 575.91 134.336C575.847 128.754 576.3 120.854 577.495 114.267C575.439 115.145 573.891 116.204 572.845 117.44ZM591.783 112.252C590.61 118.432 585.318 127.436 575.91 134.336C581.533 132.339 587.681 127.454 591.203 120.953C591.787 123.153 592.521 125.72 593.412 128.663C595.862 125.63 597.256 121.994 597.605 117.748C595.617 116.72 594.716 113.941 591.783 112.252Z" fill="#CE0606"/>
<path fill-rule="evenodd" clip-rule="evenodd" d="M577.349 110.414C577.951 112.687 577.892 114.615 577.164 116.213C576.208 122.366 575.846 129.297 575.905 134.34C584.887 127.753 590.116 119.251 591.592 113.117C590.401 111.197 589.917 108.961 590.13 106.398C589.908 105.199 590.591 102.967 592.171 99.707C597.55 98.7744 598.881 94.2608 596.644 90.6753C594.132 89.7879 592.773 91.8433 592.112 95.5646C590.677 95.3519 591.23 93.0656 591.375 91.9927C592.045 88.8916 591.483 87.221 590.356 84.2783C583.9 88.8191 578.363 88.9595 569.549 86.4016C569.807 88.5158 569.993 90.5576 570.115 92.5224C567.706 98.4077 571.4 108.417 577.349 110.414Z" fill="#FF6F6F"/>
<path fill-rule="evenodd" clip-rule="evenodd" d="M569.559 86.4015C578.373 88.9594 583.91 88.8191 590.366 84.2783C591.497 87.2164 592.059 88.887 591.384 91.9926C591.235 93.0656 590.687 95.3518 592.122 95.5646C592.783 91.8432 594.137 89.7834 596.654 90.6752C598.89 94.2608 597.555 98.7744 592.181 99.707C590.601 102.967 589.917 105.199 590.139 106.398C589.922 108.961 590.411 111.202 591.602 113.117C591.674 112.827 591.733 112.537 591.787 112.256C594.721 113.945 595.622 116.725 597.609 117.752C603.372 118.296 609.049 118.739 611.757 120.614C612.535 121.555 613.305 122.492 614.066 123.42C615.908 119.106 616.021 117.3 615.836 115.874C614.908 108.82 609.443 105.122 607.207 99.0279C602.48 86.1525 596.242 74.4135 588.867 72.9557C579.763 71.1584 577.354 71.6474 575.064 71.7968C567.263 72.3038 561.378 83.6671 562.809 90.8835C564.588 107.24 552.314 107.901 552.84 121.392C552.926 123.611 553.971 125.598 555.366 127.228C557.607 124.335 559.73 121.678 561.736 119.255C566.697 118.096 570.405 117.494 572.845 117.44C573.891 116.204 575.439 115.145 577.495 114.266C577.382 114.905 577.268 115.552 577.169 116.213C577.893 114.62 577.957 112.687 577.354 110.414C571.406 108.417 567.711 98.4122 570.129 92.5269C570.002 90.5575 569.812 88.5157 569.559 86.4015Z" fill="#680505"/>
<path fill-rule="evenodd" clip-rule="evenodd" d="M577.35 110.414C580.953 110.821 582.588 110.794 585.92 109.468C583.968 111.577 581.248 112.732 577.753 112.936C577.721 112.143 577.59 111.306 577.35 110.414Z" fill="#B10505"/>
<path d="M587.205 444.421C617.011 437.361 635.451 407.475 628.39 377.668C621.33 347.862 591.444 329.422 561.637 336.482C531.831 343.543 513.391 373.429 520.452 403.236C527.512 433.042 557.398 451.481 587.205 444.421Z" fill="#CE0606"/>
<path fill-rule="evenodd" clip-rule="evenodd" d="M574.434 342.284C547.846 342.284 526.287 363.838 526.287 390.431C526.287 417.019 547.841 438.573 574.434 438.573C601.022 438.573 622.576 417.019 622.576 390.431C622.576 363.838 601.022 342.284 574.434 342.284Z" fill="#E9EFF8" fill-opacity="0.2"/>
<path fill-rule="evenodd" clip-rule="evenodd" d="M593.467 398.38C591.968 398.489 589.6 398.199 589.184 397.67C587.59 395.641 586.481 393.527 586.074 392.196C586.386 391.309 586.712 390.191 587.052 388.837C592.833 384.912 593.621 382.01 589.424 380.122C588.577 380.598 587.527 382.06 586.273 384.509C585.272 384.468 584.512 383.957 583.996 382.974C585.191 378.841 585.965 375.486 586.327 372.906C583.48 368.673 576.82 368.066 568.001 369.212C567.594 371.557 567.254 374.047 566.996 376.672C565.434 378.108 565.638 383.436 567.073 389.57C566.358 393.061 568.508 394.967 573.538 395.284C573.61 396.524 573.497 398.041 573.416 398.213C573.289 398.48 572.845 398.738 572.225 398.96C572.048 404.714 579.133 404.524 593.467 398.38Z" fill="#FF6F6F"/>
<path fill-rule="evenodd" clip-rule="evenodd" d="M567.992 369.212C576.81 368.066 583.47 368.673 586.318 372.906C585.955 375.486 585.181 378.841 583.986 382.974C584.502 383.957 585.263 384.473 586.263 384.509C587.517 382.06 588.568 380.597 589.414 380.122C593.616 382.005 592.823 384.912 587.042 388.837C586.702 390.191 586.376 391.309 586.064 392.196C591.261 391.028 595.612 386.379 596.223 384.369C602.29 372.412 595.526 367.364 591.904 365.526C590.306 353.688 573.116 364.15 564.501 358.446C561.092 363.172 565.325 369.103 567.992 369.212Z" fill="#680505"/>
<path fill-rule="evenodd" clip-rule="evenodd" d="M613.074 419.151C612.142 415.493 611.105 412.107 609.977 409.001C607.637 405.402 602.132 401.862 593.471 398.38C579.134 404.524 572.049 404.714 572.221 398.955C568.006 400.341 562.41 402.79 555.438 406.303C551.223 409.508 547.457 416.688 544.147 427.848C552.423 434.553 562.958 438.573 574.439 438.573C581.999 438.573 589.148 436.83 595.518 433.724C595.889 432.823 596.274 431.918 596.672 431.008L597.098 432.918C603.381 429.55 608.841 424.837 613.074 419.151Z" fill="#B10505"/>
<path fill-rule="evenodd" clip-rule="evenodd" d="M550.236 432.054C550.666 428.573 551.169 425.376 551.748 422.465C550.978 425.702 550.209 428.745 549.448 431.588C549.706 431.746 549.969 431.9 550.236 432.054ZM595.513 433.72C595.884 432.819 596.269 431.914 596.667 431.004C595.925 432.058 595.214 433.122 594.53 434.186C594.856 434.037 595.187 433.878 595.513 433.72Z" fill="#CE0606"/>
<path fill-rule="evenodd" clip-rule="evenodd" d="M579.324 394.066C577.916 394.763 575.983 395.166 573.529 395.284C573.579 396.112 573.543 397.072 573.488 397.665C575.96 397.185 577.902 395.985 579.324 394.066Z" fill="#B10505"/>
<path fill-rule="evenodd" clip-rule="evenodd" d="M551.749 422.465C554.836 411.704 561.822 404.641 572.701 401.278C572.352 400.658 572.189 399.883 572.221 398.955C568.001 400.341 562.41 402.79 555.438 406.303C551.223 409.508 547.457 416.688 544.147 427.848C545.823 429.211 547.597 430.46 549.449 431.587C550.209 428.744 550.974 425.702 551.749 422.465ZM586.889 400.961C596.002 407.294 599.262 417.309 596.663 431.003L597.089 432.914C603.381 429.555 608.837 424.837 613.07 419.151C612.137 415.493 611.1 412.111 609.973 409.001C607.632 405.402 602.127 401.862 593.467 398.38C591.072 399.408 588.881 400.268 586.889 400.961Z" fill="#CE0606"/>
<path fill-rule="evenodd" clip-rule="evenodd" d="M464.193 23.4195C490.125 20.1961 512.761 30.4955 514.753 46.4267C515.735 54.3991 511.38 62.2584 503.53 68.5376L516.985 90.7209L492.56 75.2197C486.344 78.0809 479.151 80.1544 471.373 81.1232C445.432 84.3511 422.796 74.0517 420.813 58.116C418.83 42.1802 438.252 26.6474 464.193 23.4195Z" fill="#FF6F6F"/>
<path fill-rule="evenodd" clip-rule="evenodd" d="M485.914 52.9093C484.651 61.932 476.312 68.2158 467.289 66.9436C458.275 65.6805 451.987 57.3324 453.259 48.3142C454.522 39.2915 462.861 33.0077 471.889 34.2798C480.898 35.5475 487.191 43.8911 485.914 52.9093Z" fill="#CE0606"/>
<path fill-rule="evenodd" clip-rule="evenodd" d="M460.49 51.9678C459.811 56.7938 463.165 61.2531 467.996 61.9322C472.813 62.6112 477.277 59.2475 477.951 54.4306L460.49 51.9678Z" fill="#F5F6F7"/>
<path fill-rule="evenodd" clip-rule="evenodd" d="M488.884 391.178L445.088 387.266C439.927 386.8 436.11 382.236 436.572 377.08L438.768 352.411C439.234 347.25 443.797 343.434 448.954 343.9L492.755 347.811C497.916 348.273 501.732 352.832 501.266 357.998L499.07 382.657C498.608 387.823 494.054 391.63 488.884 391.178Z" fill="#FF6F6F"/>
<path fill-rule="evenodd" clip-rule="evenodd" d="M498.844 364.264L513.901 386.325L491.931 378.013L498.844 364.264Z" fill="#FF6F6F"/>
<path fill-rule="evenodd" clip-rule="evenodd" d="M483.107 363.403L477.493 363.756C477.493 363.756 469.982 359.062 469.611 357.201C469.24 355.354 470.077 351.311 468.941 350.904C467.805 350.496 465.446 350.297 464.187 352.891C463.268 354.765 464.69 361.244 464.065 361.737C463.676 362.05 460.448 362.339 458.089 362.52C456.536 362.634 455.183 363.612 454.567 365.038C454.151 366.006 454.472 367.134 455.323 367.736L456.672 368.682L455.789 370.067C455.137 371.109 455.441 372.471 456.473 373.137L457.523 373.807L456.908 374.631C456.115 375.695 456.423 377.207 457.573 377.877L458.501 378.429L458.393 378.674C457.926 379.733 458.343 380.964 459.357 381.521L460.285 382.037L475.256 381.082C476.66 380.996 478.032 380.616 479.281 379.982L484.492 378.769C485.049 378.646 485.429 378.126 485.379 377.546L484.347 364.458C484.288 363.829 483.74 363.353 483.107 363.403Z" fill="white"/>
<path fill-rule="evenodd" clip-rule="evenodd" d="M520.855 171.848C537.044 171.848 550.168 181.478 550.168 193.352C550.168 199.758 546.352 205.503 540.295 209.442C543.301 212.294 547.307 214.635 552.314 216.455C543.079 217.469 535.441 216.627 529.393 213.929C526.69 214.531 523.825 214.857 520.855 214.857C504.665 214.857 491.541 205.227 491.541 193.352C491.541 181.478 504.665 171.848 520.855 171.848Z" fill="#FF6F6F"/>
<path fill-rule="evenodd" clip-rule="evenodd" d="M520.742 187.969C519.262 185.013 517.786 183.533 514.83 183.533C511.565 183.533 508.917 186.181 508.917 189.445C508.917 195.362 514.83 199.785 520.747 205.698C526.664 199.785 532.576 195.358 532.576 189.445C532.576 186.181 529.928 183.533 526.664 183.533C523.703 183.537 522.222 185.013 520.742 187.969Z" fill="white"/>
<path fill-rule="evenodd" clip-rule="evenodd" d="M114.954 45.8647L58.627 69.0576L74.1326 88.8007L114.954 45.8647Z" fill="#FF6F6F"/>
<path fill-rule="evenodd" clip-rule="evenodd" d="M50.6595 59.7544L113.234 45.9917L35.3213 51.8046L50.6595 59.7544Z" fill="#FF6F6F"/>
<path fill-rule="evenodd" clip-rule="evenodd" d="M50.6592 59.7542L52.1622 85.7041L58.6271 69.0576L114.955 45.8647L113.234 45.9915L50.6592 59.7542Z" fill="#CE0606"/>
<path fill-rule="evenodd" clip-rule="evenodd" d="M52.1631 85.7046L65.4957 77.8047L58.6279 69.0581L52.1631 85.7046Z" fill="#680505"/>
<path fill-rule="evenodd" clip-rule="evenodd" d="M42.6918 72.82C44.1722 72.4578 44.5842 74.5947 43.2758 74.9161C42.5877 75.1108 41.9041 75.31 41.2204 75.5273C39.6631 75.9076 39.3462 73.7526 40.5776 73.4493C41.2793 73.2274 41.9855 73.0192 42.6918 72.82ZM71.2358 198.219C70.5251 199.441 68.6327 198.373 69.3616 197.114C69.7237 196.503 70.0723 195.888 70.4073 195.258C71.1724 193.941 72.9969 195.122 72.3269 196.281C71.9737 196.938 71.6161 197.581 71.2358 198.219ZM75.0387 190.17C74.681 191.415 72.5487 190.971 72.9833 189.463C73.2142 188.798 73.4315 188.128 73.6262 187.449C74.0246 186.063 76.1116 186.675 75.7178 188.042C75.514 188.757 75.2831 189.463 75.0387 190.17ZM76.9763 181.441C76.7454 182.908 74.7625 182.659 74.8123 181.247C74.8802 180.554 74.921 179.848 74.9391 179.15C74.9889 177.675 77.1619 177.81 77.1121 179.196C77.094 179.938 77.0488 180.703 76.9763 181.441ZM76.6051 172.482C76.9084 173.731 74.844 174.42 74.4682 172.88C74.3551 172.233 74.2147 171.445 74.0336 170.82C73.6896 169.399 75.8083 168.924 76.1388 170.286C76.3335 170.979 76.4783 171.767 76.6051 172.482ZM73.934 163.944C74.5316 165.297 72.517 166.121 71.9602 164.854C71.6659 164.211 71.3626 163.586 71.0366 162.957C70.3621 161.739 72.2409 160.639 72.9562 161.934C73.2957 162.604 73.6171 163.265 73.934 163.944ZM69.4159 156.274C70.2806 157.547 68.4108 158.665 67.6638 157.565C67.2519 156.994 66.8127 156.424 66.3691 155.881C65.4636 154.74 67.184 153.409 68.0622 154.513C68.524 155.088 68.9767 155.672 69.4159 156.274ZM63.5848 149.588C64.6397 150.67 63.0144 152.119 62.0728 151.15C61.5612 150.652 61.0451 150.163 60.5154 149.683C59.3972 148.533 61.0949 147.166 61.9777 148.071C62.521 148.574 63.0552 149.072 63.5848 149.588ZM56.8484 143.865C58.0073 144.726 56.699 146.464 55.5581 145.617L53.8151 144.368C52.5928 143.463 53.9736 141.778 55.0556 142.58C55.6622 143.001 56.2553 143.431 56.8484 143.865ZM49.4645 139.044C50.714 139.768 49.6139 141.643 48.3825 140.932L46.5127 139.895C45.1908 139.13 46.3769 137.306 47.5359 137.976L49.4645 139.044ZM41.5917 135.083C42.8955 135.639 42.058 137.65 40.727 137.079L38.7486 136.246C37.3814 135.662 38.2959 133.688 39.5635 134.232C40.2426 134.508 40.9171 134.788 41.5917 135.083ZM33.3839 131.991C34.7239 132.566 34.0494 134.44 32.6595 134.041C31.9714 133.797 31.2787 133.557 30.5951 133.299C29.16 132.683 30.156 130.75 31.3557 131.262L33.3839 131.991ZM25.3481 128.871C26.6474 129.428 25.8144 131.434 24.4789 130.863C23.8043 130.574 23.1388 130.275 22.4733 129.967C21.2238 129.433 22.0025 127.4 23.3833 127.993C24.0352 128.292 24.6916 128.586 25.3481 128.871ZM17.6654 125.073C18.9013 125.788 17.8148 127.672 16.5743 126.952C15.936 126.585 15.2932 126.214 14.6729 125.82C13.523 125.154 14.5054 123.212 15.8319 123.982C16.4204 124.367 17.0542 124.724 17.6654 125.073ZM10.6618 120.274C11.7257 121.143 10.4083 122.873 9.25387 121.931C8.67891 121.447 8.12206 120.935 7.5788 120.414C6.5466 119.355 8.1447 117.875 9.11353 118.871C9.5753 119.346 10.1502 119.844 10.6618 120.274ZM5.27445 114.018C5.95806 115.253 4.06569 116.331 3.36397 115.054C2.98821 114.371 2.6532 113.687 2.36346 112.963C1.84283 111.777 3.76236 110.749 4.39617 112.189C4.64064 112.822 4.94849 113.429 5.27445 114.018ZM3.47715 106.276C3.43188 107.589 1.25429 107.657 1.30862 106.104C1.38105 105.312 1.4897 104.569 1.66174 103.795C2.09635 102.288 4.13813 103.044 3.78048 104.289C3.63108 104.959 3.53601 105.592 3.47715 106.276ZM6.17989 98.6387C5.50534 99.8021 3.57223 98.8061 4.3328 97.4887C4.72214 96.8459 5.15221 96.2211 5.59588 95.6145C6.45605 94.4555 8.19449 95.7639 7.34791 96.9047C6.93593 97.4661 6.53754 98.0456 6.17989 98.6387ZM11.5492 92.1738C10.5441 93.1517 9.00035 91.6215 10.0461 90.6029C10.4988 90.1094 11.1779 89.5526 11.6895 89.0998C12.604 88.2125 14.2564 89.634 13.111 90.7477C12.6674 91.1054 11.934 91.7573 11.5492 92.1738ZM18.1679 86.8C16.9501 87.6285 15.7685 85.7995 16.9184 85.0163C17.516 84.5907 18.1317 84.1788 18.7474 83.7758C19.8928 82.9972 21.1604 84.7673 19.9335 85.5958C19.345 85.9896 18.7474 86.388 18.1679 86.8ZM25.4567 82.2909C24.2208 82.9745 23.1479 81.0821 24.4155 80.3804C25.0448 80.0364 25.7148 79.6561 26.3576 79.3482C27.5392 78.6963 28.6801 80.5479 27.3491 81.2813C26.7198 81.6073 26.086 81.9423 25.4567 82.2909ZM33.1801 78.5243C31.8989 79.0902 30.9844 77.1118 32.329 76.5232L34.3617 75.6767C35.5886 75.1379 36.5665 77.0801 35.1676 77.6958C34.5111 77.9357 33.823 78.2481 33.1801 78.5243Z" fill="#680505"/>
<path fill-rule="evenodd" clip-rule="evenodd" d="M352.402 368.904L393.401 385.709L382.142 400.092L352.402 368.904Z" fill="#FF6F6F"/>
<path fill-rule="evenodd" clip-rule="evenodd" d="M399.182 378.936L353.656 368.994L410.332 373.137L399.182 378.936Z" fill="#FF6F6F"/>
<path fill-rule="evenodd" clip-rule="evenodd" d="M399.182 378.936L398.118 397.81L393.401 385.709L352.402 368.904L353.656 368.994L399.182 378.936Z" fill="#CE0606"/>
<path fill-rule="evenodd" clip-rule="evenodd" d="M398.118 397.81L388.412 392.083L393.401 385.709L398.118 397.81Z" fill="#680505"/>
<path fill-rule="evenodd" clip-rule="evenodd" d="M408.662 396.416C407.326 396.248 407.63 394.306 408.865 394.46L410.83 394.673C412.143 394.836 411.867 396.782 410.608 396.628L408.662 396.416ZM475.882 474.578C476.755 474.578 477.186 475.646 476.592 476.239C476.448 476.411 476.153 476.543 475.882 476.543L474.61 476.538C473.337 476.538 473.31 474.573 474.628 474.573L475.882 474.578ZM468.778 474.401C469.937 474.401 470.1 476.366 468.67 476.366L466.691 476.244C465.283 476.067 465.673 474.139 466.836 474.283L468.778 474.401ZM461.042 473.663C462.264 473.817 462.096 475.777 460.747 475.61L461.042 473.663ZM453.531 472.011C454.708 472.45 454.237 474.211 452.915 473.881C452.268 473.672 451.634 473.446 451.005 473.202C449.805 472.685 450.52 470.92 451.734 471.377C452.322 471.608 452.929 471.816 453.531 472.011ZM446.862 468.652C447.885 469.507 446.595 470.988 445.626 470.182C445.07 469.725 444.558 469.254 444.078 468.72C443.204 467.669 444.766 466.479 445.554 467.42C445.957 467.868 446.391 468.267 446.862 468.652ZM443.182 462.689C443.358 464.093 441.389 464.197 441.244 463.024C441.117 462.323 441.04 461.644 441.013 460.928C441.013 459.575 442.978 459.643 442.978 460.878C443.001 461.494 443.073 462.087 443.182 462.689ZM443.711 455.337C443.413 456.532 441.489 456.129 441.814 454.817C441.987 454.174 442.177 453.508 442.399 452.879C442.883 451.593 444.689 452.372 444.259 453.508C444.055 454.11 443.874 454.726 443.711 455.337ZM446.423 448.134C445.939 449.266 444.101 448.564 444.635 447.315C444.911 446.717 445.196 446.111 445.491 445.518C446.21 444.259 447.822 445.391 447.256 446.382C446.966 446.957 446.69 447.55 446.423 448.134ZM449.927 441.158C449.248 442.349 447.587 441.294 448.189 440.239L449.112 438.501C449.791 437.31 451.457 438.365 450.851 439.424C450.538 439.985 450.231 440.583 449.927 441.158ZM453.594 434.172C452.884 435.417 451.258 434.299 451.838 433.294L452.698 431.542C453.368 430.365 454.971 431.225 454.473 432.389L453.594 434.172ZM456.786 426.829C456.347 428.006 454.586 427.536 454.916 426.218C455.115 425.612 455.296 425.018 455.455 424.398C455.767 423.144 457.678 423.615 457.361 424.878C457.189 425.544 456.999 426.182 456.786 426.829ZM457.773 418.667C457.931 419.953 455.985 420.197 455.822 418.911C455.749 418.305 455.636 417.693 455.487 417.1C455.17 415.828 457.08 415.371 457.393 416.611C457.56 417.291 457.691 417.974 457.773 418.667ZM454.749 410.966C455.518 412.039 453.898 413.157 453.16 412.125C452.793 411.618 452.413 411.138 451.996 410.672C451.104 409.603 452.689 408.435 453.454 409.354C453.911 409.852 454.35 410.414 454.749 410.966ZM448.809 405.361C449.823 406.086 448.9 407.67 447.709 406.991C447.179 406.634 446.645 406.294 446.097 405.968C445.006 405.343 445.943 403.614 447.102 404.275C447.682 404.623 448.252 404.981 448.809 405.361ZM441.706 401.59C442.915 402.111 442.118 403.908 440.945 403.406C440.352 403.152 439.75 402.917 439.152 402.686C437.948 402.233 438.627 400.39 439.85 400.848C440.47 401.083 441.09 401.328 441.706 401.59ZM434.168 398.964C435.345 399.259 434.965 401.192 433.629 400.857L431.755 400.341C430.528 400.033 430.967 398.118 432.253 398.439L434.168 398.964ZM426.458 397.081C427.816 397.421 427.219 399.295 426.064 399.005L424.149 398.625C422.9 398.312 423.194 396.529 424.516 396.692L426.458 397.081ZM418.662 395.7C419.885 395.854 419.713 397.815 418.368 397.642L416.43 397.362C415.185 397.208 415.38 395.248 416.702 395.415L418.662 395.7Z" fill="#680505"/>
</svg>
