<svg width="371" height="274" viewBox="0 0 371 274" fill="none" xmlns="http://www.w3.org/2000/svg">
<path fill-rule="evenodd" clip-rule="evenodd" d="M328.419 249.346H302.981L299.593 199.77H332.009L328.419 249.346Z" fill="#D3D4D7"/>
<path fill-rule="evenodd" clip-rule="evenodd" d="M308.915 188.895C308.915 188.895 312.948 168.954 304.879 160.889C296.81 152.824 292.208 149.941 292.208 149.941C292.208 149.941 277.214 173.925 308.915 188.895ZM310.759 133.269C310.759 133.269 314.793 113.328 306.723 105.266C298.654 97.2028 294.053 94.3174 294.053 94.3174C294.053 94.3174 279.054 118.288 310.759 133.269Z" fill="#EBEDF0"/>
<path fill-rule="evenodd" clip-rule="evenodd" d="M313.755 100.845C313.755 100.845 317.291 87.8631 310.604 80.4852C303.917 73.1076 296.695 71.2661 296.695 71.2661C296.695 71.2661 295.772 91.7034 313.755 100.845Z" fill="#D3D4D7"/>
<path fill-rule="evenodd" clip-rule="evenodd" d="M320.21 178.408C320.21 178.408 318.596 149.481 337.846 137.381C337.846 137.381 337.97 171.49 320.21 178.408Z" fill="#EBEDF0"/>
<path fill-rule="evenodd" clip-rule="evenodd" d="M315.619 160.962C315.619 160.962 313.296 140.832 298.591 134.777C298.591 134.777 302.554 158.302 315.619 160.962ZM323.784 126.893C323.784 126.893 312.142 106.263 335.772 90.937C335.772 90.937 344.841 116.74 323.784 126.893Z" fill="#D3D4D7"/>
<path d="M309.924 89.3223C309.924 89.3223 316.444 102.075 316.444 121.59V150.632M303.997 117.902C303.997 117.902 309.452 127.661 310.759 133.268C312.066 138.875 313.183 156.856 313.183 175.065V214.711M302.152 173.988C302.152 173.988 308.253 183.747 308.915 188.894C309.576 194.041 308.915 215.286 308.915 215.286" stroke="#D3D4D7" stroke-width="2" stroke-linecap="round"/>
<path d="M310.471 153.687C310.471 153.687 314.138 158.144 315.619 160.959C317.099 163.774 318.308 173.862 318.308 178.406V212.287M328.395 111.334C328.395 111.334 323.784 120.323 323.784 126.892V212.283" stroke="#D3D4D7" stroke-width="2" stroke-linecap="round"/>
<path fill-rule="evenodd" clip-rule="evenodd" d="M75.3457 9.26172H75.7914V21.939H75.3457V9.26172ZM94.8493 21.939H95.295V34.6164H94.8493V21.939ZM81.5591 34.6164H82.0049V47.2937H81.5591V34.6164Z" fill="#D3D4D7"/>
<path fill-rule="evenodd" clip-rule="evenodd" d="M57.6363 21.7163H114.734V22.162H57.6363V21.7163ZM51.5801 34.3936H108.678V34.8394H51.5801V34.3936ZM66.9938 47.0707H124.092V47.5164H66.9938V47.0707Z" fill="#D3D4D7"/>
<path fill-rule="evenodd" clip-rule="evenodd" d="M309.91 4.63086V43.2633H247.91V4.63086H309.91Z" fill="#EBEDF0"/>
<path d="M315.263 47.8918H242.559V0H315.263V47.8918ZM242.781 47.6571H315.04V0.236952H242.781V47.6571Z" fill="#DEE4ED"/>
<path fill-rule="evenodd" clip-rule="evenodd" d="M357.599 256.01C357.599 256.01 375.687 255.713 368.568 259.18C361.449 262.647 298.386 263.402 270.551 266.579C242.715 269.755 175.755 269.014 216.775 264.549C257.796 260.085 327.006 255.262 357.599 256.01ZM75.8912 266.588C75.8912 266.588 122.236 267.655 113.713 270.576C105.191 273.497 22.1277 273.201 14.1148 272.922C6.10154 272.643 -13.1792 269.025 14.1148 268.554C41.4082 268.082 75.8912 266.588 75.8912 266.588Z" fill="#D3D4D7"/>
<path d="M35.8115 29.7252C35.8115 29.7252 140.303 28.2285 113.052 74.7454C85.8001 121.262 13.7672 176.161 109.063 178.033C204.358 179.905 249.299 67.9307 328.388 54.6389" stroke="#CE0606" stroke-width="2" stroke-linecap="round" stroke-dasharray="8 8"/>
<path fill-rule="evenodd" clip-rule="evenodd" d="M41.6487 32.636L39.2434 35.2141L20.9062 27.5693L41.6487 32.636Z" fill="#AE0909"/>
<path fill-rule="evenodd" clip-rule="evenodd" d="M40.7927 24.123L42.6044 26.856L41.3793 29.5326L44.1247 29.9995L46.5534 35.3271L20.3154 27.3908L40.7927 24.123Z" fill="#CE0606"/>
<path fill-rule="evenodd" clip-rule="evenodd" d="M41.3791 29.5326L42.6039 26.856L28.3916 27.5198L41.3791 29.5326ZM323.793 55.7714L326.2 58.3494L344.538 50.7044L323.793 55.7714Z" fill="#710505"/>
<path fill-rule="evenodd" clip-rule="evenodd" d="M324.649 47.2583L322.838 49.9913L324.062 52.6679L321.315 53.135L318.889 58.4624L345.126 50.5263L324.649 47.2583Z" fill="#AE0909"/>
<path fill-rule="evenodd" clip-rule="evenodd" d="M324.064 52.6678L322.839 49.9912L337.051 50.6553L324.064 52.6678Z" fill="#CE0606"/>
<path fill-rule="evenodd" clip-rule="evenodd" d="M262.374 246.924H108.021C99.3259 246.921 92.2793 239.872 92.2793 231.179V30.0273C92.2793 21.3311 99.3304 14.2817 108.029 14.2817H164.169C166.762 14.282 169.314 14.9221 171.6 16.1453C173.886 17.3684 175.835 19.1368 177.274 21.2936L180.521 26.1659C181.961 28.3215 183.91 30.0885 186.196 31.3104C188.482 32.5323 191.034 33.1713 193.626 33.1708H262.376C271.074 33.1759 278.12 40.2284 278.116 48.9234V231.179C278.116 239.872 271.07 246.921 262.374 246.924H262.374Z" fill="url(#paint0_linear_64_3820)"/>
<path d="M260.04 52.8604H108.338C106.569 52.8604 105.135 54.2946 105.135 56.0638V68.0275C105.135 69.7967 106.569 71.231 108.338 71.231H260.04C261.81 71.231 263.244 69.7967 263.244 68.0275V56.0638C263.244 54.2946 261.81 52.8604 260.04 52.8604Z" fill="#EBEDF0"/>
<path fill-rule="evenodd" clip-rule="evenodd" d="M244.379 71.2333H218.393C213.318 71.2333 209.204 67.1203 209.204 62.0468C209.204 56.9733 213.318 52.8604 218.393 52.8604H244.379C249.454 52.8604 253.568 56.9733 253.568 62.0468C253.568 67.1203 249.454 71.2333 244.379 71.2333Z" fill="#CE0606"/>
<path d="M253.756 90.1855H116.64C115.432 90.1855 114.453 91.1644 114.453 92.3719V244.738C114.453 245.945 115.432 246.924 116.64 246.924H253.756C254.964 246.924 255.943 245.945 255.943 244.738V92.3719C255.943 91.1644 254.964 90.1855 253.756 90.1855Z" fill="#EBEDF0"/>
<path fill-rule="evenodd" clip-rule="evenodd" d="M223.262 166.833H147.135C142.024 166.833 137.883 165.362 137.883 163.549C137.883 161.733 142.024 160.265 147.135 160.265H223.263C228.373 160.265 232.514 161.736 232.514 163.549C232.514 165.362 228.373 166.833 223.262 166.833ZM223.262 154.923H147.135C142.024 154.923 137.883 153.452 137.883 151.639C137.883 149.823 142.024 148.355 147.135 148.355H223.263C228.373 148.355 232.514 149.825 232.514 151.639C232.514 153.443 228.373 154.923 223.263 154.923L223.262 154.923ZM223.314 143.33H147.186C142.076 143.33 137.932 141.859 137.932 140.045C137.932 138.23 142.076 136.761 147.186 136.761H223.314C228.424 136.761 232.568 138.232 232.568 140.045C232.568 141.859 228.424 143.33 223.314 143.33ZM223.262 178.032H147.135C142.024 178.032 137.883 176.745 137.883 175.156C137.883 173.568 142.024 172.28 147.135 172.28H223.263C228.373 172.28 232.514 173.568 232.514 175.156C232.514 176.74 228.373 178.032 223.262 178.032Z" fill="#CE0606"/>
<path d="M150.691 193.987H142.355C141.621 193.987 141.025 194.582 141.025 195.317V203.216C141.025 203.95 141.621 204.546 142.355 204.546H150.691C151.425 204.546 152.021 203.95 152.021 203.216V195.317C152.021 194.582 151.425 193.987 150.691 193.987Z" fill="#CE0606"/>
<path fill-rule="evenodd" clip-rule="evenodd" d="M231.223 214.777H203.535C199.966 214.777 197.071 211.884 197.07 208.316C197.07 204.747 199.964 201.853 203.535 201.853H231.222C234.793 201.853 237.687 204.747 237.687 208.316C237.686 211.884 234.792 214.777 231.223 214.777Z" fill="#AE0909"/>
<path fill-rule="evenodd" clip-rule="evenodd" d="M222.882 208.316C222.882 204.746 219.988 201.853 216.418 201.853H203.529C202.381 201.831 201.247 202.115 200.245 202.677C199.243 203.238 198.409 204.057 197.828 205.048C197.247 206.039 196.941 207.166 196.941 208.315C196.941 209.463 197.247 210.591 197.828 211.582C198.409 212.573 199.243 213.391 200.245 213.952C201.247 214.514 202.381 214.798 203.529 214.776H216.418C219.987 214.776 222.881 211.884 222.882 208.316Z" fill="#CE0606"/>
<path fill-rule="evenodd" clip-rule="evenodd" d="M292.254 238.714C292.267 247.018 287.274 254.512 279.605 257.701C271.936 260.891 263.1 259.146 257.22 253.282C251.338 247.418 249.57 238.589 252.74 230.913C255.91 223.237 263.393 218.226 271.699 218.218C274.402 218.188 277.083 218.697 279.587 219.716C282.091 220.735 284.366 222.243 286.28 224.151C288.194 226.059 289.708 228.33 290.734 230.831C291.759 233.331 292.276 236.011 292.254 238.714Z" fill="#AE0909"/>
<path fill-rule="evenodd" clip-rule="evenodd" d="M292.253 238.714C292.261 243.193 290.79 247.549 288.067 251.106C284.933 252.751 281.428 253.561 277.889 253.455C274.351 253.349 270.9 252.332 267.87 250.503C264.84 248.673 262.334 246.093 260.594 243.011C258.853 239.929 257.938 236.45 257.937 232.911C257.919 228.471 259.371 224.151 262.066 220.623C265.193 218.96 268.696 218.134 272.236 218.225C275.776 218.315 279.233 219.32 282.27 221.14C285.307 222.961 287.821 225.536 289.569 228.615C291.317 231.695 292.238 235.174 292.244 238.714H292.253Z" fill="#CE0606"/>
<path fill-rule="evenodd" clip-rule="evenodd" d="M270.359 247.884C269.934 247.884 269.515 247.78 269.139 247.582C268.763 247.384 268.441 247.097 268.2 246.747L262.865 238.93C262.671 238.647 262.535 238.328 262.464 237.992C262.394 237.656 262.39 237.31 262.453 236.973C262.516 236.635 262.645 236.314 262.833 236.026C263.021 235.739 263.263 235.491 263.546 235.297C264.118 234.906 264.823 234.758 265.504 234.886C266.185 235.014 266.788 235.407 267.18 235.979L270.354 240.617L279.271 227.405C279.658 226.83 280.258 226.432 280.939 226.3C281.619 226.167 282.325 226.31 282.9 226.698C283.184 226.889 283.428 227.135 283.618 227.421C283.808 227.707 283.939 228.028 284.005 228.365C284.07 228.702 284.069 229.048 284.001 229.385C283.932 229.721 283.799 230.041 283.607 230.325L272.548 246.73C272.31 247.085 271.989 247.375 271.613 247.576C271.236 247.778 270.816 247.883 270.39 247.884H270.359Z" fill="white"/>
<path d="M185.339 128.282C193.317 128.203 199.721 121.653 199.641 113.653C199.562 105.653 193.029 99.2325 185.051 99.3118C177.072 99.3912 170.669 105.941 170.749 113.941C170.828 121.941 177.361 128.362 185.339 128.282Z" fill="#CC6464"/>
<path fill-rule="evenodd" clip-rule="evenodd" d="M191.614 119.671L178.89 119.805V117.947C178.887 117.38 179.025 116.822 179.29 116.321C179.555 115.82 179.94 115.392 180.41 115.076L182.834 113.445C182.027 112.93 181.409 112.166 181.072 111.27C180.735 110.373 180.698 109.392 180.965 108.473C181.233 107.553 181.79 106.745 182.555 106.169C183.32 105.593 184.251 105.28 185.209 105.277C186.167 105.273 187.1 105.58 187.869 106.15C188.638 106.721 189.201 107.526 189.475 108.443C189.748 109.361 189.718 110.343 189.387 111.242C189.056 112.14 188.443 112.908 187.64 113.429L190.07 115.043C190.542 115.357 190.929 115.782 191.198 116.281C191.466 116.781 191.608 117.338 191.61 117.905L191.614 119.671V119.671Z" fill="white"/>
<path fill-rule="evenodd" clip-rule="evenodd" d="M317.771 99.8276H296.418C294.931 99.8276 293.725 101.034 293.725 102.521V121.431C293.724 121.584 293.769 121.733 293.854 121.86C293.938 121.987 294.059 122.087 294.2 122.145C294.341 122.203 294.496 122.218 294.646 122.188C294.796 122.158 294.933 122.084 295.041 121.975L299.919 117.098C300.348 116.671 300.93 116.43 301.536 116.43H317.771C319.282 116.428 320.507 115.203 320.509 113.692V102.565C320.509 101.053 319.283 99.8276 317.771 99.8276Z" fill="#CC6464"/>
<path fill-rule="evenodd" clip-rule="evenodd" d="M315.189 104.753H299.938C299.677 104.754 299.426 104.858 299.242 105.043C299.057 105.227 298.953 105.478 298.952 105.739C298.953 106 299.057 106.25 299.242 106.435C299.426 106.619 299.677 106.723 299.938 106.724H315.189C315.451 106.723 315.701 106.619 315.886 106.435C316.07 106.25 316.174 106 316.175 105.739C316.174 105.478 316.07 105.227 315.886 105.043C315.701 104.858 315.451 104.754 315.189 104.753ZM309.197 110.403H299.938C299.677 110.403 299.426 110.507 299.242 110.692C299.057 110.876 298.953 111.127 298.952 111.388C298.953 111.649 299.057 111.899 299.242 112.084C299.426 112.268 299.677 112.372 299.938 112.373H309.202C309.463 112.372 309.713 112.268 309.898 112.084C310.083 111.899 310.188 111.649 310.189 111.388C310.188 111.126 310.083 110.875 309.897 110.69C309.711 110.505 309.459 110.402 309.197 110.403Z" fill="#560101"/>
<path fill-rule="evenodd" clip-rule="evenodd" d="M92.7488 206.489C94.5953 209.088 100.621 206.773 104.389 204.964C105.839 188.747 104.594 172.825 98.7134 166.876C90.4235 158.487 84.3039 169.191 85.1934 179.919C85.461 183.152 86.5424 188.888 87.8401 195.674C89.8439 200.683 91.7423 205.072 92.7488 206.489Z" fill="#DF3426"/>
<path fill-rule="evenodd" clip-rule="evenodd" d="M93.1421 245.663C92.9448 245.611 92.7527 245.56 92.5625 245.501C92.6589 245.822 92.8583 245.862 93.1421 245.663Z" fill="#EA4335"/>
<path fill-rule="evenodd" clip-rule="evenodd" d="M104.385 204.963C100.617 206.772 94.5915 209.088 92.7449 206.488C91.7404 205.081 89.8423 200.682 87.8359 195.674C90.8394 211.391 95.0138 232.783 92.9629 241.888C92.5195 243.858 92.4138 245.017 92.5617 245.512C92.7519 245.571 92.9443 245.623 93.1413 245.674C93.5425 245.393 94.108 244.626 94.7839 243.478C99.282 235.721 103.025 220.209 104.385 204.963Z" fill="#BF3428"/>
<path fill-rule="evenodd" clip-rule="evenodd" d="M92.5678 245.519C92.725 246.019 93.1566 245.801 93.7621 245.02C104.664 215.179 93.1169 168.963 93.0817 168.813C93.0495 168.692 92.9708 168.588 92.8625 168.524C92.7542 168.46 92.6251 168.442 92.5034 168.473C92.3816 168.504 92.2769 168.581 92.212 168.689C92.1472 168.796 92.1274 168.925 92.157 169.047C92.1947 169.188 103.899 216.038 92.5678 245.519Z" fill="#144421"/>
<path fill-rule="evenodd" clip-rule="evenodd" d="M112.615 219.379C115.334 216.895 118.969 211.694 122.388 207.65C124.591 200.776 122.653 193.745 115.217 197.018C109.672 199.458 104.562 209.257 100.97 220.381C101.85 229.499 109.504 222.222 112.615 219.379Z" fill="#DF3426"/>
<path fill-rule="evenodd" clip-rule="evenodd" d="M96.0547 253.756C96.4886 256.62 97.2045 257.113 97.8286 253.122C99.4408 242.824 117.558 217.896 121.293 210.364C121.727 209.485 122.096 208.574 122.396 207.64C118.977 211.694 115.342 216.895 112.623 219.37C109.512 222.213 101.857 229.49 100.977 220.362C97.0402 232.54 94.9282 246.296 96.0547 253.756Z" fill="#CE0606"/>
<path fill-rule="evenodd" clip-rule="evenodd" d="M97.0706 255.882C96.8103 256.199 96.5615 255.917 96.3457 255.178C97.0098 230.377 118.679 200.134 118.747 200.05C118.775 200.01 118.811 199.976 118.852 199.95C118.894 199.924 118.939 199.907 118.988 199.898C119.036 199.89 119.085 199.892 119.132 199.902C119.18 199.913 119.225 199.933 119.264 199.961C119.304 199.99 119.338 200.025 119.364 200.067C119.39 200.108 119.407 200.154 119.416 200.202C119.424 200.25 119.422 200.299 119.412 200.347C119.401 200.394 119.381 200.439 119.353 200.479C119.284 200.561 97.3169 231.217 97.0706 255.882Z" fill="#144421"/>
<path fill-rule="evenodd" clip-rule="evenodd" d="M83.6811 196.05C82.414 193.556 81.926 190.544 81.7477 188.249C80.7956 187.133 79.6523 186.195 78.3712 185.479C69.6471 180.89 67.479 190.961 70.8978 199.28C72.9627 204.305 80.1544 216.487 85.7367 227.799C87.501 224.808 85.9221 200.462 83.6811 196.05Z" fill="#DF3426"/>
<path fill-rule="evenodd" clip-rule="evenodd" d="M94.5963 247.476C97.6465 233.87 91.7523 199.47 81.7471 188.25C81.9254 190.544 82.4134 193.556 83.6804 196.049C85.9215 200.462 87.5004 224.808 85.7361 227.799C89.4011 235.219 92.3719 242.266 92.7494 246.667C93.1202 250.976 93.9204 250.502 94.5963 247.476Z" fill="#BF3428"/>
<path fill-rule="evenodd" clip-rule="evenodd" d="M93.3563 249.669C93.6099 250.028 93.8959 249.744 94.1799 248.965C95.3227 222.443 74.4442 188.547 74.376 188.441C74.3504 188.394 74.3154 188.352 74.2732 188.319C74.231 188.286 74.1824 188.261 74.1305 188.247C74.0785 188.233 74.0242 188.23 73.971 188.237C73.9177 188.245 73.8665 188.263 73.8206 188.292C73.7747 188.32 73.7349 188.357 73.7038 188.401C73.6727 188.445 73.6509 188.494 73.6396 188.547C73.6284 188.6 73.628 188.654 73.6384 188.707C73.6488 188.76 73.6699 188.81 73.7003 188.854C73.766 188.967 94.9307 223.322 93.3563 249.669Z" fill="#144421"/>
<path fill-rule="evenodd" clip-rule="evenodd" d="M115.014 243.366L114.292 246.892L111.216 262.056H82.946L79.8699 246.892L79.1494 243.366H115.014Z" fill="#CE0606" stroke="#144421"/>
<path opacity="0.68" fill-rule="evenodd" clip-rule="evenodd" d="M114.722 244.797H101.93L82.9473 262.055H111.217L114.722 244.797Z" fill="#AE0909"/>
<path fill-rule="evenodd" clip-rule="evenodd" d="M75.8916 238.74H117.182V244.797H75.8916V238.74Z" fill="#CE0606" stroke="#144421"/>
<path fill-rule="evenodd" clip-rule="evenodd" d="M264.471 130.498C264.471 130.498 248.483 145.941 245.39 149.251C242.298 152.561 232.691 171 241.856 170.779C251.022 170.559 265.018 161.569 266.081 158.888C267.144 156.206 264.471 130.498 264.471 130.498Z" fill="#C9D9F4"/>
<path fill-rule="evenodd" clip-rule="evenodd" d="M299.828 141.523C297.059 137.425 291.693 133.705 287.033 131.011C287.033 131.011 272.147 125.334 266.701 136.876C261.255 148.418 263.249 161.023 263.249 161.023C263.249 161.023 263.014 160.776 262.613 160.319C262.792 162.195 263.012 165.058 263.249 168.375L300.557 150.417C300.557 150.417 301.435 160.685 290.191 167.971C278.947 175.257 264.089 181.028 264.089 181.028C264.662 189.964 265.143 198.083 265.143 198.083C270.887 198.444 279.719 204.886 290.099 206.334C300.48 207.781 319.925 199.73 319.925 199.73C319.925 199.73 305.349 149.694 299.828 141.523Z" fill="white"/>
<path fill-rule="evenodd" clip-rule="evenodd" d="M300.569 150.409L263.26 168.367C263.537 172.233 263.835 176.721 264.112 181.021C264.112 181.021 278.97 175.25 290.214 167.964C301.458 160.678 300.569 150.409 300.569 150.409ZM266.7 136.888C272.147 125.334 287.032 131.023 287.032 131.023C284.261 129.42 281.401 127.973 278.468 126.69C269.199 124.813 261.4 132.621 260.656 134.619C259.912 136.618 261.733 154.064 262.395 158.372C262.456 158.77 262.531 159.439 262.613 160.323C262.823 160.56 263.035 160.794 263.249 161.027C263.249 161.027 261.254 148.439 266.7 136.888Z" fill="#C9D9F4"/>
<path fill-rule="evenodd" clip-rule="evenodd" d="M274.936 68.5703L289.34 75.8321L232.863 187.806L218.459 180.544L274.936 68.5703Z" fill="#CE0606"/>
<path fill-rule="evenodd" clip-rule="evenodd" d="M219.184 180.908L232.138 187.439L229.916 191.844L216.962 185.313L219.184 180.908ZM217.221 187.899L227.684 193.174L225.462 197.579L214.999 192.304L217.221 187.899ZM214.86 194.998L223.381 199.294L221.159 203.698L212.639 199.403L214.86 194.998Z" fill="#CE0606"/>
<path fill-rule="evenodd" clip-rule="evenodd" d="M218.047 204.877L213.558 202.613L212.18 205.36C211.659 206.393 211.53 207.53 211.836 208.382L212.828 211.141C213.199 212.175 214.518 211.887 215.149 210.632L218.046 204.877H218.047Z" fill="#AE0909"/>
<path fill-rule="evenodd" clip-rule="evenodd" d="M229.939 191.836L216.984 185.308L217.118 188.137L227.583 193.41L229.939 191.836ZM225.483 197.574L215.021 192.298L214.918 195.008L223.367 199.268L225.483 197.574ZM221.182 203.69L212.66 199.395L212.369 202.011L219.251 205.48L221.182 203.69ZM282.136 72.2017L289.337 75.8317L232.86 187.806L225.659 184.175L282.136 72.2017Z" fill="#AE0909"/>
<path fill-rule="evenodd" clip-rule="evenodd" d="M276.087 66.2886L290.491 73.5501L289.339 75.8334L274.936 68.5716L276.087 66.2886Z" fill="#FBBC05"/>
<path fill-rule="evenodd" clip-rule="evenodd" d="M278.769 64.7783L290.105 70.4936L288.954 72.7769L277.617 67.0616L278.769 64.7783Z" fill="#FBBC05"/>
<path fill-rule="evenodd" clip-rule="evenodd" d="M284.437 67.6357L290.106 70.4941L288.954 72.7771L283.285 69.919L284.437 67.6357ZM283.285 69.9196L290.486 73.55L289.335 75.833L282.134 72.2026L283.285 69.9196Z" fill="#E0AB10"/>
<path d="M265.211 99.2717L257.552 114.461C257.294 114.972 256.75 115.219 256.337 115.01C255.924 114.801 255.799 114.219 256.058 113.705L263.716 98.5183C263.974 98.0069 264.519 97.7604 264.932 97.9695C265.345 98.178 265.472 98.7598 265.211 99.2711V99.2717ZM254.652 118.344C254.239 118.135 253.695 118.381 253.437 118.893L238.305 148.899C238.049 149.41 238.173 149.995 238.586 150.201C238.999 150.408 239.544 150.164 239.802 149.652L254.931 119.646C255.197 119.134 255.072 118.562 254.652 118.344Z" fill="#C9D9F4"/>
<path fill-rule="evenodd" clip-rule="evenodd" d="M271.725 116.962C271.725 116.962 274.245 114.513 273.806 111.991C273.67 111.205 274.367 111.287 275.366 111.829C275.003 110.466 274.726 109.389 274.597 108.791C273.879 105.481 256.543 102.458 257.205 109.345C257.205 109.345 258.2 128.002 262.451 128.333C266.703 128.663 268.358 127.228 268.358 127.228C268.358 127.228 270.18 125.987 270.551 125.241L268.318 130.498C268.369 132.325 268.58 134.284 269.242 134.514C270.511 134.955 278.959 133.906 280.505 130.043C280.505 130.043 276.143 123.005 275.563 121.309C274.984 119.613 273.85 117.169 271.725 116.962Z" fill="#FF8277"/>
<path fill-rule="evenodd" clip-rule="evenodd" d="M273.806 111.993C274.245 114.515 271.725 116.964 271.725 116.964C273.85 117.171 274.984 119.613 275.563 121.311C276.143 123.009 280.505 130.045 280.505 130.045C280.505 130.045 277.02 118.003 275.366 111.831C274.362 111.29 273.67 111.205 273.806 111.993ZM270.551 125.241C270.181 125.986 268.357 127.228 268.357 127.228C268.357 127.228 268.268 128.806 268.317 130.498L270.551 125.24V125.241Z" fill="#F46256"/>
<path fill-rule="evenodd" clip-rule="evenodd" d="M275.562 109.979C276.912 109.291 284.843 102.859 283.672 101.503C282.649 100.412 279.662 99.5322 279.662 99.5322C279.662 99.5322 279.537 96.9235 279.331 95.9734C279.124 95.0234 273.533 92.6609 268.275 92.5366C263.016 92.4124 248.372 103.961 248.372 103.961C248.372 103.961 255.547 109.455 256.735 109.925C257.922 110.394 266.092 107.661 266.092 107.661L264.215 108.876L268.164 111.442L269.157 115.306L270.511 112.214C272.552 107.245 274.098 111.276 273.824 113.098C273.824 113.098 274.209 110.668 275.562 109.978V109.979Z" fill="#CE0606"/>
<path fill-rule="evenodd" clip-rule="evenodd" d="M277.241 118.611C277.241 118.611 282.891 104.128 283.886 102.596C284.12 102.223 284.001 101.852 283.672 101.502C284.845 102.858 276.912 109.291 275.563 109.978C274.214 110.666 273.824 113.098 273.824 113.098C273.547 114.919 277.241 118.611 277.241 118.611Z" fill="#AE0909"/>
<path fill-rule="evenodd" clip-rule="evenodd" d="M242.098 145.87C242.374 145.622 242.64 145.378 242.886 145.146C242.593 145.351 242.327 145.595 242.098 145.87ZM220.672 161.961C220.469 160.807 220.402 159.633 220.471 158.463C220.471 158.463 220.088 160.875 220.672 161.961V161.961Z" fill="black"/>
<path fill-rule="evenodd" clip-rule="evenodd" d="M254.314 135.762C253.819 134.66 251.224 133.832 249.952 133.832C248.68 133.832 242.169 136.342 242.169 136.342C242.169 136.342 241.728 135.051 241.948 133.996C241.948 133.996 239.973 134.552 239.806 136.151C239.639 137.752 238.138 139.842 238.138 139.842C236.924 141.385 220.802 151.658 220.471 158.445C220.403 159.614 220.47 160.788 220.673 161.942C221.082 162.698 221.963 162.792 223.784 160.927C227.957 156.65 237.347 150.11 242.087 145.864C242.317 145.588 242.582 145.345 242.875 145.139C244.862 144.036 250.897 142.434 251.691 141.385C252.484 140.337 254.811 136.86 254.314 135.762H254.314Z" fill="#FF8277"/>
<path fill-rule="evenodd" clip-rule="evenodd" d="M224.997 167.446C226.309 167.546 238.475 149.802 242.098 145.863C237.346 150.109 227.956 156.654 223.796 160.926C221.975 162.803 221.093 162.697 220.685 161.942C221.419 165.989 223.847 167.356 224.997 167.446Z" fill="#F46256"/>
<path fill-rule="evenodd" clip-rule="evenodd" d="M296.845 140.421C289.044 135.544 280.545 143.091 271.725 153.323C271.725 153.323 280.495 164.255 282.502 168.6C291.272 164.321 297.519 158.574 299.396 155.667C302.146 151.348 299.567 142.122 296.845 140.421Z" fill="white"/>
<path fill-rule="evenodd" clip-rule="evenodd" d="M279.85 164.191C276.539 159.314 271.725 153.311 271.725 153.311C271.56 153.501 271.394 153.694 271.23 153.888C260.481 166.443 243.183 169.784 240.477 170.061C237.772 170.338 232.528 167.466 231.533 167.853C230.538 168.24 234.238 170.502 233.797 170.612C233.356 170.722 227.006 170.943 226.012 170.999C225.017 171.056 223.747 175.304 223.857 175.691C223.968 176.078 227.117 177.734 228.606 178.065C230.097 178.396 234.071 177.401 237.22 177.016C238.295 176.883 240.404 176.728 243.351 176.467C249.652 175.865 272.912 173.07 279.85 164.191Z" fill="#FF8277"/>
<path fill-rule="evenodd" clip-rule="evenodd" d="M282.502 168.588C281.981 167.462 281.007 165.895 279.85 164.192C272.912 173.071 249.652 175.865 243.352 176.468C249.025 175.968 257.805 175.086 268.303 173.264C273.232 172.378 278.011 170.804 282.502 168.588V168.588Z" fill="#F46256"/>
<path fill-rule="evenodd" clip-rule="evenodd" d="M318.094 200.434C318.111 199.819 318.095 199.203 318.047 198.59C317.714 196.713 270.565 193.79 265.154 198.067C265.154 198.067 262.807 198.843 259.288 200.119C259.302 200.119 274.61 201.105 280.934 205.871C287.257 210.639 309.698 205.421 318.094 200.434ZM301.317 214.805C295.904 219.281 283.925 222.333 283.925 222.333C283.925 222.333 291.73 237.982 299.454 248.201C297.985 245.205 296.713 241.269 296.12 236.152C294.663 223.583 299.154 217.127 301.317 214.805ZM302.415 213.78C302.021 214.09 301.654 214.433 301.317 214.805C301.706 214.488 302.073 214.146 302.415 213.78Z" fill="#AE0909"/>
<path fill-rule="evenodd" clip-rule="evenodd" d="M302.416 213.779C302.022 214.09 301.654 214.433 301.317 214.805C301.706 214.488 302.073 214.146 302.416 213.779Z" fill="black"/>
<path fill-rule="evenodd" clip-rule="evenodd" d="M350.607 248.578L350.137 241.369C350.121 241.165 350.029 240.973 349.879 240.833C349.73 240.693 349.533 240.613 349.328 240.609H346.632C346.432 240.609 346.24 240.683 346.092 240.816C345.943 240.949 345.849 241.131 345.827 241.33C333.806 241.759 320.415 241.677 319.146 239.129C317.095 235.014 318.069 207.929 318.09 200.443C309.694 205.421 287.258 210.648 280.93 205.881C274.601 201.114 259.298 200.128 259.284 200.128C248.983 203.854 228.593 211.839 227.112 217.146C225.868 221.603 227.736 235.979 229.31 246.115C229 246.215 228.741 246.432 228.587 246.719C228.434 247.007 228.398 247.343 228.487 247.656L229.301 250.507C229.359 250.711 229.469 250.897 229.618 251.047C229.768 251.197 229.954 251.306 230.158 251.365C230.258 251.396 230.362 251.413 230.467 251.417L237.896 251.668C238.067 251.673 238.237 251.643 238.396 251.579C238.583 251.506 238.751 251.39 238.884 251.239C239.017 251.089 239.112 250.908 239.161 250.713L239.79 248.168C239.833 247.99 239.837 247.805 239.802 247.626C239.767 247.446 239.693 247.277 239.586 247.129C239.478 246.981 239.34 246.858 239.18 246.769C239.02 246.68 238.843 246.626 238.661 246.613C239.116 238.167 239.794 226.046 242.514 225.265C245.663 224.355 270.561 226.536 283.921 222.339C283.921 222.339 295.888 219.29 301.313 214.812C301.65 214.44 302.017 214.097 302.411 213.786C302.069 214.152 301.702 214.495 301.313 214.812C299.149 217.134 294.658 223.59 296.116 236.159C296.709 241.276 297.993 245.212 299.45 248.208C303.457 253.509 307.446 257.357 310.314 256.784C315.924 255.677 334.482 251.886 346.144 249.498C346.164 249.606 346.205 249.709 346.266 249.8C346.326 249.892 346.404 249.97 346.496 250.03C346.588 250.091 346.691 250.132 346.799 250.151C346.907 250.171 347.018 250.168 347.124 250.143L349.978 249.479C350.165 249.435 350.331 249.326 350.446 249.172C350.56 249.017 350.617 248.827 350.604 248.634L350.607 248.578V248.578Z" fill="#CE0606"/>
<path fill-rule="evenodd" clip-rule="evenodd" d="M238.494 256.831C238.387 255.189 238.34 253.421 238.401 251.579C238.242 251.643 238.072 251.674 237.901 251.668L230.484 251.417C230.379 251.414 230.274 251.396 230.174 251.366C230.716 254.617 231.113 256.721 231.113 256.721L238.516 256.831H238.494ZM350.088 241.154L350.607 248.579L350.138 241.37C350.131 241.296 350.115 241.223 350.088 241.154Z" fill="#FF8277"/>
<path fill-rule="evenodd" clip-rule="evenodd" d="M356.505 240.821C354.556 240.934 352.385 241.056 350.088 241.154C350.113 241.223 350.129 241.296 350.135 241.37L350.604 248.579L356.029 247.467C356.029 247.467 355.365 242.78 356.505 240.821Z" fill="#FF8277"/>
<path d="M345.979 242.653V248.201" stroke="#052D10" stroke-width="2" stroke-linecap="round"/>
<path d="M230.162 246.09L237.687 246.61M233.923 244.698C233.923 244.698 230.251 219.597 237.678 216.386C245.104 213.174 283.586 205.876 289.785 195.927" stroke="#C9D9F3" stroke-width="2" stroke-linecap="round"/>
<path fill-rule="evenodd" clip-rule="evenodd" d="M239.533 264.946C239.031 262.266 238.684 259.559 238.494 256.839L231.091 256.729C231.091 256.729 216.022 262.525 213.293 264.855C217.498 264.998 231.236 265.429 239.533 264.946H239.533Z" fill="#CE0606"/>
<path fill-rule="evenodd" clip-rule="evenodd" d="M212.871 265.394C212.622 267.153 239.702 266.595 239.702 265.994C239.702 265.877 239.637 265.511 239.533 264.938C231.236 265.429 217.498 264.997 213.293 264.847C213.098 264.979 212.95 265.171 212.871 265.394Z" fill="#4285F4"/>
<path d="M226.413 258.583L227.245 259.674M224.96 259.179L225.821 260.465M223.777 259.674L224.493 260.943" stroke="#C9D9F3" stroke-width="2" stroke-linecap="round"/>
<path fill-rule="evenodd" clip-rule="evenodd" d="M363.571 255.215C364.106 252.78 364.892 242.62 364.331 240.342C363.104 240.412 360.713 240.576 357.639 240.755L356.506 240.82C355.365 242.779 356.036 247.466 356.036 247.466C356.036 247.466 355.485 251.924 354.49 252.47C353.73 252.895 350.97 254.933 349.609 256.113C349.654 256.116 363 257.807 363.571 255.215Z" fill="#AE0909"/>
<path fill-rule="evenodd" clip-rule="evenodd" d="M348.853 256.888C348.633 257.439 361.663 258.544 363.981 256.998C366.299 255.452 366.236 240.392 365.218 240.305C365.142 240.305 364.835 240.305 364.33 240.342C364.891 242.62 364.096 252.776 363.57 255.215C363 257.796 349.654 256.116 349.604 256.114C349.316 256.333 349.063 256.594 348.853 256.888Z" fill="#4285F4"/>
<path d="M355.677 249.543L357.909 249.963M355.424 250.601L357.599 250.913M355.9 248.354L358.066 248.762" stroke="#C9D9F3" stroke-width="2" stroke-linecap="round"/>
<path fill-rule="evenodd" clip-rule="evenodd" d="M31.3963 152.563C31.7693 158.487 32.6377 162.231 32.8231 164.586C33.548 164.511 34.32 164.405 35.1506 164.265C46.0121 162.44 65.9242 157.44 70.868 155.531C71.2033 150.098 71.7245 143.381 72.2478 137.057C68.3621 138.141 55.2808 141.718 50.1513 142.187C44.0953 142.738 30.7347 142.077 31.3963 152.563ZM74.0732 105.535C74.0732 105.535 84.0387 105.535 86.9058 105.868C86.6852 100.907 86.9292 95.1988 87.0723 92.5808C79.9652 93.4889 73.0197 93.4768 68.4419 92.8671C59.746 91.7082 54.6142 92.0387 54.6142 92.0387C54.1451 92.0624 53.6759 92.0979 53.2229 92.1373C53.7713 94.0626 54.1929 96.0218 54.4851 98.0022C54.4851 98.0022 42.7694 100.461 39.6769 103.773C36.5844 107.086 28.414 103.482 24.9344 114.888C21.4548 126.294 48.842 136.001 53.9222 136.118C57.6154 136.2 67.4377 134.645 72.5222 133.791C73.3316 124.269 74.0732 116.387 74.0732 116.387C74.0732 116.387 74.8193 107.109 74.0732 105.535V105.535Z" fill="white"/>
<path fill-rule="evenodd" clip-rule="evenodd" d="M74.0732 116.383C78.7317 115.478 83.2822 114.085 87.6496 112.228C87.2413 110.603 87.0162 108.327 86.9057 105.866C84.0384 105.533 74.0732 105.533 74.0732 105.533C74.8192 107.109 74.0732 116.383 74.0732 116.383ZM53.9222 136.114C48.8422 136.004 21.4592 126.29 24.9343 114.884C28.4094 103.478 36.5867 107.081 39.6769 103.769C42.7671 100.456 54.4851 97.9979 54.4851 97.9979C54.1929 96.0176 53.7712 94.0585 53.2229 92.1333C40.9228 93.2242 32.809 100.257 27.5318 107.6C22.0647 115.217 23.5569 125.236 24.716 134.676C25.3096 139.518 24.6856 150.68 23.9113 163.184C25.1783 164.181 27.7265 165.119 32.8276 164.591C32.6424 162.245 31.7741 158.492 31.4011 152.568C30.7392 142.082 44.0998 142.744 50.156 142.192C55.2853 141.723 68.3666 138.146 72.2522 137.062C72.3438 135.957 72.4376 134.864 72.5269 133.792C67.4374 134.641 57.6153 136.196 53.9222 136.114Z" fill="#C9D9F4"/>
<path fill-rule="evenodd" clip-rule="evenodd" d="M63.6999 67.5269C63.6999 67.5269 58.7254 70.8109 54.915 70.2643C51.1043 69.7177 53.4248 74.2384 52.0451 75.3409C50.6654 76.4434 53.5353 82.1863 53.5353 82.1863C53.5353 82.1863 51.1066 86.2705 52.4322 89.4163C53.7581 92.5623 54.4738 97.9226 54.4853 97.9975C59.4436 100.069 62.3436 95.8675 61.7336 94.6898C61.1233 93.5121 59.9549 85.25 59.9549 85.25C61.2386 85.2078 64.3849 84.5462 65.0045 79.2891C65.462 75.4232 64.3311 70.0837 63.6999 67.5269Z" fill="#FF8277"/>
<path fill-rule="evenodd" clip-rule="evenodd" d="M53.5357 82.1863C53.5357 82.1863 50.6658 76.4459 52.0456 75.3409C53.4253 74.2362 51.1071 69.7107 54.9152 70.2643C58.7236 70.818 63.7001 67.5269 63.7001 67.5269C63.6697 67.4119 63.6438 67.2922 63.6156 67.1983C63.4328 66.4734 63.3085 66.0418 63.3085 66.0418C63.3085 66.0418 48.5682 62.1077 46.1232 67.7379C43.6782 73.3681 49.5605 75.2307 49.5605 75.2307C50.6799 78.5033 47.9887 93.1159 47.9887 93.1159C47.9887 93.1159 48.986 95.3375 53.6341 97.6082C53.8213 97.7001 54.0098 97.7893 54.1995 97.8758C54.2959 97.9203 54.3897 97.9575 54.4858 97.9975C54.4742 97.9226 53.7468 92.5412 52.4327 89.4163C51.1189 86.2917 53.5357 82.1863 53.5357 82.1863Z" fill="#F46256"/>
<path fill-rule="evenodd" clip-rule="evenodd" d="M66.2893 51.0957C64.2173 50.4341 61.7748 54.5325 61.6503 52.5033C61.526 50.4741 59.6279 44.6797 58.2363 48.2407C57.9078 49.0831 57.6075 49.8946 57.2978 50.6547C56.7903 53.1181 55.3361 55.2839 53.248 56.6859C49.7681 58.9616 42.3161 66.7452 46.1662 66.7852C50.0168 66.8249 51.9618 69.5156 51.4879 74.7119C51.6054 74.8151 51.7485 74.6908 51.922 74.1958C52.7081 71.9601 52.2951 70.4705 53.5365 69.6847C54.7776 68.8986 59.1207 71.4558 63.7012 67.5265C68.2813 63.5969 68.3588 51.7598 66.2893 51.0957Z" fill="#CE0606"/>
<path fill-rule="evenodd" clip-rule="evenodd" d="M46.1639 66.7857C42.3135 66.7457 49.7658 58.9621 53.2454 56.6864C55.3335 55.2844 56.7877 53.1187 57.2952 50.6553C56.2888 53.102 55.1531 54.988 52.4993 55.5253C49.0219 56.2291 49.0219 56.7687 48.5244 57.2237C48.0271 57.6787 35.8538 68.3176 39.6219 71.2991C43.3903 74.2808 49.4184 77.7503 49.7117 80.4855C49.7117 80.4855 50.6316 76.2255 50.0098 74.7359C50.0098 74.7359 46.4079 74.6936 46.5747 72.3759C46.7409 70.0583 48.6019 69.4764 50.9623 71.1326C50.9623 71.1326 51.0632 74.3513 51.4808 74.7125C51.9597 69.5162 50.0143 66.8277 46.1642 66.7857H46.1639Z" fill="#AE0909"/>
<path fill-rule="evenodd" clip-rule="evenodd" d="M42.3818 113.262C37.8552 110.614 30.3469 103.583 25.9567 111.515C25.3537 112.603 22.397 121.348 27.6133 126.73C30.783 130 36.9308 134.216 44.1932 136.745C45.7817 130.528 49.869 121.168 51.5914 117.349C47.539 115.88 44.2332 114.339 42.3818 113.262Z" fill="white"/>
<path fill-rule="evenodd" clip-rule="evenodd" d="M105.782 94.9178L105.045 87.6455C99.9862 90.1931 93.4631 91.7554 87.0713 92.5719C86.9282 95.1899 86.6842 100.898 86.9051 105.859C86.9051 105.869 105.634 101.965 105.782 94.9178Z" fill="#FF8277"/>
<path fill-rule="evenodd" clip-rule="evenodd" d="M106.371 100.733L105.783 94.918C105.635 101.956 86.9053 105.868 86.9053 105.868C87.0157 108.329 87.2408 110.605 87.6491 112.23C99.2803 107.318 106.371 100.733 106.371 100.733Z" fill="#F46256"/>
<path fill-rule="evenodd" clip-rule="evenodd" d="M28.857 202.371C28.857 196.87 32.8226 164.586 32.8226 164.586C27.726 165.123 25.1779 164.185 23.9061 163.178C23.1741 175.051 22.3057 188.132 22.226 198.172C22.0924 214.922 15.5082 241.013 12.3008 252.555C12.3008 252.555 28.857 207.872 28.857 202.371ZM62.756 210.411C63.4175 200.696 52.4856 179.278 52.4856 179.278C52.265 181.929 48.0695 187.339 48.0695 187.339C58.6286 204.53 62.5049 227.505 64.0252 242.434C64.0252 242.434 62.0919 220.125 62.756 210.411Z" fill="#AE0909"/>
<path fill-rule="evenodd" clip-rule="evenodd" d="M20.9951 256.193L12.604 253.732C12.4043 253.675 12.2189 253.577 12.0597 253.444C11.4426 255.642 10.9755 257.197 10.7433 257.936C10.6777 258.145 10.6095 258.354 10.5391 258.565L20.0774 260.233C20.0774 260.233 20.7108 258.71 21.7527 256.217C21.5019 256.273 21.2416 256.265 20.9951 256.193ZM65.9992 254.007C65.6207 254.03 65.2443 253.936 64.9201 253.739C65.0419 255.867 65.1053 257.214 65.1757 257.549C65.2554 258.163 65.2611 258.785 65.192 259.4L74.1086 258.544C74.0615 258.258 74.2024 256.301 74.4579 253.336C74.2284 253.456 73.9757 253.526 73.7169 253.54L65.9992 254.007Z" fill="#FF8277"/>
<path fill-rule="evenodd" clip-rule="evenodd" d="M71.2579 163.561C71.0539 162.301 70.54 160.884 70.8685 155.531C65.9247 157.44 46.0126 162.439 35.1511 164.264C34.3205 164.405 33.5485 164.499 32.8236 164.586C32.8236 164.586 28.858 196.87 28.858 202.371C28.858 206.92 17.5412 238.263 13.6226 248.98C13.2459 248.932 12.8651 249.026 12.5533 249.242C12.2415 249.459 12.0206 249.783 11.9332 250.152L11.5368 251.905C11.474 252.183 11.4897 252.473 11.5821 252.743C11.6745 253.012 11.8399 253.251 12.06 253.432C12.2192 253.565 12.4047 253.664 12.6044 253.721L20.9952 256.182C21.2417 256.253 21.5023 256.262 21.7531 256.205C21.9785 256.157 22.1903 256.059 22.3727 255.918C22.5551 255.777 22.7035 255.597 22.8068 255.391L23.5106 253.983C23.6375 253.728 23.691 253.443 23.6653 253.159C23.6396 252.876 23.5356 252.605 23.365 252.377C27.8538 241.695 35.7777 223.053 39.4613 215.698C44.7622 205.1 48.0753 187.327 48.0753 187.327C48.0753 187.327 52.2705 181.917 52.4914 179.266C52.4914 179.266 63.4233 200.685 62.7615 210.399C62.0999 220.113 64.0378 242.425 64.0378 242.425C64.2728 244.616 64.437 246.634 64.5754 248.433C64.2882 248.627 64.0606 248.898 63.9177 249.214C63.7748 249.53 63.7223 249.879 63.7659 250.223L64.0381 252.367C64.0996 252.838 64.3371 253.267 64.7028 253.57C65.0684 253.872 65.5351 254.025 66.0089 253.998L73.7381 253.528C73.9971 253.514 74.25 253.445 74.4797 253.324C74.7404 253.19 74.9661 252.997 75.1388 252.761C75.3115 252.524 75.4264 252.25 75.4743 251.961L75.8476 249.655C75.9033 249.292 75.8514 248.921 75.6984 248.588C75.5453 248.254 75.2979 247.973 74.9866 247.779C76.122 235.728 78.0368 217.312 78.5459 212.726C79.3179 205.885 72.0324 168.309 71.2579 163.561Z" fill="#CE0606"/>
<path d="M64.9287 248.318L74.1968 247.697M14.1143 249.271L22.1484 251.945M18.1314 249.271C18.1314 249.271 29.1879 217.256 30.07 208.535C30.9522 199.812 32.8224 164.586 32.8224 164.586" stroke="#C9D9F3" stroke-width="2" stroke-linecap="round"/>
<path opacity="0.1" fill-rule="evenodd" clip-rule="evenodd" d="M170.22 86.6086L140.801 65.1832C139.77 64.4412 138.552 64.0009 137.285 63.9119C136.018 63.8228 134.751 64.0884 133.626 64.6789C132.672 65.162 131.837 65.8501 131.181 66.694L117.858 84.9919C117.425 84.7061 116.923 84.5439 116.405 84.5228C116.22 84.551 116.422 85.8366 116.37 87.1033L115.07 88.8136C114.668 88.5619 114.349 88.1971 114.153 87.7649C114.008 87.7381 113.859 87.7381 113.714 87.7649L119.674 125.679C120.231 125.442 120.752 125.126 121.22 124.741L135.045 134.807C138.096 137.026 142.209 136.449 144.45 133.517C144.534 133.457 144.608 133.382 144.666 133.296L171.734 96.2264C172.529 95.154 172.962 93.8568 172.971 92.5222C173.046 91.3848 172.834 90.2468 172.353 89.2131C171.872 88.1795 171.139 87.2836 170.221 86.6083L170.22 86.6086Z" fill="black"/>
<path fill-rule="evenodd" clip-rule="evenodd" d="M120.591 56.5499L157.443 83.3854C157.689 83.5649 157.898 83.7912 158.057 84.0514C158.216 84.3116 158.323 84.6006 158.37 84.9018C158.417 85.2031 158.405 85.5107 158.333 85.8071C158.262 86.1036 158.132 86.383 157.953 86.6295L125.475 131.205C125.112 131.703 124.567 132.036 123.959 132.131C123.351 132.227 122.729 132.077 122.232 131.715L85.3797 104.88C85.1333 104.7 84.9246 104.474 84.7656 104.214C84.6066 103.954 84.5003 103.665 84.453 103.363C84.4056 103.062 84.4181 102.755 84.4896 102.458C84.5611 102.162 84.6903 101.883 84.8698 101.636L84.8701 101.636L117.348 57.0601C117.71 56.5626 118.255 56.2293 118.863 56.1337C119.472 56.038 120.093 56.1879 120.591 56.5502L120.591 56.5499Z" fill="#FE9696"/>
<path fill-rule="evenodd" clip-rule="evenodd" d="M117.573 66.1037L125.993 72.2346C126.09 72.3056 126.173 72.3951 126.236 72.4981C126.299 72.601 126.341 72.7153 126.359 72.8345C126.378 72.9537 126.373 73.0754 126.345 73.1926C126.317 73.3099 126.265 73.4205 126.194 73.518L120.061 81.935C119.918 82.1318 119.702 82.2637 119.462 82.3015C119.221 82.3394 118.975 82.2801 118.778 82.1367L110.359 76.0058C110.261 75.9348 110.179 75.8453 110.116 75.7423C110.053 75.6394 110.011 75.5251 109.992 75.4059C109.973 75.2867 109.978 75.165 110.006 75.0478C110.035 74.9305 110.086 74.82 110.157 74.7225L116.29 66.3055C116.433 66.1086 116.649 65.9767 116.89 65.9389C117.13 65.9011 117.376 65.9603 117.573 66.1037ZM129.486 77.751L147.605 90.9453C147.821 91.1032 147.967 91.3408 148.008 91.6058C148.05 91.8707 147.985 92.1414 147.827 92.3583L144.631 96.7437C144.473 96.9605 144.236 97.1057 143.971 97.1473C143.706 97.189 143.435 97.1237 143.218 96.9657L125.1 83.7714C124.883 83.6135 124.738 83.3759 124.696 83.111C124.655 82.846 124.72 82.5753 124.878 82.3584L128.073 77.9733C128.231 77.7565 128.469 77.6113 128.734 77.5697C128.999 77.528 129.27 77.5934 129.486 77.7513V77.751ZM107.736 79.6063L116.156 85.7372C116.253 85.8082 116.336 85.8977 116.399 86.0006C116.462 86.1036 116.504 86.2179 116.523 86.3371C116.541 86.4562 116.536 86.5779 116.508 86.6952C116.48 86.8125 116.429 86.923 116.358 87.0205L110.225 95.4375C110.081 95.6344 109.865 95.7663 109.625 95.8041C109.384 95.8419 109.138 95.7826 108.941 95.6393L100.522 89.5084C100.424 89.4374 100.342 89.3479 100.279 89.2449C100.216 89.142 100.174 89.0277 100.155 88.9085C100.136 88.7893 100.141 88.6676 100.17 88.5503C100.198 88.4331 100.249 88.3225 100.32 88.225L106.453 79.808C106.597 79.6111 106.812 79.4793 107.053 79.4415C107.294 79.4036 107.54 79.4629 107.736 79.6063ZM119.65 91.2538L137.768 104.448C137.875 104.526 137.966 104.625 138.035 104.738C138.105 104.851 138.151 104.977 138.172 105.109C138.192 105.24 138.187 105.374 138.156 105.503C138.124 105.632 138.068 105.754 137.99 105.861L134.795 110.246C134.717 110.354 134.618 110.445 134.505 110.514C134.391 110.583 134.265 110.629 134.134 110.65C134.003 110.671 133.869 110.665 133.74 110.634C133.611 110.603 133.489 110.547 133.382 110.468L115.263 97.2743C115.047 97.1163 114.901 96.8787 114.86 96.6137C114.818 96.3488 114.883 96.0781 115.041 95.8613L118.237 91.4759C118.395 91.2591 118.632 91.1139 118.897 91.0722C119.162 91.0306 119.433 91.0959 119.65 91.2538H119.65ZM97.8983 93.11L106.318 99.2409C106.514 99.3843 106.646 99.6 106.684 99.8406C106.722 100.081 106.663 100.327 106.519 100.524L100.386 108.942C100.243 109.138 100.027 109.27 99.7863 109.308C99.5457 109.346 99.2999 109.286 99.103 109.143L90.6835 103.012C90.586 102.941 90.5034 102.852 90.4405 102.749C90.3776 102.646 90.3355 102.531 90.3168 102.412C90.2981 102.293 90.303 102.171 90.3313 102.054C90.3596 101.937 90.4107 101.826 90.4818 101.729L96.6149 93.3117C96.7584 93.1149 96.9741 92.9831 97.2147 92.9453C97.4554 92.9075 97.7011 92.9669 97.898 93.1103L97.8983 93.11ZM109.812 105.138L127.972 118.362C128.189 118.52 128.334 118.758 128.376 119.023C128.417 119.288 128.352 119.558 128.194 119.775L124.99 124.173C124.832 124.39 124.594 124.535 124.329 124.577C124.064 124.618 123.793 124.553 123.577 124.395L105.417 111.171C105.309 111.093 105.218 110.995 105.149 110.881C105.08 110.768 105.034 110.642 105.013 110.511C104.992 110.379 104.998 110.245 105.029 110.116C105.06 109.987 105.116 109.865 105.194 109.758L108.399 105.36C108.557 105.143 108.795 104.998 109.06 104.956C109.325 104.915 109.596 104.98 109.812 105.138V105.138Z" fill="#AE0909"/>
<path fill-rule="evenodd" clip-rule="evenodd" d="M105.438 89.9865C105.323 89.903 105.23 89.7928 105.167 89.6652C105.104 89.5377 105.073 89.3967 105.076 89.2545L105.17 86.0851C105.174 85.9701 105.2 85.857 105.247 85.7521C105.294 85.6473 105.361 85.5527 105.445 85.4738C105.529 85.395 105.627 85.3333 105.734 85.2925C105.842 85.2516 105.956 85.2323 106.071 85.2357C106.186 85.2391 106.299 85.2651 106.404 85.3122C106.509 85.3593 106.604 85.4266 106.682 85.5103C106.761 85.5939 106.823 85.6923 106.864 85.7998C106.905 85.9072 106.924 86.0217 106.921 86.1366L106.864 88.0134L111.879 86.1882C111.988 86.1401 112.107 86.115 112.227 86.1145C112.346 86.114 112.465 86.1381 112.575 86.1853C112.685 86.2324 112.784 86.3017 112.867 86.3887C112.949 86.4758 113.012 86.5788 113.053 86.6913C113.094 86.8039 113.111 86.9237 113.104 87.0432C113.097 87.1627 113.065 87.2795 113.011 87.3863C112.957 87.4931 112.881 87.5876 112.789 87.664C112.697 87.7404 112.59 87.7971 112.475 87.8305L106.25 90.0896C105.978 90.1882 105.675 90.1459 105.44 89.9769L105.438 89.9865Z" fill="#E6EDF8"/>
<path fill-rule="evenodd" clip-rule="evenodd" d="M113.051 112.491C112.279 112.545 107.474 116.244 106.648 116.742C105.822 117.239 103.776 117.844 103.776 117.844L101.195 115.982C101.195 115.982 101.23 118.67 100.181 119.167C99.1323 119.665 83.2303 122.257 71.6907 121.762C64.8673 121.466 57.448 119.475 51.5842 117.347C50.3735 120.033 47.9942 125.457 46.1357 130.601C46.1357 130.601 54.2825 140.104 88.4396 130.601C95.9483 127.88 101.814 125.48 102.389 125.229C103.712 124.659 109.787 123.031 111.111 121.476C112.434 119.92 114.811 116.563 114.811 116.012C114.811 115.461 113.823 112.435 113.051 112.491Z" fill="#FF8277"/>
<path fill-rule="evenodd" clip-rule="evenodd" d="M46.1443 130.604C45.3582 132.776 44.6657 134.899 44.1943 136.745C48.8872 138.387 54.0491 139.309 59.1665 138.819C66.4948 138.115 78.8205 134.097 88.4479 130.608C54.2908 140.107 46.144 130.604 46.144 130.604H46.1443Z" fill="#F46256"/>
<path fill-rule="evenodd" clip-rule="evenodd" d="M74.1299 258.544L65.2134 259.401C64.9998 262.235 64.1177 266.992 64.0098 269.171C67.3254 268.923 81.2207 267.9 89.3512 267.651C84.731 265.033 74.3012 259.577 74.1299 258.544Z" fill="#CE0606"/>
<path fill-rule="evenodd" clip-rule="evenodd" d="M64.0788 270.246C64.6324 271.238 91.464 269.582 91.464 269.03C91.464 268.908 90.6286 268.395 89.3264 267.651C81.2078 267.9 67.3121 268.922 63.9965 269.171C63.9709 269.706 63.992 270.086 64.0788 270.246Z" fill="#4285F4"/>
<path d="M77.0144 260.714L75.5127 262.056M78.4694 261.582L76.8409 262.996M79.8561 262.382L78.4694 263.857" stroke="#C9D9F3" stroke-width="2" stroke-linecap="round"/>
<path fill-rule="evenodd" clip-rule="evenodd" d="M34.6242 269.46C30.9614 266.743 20.0763 260.233 20.0763 260.233L10.538 258.565C9.33432 262.131 7.44547 266.119 6.86816 267.97C11.1668 268.378 27.4604 269.873 34.6242 269.46Z" fill="#CE0606"/>
<path fill-rule="evenodd" clip-rule="evenodd" d="M35.8117 270.555C35.8117 270.403 35.366 270.008 34.6247 269.459C27.4609 269.861 11.1606 268.378 6.87345 267.97C6.78006 268.23 6.72243 268.501 6.70215 268.777C6.70215 269.957 35.8117 271.467 35.8117 270.555Z" fill="#4285F4"/>
<path d="M22.5637 261.735L20.2432 262.87M23.9856 262.603L21.7519 263.851M25.3023 263.412L23.1525 264.831" stroke="#C9D9F3" stroke-width="2" stroke-linecap="round"/>
<defs>
<linearGradient id="paint0_linear_64_3820" x1="9278.02" y1="-2395.43" x2="9575.65" y2="24400.3" gradientUnits="userSpaceOnUse">
<stop stop-color="#A61010"/>
<stop offset="0.81" stop-color="#EF4A4A"/>
<stop offset="1" stop-color="#CE0606"/>
</linearGradient>
</defs>
</svg>
