<svg width="362" height="301" viewBox="0 0 362 301" fill="none" xmlns="http://www.w3.org/2000/svg">
<path d="M31.7978 130.689V147.5M57.6525 147.5V164.315M40.0332 164.314V181.126M8.02857 147.5H83.7174M0 164.314H75.6888M20.4344 181.126H96.1232" stroke="#D4D6D8" stroke-width="2"/>
<path fill-rule="evenodd" clip-rule="evenodd" d="M296.776 41.7788H297.367V58.5896H296.776V41.7788ZM322.631 58.5931H323.222V75.4038H322.631V58.5931ZM305.011 75.4042H305.602V92.215H305.011V75.4042Z" fill="#DBDCDD"/>
<path fill-rule="evenodd" clip-rule="evenodd" d="M273.303 58.2979H348.992V58.8886H273.303V58.2979ZM265.274 75.1089H340.963V75.7001H265.274V75.1089ZM285.709 91.9232H361.398V92.514H285.709V91.9232Z" fill="#DBDCDD"/>
<path fill-rule="evenodd" clip-rule="evenodd" d="M334.228 151.466L336.677 159.656C336.7 159.737 336.766 159.801 336.848 159.821C336.889 159.831 336.932 159.831 336.973 159.82C337.013 159.809 337.051 159.787 337.08 159.757C337.11 159.728 337.132 159.691 337.143 159.65C337.154 159.609 337.154 159.566 337.143 159.525L334.594 150.996C344.85 137.485 359.844 127.655 359.844 127.655C359.844 127.655 356.787 134.902 357.933 151.099L352.27 156.237C352.222 156.28 352.193 156.34 352.19 156.405C352.187 156.469 352.209 156.532 352.252 156.58C352.295 156.628 352.356 156.656 352.42 156.66C352.484 156.663 352.547 156.641 352.595 156.597L357.968 151.708C358.012 152.299 358.06 152.872 358.116 153.48C358.754 160.412 358.323 171.76 356.208 181.395L350.267 183.419C350.218 183.436 350.176 183.468 350.146 183.511C350.117 183.554 350.102 183.605 350.104 183.657C350.106 183.709 350.125 183.759 350.157 183.8C350.19 183.84 350.235 183.869 350.285 183.882C350.33 183.896 350.379 183.896 350.424 183.882L356.083 181.956C352.681 196.874 345.154 207.339 331.156 190.102C320.608 177.117 325.632 162.985 334.228 151.466Z" fill="#ECEEF2"/>
<path fill-rule="evenodd" clip-rule="evenodd" d="M325.718 225.003L338.662 178.912L339.231 179.071L326.287 225.163L325.718 225.003Z" fill="#DBDCDD"/>
<path fill-rule="evenodd" clip-rule="evenodd" d="M334.189 106.116L328.799 115.072C328.772 115.115 328.735 115.151 328.691 115.176C328.646 115.201 328.596 115.214 328.545 115.213C328.492 115.214 328.44 115.2 328.395 115.174C328.349 115.147 328.312 115.109 328.286 115.064C328.26 115.018 328.247 114.966 328.247 114.913C328.248 114.861 328.263 114.809 328.291 114.764L333.903 105.449C325.886 86.3389 311.141 70.1509 311.141 70.1509C311.141 70.1509 312.547 79.6558 306.252 98.4701L311.386 106.276C311.409 106.308 311.426 106.345 311.434 106.384C311.443 106.423 311.444 106.463 311.437 106.502C311.429 106.541 311.414 106.578 311.392 106.612C311.37 106.645 311.342 106.673 311.309 106.695C311.275 106.717 311.238 106.732 311.199 106.739C311.16 106.746 311.119 106.745 311.081 106.736C311.042 106.728 311.005 106.711 310.973 106.688C310.941 106.665 310.913 106.635 310.893 106.601L306.013 99.1819C305.781 99.8654 305.544 100.547 305.301 101.227C302.436 109.234 299.485 122.795 299.054 134.834L305.464 139.039C305.529 139.082 305.575 139.149 305.591 139.226C305.608 139.303 305.592 139.384 305.549 139.449C305.506 139.515 305.439 139.561 305.362 139.577C305.285 139.593 305.204 139.578 305.139 139.535L299.03 135.526C298.507 154.216 304.223 168.891 326.037 152.765C342.481 140.599 340.842 122.366 334.189 106.116Z" fill="#ECEEF2"/>
<path fill-rule="evenodd" clip-rule="evenodd" d="M312.606 225.079L316.793 123.021L317.383 123.045L313.196 225.103L312.606 225.079Z" fill="#DBDCDD"/>
<path fill-rule="evenodd" clip-rule="evenodd" d="M297.432 142.502L293.944 152.343C293.927 152.392 293.897 152.435 293.858 152.469C293.82 152.502 293.773 152.525 293.722 152.535C293.671 152.548 293.617 152.548 293.565 152.535C293.529 152.522 293.495 152.502 293.466 152.476C293.437 152.45 293.413 152.419 293.397 152.383C293.38 152.348 293.37 152.31 293.368 152.271C293.366 152.232 293.372 152.194 293.385 152.157L297.022 141.905C285.339 124.789 267.649 111.884 267.649 111.884C267.649 111.884 270.933 120.916 268.535 140.611L275.131 147.229C275.158 147.256 275.18 147.289 275.195 147.325C275.21 147.361 275.218 147.4 275.218 147.439C275.218 147.478 275.211 147.516 275.196 147.552C275.181 147.588 275.159 147.621 275.131 147.649C275.103 147.676 275.07 147.698 275.034 147.712C274.998 147.727 274.96 147.735 274.921 147.734C274.882 147.734 274.843 147.726 274.807 147.711C274.771 147.696 274.739 147.673 274.711 147.646L268.446 141.355C268.358 142.058 268.26 142.77 268.151 143.5C266.946 151.917 266.774 165.792 268.762 177.681L275.887 180.514C275.923 180.528 275.956 180.55 275.984 180.577C276.012 180.604 276.034 180.636 276.049 180.672C276.065 180.708 276.073 180.746 276.073 180.785C276.074 180.824 276.067 180.862 276.052 180.898C276.038 180.934 276.017 180.967 275.99 180.995C275.963 181.023 275.93 181.045 275.895 181.061C275.859 181.076 275.821 181.084 275.782 181.085C275.743 181.085 275.704 181.078 275.668 181.064L268.874 178.363C272.106 196.776 280.646 210.009 298.788 189.836C312.467 174.623 307.206 157.088 297.432 142.501V142.502ZM283.93 213.98H342.877L329.588 283.353H295.81L283.93 213.98ZM115.211 31.0454V82.2795H33.0234V31.0454H115.211Z" fill="#ECEEF2"/>
<path d="M122.306 88.419H25.9287V24.8965H122.306V88.419ZM26.2243 88.1057H122.011V25.2215H26.2246L26.2243 88.1057Z" fill="#E0E6EF"/>
<path fill-rule="evenodd" clip-rule="evenodd" d="M290.838 171.922L291.414 171.792L303.431 224.998L302.854 225.128L290.838 171.922ZM134.479 270.462C134.479 270.462 314.783 275.278 312.908 285.234C311.032 295.191 208.41 300.808 169.021 300.808C129.632 300.808 82.8491 293.336 57.6057 292.535C32.3622 291.734 -19.5364 288.103 24.8183 278.985C69.1727 269.868 134.479 270.462 134.479 270.462V270.462Z" fill="#DBDCDD"/>
<path d="M82.7188 173.858V270.143M169.021 173.858V270.143M152.757 173.858V285.852" stroke="#CE0606" stroke-width="5" stroke-linecap="square"/>
<path fill-rule="evenodd" clip-rule="evenodd" d="M53.3457 166.232H182.061V171.772H53.3457V166.232Z" fill="#C9D8F0"/>
<path fill-rule="evenodd" clip-rule="evenodd" d="M56.959 171.89H178.447V175.749H56.959V171.89Z" fill="#4285F4"/>
<path fill-rule="evenodd" clip-rule="evenodd" d="M100.214 163.269L75.2721 120.662L72.1885 120.656L98.4509 165.514V166.232H168.616V163.269H100.214Z" fill="#1F2320"/>
<path d="M176.757 134.158H168.731L170.917 111.913L180.665 112.782C180.984 112.81 181.293 112.907 181.572 113.064C181.851 113.222 182.092 113.437 182.281 113.696C182.47 113.955 182.601 114.251 182.665 114.565C182.73 114.879 182.727 115.202 182.656 115.515L178.789 132.539C178.687 133 178.429 133.413 178.059 133.707C177.689 134.002 177.23 134.161 176.757 134.158ZM170.97 132.09H176.054C176.268 132.089 176.475 132.016 176.642 131.882C176.809 131.749 176.925 131.562 176.973 131.354L180.47 115.958C180.501 115.823 180.502 115.683 180.475 115.547C180.447 115.412 180.39 115.284 180.309 115.172C180.227 115.06 180.123 114.967 180.003 114.898C179.882 114.83 179.748 114.789 179.611 114.776L172.731 114.161L170.971 132.09L170.97 132.09Z" fill="#CE0606"/>
<path fill-rule="evenodd" clip-rule="evenodd" d="M170.448 142.909H155.173L151.387 108.374H172.864L170.448 142.909Z" fill="#DF3426"/>
<path fill-rule="evenodd" clip-rule="evenodd" d="M172.863 108.374C172.863 108.374 168.102 116.646 167.162 128.429C166.223 140.212 155.173 142.906 155.173 142.906H170.447L172.864 108.374H172.863Z" fill="#CE0606"/>
<path fill-rule="evenodd" clip-rule="evenodd" d="M217.274 146.331C217.274 146.331 195.726 131.322 191.142 125.891C186.558 120.461 183.757 116.924 181.69 116.579C179.622 116.233 171.472 114.073 173.07 116.02C173.695 116.734 174.394 117.379 175.156 117.944C175.141 117.819 175.129 117.752 175.129 117.752C175.129 117.752 182.809 120.922 183.373 122.641C183.937 124.361 182.322 129.478 182.322 129.478C182.987 130.029 183.57 130.67 184.056 131.384C185.792 133.957 205.961 180.006 217.387 175.82C228.812 171.633 217.274 146.331 217.274 146.331Z" fill="#FF8277"/>
<path fill-rule="evenodd" clip-rule="evenodd" d="M183.373 122.641C182.801 120.922 175.13 117.751 175.13 117.751C175.13 117.751 175.13 117.819 175.156 117.943C176.884 119.288 178.94 120.549 179.882 121.306C181.271 122.416 179.811 128.004 179.811 128.004C180.727 128.348 181.575 128.847 182.319 129.481C182.319 129.481 183.946 124.364 183.373 122.641Z" fill="#EA4335"/>
<path fill-rule="evenodd" clip-rule="evenodd" d="M173.761 116.759C172.941 118.465 172.39 120.288 172.128 122.162C171.333 128.16 171.971 127.95 173.605 128.683C175.238 129.416 179.985 130.403 181.184 127.64C182.383 124.878 182.044 121.572 179.775 120.6C177.681 119.466 175.671 118.182 173.761 116.759Z" fill="#FF8277"/>
<path fill-rule="evenodd" clip-rule="evenodd" d="M165.007 103.507C165.007 103.507 158.405 97.3886 164.384 93.914C170.362 90.4397 175.989 87.7272 173.626 82.5126C171.263 77.298 165.843 69.8613 171.056 66.5935C176.27 63.3257 181.48 59.9196 174.53 57.6268C167.579 55.3341 160.561 63.0483 159.796 55.4022C159.031 47.7557 145.13 51.6466 151.038 58.7374C156.946 65.8285 161.95 62.7705 158.754 66.5229C155.558 70.275 149.369 74.7956 156.807 78.4799C164.245 82.1638 168.9 82.9292 163.341 85.7094C157.782 88.4897 154.373 95.4446 165.007 103.508V103.507Z" fill="#DBDCDD"/>
<path fill-rule="evenodd" clip-rule="evenodd" d="M146.728 289.539C155.173 288.81 175.156 285.246 175.156 285.246C173.815 279.222 169.792 269.496 168.9 268.288C167.789 266.778 167.789 254.085 167.789 254.085C167.789 254.085 153.472 253.249 154.654 266.32C155.835 279.391 135.956 282.726 133.87 283.42C132.689 283.816 128.054 285.572 127.269 287.521C127.269 287.521 138.283 290.275 146.728 289.539Z" fill="#DF3426"/>
<path fill-rule="evenodd" clip-rule="evenodd" d="M175.156 285.252C175.487 286.73 175.655 287.997 175.573 288.848C176.267 284.706 175.156 285.252 175.156 285.252ZM175.156 285.252C175.156 285.252 155.173 288.816 146.729 289.545C138.284 290.275 127.269 287.527 127.269 287.527C126.678 289.005 128.259 290.573 135.123 291.77C151.109 294.55 175.573 288.848 175.573 288.848C175.655 287.991 175.487 286.73 175.156 285.252Z" fill="black"/>
<path d="M152.29 274.288L155.487 276.868M150.38 276.297L152.881 278.59M149.023 277.444L151.375 279.736" stroke="white" stroke-width="2" stroke-linecap="round"/>
<path fill-rule="evenodd" clip-rule="evenodd" d="M112.603 252.971L99.9549 248.66C99.9549 248.66 94.7413 257.143 90.3637 259.716C86.3998 262.045 68.1482 270.178 63.998 272.32C65.8118 273.014 69.2705 273.268 71.3826 273.479C74.165 273.759 101.845 272.834 101.845 272.834C102.267 270.216 101.963 266.494 102.312 264.615C102.776 262.154 112.603 252.971 112.603 252.971Z" fill="#DF3426"/>
<path fill-rule="evenodd" clip-rule="evenodd" d="M71.3876 273.479C69.2698 273.269 65.8111 273.015 64.0034 272.32C63.7213 272.453 63.4506 272.608 63.1937 272.784C62.2191 273.617 63.1228 274.522 70.7706 274.87C78.4178 275.219 101.209 274.87 101.209 274.87C101.551 274.238 101.771 273.548 101.857 272.834C101.857 272.834 74.1704 273.759 71.3876 273.479Z" fill="black"/>
<path d="M86.3878 261.77L86.8543 264.269M84.3288 262.762L84.9756 264.895M81.9541 263.888L82.7191 265.728" stroke="white" stroke-width="2" stroke-linecap="round"/>
<path fill-rule="evenodd" clip-rule="evenodd" d="M214.911 185.685C214.911 185.685 166.129 176.996 144.02 192.776C129.983 202.792 99.9543 248.666 99.9543 248.666C99.7979 248.569 99.6173 248.517 99.4329 248.517C99.2486 248.517 99.068 248.569 98.9116 248.666C98.3918 249.015 94.1146 254.176 94.4101 254.959C94.7053 255.742 107.182 261.25 108.364 260.623C109.545 259.997 113.716 254.298 113.368 253.742C113.181 253.427 112.918 253.164 112.602 252.977C112.602 252.977 132.689 231.843 146.034 227.603C159.379 223.363 214.911 185.685 214.911 185.685Z" fill="#CE0606"/>
<path d="M106.845 250.093C106.845 250.093 145.062 195.497 182.168 200.392M100.755 249.425L111.04 252.935" stroke="#052D10" stroke-width="2" stroke-linecap="round"/>
<path fill-rule="evenodd" clip-rule="evenodd" d="M208.599 186.296C190.285 184.739 173.466 185.336 166.129 186.296C153.339 187.963 144.714 195.411 141.934 208.724C139.155 222.037 152.202 257.577 152.202 257.577C151.801 257.594 151.409 257.701 151.056 257.89C150.482 258.203 150.796 267.587 153.974 268.214C157.152 268.84 170.135 265.241 170.395 264.565C170.654 263.888 170.497 255.648 170.395 254.815C170.291 253.982 167.789 254.085 167.789 254.085C167.789 254.085 166.528 227.668 166.814 221.966C167.101 216.264 177.935 220.158 184.448 223.497C190.962 226.835 220.958 234.898 240.347 233.368C257.523 232.012 266.683 222.646 271.329 215.094C256.179 213.942 232.369 198.844 226.57 193.325C220.441 187.487 208.605 186.296 208.599 186.296Z" fill="#CE0606"/>
<path fill-rule="evenodd" clip-rule="evenodd" d="M230.617 185.685C230.617 185.685 220.828 185.912 208.599 186.302C208.599 186.302 220.441 187.484 226.57 193.331C232.369 198.853 256.179 213.948 271.329 215.1C274.629 209.735 275.654 205.288 275.654 205.288L230.617 185.685Z" fill="#CE0606"/>
<path d="M248.272 196.732C248.272 196.732 234.717 211.96 211.784 208.724C188.85 205.489 156.949 195.272 154.654 210.704C152.358 226.135 158.603 253.459 158.603 253.459M153.679 257.492L166.12 254.708" stroke="#F1F1F2" stroke-width="2" stroke-linecap="round"/>
<path fill-rule="evenodd" clip-rule="evenodd" d="M277.878 115.326C270.234 94.0532 245.699 77.0913 245.699 77.0913C245.699 77.0913 238.055 84.2176 232.634 88.9092C231.497 89.8905 230.401 90.9185 229.349 91.9907C229.349 91.9907 224.709 103.924 227.421 109.972C230.132 116.02 240.973 111.641 240.973 111.641L262.657 145.426C262.657 145.426 244.101 176.709 238.261 183.176C232.421 189.644 246.887 204.154 246.892 204.154C248.812 205.148 250.807 205.988 252.859 206.668C265.924 210.837 277.878 207.362 277.878 207.362C286.358 182.201 285.522 136.598 277.878 115.326L277.878 115.326Z" fill="white"/>
<path fill-rule="evenodd" clip-rule="evenodd" d="M238.261 183.176C244.101 176.709 262.657 145.426 262.657 145.426L240.973 111.642C240.973 111.642 230.132 116.02 227.421 109.972C224.709 103.924 229.35 91.9907 229.35 91.9907C223.909 97.5484 216.69 107.39 212.129 125.058C206.57 146.608 212.965 186.928 212.965 186.928C222.668 187.165 235.293 198.283 246.892 204.159C246.887 204.154 232.425 189.638 238.261 183.176Z" fill="#C9D9F4"/>
<path fill-rule="evenodd" clip-rule="evenodd" d="M224.154 59.6065C225.161 57.4141 225.282 53.0383 225.282 53.0383L227.099 50.01C226.086 47.6463 225.073 45.6019 223.805 44.1394C221.46 41.4272 217.558 40.532 213.668 40.8893C215.709 46.0805 219.011 57.6298 219.011 57.6298C219.011 57.6298 215.741 51.1003 213.972 50.9556C209.952 50.6245 204.127 54.4564 200.089 55.1685C200.126 55.7639 200.202 56.3561 200.316 56.9415C201.203 61.3553 205.287 69.3179 207.476 72.0981C209.665 74.8784 214.775 79.5704 218.979 78.666C223.182 77.7619 224.886 73.8708 224.886 73.8708L229.648 93.1964C232.829 92.171 238.719 85.5999 242.414 81.1773C240.5 76.9431 238.312 72.8377 235.866 68.8868C231.591 61.89 224.154 59.6065 224.154 59.6065ZM245.699 77.0913L242.411 81.1624C244.361 78.8285 245.699 77.0913 245.699 77.0913Z" fill="#FF8277"/>
<path fill-rule="evenodd" clip-rule="evenodd" d="M245.699 77.0914C245.699 77.0914 243.614 74.5946 236.456 66.9985C231.545 61.79 229.317 55.1629 227.099 50.0104L225.282 53.0266C225.282 53.0266 225.162 57.4024 224.154 59.5944C224.154 59.5944 231.592 61.89 235.866 68.8748C238.311 72.822 240.497 76.9237 242.412 81.1539L245.699 77.0914ZM213.972 50.9584C215.745 51.1032 219.011 57.6327 219.011 57.6327C219.011 57.6327 215.709 46.0838 213.668 40.8926C210.919 41.1355 208.257 41.9851 205.876 43.3801C201.271 46.1689 199.808 51.044 200.086 55.1718C204.127 54.4536 209.952 50.6217 213.972 50.9584Z" fill="#F36357"/>
<path fill-rule="evenodd" clip-rule="evenodd" d="M229.609 52.7754C230.132 51.1592 231.018 46.7809 229.819 45.5813C229.819 45.5813 237.481 38.7502 234.25 34.8917C231.018 31.0332 222.875 35.778 222.875 35.778C222.875 35.778 223.823 28.2707 218.612 27.7505C217.131 27.577 215.63 27.7504 214.227 28.2571C212.825 28.7637 211.559 29.5898 210.531 30.6699C210.531 30.6699 210.637 21.5964 204.744 19.0939C198.851 16.5915 198.246 23.9956 198.246 23.9956C198.246 23.9956 196.107 20.2432 194.11 21.2863C194.11 21.2863 190.515 9.45029 181.081 16.5411C171.647 23.6319 173.626 31.7953 177.274 36.9425C178.515 38.689 179.83 40.3824 181.214 42.018C181.214 42.018 191.036 49.75 195.833 49.2568C200.63 48.7636 212.285 45.5987 215.664 50.9261C216.421 51.916 219.011 57.627 219.011 57.627C219.011 57.627 218.937 48.0245 222.337 47.5636C225.737 47.1027 225.291 53.0383 225.291 53.0383L231.343 59.6065C231.343 59.6065 229.09 54.3915 229.609 52.7754Z" fill="#E84949"/>
<path fill-rule="evenodd" clip-rule="evenodd" d="M195.833 49.2568C191.036 49.75 181.214 42.0181 181.214 42.0181C186.33 48.0306 194.423 55.4081 201.722 52.619C211.417 48.9198 214.911 49.9363 215.665 50.9262C212.285 45.5991 200.626 48.7633 195.833 49.2568Z" fill="#CE0606"/>
<path fill-rule="evenodd" clip-rule="evenodd" d="M262.657 145.843C266.725 138.022 265.369 125.823 263.18 120.192C260.991 114.56 250.461 107.573 240.973 111.641C231.486 115.71 218.456 140.525 218.456 140.525C218.287 140.863 218.111 141.199 217.93 141.532C222.337 146.664 232.212 159.049 236.368 171.373C248.514 162.731 260.105 150.753 262.657 145.843Z" fill="white"/>
<path fill-rule="evenodd" clip-rule="evenodd" d="M166.129 166.805C163.568 165.373 161.273 164.17 158.603 163.624C158.603 163.624 161.683 164.977 166.129 166.805Z" fill="black"/>
<path fill-rule="evenodd" clip-rule="evenodd" d="M158.603 163.623C161.261 164.17 163.568 165.373 166.129 166.805C175.17 170.528 189.857 176.222 195.726 176.502C204.484 176.919 221.291 179.53 234.421 166.457C229.668 155.879 221.752 145.994 217.936 141.547C207.394 161.109 185.323 158.84 173.891 158.683C162.268 158.527 162.841 154.355 156.065 153.416C149.289 152.476 134.484 163.322 134.484 163.322C134.484 163.322 149.186 163.425 155.179 163.322C156.33 163.3 157.48 163.405 158.608 163.635L158.602 163.623H158.603Z" fill="#FF8176"/>
<path fill-rule="evenodd" clip-rule="evenodd" d="M195.726 176.502C189.857 176.221 175.17 170.528 166.129 166.805C167.537 167.594 169.029 168.454 170.707 169.308C176.65 172.33 200.313 182.76 215.954 181.09C221.773 180.47 229.169 176.511 236.368 171.382C235.813 169.73 235.151 168.079 234.415 166.442C221.291 179.531 204.484 176.919 195.726 176.502V176.502Z" fill="#EA4335"/>
<path d="M220.645 139.275C220.645 139.275 236.453 155.623 239.723 166.233" stroke="#CE0606" stroke-width="2" stroke-linecap="round"/>
<path d="M66.4551 176.346V285.852" stroke="#CE0606" stroke-width="5" stroke-linecap="square"/>
<path fill-rule="evenodd" clip-rule="evenodd" d="M290.991 175.64H290.843C290.611 175.621 290.385 175.556 290.178 175.449C289.971 175.342 289.787 175.196 289.637 175.018C289.486 174.84 289.372 174.634 289.302 174.413C289.231 174.191 289.204 173.957 289.224 173.725C289.224 173.699 289.451 170.913 289.451 168.174C289.447 167.938 289.489 167.704 289.576 167.485C289.663 167.265 289.793 167.066 289.958 166.898C290.123 166.729 290.32 166.595 290.537 166.504C290.755 166.413 290.988 166.366 291.224 166.366C291.46 166.366 291.693 166.413 291.91 166.504C292.128 166.595 292.325 166.729 292.49 166.898C292.655 167.066 292.784 167.265 292.871 167.485C292.958 167.704 293.001 167.938 292.996 168.174C292.996 171.063 292.766 173.897 292.754 174.017C292.716 174.459 292.514 174.871 292.188 175.172C291.861 175.472 291.434 175.639 290.991 175.64Z" fill="black"/>
<path d="M291.72 182.627C291.776 182.318 291.75 181.999 291.642 181.703C291.534 181.407 291.35 181.145 291.108 180.944C290.865 180.743 290.574 180.61 290.263 180.559C289.952 180.508 289.634 180.541 289.34 180.654C289.046 180.767 288.788 180.956 288.591 181.202C288.395 181.449 288.268 181.743 288.223 182.054C284.737 203.38 276.384 218.741 263.411 227.713C245.924 239.795 223.599 236.282 223.404 237.253C223.333 237.596 226.556 238.338 231.491 238.613L207.657 282.34C207.328 282.943 207.162 283.622 207.174 284.309C207.186 284.996 207.376 285.668 207.726 286.259C208.076 286.85 208.573 287.341 209.17 287.682C209.766 288.024 210.441 288.205 211.128 288.207H285.564C286.248 288.206 286.92 288.029 287.515 287.692C288.11 287.356 288.608 286.871 288.961 286.285C289.314 285.7 289.51 285.033 289.529 284.349C289.549 283.666 289.392 282.989 289.073 282.384L262.642 232.367C263.573 231.838 264.486 231.271 265.372 230.656C279.181 221.09 288.069 204.964 291.72 182.627ZM286.967 283.498C287.099 283.743 287.164 284.017 287.158 284.295C287.151 284.573 287.072 284.844 286.929 285.082C286.787 285.321 286.584 285.518 286.342 285.654C286.1 285.791 285.827 285.862 285.549 285.862H211.113C210.836 285.861 210.564 285.789 210.323 285.652C210.082 285.514 209.881 285.317 209.739 285.079C209.597 284.841 209.519 284.57 209.513 284.293C209.507 284.016 209.573 283.742 209.704 283.498L234.102 238.728C241.564 238.852 251.71 237.842 260.542 233.495L286.967 283.498Z" fill="black"/>
<path opacity="0.3" fill-rule="evenodd" clip-rule="evenodd" d="M13.6816 282.407C13.6816 284.263 21.5537 285.737 32.2909 285.699C43.0281 285.66 51.7123 284.121 51.7059 282.265C51.7002 280.41 42.9954 278.938 32.2671 278.977C21.5388 279.015 13.6756 280.552 13.6816 282.407Z" fill="#1F2320"/>
<path fill-rule="evenodd" clip-rule="evenodd" d="M27.326 279.904C24.9953 280.052 23.229 277.541 22.7681 275.343C22.337 273.274 22.3282 270.87 23.9025 269.259C25.3263 267.803 26.7292 266.305 28.8414 265.838C30.2293 265.504 31.6817 265.552 33.0448 265.976C35.1122 266.671 36.728 268.016 37.0913 270.214C37.3869 271.915 36.9703 273.585 36.3175 275.16C35.7711 276.477 34.6723 277.674 34.2497 279C35.2219 278.87 36.6127 278.959 36.9881 280.058C37.874 282.549 31.5056 282.179 30.5129 281.786C28.5341 281 31.154 278.123 31.6149 276.731C31.5294 277.618 29.7184 278.921 29.0067 279.343C28.5003 279.663 27.9235 279.856 27.326 279.904ZM18.3905 269.389C18.8897 269.768 19.9918 271.035 20.0297 271.927C20.0801 273.186 18.7776 272.997 18.1989 272.751C15.9388 271.788 13.5524 268.414 12.7668 265.956C12.5983 265.433 12.5362 264.709 12.985 264.455C13.4342 264.201 13.9097 264.65 14.2318 265.046C14.923 265.932 15.5609 266.86 16.24 267.753C16.9195 268.645 17.534 268.739 18.3905 269.389ZM41.4661 262.384C41.5782 261.456 41.8912 260.611 42.5649 260.062C44.1275 258.788 46.0768 259.128 46.7978 261.052C47.9495 264.115 46.6676 267.348 46.5526 270.541C46.4873 272.335 46.5228 274.087 46.5526 275.86C46.537 276.517 46.5558 277.175 46.6087 277.83C46.678 278.234 46.8137 278.623 47.0103 278.983C47.347 279.665 48.6495 280.46 47.7164 281.225C46.3074 282.407 43.6077 280.693 43.1968 279.399C42.5174 277.242 41.8528 267.339 41.6549 266.042C41.5044 265.034 41.3125 263.634 41.4661 262.384Z" fill="#CE0606"/>
<path fill-rule="evenodd" clip-rule="evenodd" d="M18.0157 269.271C18.6892 268.045 23.5631 265.608 24.3164 265.298C25.6338 264.754 26.0354 264.175 27.146 263.291C27.739 262.773 28.2685 262.186 28.7235 261.542C30.534 259.22 30.7409 256.481 33.6269 254.915C35.6323 253.828 38.0307 253.586 40.2788 253.982C41.7204 254.239 43.1999 254.806 44.0685 255.988C45.1879 257.509 44.8068 259.607 45.7226 261.214C47.1464 263.705 47.2823 266.772 45.5629 269.783C43.3802 273.594 39.0292 274.755 35.0858 275.709C33.3874 276.12 32.7523 275.736 31.1663 276.519C29.6892 277.249 28.3396 278.882 26.8064 279.491C24.0918 280.563 21.3711 279.913 19.1117 277.813C17.1326 275.957 16.7665 271.549 18.0157 269.271Z" fill="#DF3426"/>
<path fill-rule="evenodd" clip-rule="evenodd" d="M25.8488 276.658C26.4222 275.18 27.565 274.56 28.9477 273.998C31.0151 273.163 33.458 273.449 35.369 272.184C37.2803 270.92 38.949 269.274 40.4704 267.614C41.1348 266.831 41.9506 266.191 42.8689 265.732C43.9028 265.212 44.7799 265.498 45.7105 265.141C46.1682 264.958 46.4843 264.571 46.7799 264.349C46.9805 266.243 46.5584 268.15 45.5775 269.782C43.3947 273.594 39.0437 274.755 35.1 275.709C33.4019 276.12 32.7668 275.736 31.1805 276.519C29.7038 277.248 28.3537 278.882 26.8206 279.491C26.6964 279.538 26.5726 279.586 26.4456 279.627C26.0669 279.244 25.8085 278.759 25.7024 278.232C25.5964 277.704 25.6473 277.157 25.8488 276.658Z" fill="#DF3426"/>
<path fill-rule="evenodd" clip-rule="evenodd" d="M35.2006 264.249C36.1043 261.055 40.0064 258.966 41.1524 262.124C42.1626 264.899 41.3653 268.397 40.8572 271.561C40.6 273.183 40.0359 279.739 40.5617 280.983C40.7419 281.411 41.5512 281.713 41.1762 282.41C40.1508 284.324 37.3007 282.732 36.6627 281.872C35.4812 280.286 35.6054 277.736 35.4812 275.591C35.301 271.797 34.0308 268.376 35.2006 264.249Z" fill="#CE0606"/>
<path fill-rule="evenodd" clip-rule="evenodd" d="M33.5293 252.959C32.8704 253.677 32.3978 255.152 32.5606 256.103C32.7699 257.025 33.1904 257.887 33.789 258.62C34.9705 260.168 36.7133 261.232 38.5008 261.87C41.1175 262.816 43.8914 263.643 46.594 262.517C47.944 261.962 49.1283 261.335 49.7723 259.893C51.4559 256.132 48.198 254.185 45.3621 252.711C42.689 251.326 38.4593 249.63 35.5729 251.497C34.9414 251.901 34.0285 252.401 33.5293 252.959V252.959Z" fill="black"/>
<path fill-rule="evenodd" clip-rule="evenodd" d="M59.2982 234.352C59.9479 235.749 59.889 237.156 58.2022 237.992C55.5437 239.307 46.263 238.287 45.4182 238.175C44.3548 238.03 43.2411 237.85 43.3741 236.441C43.5246 234.845 45.4033 233.132 46.5404 232.03C51.3729 227.344 56.805 229.007 59.2982 234.352Z" fill="#CE0606"/>
<path fill-rule="evenodd" clip-rule="evenodd" d="M59.5699 253.609C59.5904 251.573 57.4073 249.354 56.1875 247.854C54.9056 246.276 54.2112 245.537 53.6471 243.631C53.166 242.004 52.7611 239.876 51.68 238.532C49.5061 235.855 46.7677 235.38 43.6043 235.255C39.3714 235.09 35.2539 235.87 31.9336 238.641C29.9666 240.284 28.921 242.036 29.1984 244.663C29.361 246.182 29.6656 247.682 30.1081 249.145C30.9944 252.058 37.8415 261.769 47.3972 262.068C50.3509 262.159 52.9414 262.133 56.1818 260.271C58.0956 259.173 59.5401 256.239 59.5699 253.609Z" fill="#CE0606"/>
<path fill-rule="evenodd" clip-rule="evenodd" d="M40.3227 239.93C37.7579 239.758 35.1822 240.009 32.6986 240.672C31.6478 240.923 30.6106 241.229 29.5912 241.587C29.2007 242.562 29.0664 243.621 29.2013 244.663C29.364 246.182 29.6687 247.683 30.1114 249.145C30.6606 250.974 33.57 255.483 38.0214 258.659C38.6992 258.355 39.3229 257.943 39.8678 257.438C41.711 255.722 42.7212 253.225 44.8245 251.737C46.3012 250.702 47.648 249.65 47.8815 247.945C48.0142 246.965 47.6509 245.981 47.152 245.112C45.7782 242.707 43.2055 240.163 40.3227 239.93Z" fill="#DF3426"/>
<path fill-rule="evenodd" clip-rule="evenodd" d="M41.0672 247.866C41.5309 249.476 42.6355 250.566 43.5335 250.306C44.4315 250.046 44.7888 248.534 44.325 246.92C43.8613 245.307 42.7568 244.22 41.8556 244.48C40.9547 244.74 40.618 246.253 41.0672 247.866ZM50.9298 246.126C51.5503 247.603 52.6314 248.566 53.346 248.265C54.0609 247.963 54.1347 246.513 53.5145 245.015C52.8943 243.517 51.8132 242.574 51.0983 242.879C50.3834 243.183 50.3096 244.642 50.9298 246.125V246.126Z" fill="#080B09"/>
<path fill-rule="evenodd" clip-rule="evenodd" d="M23.1904 245.295C23.6098 246.932 24.5578 248.096 26.3599 247.633C29.1866 246.906 35.4131 239.626 35.9656 238.943C36.6628 238.086 37.3688 237.17 36.3615 236.057C35.2184 234.807 32.7134 234.65 31.1565 234.5C24.5461 233.861 21.5924 239.032 23.1904 245.295Z" fill="#CE0606"/>
<path fill-rule="evenodd" clip-rule="evenodd" d="M52.8617 252.599C53.3917 252.141 54.0395 251.841 54.7315 251.733C55.5114 251.556 56.288 251.544 56.7993 251.733C59.1829 252.699 57.6587 255.214 55.6178 255.837C53.479 256.132 51.0777 254.472 52.8617 252.599ZM57.5256 257.82C57.4873 257.794 57.4442 257.777 57.3989 257.769C57.2215 257.74 57.1034 257.861 56.9554 257.938C56.5827 258.141 56.1714 258.264 55.7481 258.299C55.3247 258.334 54.8989 258.279 54.498 258.138V258.115H54.4448V258.136C53.9065 258.474 53.2814 258.647 52.646 258.635C52.1556 258.635 51.1841 258.339 50.8914 258.026C50.8282 257.969 50.7477 257.935 50.6626 257.928C50.5776 257.922 50.4928 257.944 50.4217 257.991C50.3868 258.006 50.3558 258.028 50.3311 258.057C50.3064 258.085 50.2886 258.119 50.2792 258.156C50.2698 258.193 50.269 258.231 50.2768 258.268C50.2847 258.305 50.301 258.339 50.3245 258.369C50.7761 258.874 51.9903 259.155 52.5427 259.173C53.2239 259.196 53.8998 259.039 54.5012 258.718C54.9518 258.835 55.4205 258.868 55.8836 258.815C56.0832 258.789 56.2807 258.749 56.4743 258.694C56.8203 258.612 57.1485 258.468 57.4429 258.268C57.6054 258.147 57.6704 257.926 57.5256 257.82Z" fill="#080B09"/>
<path fill-rule="evenodd" clip-rule="evenodd" d="M54.649 258.715C54.6036 258.721 54.5572 258.717 54.5136 258.703C54.47 258.689 54.4304 258.664 54.3978 258.632C54.3274 258.564 54.2823 258.473 54.27 258.376C54.2577 258.279 54.2789 258.18 54.33 258.097C54.33 258.079 54.8559 257.24 55.0035 255.4C55.0029 255.354 55.0118 255.31 55.0296 255.268C55.0474 255.227 55.0737 255.19 55.1068 255.159C55.1399 255.128 55.1791 255.105 55.2218 255.09C55.2645 255.076 55.3098 255.07 55.3547 255.075C55.5485 255.122 55.6755 255.308 55.6503 255.506C55.4849 257.574 54.8793 258.537 54.8555 258.575C54.8324 258.612 54.8022 258.642 54.7667 258.666C54.7312 258.69 54.6911 258.707 54.649 258.715Z" fill="#080B09"/>
<path fill-rule="evenodd" clip-rule="evenodd" d="M48.8025 280.212C48.6429 281.586 47.1601 282.38 45.4855 281.984C43.8108 281.589 42.5877 280.162 42.7474 278.785C42.9071 277.408 44.3926 276.616 46.0645 277.012C47.7363 277.408 48.9622 278.835 48.8025 280.212Z" fill="#CE0606"/>
<path fill-rule="evenodd" clip-rule="evenodd" d="M42.7416 281.116C42.8391 282.54 41.3858 283.66 39.4922 283.615C37.599 283.571 35.9949 282.377 35.8945 280.956C35.7941 279.535 37.2534 278.412 39.1438 278.46C41.0342 278.507 42.644 279.689 42.7416 281.116ZM21.6245 281.411C19.297 281.556 16.7981 279.514 16.3344 277.31C15.9061 275.242 16.609 270.651 18.1836 269.038C19.6043 267.584 21.1136 268.231 23.2254 267.776C24.6148 267.445 26.0676 267.493 27.432 267.915C29.4995 268.609 31.1124 269.953 31.4757 272.151C31.756 273.856 31.3548 275.523 30.7019 277.097C30.1583 278.415 29.0567 279.612 28.6341 280.939C29.6059 280.808 30.9971 280.9 31.3753 281.996C32.2613 284.487 25.89 284.118 24.9005 283.725C22.9213 282.939 26.6521 278.702 23.648 280.82C23.1371 281.184 22.1624 281.37 21.6245 281.411V281.411Z" fill="#CE0606"/>
<path d="M103.747 102.941C97.6125 105.051 90.9283 101.788 88.8179 95.6519C86.7075 89.5158 89.9696 82.8299 96.1042 80.7188C102.239 78.6073 108.923 81.8698 111.034 88.0054C113.137 94.1422 109.877 100.823 103.747 102.941ZM96.5133 81.9106C94.5517 82.5857 92.8344 83.8274 91.5785 85.4786C90.3227 87.1298 89.5847 89.1163 89.458 91.187C89.331 93.2576 89.8209 95.3195 90.8657 97.1117C91.9106 98.9039 93.4634 100.346 95.3279 101.256C97.1922 102.165 99.2843 102.501 101.34 102.221C103.395 101.941 105.321 101.058 106.874 99.6828C108.427 98.3076 109.538 96.5027 110.066 94.4963C110.593 92.4899 110.514 90.372 109.838 88.4106C107.946 82.9409 101.987 80.0336 96.5133 81.9106Z" fill="#CE0606"/>
<path d="M106.488 90.5135L107.915 94.6498C107.95 94.7527 107.896 94.8649 107.794 94.901L105.652 95.6366C105.603 95.6536 105.548 95.6504 105.501 95.6278C105.454 95.6051 105.418 95.5648 105.401 95.5156L104.074 91.657C103.723 90.6405 103.124 90.0732 102.214 90.3868C101.931 90.486 101.686 90.6701 101.512 90.9138C101.338 91.1576 101.244 91.4491 101.242 91.7486C101.244 91.9686 101.287 92.1857 101.369 92.3897L102.757 96.4256C102.765 96.4501 102.769 96.476 102.767 96.5017C102.765 96.5275 102.758 96.5527 102.747 96.5758C102.735 96.5989 102.719 96.6195 102.7 96.6363C102.68 96.6532 102.657 96.666 102.633 96.674L100.494 97.4124C100.445 97.4293 100.391 97.4261 100.344 97.4034C100.297 97.3808 100.261 97.3405 100.244 97.2914C99.8948 96.26 98.2024 91.2668 97.777 90.103C97.7681 90.0786 97.7643 90.0526 97.7656 90.0267C97.7669 90.0008 97.7734 89.9754 97.7847 89.952C97.7959 89.9286 97.8118 89.9077 97.8312 89.8905C97.8507 89.8733 97.8734 89.8601 97.898 89.8518L100.034 89.1159C100.137 89.0804 100.249 89.1347 100.285 89.2373L100.58 90.1236V90.153H100.598V90.1296C100.689 89.656 100.909 89.2165 101.232 88.8587C101.555 88.5008 101.97 88.2384 102.432 88.0998C104.086 87.5324 105.696 88.1853 106.497 90.5078L106.488 90.5135ZM96.5923 98.7656L98.731 98.0297C98.7801 98.0129 98.8206 97.9775 98.8438 97.9311C98.867 97.8847 98.8711 97.8311 98.8552 97.7817L96.3829 90.5933C96.3746 90.5687 96.3615 90.5459 96.3444 90.5263C96.3272 90.5067 96.3064 90.4907 96.2831 90.4792C96.2598 90.4676 96.2344 90.4608 96.2084 90.4591C96.1824 90.4574 96.1564 90.4608 96.1317 90.4692L93.9901 91.2079C93.9659 91.2162 93.9435 91.2292 93.9242 91.2462C93.905 91.2632 93.8893 91.2839 93.8781 91.3069C93.8669 91.33 93.8603 91.3551 93.8588 91.3807C93.8572 91.4063 93.8607 91.432 93.8691 91.4562L96.3414 98.6446C96.35 98.67 96.3637 98.6934 96.3816 98.7133C96.3995 98.7333 96.4213 98.7494 96.4456 98.7606C96.4699 98.7719 96.4963 98.7781 96.5231 98.7789C96.5499 98.7797 96.5766 98.7751 96.6015 98.7652H96.5926L96.5923 98.7656Z" fill="#CE0606"/>
<path d="M94.2031 89.9822C94.9895 89.9822 95.627 89.3445 95.627 88.558C95.627 87.7714 94.9895 87.1338 94.2031 87.1338C93.4168 87.1338 92.7793 87.7714 92.7793 88.558C92.7793 89.3445 93.4168 89.9822 94.2031 89.9822Z" fill="#CE0606"/>
<path d="M118.348 134.938C123.446 134.938 127.578 130.805 127.578 125.705C127.578 120.606 123.446 116.473 118.348 116.473C113.25 116.473 109.117 120.606 109.117 125.705C109.117 130.805 113.25 134.938 118.348 134.938Z" fill="#CE0606"/>
<path fill-rule="evenodd" clip-rule="evenodd" d="M114.652 120.242H114.915L124.692 124.083H124.778L124.793 124.098V124.133L118.031 127.088C117.927 127.13 117.81 127.13 117.706 127.088C117.601 127.046 117.516 126.964 117.47 126.86L114.516 120.097L114.652 120.242V120.242ZM114.115 121.164L115.639 124.65L112.153 126.175L114.115 121.164Z" fill="white"/>
<path fill-rule="evenodd" clip-rule="evenodd" d="M121.91 131.218L112.141 127.392C112.049 127.357 111.973 127.29 111.926 127.203L115.978 125.43L116.817 127.351C116.954 127.66 117.207 127.903 117.522 128.026C117.837 128.15 118.187 128.144 118.498 128.01L120.427 127.165L122.199 131.227C122.105 131.257 122.002 131.254 121.91 131.218ZM122.728 130.302L121.206 126.825L124.683 125.303L122.728 130.302Z" fill="white"/>
<path d="M332.482 119.66C337.58 119.66 341.712 115.526 341.712 110.427C341.712 105.328 337.58 101.194 332.482 101.194C327.384 101.194 323.251 105.328 323.251 110.427C323.251 115.526 327.384 119.66 332.482 119.66Z" fill="#CE0606"/>
<path fill-rule="evenodd" clip-rule="evenodd" d="M326.875 106.959H327.065L337.554 106.448H337.764L332.807 111.916C332.73 111.999 332.624 112.049 332.511 112.055C332.403 112.056 332.297 112.016 332.216 111.943L326.751 106.985L326.875 106.959ZM326.76 108.019L329.578 110.575L327.024 113.394L326.76 108.019Z" fill="white"/>
<path fill-rule="evenodd" clip-rule="evenodd" d="M337.991 113.999L327.511 114.51C327.412 114.515 327.315 114.484 327.236 114.425L330.211 111.148L331.761 112.555C331.885 112.668 332.03 112.755 332.188 112.811C332.345 112.867 332.513 112.892 332.68 112.883C332.848 112.876 333.013 112.836 333.165 112.764C333.318 112.693 333.454 112.591 333.566 112.466L334.981 110.909L338.26 113.89C338.186 113.957 338.09 113.996 337.991 113.999ZM338.36 112.827L335.548 110.277L338.1 107.467L338.36 112.827Z" fill="white"/>
<path fill-rule="evenodd" clip-rule="evenodd" d="M137.184 103.581C131.801 103.581 127.437 99.2162 127.437 93.8313C127.437 88.4467 131.801 84.0815 137.184 84.0815C142.568 84.0815 146.932 88.4467 146.932 93.8316C146.932 99.2162 142.568 103.582 137.184 103.582V103.581Z" fill="#DF3426"/>
<path fill-rule="evenodd" clip-rule="evenodd" d="M137.643 87.4854C136.585 87.4852 135.547 87.7702 134.637 88.3103C133.728 88.8504 132.981 89.6257 132.475 90.5544C131.969 91.4833 131.723 92.5314 131.762 93.5884C131.801 94.6455 132.124 95.6724 132.698 96.5613L131.812 98.5323C131.771 98.6214 131.757 98.7202 131.77 98.8171C131.784 98.9141 131.825 99.0052 131.888 99.0797C131.952 99.1541 132.035 99.2089 132.129 99.2376C132.223 99.2663 132.323 99.2676 132.417 99.2415L134.88 98.5649C135.936 99.1275 137.138 99.3551 138.326 99.2172C139.514 99.0793 140.632 98.5826 141.53 97.7932C142.429 97.0038 143.066 95.9592 143.356 94.7988C143.646 93.6383 143.576 92.4169 143.154 91.2974C142.733 90.178 141.981 89.2136 140.998 88.5325C140.015 87.8515 138.847 87.4862 137.651 87.4854H137.643ZM137.643 98.231C136.783 98.2301 135.939 98.0016 135.196 97.569C135.119 97.5228 135.03 97.498 134.94 97.498C134.893 97.498 134.846 97.5044 134.801 97.5157L133.194 97.9593L133.752 96.7242C133.79 96.6417 133.806 96.5506 133.797 96.4601C133.788 96.3697 133.755 96.2833 133.702 96.2097C133.104 95.3842 132.783 94.3902 132.786 93.3709C132.786 92.4095 133.071 91.4696 133.604 90.6701C134.138 89.8706 134.898 89.2475 135.786 88.8796C136.674 88.5118 137.651 88.4158 138.594 88.6037C139.537 88.7916 140.403 89.255 141.082 89.9353C141.761 90.6154 142.224 91.4815 142.411 92.4243C142.598 93.367 142.501 94.344 142.133 95.2317C141.765 96.1195 141.142 96.8782 140.342 97.412C139.543 97.9458 138.604 98.2307 137.643 98.2307V98.231Z" fill="white"/>
<path fill-rule="evenodd" clip-rule="evenodd" d="M139.905 94.2543C139.786 94.1592 139.647 94.0922 139.499 94.0584C139.35 94.0246 139.196 94.0248 139.048 94.0592C138.827 94.1511 138.682 94.4999 138.54 94.6769C138.509 94.7186 138.464 94.7478 138.413 94.7592C138.362 94.7706 138.308 94.7634 138.262 94.739C137.448 94.4191 136.766 93.8341 136.325 93.0785C136.287 93.0309 136.269 92.9706 136.274 92.9101C136.28 92.8496 136.309 92.7935 136.354 92.7535C136.518 92.5956 136.639 92.3984 136.706 92.1805C136.719 91.9447 136.665 91.71 136.549 91.5039C136.431 91.2527 136.301 90.8922 136.05 90.7503C135.928 90.6947 135.793 90.6757 135.661 90.6957C135.529 90.7157 135.405 90.7737 135.305 90.8627C135.136 91.0083 135.001 91.19 134.911 91.3944C134.82 91.5988 134.776 91.8208 134.783 92.0442C134.785 92.1727 134.801 92.3008 134.83 92.4257C134.91 92.7212 135.033 93.004 135.193 93.2648C135.311 93.4617 135.439 93.6536 135.574 93.841C136.019 94.4534 136.579 94.9732 137.222 95.3713C137.545 95.5741 137.89 95.7387 138.251 95.8616C138.625 96.0314 139.038 96.0968 139.447 96.0507C139.679 96.0146 139.9 95.9223 140.089 95.7818C140.278 95.6412 140.43 95.4567 140.531 95.2442C140.589 95.1144 140.606 94.9703 140.581 94.8305C140.519 94.5588 140.135 94.3906 139.905 94.2543Z" fill="white"/>
<path d="M250.824 25.9532C257.293 24.5594 261.406 18.1846 260.012 11.7148C258.618 5.24491 252.244 1.12993 245.776 2.52371C239.308 3.91748 235.194 10.2922 236.588 16.7621C237.982 23.232 244.356 27.3469 250.824 25.9532Z" fill="#CE0606"/>
<path fill-rule="evenodd" clip-rule="evenodd" d="M254.306 16.6685C253.198 16.1839 252.602 13.3447 252.386 12.0536L252.289 11.4124C252.129 10.3518 251.584 9.38695 250.759 8.70159C249.934 8.01622 248.886 7.65814 247.814 7.69548C247.851 7.60166 247.862 7.49959 247.846 7.39993C247.799 7.27286 247.709 7.16603 247.592 7.09737C247.475 7.02871 247.338 7.00241 247.204 7.02288C247.07 7.04336 246.947 7.10937 246.855 7.20982C246.764 7.31027 246.71 7.43904 246.703 7.57449C246.718 7.67171 246.758 7.76325 246.818 7.8406C245.783 8.12154 244.888 8.77304 244.302 9.67122C243.716 10.5694 243.48 11.6516 243.64 12.7121L243.737 13.3536C243.911 14.6504 244.181 17.5403 243.265 18.3315C242.999 18.5593 242.494 18.8283 242.583 19.4045C242.671 19.9803 242.81 19.9658 242.86 19.9569L244.692 19.6791L249.016 19.0262L253.34 18.3734L255.171 18.0984C255.225 18.0984 255.364 18.0629 255.275 17.4867C255.186 16.9109 254.628 16.8101 254.306 16.6685ZM247.568 20.013C247.646 20.4132 247.876 20.7678 248.209 21.0028C248.542 21.2378 248.953 21.335 249.356 21.2739C249.759 21.2129 250.123 20.9985 250.372 20.6754C250.621 20.3523 250.735 19.9457 250.691 19.5403L247.568 20.013Z" fill="white"/>
<path fill-rule="evenodd" clip-rule="evenodd" d="M262.527 5.33503C262.384 4.38396 261.962 3.49669 261.314 2.7855C260.667 2.0743 259.823 1.57114 258.889 1.33967C257.956 1.1082 256.975 1.15883 256.07 1.48514C255.165 1.81145 254.377 2.39879 253.807 3.17284C253.236 3.94686 252.907 4.87275 252.862 5.83348C252.817 6.79422 253.058 7.74669 253.555 8.57052C254.051 9.39437 254.781 10.0525 255.651 10.4616C256.521 10.8708 257.494 11.0125 258.445 10.869C261.1 10.468 262.927 7.99076 262.527 5.33503Z" fill="white"/>
<path fill-rule="evenodd" clip-rule="evenodd" d="M258.527 2.89111L259.413 8.85045L258.134 9.0424L257.451 4.53103C257.384 4.60946 257.31 4.68166 257.23 4.74675C257.136 4.81852 257.038 4.88372 256.935 4.9419C256.833 5.00517 256.726 5.06045 256.616 5.10724C256.507 5.15576 256.394 5.19527 256.279 5.22539L256.117 4.14394C256.428 4.00089 256.724 3.82875 257.003 3.62982C257.262 3.44296 257.505 3.23442 257.729 3.00643L258.527 2.89111Z" fill="#CE0606"/>
<path d="M261.921 58.9358C258.268 56.3911 257.369 51.3667 259.913 47.7125C262.456 44.0584 267.479 43.1582 271.133 45.7015C274.786 48.2444 275.687 53.2684 273.145 56.9237C270.597 60.5732 265.577 61.4737 261.921 58.9358ZM270.638 46.4114C267.376 44.1407 262.891 44.9454 260.621 48.2078C258.351 51.4706 259.155 55.9561 262.417 58.2265C265.679 60.4973 270.164 59.6929 272.434 56.4301C274.692 53.168 273.889 48.6932 270.638 46.4203V46.4114Z" fill="#CE0606"/>
<path fill-rule="evenodd" clip-rule="evenodd" d="M265.468 51.635L262.81 55.4761C262.791 55.5024 262.784 55.5348 262.79 55.5663C262.796 55.5979 262.813 55.6259 262.84 55.6443L264.263 56.637C264.29 56.6555 264.323 56.6628 264.355 56.6573C264.387 56.6518 264.415 56.6339 264.434 56.6076L267.146 52.7104L268.18 53.4285C268.232 53.464 268.303 53.4537 268.342 53.4047L269.258 52.2999C269.269 52.287 269.277 52.272 269.282 52.2558C269.286 52.2397 269.288 52.2227 269.286 52.206C269.283 52.1893 269.278 52.1732 269.269 52.1589C269.26 52.1445 269.248 52.1321 269.235 52.1225L268.103 51.3337L268.694 50.5006C268.759 50.4096 268.857 50.3476 268.968 50.3277C269.078 50.3078 269.192 50.3317 269.285 50.3942L270.082 50.9495C270.095 50.9584 270.11 50.9647 270.126 50.9679C270.141 50.9711 270.157 50.9712 270.173 50.9682C270.189 50.9652 270.204 50.9592 270.217 50.9504C270.23 50.9416 270.242 50.9304 270.25 50.9172L271.069 49.7353C271.087 49.7086 271.094 49.6757 271.089 49.6436C271.083 49.6116 271.066 49.583 271.039 49.564L269.692 48.6305C269.505 48.4997 269.294 48.4071 269.071 48.358C268.847 48.3089 268.617 48.3043 268.392 48.3443C268.167 48.3843 267.952 48.4683 267.76 48.5913C267.567 48.7144 267.401 48.8742 267.27 49.0615L266.482 50.1962L265.77 49.6998C265.743 49.6815 265.711 49.6743 265.679 49.6798C265.648 49.6854 265.62 49.7031 265.601 49.7293L264.783 50.9112C264.765 50.9374 264.758 50.9699 264.763 51.0015C264.769 51.0331 264.786 51.0612 264.813 51.0797L265.524 51.5761L265.468 51.635Z" fill="#CE0606"/>
<path fill-rule="evenodd" clip-rule="evenodd" d="M297.207 82.6458C290.939 81.118 287.095 74.7975 288.622 68.5273C290.149 62.2572 296.468 58.4125 302.737 59.9396C309.006 61.4663 312.85 67.7868 311.323 74.057C309.79 80.3229 303.475 84.1651 297.207 82.6458Z" fill="#CE0606"/>
<path d="M304.737 70.4731C301.632 69.7167 300.876 72.8074 300.873 72.8369C300.87 72.8663 299.907 75.88 303.236 76.6776C303.236 76.6776 305.7 77.4281 306.429 75.5195C306.445 75.48 306.453 75.4374 306.451 75.3948C306.449 75.3521 306.437 75.3104 306.418 75.2725C306.398 75.2346 306.37 75.2014 306.337 75.1752C306.303 75.149 306.264 75.1304 306.222 75.1207L305.354 74.9111C305.293 74.8955 305.228 74.9 305.17 74.9238C305.111 74.9477 305.062 74.9898 305.029 75.0438C304.89 75.2832 304.524 75.6349 303.597 75.4042C303.597 75.4042 302.374 75.1914 302.462 73.9893C302.466 73.9464 302.479 73.9049 302.5 73.8676C302.522 73.8303 302.551 73.7982 302.586 73.7734C302.622 73.7487 302.662 73.7319 302.704 73.7242C302.746 73.7166 302.79 73.7183 302.832 73.7292L306.438 74.6155C306.513 74.6346 306.592 74.6236 306.659 74.5849C306.726 74.5463 306.775 74.483 306.795 74.4086C307.011 73.5784 307.445 71.1352 304.737 70.4731ZM302.965 72.6183C302.938 72.6114 302.914 72.5986 302.893 72.5807C302.872 72.5629 302.856 72.5405 302.846 72.5153C302.835 72.4901 302.83 72.4629 302.832 72.4356C302.834 72.4084 302.842 72.3819 302.855 72.3582C303.009 72.0782 303.251 71.8577 303.545 71.7323C303.838 71.6069 304.166 71.5838 304.474 71.6667C304.779 71.721 305.051 71.8929 305.23 72.1455C305.41 72.3981 305.483 72.7111 305.434 73.0171C305.431 73.0417 305.422 73.0653 305.41 73.0865C305.397 73.1077 305.38 73.126 305.359 73.1402C305.339 73.1544 305.316 73.1642 305.292 73.169C305.268 73.1738 305.242 73.1734 305.218 73.1679L302.965 72.6179V72.6183ZM299.42 70.9901C299.399 70.9776 299.382 70.9591 299.371 70.937C299.361 70.9148 299.357 70.8901 299.36 70.8658C299.364 70.8415 299.374 70.8188 299.391 70.8005C299.407 70.7822 299.429 70.7691 299.452 70.763C299.842 70.6711 300.339 70.3876 300.545 69.5542C300.897 68.1098 300.064 67.1553 298.773 66.842L294.776 65.867C294.72 65.8546 294.661 65.8646 294.612 65.895C294.563 65.9253 294.528 65.9736 294.514 66.0295L292.647 73.7111C292.64 73.7389 292.638 73.7678 292.642 73.7961C292.647 73.8245 292.657 73.8517 292.671 73.8762C292.686 73.9007 292.706 73.922 292.729 73.9389C292.752 73.9557 292.779 73.9678 292.806 73.9744L296.803 74.9494C296.803 74.9494 299.355 75.6554 299.958 73.1768C299.963 73.1707 300.433 71.6227 299.42 70.9901H299.42ZM296.041 67.8586C296.051 67.8179 296.077 67.783 296.113 67.7615C296.149 67.7399 296.192 67.7333 296.233 67.7432L298.433 68.2779C298.433 68.2779 299.004 68.4199 298.8 69.2618C298.596 70.1038 298.229 70.1481 297.849 70.0506L295.781 69.5513C295.761 69.5465 295.741 69.5377 295.725 69.5254C295.708 69.5131 295.693 69.4975 295.683 69.4797C295.672 69.4618 295.665 69.4419 295.662 69.4213C295.659 69.4006 295.66 69.3796 295.666 69.3594L296.041 67.8586ZM297.045 73.472L294.977 72.9639C294.936 72.954 294.901 72.9283 294.878 72.8923C294.856 72.8563 294.849 72.813 294.859 72.7719L295.314 70.9134C295.324 70.8735 295.35 70.8392 295.385 70.8177C295.42 70.7962 295.463 70.7892 295.503 70.7981L297.704 71.3328C297.704 71.3328 298.56 71.534 298.295 72.6566C298.037 73.599 297.382 73.5429 297.045 73.4691V73.472ZM303.419 68.3166L303.251 69.0078C303.246 69.0276 303.244 69.0482 303.247 69.0685C303.25 69.0888 303.257 69.1083 303.267 69.126C303.278 69.1436 303.291 69.1589 303.308 69.1711C303.324 69.1833 303.343 69.1921 303.363 69.1969L306.4 69.9384C306.44 69.9474 306.482 69.9404 306.518 69.9189C306.553 69.8974 306.578 69.8631 306.589 69.8231L306.757 69.1288C306.766 69.0885 306.759 69.0462 306.738 69.011C306.716 68.9757 306.682 68.9501 306.642 68.9397L303.608 68.2013C303.568 68.1915 303.526 68.1977 303.491 68.2187C303.456 68.2397 303.43 68.2737 303.419 68.3134V68.3166Z" fill="white"/>
<path fill-rule="evenodd" clip-rule="evenodd" d="M275.37 134.914L278.397 138.161L301.481 128.533L275.37 134.914Z" fill="#CE0606"/>
<path fill-rule="evenodd" clip-rule="evenodd" d="M276.445 124.192L274.165 127.634L275.707 131.006L272.248 131.594L269.193 138.303L302.223 128.308L276.445 124.192Z" fill="#DF3426"/>
<path fill-rule="evenodd" clip-rule="evenodd" d="M275.706 131.005L274.164 127.634L292.056 128.47L275.706 131.005ZM96.7252 53.6735L93.6976 56.9236L70.6104 47.292L96.7252 53.6735Z" fill="#CE0606"/>
<path fill-rule="evenodd" clip-rule="evenodd" d="M95.6474 42.9546L97.9277 46.3937L96.3857 49.7679L99.8447 50.3559L102.902 57.0653L69.8721 47.0679L95.6474 42.9546Z" fill="#DF3426"/>
<path fill-rule="evenodd" clip-rule="evenodd" d="M96.3856 49.7678L97.9276 46.3936L80.0361 47.2327L96.3856 49.7678Z" fill="#CE0606"/>
</svg>
