<svg width="553" height="70" viewBox="0 0 553 70" fill="none" xmlns="http://www.w3.org/2000/svg">
<path d="M0 18.6331V0H58.926V18.6331H39.4463V70H18.9924V18.6331H0Z" fill="#342828"/>
<path d="M95.8643 70H67.8994V0H95.8643V70Z" fill="#342828"/>
<path d="M141.323 70C130.337 70 121.348 66.5969 113.858 60.2775C106.367 53.9582 102.871 45.2082 102.871 34.9998C102.871 24.7918 106.367 16.5277 113.858 9.72245C121.348 3.40265 130.836 0 141.823 0C145.318 0 147.815 1.71413e-06 150.312 0.48596C152.809 0.972387 154.806 1.45835 155.805 1.9443C157.303 2.43073 159.3 3.40265 161.298 3.88907V22.8471C156.803 20.4168 152.309 19.4444 147.815 18.9584C143.321 18.472 139.325 18.9584 135.83 19.9304C132.334 20.9027 129.837 22.8471 127.34 25.7637C124.844 28.6804 124.344 31.5971 124.344 35.4862C124.344 40.8331 125.842 44.7222 129.338 47.6389C132.334 50.5556 136.329 52.0139 141.323 52.0139C144.819 52.0139 147.815 51.5275 149.313 50.0691V29.6528H170.786V59.7916C167.79 62.7083 163.795 65.1385 158.801 67.0833C153.308 68.5417 147.815 70 141.323 70Z" fill="#342828"/>
<path d="M240.338 70H178.416V0H239.212V18.6331H202.059V24.6763H231.331V41.7986H202.059V51.3669H240.338V70Z" fill="#342828"/>
<path d="M292.159 42.806L312.785 70H287.631L269.017 45.3237H265.999V70H244.87V0H278.576C286.625 0 292.662 2.01473 297.693 6.54715C302.221 10.5756 304.736 16.1154 304.736 22.6621C304.736 27.1945 303.73 30.7195 301.214 34.2446C299.202 37.7701 296.184 40.7918 292.159 42.806ZM266.502 29.2087H276.061C278.073 29.2087 279.582 28.7053 281.091 27.6979C282.098 26.691 283.103 25.1802 283.103 23.6694C283.103 22.1586 282.601 20.6478 281.091 19.6405C280.085 18.6331 278.073 18.1296 276.061 18.1296H266.502V29.2087Z" fill="#342828"/>
<path d="M371.089 70C359.508 70 349.938 67.5865 342.385 62.7585V42.483C345.406 44.8965 349.938 47.3104 355.982 49.2413C362.022 51.1727 367.061 52.1379 371.59 52.1379C377.129 52.1379 379.649 51.1727 379.649 48.7587C379.649 47.793 378.642 46.8279 376.629 45.8622C374.615 44.8965 371.089 43.9313 365.043 41.9999C357.489 40.069 351.952 37.1724 347.924 33.7932C343.895 30.4141 342.385 26.0692 342.385 20.7586C342.385 14.0003 344.903 9.17281 350.442 5.31055C355.982 1.93137 363.029 0 372.596 0C381.663 0 389.722 1.93137 397.776 5.31055V24.6209C394.25 22.69 390.223 21.2417 385.189 19.7934C380.15 18.3451 375.622 17.8621 371.089 17.8621C366.556 17.8621 365.043 18.8277 365.043 20.276C365.043 21.2417 366.055 21.7243 368.068 22.69C370.082 23.1726 374.109 24.6209 381.162 26.5518C388.209 28.4827 393.749 31.3793 397.275 34.7589C400.797 38.1381 402.31 42.483 402.31 47.3104C402.31 54.0693 399.289 59.3794 393.749 63.2416C387.202 67.5865 380.15 70 371.089 70Z" fill="#342828"/>
<path d="M428.853 70H406.672V0H429.396L445.626 24.6763L461.855 0H484.574V69.4966H462.393V30.7195L451.577 47.3384H439.131L428.315 30.7195V70H428.853Z" fill="#342828"/>
<path d="M522.298 70C510.91 70 501.502 67.5865 494.074 62.7585V42.483C497.044 44.8965 501.502 47.3104 507.443 49.2413C513.388 51.1727 518.338 52.1379 522.796 52.1379C528.244 52.1379 530.716 51.1727 530.716 48.7587C530.716 47.793 529.726 46.8279 527.746 45.8622C525.766 44.8965 522.298 43.9313 516.358 41.9999C508.93 40.069 503.482 37.1724 499.522 33.7932C495.562 30.4141 494.074 26.0692 494.074 20.7586C494.074 14.0003 496.552 9.17281 502 5.31055C507.443 1.93137 514.378 0 523.786 0C532.701 0 540.622 1.93137 548.547 5.31055V24.6209C545.08 22.69 541.119 21.2417 536.164 19.7934C531.214 18.3451 526.756 17.8621 522.298 17.8621C517.846 17.8621 516.358 18.8277 516.358 20.276C516.358 21.2417 517.348 21.7243 519.328 22.69C521.308 23.1726 525.273 24.6209 532.204 26.5518C539.134 28.4827 544.582 31.3793 548.05 34.7589C551.517 38.1381 553 42.483 553 47.3104C553 54.0693 550.03 59.3794 544.582 63.2416C538.642 67.5865 531.214 70 522.298 70Z" fill="#342828"/>
</svg>
