<svg width="30" height="30" viewBox="0 0 30 30" fill="none" xmlns="http://www.w3.org/2000/svg">
<path d="M24.1667 30H5.83333C2.61167 30 0 27.3883 0 24.1667V5.83333C0 2.61167 2.61167 0 5.83333 0H24.1667C27.3883 0 30 2.61167 30 5.83333V24.1667C30 27.3883 27.3883 30 24.1667 30Z" fill="url(#paint0_linear_57_2)"/>
<path d="M15 5C8.55668 5 3.33334 9.19417 3.33334 14.3683C3.33334 17.6692 5.46418 20.565 8.67668 22.2342L7.44418 26.3108C7.36918 26.5583 7.64751 26.7625 7.86418 26.6192L12.5433 23.525C13.3358 23.6617 14.1575 23.7375 15.0008 23.7375C21.4442 23.7375 26.6675 19.5433 26.6675 14.3692C26.6675 9.195 21.4433 5 15 5Z" fill="#343434"/>
<path d="M10.7584 12.1967C10.7584 11.9042 10.5209 11.6667 10.2284 11.6667H7.04669C6.75419 11.6667 6.51669 11.9042 6.51669 12.1967C6.51669 12.4892 6.75419 12.7267 7.04669 12.7267H8.10753V16.9692C8.10753 17.2617 8.34503 17.4992 8.63753 17.4992C8.93003 17.4992 9.16753 17.2617 9.16753 16.9692V12.7267H10.2284C10.5209 12.7275 10.7584 12.49 10.7584 12.1967Z" fill="url(#paint1_linear_57_2)"/>
<path d="M23.3708 16.6417L21.405 14.14C21.3983 14.1308 21.3875 14.1275 21.38 14.1192L22.9275 12.5717C23.135 12.365 23.135 12.0292 22.9275 11.8217C22.7208 11.6142 22.385 11.6142 22.1775 11.8217L20.3033 13.6958V12.1967C20.3033 11.9042 20.0658 11.6667 19.7733 11.6667C19.4808 11.6667 19.2433 11.9042 19.2433 12.1967V16.9692C19.2433 17.2617 19.4808 17.4992 19.7733 17.4992C20.0658 17.4992 20.3033 17.2617 20.3033 16.9692V15.19C20.3092 15.185 20.3167 15.1833 20.3217 15.1775L20.6292 14.87L22.5375 17.2975C22.7183 17.5275 23.0517 17.5675 23.2817 17.3867C23.5117 17.2058 23.5516 16.8717 23.3708 16.6417Z" fill="url(#paint2_linear_57_2)"/>
<path d="M18.1817 16.4391H16.5909V12.1975C16.5909 11.905 16.3534 11.6675 16.0609 11.6675C15.7684 11.6675 15.5309 11.905 15.5309 12.1975V16.97C15.5309 17.2625 15.7684 17.5 16.0609 17.5H18.1817C18.4742 17.5 18.7117 17.2625 18.7117 16.97C18.7117 16.6766 18.4742 16.4391 18.1817 16.4391Z" fill="url(#paint3_linear_57_2)"/>
<path d="M13.2567 12.0075C13.18 11.8067 12.9933 11.6833 12.7908 11.6742C12.7317 11.6717 12.5042 11.6725 12.4508 11.6733C12.2433 11.6767 12.0492 11.8008 11.9708 12.0075L10.2625 16.78C10.1575 17.0533 10.2942 17.36 10.5683 17.465C10.8417 17.57 11.1483 17.4333 11.2533 17.1592L11.5108 16.4392H13.7167L13.9742 17.1592C14.0792 17.4325 14.3858 17.5692 14.6592 17.465C14.9325 17.3608 15.0692 17.0533 14.9642 16.78L13.2567 12.0075ZM11.8908 15.3783L12.6142 13.3567L13.3375 15.3783H11.8908Z" fill="url(#paint4_linear_57_2)"/>
<defs>
<linearGradient id="paint0_linear_57_2" x1="15" y1="4.87333" x2="15" y2="46.37" gradientUnits="userSpaceOnUse">
<stop stop-color="#FED100"/>
<stop offset="1" stop-color="#E38101"/>
</linearGradient>
<linearGradient id="paint1_linear_57_2" x1="8.63669" y1="4.87332" x2="8.63669" y2="46.37" gradientUnits="userSpaceOnUse">
<stop stop-color="#FED100"/>
<stop offset="1" stop-color="#E38101"/>
</linearGradient>
<linearGradient id="paint2_linear_57_2" x1="21.3633" y1="4.87334" x2="21.3633" y2="46.37" gradientUnits="userSpaceOnUse">
<stop stop-color="#FED100"/>
<stop offset="1" stop-color="#E38101"/>
</linearGradient>
<linearGradient id="paint3_linear_57_2" x1="17.1209" y1="4.87331" x2="17.1209" y2="46.37" gradientUnits="userSpaceOnUse">
<stop stop-color="#FED100"/>
<stop offset="1" stop-color="#E38101"/>
</linearGradient>
<linearGradient id="paint4_linear_57_2" x1="12.6133" y1="4.87332" x2="12.6133" y2="46.37" gradientUnits="userSpaceOnUse">
<stop stop-color="#FED100"/>
<stop offset="1" stop-color="#E38101"/>
</linearGradient>
</defs>
</svg>
