<svg width="40" height="40" viewBox="0 0 40 40" fill="none" xmlns="http://www.w3.org/2000/svg">
<path d="M20 0C8.95968 0 0 8.95968 0 20C0 31.0403 8.95968 40 20 40C31.0403 40 40 31.0403 40 20C40 8.95968 31.0403 0 20 0Z" fill="#1ED760"/>
<path d="M32.7906 17.992C32.3713 17.992 32.1132 17.8872 31.7503 17.6775C26.0084 14.2501 15.7423 13.4275 9.09709 15.2823C8.80677 15.363 8.44386 15.492 8.05677 15.492C6.99225 15.492 6.17773 14.6614 6.17773 13.5888C6.17773 12.492 6.85515 11.871 7.58096 11.6614C10.4197 10.8307 13.5971 10.4355 17.0568 10.4355C22.9439 10.4355 29.1132 11.6614 33.6213 14.2904C34.2503 14.6533 34.6616 15.1533 34.6616 16.113C34.6616 17.2097 33.7745 17.992 32.7906 17.992ZM30.2906 24.1372C29.8713 24.1372 29.589 23.9517 29.2987 23.7985C24.2584 20.8146 16.7423 19.613 10.0568 21.4275C9.66967 21.5323 9.45999 21.6372 9.09709 21.6372C8.23419 21.6372 7.53257 20.9355 7.53257 20.0726C7.53257 19.2097 7.95193 18.6372 8.78257 18.4033C11.0245 17.7743 13.3148 17.3065 16.6697 17.3065C21.9035 17.3065 26.96 18.6049 30.9439 20.9759C31.5971 21.363 31.8552 21.863 31.8552 22.5646C31.8471 23.4355 31.1697 24.1372 30.2906 24.1372ZM28.1213 29.4275C27.7826 29.4275 27.5729 29.3226 27.2584 29.1372C22.2261 26.1049 16.3713 25.9759 10.589 27.1614C10.2745 27.242 9.86322 27.371 9.62935 27.371C8.84709 27.371 8.35515 26.7501 8.35515 26.0968C8.35515 25.2662 8.84709 24.871 9.45193 24.742C16.0568 23.2823 22.8068 23.4114 28.5648 26.8549C29.0568 27.1694 29.3471 27.4517 29.3471 28.1855C29.3471 28.9194 28.7745 29.4275 28.1213 29.4275Z" fill="black"/>
</svg>
