<svg width="30" height="30" viewBox="0 0 30 30" fill="none" xmlns="http://www.w3.org/2000/svg">
<path d="M2.38636 30H27.6136C28.9316 30 30 28.5755 30 26.8182V3.18182C30 1.42455 28.9316 0 27.6136 0H2.38636C1.06841 0 0 1.42455 0 3.18182V26.8182C0 28.5755 1.06841 30 2.38636 30Z" fill="#E0E0E0"/>
<path d="M16.3636 30H27.6136C28.9316 30 30 28.5755 30 26.8182V3.18182C30 1.42455 28.9316 0 27.6136 0H2.38636C1.06841 0 0 1.42455 0 3.18182L16.3636 30Z" fill="#D9D9D9"/>
<path d="M3.23523 30H27.6136C28.9316 30 30 28.5754 30 26.8182V3.63635L3.23523 30Z" fill="#EEEEEE"/>
<path d="M16.1898 30H27.6136C28.9316 30 30 28.5754 30 26.8182V3.63635L11.4348 21.9236L16.1898 30Z" fill="#E0E0E0"/>
<path d="M27.6136 1.81817H2.38636C1.06841 1.81817 0 1.42453 0 3.1818V26.8182C0 28.5754 1.06841 30 2.38636 30H3.40909V4.0909H26.5909V30H27.6136C28.9316 30 30 28.5754 30 26.8182V3.1818C30 1.42453 28.9316 1.81817 27.6136 1.81817Z" fill="#CA3737"/>
<path d="M27.6136 0H15H2.38636C1.06841 0 0 1.39636 0 3.18182C0 4.27818 1.035 5.23455 1.035 5.23455L15 18.4145L28.965 5.23545C28.965 5.23545 30 4.27818 30 3.18273C30 1.39636 28.9316 0 27.6136 0Z" fill="#F5F5F5"/>
<path d="M28.1223 0.0745239L15 12.2727L1.87773 0.0745239C0.804545 0.380888 0 1.63361 0 3.1818C0 4.27816 1.035 5.23452 1.035 5.23452L15 18.4145L28.965 5.23543C28.965 5.23543 30 4.27816 30 3.18271C30 1.63362 29.1954 0.380888 28.1223 0.0745239Z" fill="#E84F4B"/>
</svg>
