<svg width="30" height="30" viewBox="0 0 30 30" fill="none" xmlns="http://www.w3.org/2000/svg">
<path d="M5.41667 30H24.5833C27.575 30 30 27.575 30 24.5833V5.41667C30 2.425 27.575 0 24.5833 0H5.41667C2.425 0 0 2.425 0 5.41667V24.5833C0 27.575 2.425 30 5.41667 30Z" fill="#00C300"/>
<path d="M25.9276 13.6808C25.9276 8.79332 21.0276 4.81665 15.0051 4.81665C8.98256 4.81665 4.08173 8.79332 4.08173 13.6808C4.08173 18.0625 7.96756 21.7325 13.2167 22.4267C13.5726 22.5033 14.0567 22.6617 14.1792 22.965C14.2892 23.2408 14.2509 23.6733 14.2142 23.9525C14.2142 23.9525 14.0867 24.7233 14.0584 24.8875C14.0109 25.1633 13.8392 25.9675 15.0042 25.4767C16.1701 24.9858 21.2942 21.7725 23.5859 19.1342H23.5851C25.1692 17.3992 25.9276 15.6367 25.9276 13.6808ZM10.7292 16.5892H8.55923C8.24339 16.5892 7.98673 16.3325 7.98673 16.0158V11.675C7.98673 11.3592 8.24339 11.1025 8.55923 11.1025C8.87506 11.1025 9.13173 11.3592 9.13173 11.675V15.4425H10.7292C11.0451 15.4425 11.3017 15.6992 11.3017 16.015C11.3017 16.3317 11.0451 16.5892 10.7292 16.5892ZM12.9734 16.0158C12.9734 16.3317 12.7167 16.5892 12.4009 16.5892C12.0851 16.5892 11.8284 16.3325 11.8284 16.0158V11.675C11.8284 11.3592 12.0851 11.1025 12.4009 11.1025C12.7167 11.1025 12.9734 11.3592 12.9734 11.675V16.0158ZM18.1984 16.0158C18.1984 16.2633 18.0417 16.4817 17.8067 16.5592C17.7476 16.5792 17.6859 16.5892 17.6251 16.5892C17.4459 16.5892 17.2751 16.5033 17.1676 16.36L14.9434 13.3308V16.0158C14.9434 16.3317 14.6867 16.5892 14.3701 16.5892C14.0542 16.5892 13.7967 16.3325 13.7967 16.0158V11.675C13.7967 11.4283 13.9542 11.21 14.1884 11.1317C14.2476 11.1117 14.3084 11.1025 14.3701 11.1025C14.5484 11.1025 14.7201 11.1883 14.8276 11.3317L17.0526 14.3608V11.675C17.0526 11.3592 17.3101 11.1025 17.6259 11.1025C17.9417 11.1025 18.1984 11.3592 18.1984 11.675V16.0158ZM21.7101 13.2725C22.0259 13.2725 22.2834 13.5292 22.2834 13.8458C22.2834 14.1617 22.0267 14.4183 21.7101 14.4183H20.1126V15.4433H21.7101C22.0259 15.4433 22.2834 15.7 22.2834 16.0158C22.2834 16.3317 22.0259 16.5892 21.7101 16.5892H19.5401C19.2251 16.5892 18.9676 16.3325 18.9676 16.0158V13.8467V13.845V11.6775C18.9676 11.6767 18.9676 11.6767 18.9676 11.6758C18.9676 11.36 19.2242 11.1033 19.5401 11.1033H21.7101C22.0259 11.1033 22.2834 11.36 22.2834 11.6758C22.2834 11.9917 22.0267 12.2483 21.7101 12.2483H20.1126V13.2733L21.7101 13.2725Z" fill="white"/>
</svg>
