<svg width="30" height="30" viewBox="0 0 30 30" fill="none" xmlns="http://www.w3.org/2000/svg">
<path d="M14.9626 0C7.16369 0 0.751869 5.91871 0 13.5005L7.64952 17.4063C8.42189 16.7586 9.42613 16.3636 10.5198 16.3636H10.5545C10.821 15.9545 11.1277 15.4426 11.4489 14.9108C12.1188 13.8131 12.8707 12.5721 13.6089 11.6175C13.773 8.56982 16.3091 6.13636 19.4055 6.13636C22.6112 6.13636 25.2154 8.73409 25.2154 11.9318C25.2154 15.0205 22.7759 17.5503 19.7205 17.714C18.7636 18.4503 17.5264 19.2006 16.4191 19.8619C15.886 20.1892 15.3727 20.4949 14.9626 20.7608V20.7955C14.9626 23.2432 12.9736 25.2273 10.5198 25.2273C8.06593 25.2273 6.0769 23.2432 6.0769 20.7955C6.0769 20.6795 6.08341 20.5705 6.09025 20.4545L0.116145 17.3997C1.27129 24.5451 7.47811 30 14.9626 30C23.2674 30 30 23.2841 30 15C30 6.71591 23.2674 0 14.9626 0ZM19.4055 7.5C16.9585 7.5 14.9626 9.49091 14.9626 11.9318C14.9626 14.3727 16.9585 16.3636 19.4055 16.3636C21.8525 16.3636 23.8483 14.3727 23.8483 11.9318C23.8483 9.49091 21.8525 7.5 19.4055 7.5ZM19.4055 8.86364C21.1074 8.86364 22.4813 10.2341 22.4813 11.9318C22.4813 13.6295 21.1074 15 19.4055 15C17.7035 15 16.3297 13.6295 16.3297 11.9318C16.3297 10.2341 17.7035 8.86364 19.4055 8.86364ZM10.5198 17.7273C9.97978 17.7273 9.46736 17.8638 9.0299 18.1161L11.2994 19.2747C12.1401 19.7042 12.4681 20.7345 12.0443 21.5732C11.7367 22.1595 11.1418 22.5 10.5198 22.5C10.2532 22.5 9.99302 22.439 9.74012 22.3162L7.46396 21.1497C7.64167 22.677 8.94083 23.8636 10.5198 23.8636C12.2217 23.8636 13.5956 22.4932 13.5956 20.7955C13.5956 19.0977 12.2217 17.7273 10.5198 17.7273Z" fill="black"/>
</svg>
