<svg width="30" height="30" viewBox="0 0 30 30" fill="none" xmlns="http://www.w3.org/2000/svg">
<rect x="0.15" y="0.15" width="29.7" height="29.7" rx="4.85" fill="#BCBCBC" stroke="black" stroke-width="0.3"/>
<path d="M12.0825 7.71737L12.0862 7.71885C12.1627 7.39275 12.441 7.15278 12.7892 7.15278H22.7061C22.7186 7.15278 22.7311 7.14762 22.7436 7.14836C22.5323 3.63049 19.5813 2 16.9777 2H7.06076C6.71185 2 6.4336 2.2466 6.35778 2.57196L6.3541 2.57049L2.01914 22.4735L2.02871 22.4742C2.0184 22.5213 2 22.5662 2 22.617C2 23.0241 2.32904 23.3465 2.73611 23.3465H8.67726L12.0825 7.71737Z" fill="#0D62AB"/>
<path d="M22.7436 7.14835C22.7827 7.79318 22.74 8.49469 22.5751 9.26982C21.6321 13.6828 18.2232 15.9795 14.0104 15.9795C14.0104 15.9795 11.4561 15.9795 10.8356 15.9795C10.4521 15.9795 10.271 16.2047 10.1878 16.377L8.90696 22.3019L8.68245 23.3538H8.67803L7.74833 27.6203L7.7579 27.6211C7.74759 27.6682 7.72919 27.7131 7.72919 27.7639C7.72919 28.1709 8.05823 28.5 8.4653 28.5H13.8632L13.8728 28.4926C14.2202 28.4875 14.4963 28.2394 14.5684 27.9126L14.5816 27.9015L15.9155 21.7064C15.9155 21.7064 16.0082 21.1153 16.6295 21.1153C17.2508 21.1153 19.705 21.1153 19.705 21.1153C23.9177 21.1153 27.3613 18.829 28.305 14.4152C29.3664 9.43912 25.8169 7.16675 22.7436 7.14835Z" fill="#199BE2"/>
<path d="M12.7892 7.15278C12.4403 7.15278 12.1621 7.39275 12.0862 7.71885L12.0826 7.71738L10.1871 16.3777C10.2703 16.2055 10.4513 15.9802 10.8348 15.9802C11.4561 15.9802 13.9523 15.9802 13.9523 15.9802C18.165 15.9802 21.6314 13.6836 22.5744 9.27057C22.74 8.49545 22.7819 7.79393 22.7429 7.1491C22.7311 7.14763 22.7179 7.15278 22.7061 7.15278H12.7892Z" fill="#006FC4"/>
</svg>
