<svg width="30" height="30" viewBox="0 0 30 30" fill="none" xmlns="http://www.w3.org/2000/svg">
<path fill-rule="evenodd" clip-rule="evenodd" d="M0.747803 29.2549L2.76159 21.9343C1.51923 19.7921 0.865909 17.3611 0.866656 14.8712C0.870394 7.08169 7.23616 0.744354 15.0596 0.744354C18.8562 0.745843 22.4188 2.21741 25.0986 4.88737C27.7777 7.55807 29.2532 11.1071 29.2517 14.8824C29.2487 22.672 22.8815 29.01 15.0596 29.01H15.0536C12.6788 29.0093 10.3443 28.416 8.27146 27.2899L0.747803 29.2549Z" fill="white"/>
<path fill-rule="evenodd" clip-rule="evenodd" d="M0.747816 29.6271C0.649145 29.6271 0.553465 29.5884 0.482451 29.5169C0.389013 29.4224 0.352385 29.2847 0.387518 29.1574L2.36019 21.9849C1.13727 19.8218 0.492169 17.3655 0.493664 14.872C0.496654 6.87623 7.03061 0.372162 15.0596 0.372162C18.9541 0.373651 22.6131 1.88392 25.3632 4.62459C28.1133 7.36601 29.627 11.0088 29.6255 14.8824C29.6225 22.8774 23.0878 29.3822 15.0596 29.3822C12.6758 29.3814 10.3174 28.7956 8.22438 27.6873L0.84275 29.6144C0.811354 29.6234 0.779959 29.6271 0.747816 29.6271Z" fill="white"/>
<path fill-rule="evenodd" clip-rule="evenodd" d="M15.0596 0.744343C18.8562 0.745832 22.4188 2.2174 25.0986 4.88736C27.7777 7.55806 29.2532 11.1071 29.2517 14.8824C29.2488 22.6719 22.8815 29.01 15.0596 29.01H15.0536C12.6788 29.0093 10.3443 28.416 8.27147 27.2898L0.747814 29.2549L2.7616 21.9343C1.51924 19.7921 0.86592 17.3611 0.866668 14.8712C0.870405 7.08168 7.23617 0.744343 15.0596 0.744343ZM15.0596 0C6.82505 0 0.122899 6.6708 0.119161 14.8712C0.118414 17.3774 0.753794 19.8472 1.95878 22.0333L0.0264703 29.0592C-0.0437953 29.3159 0.0279653 29.5899 0.216337 29.7789C0.358363 29.9218 0.550473 30 0.747814 30C0.811352 30 0.874891 29.9918 0.937681 29.9754L8.17878 28.0848C10.2927 29.1775 12.6623 29.7544 15.0536 29.7551C23.2941 29.7551 29.9963 23.0836 30 14.8831C30.0015 10.9091 28.4489 7.17249 25.6286 4.36185C22.8067 1.55047 19.0535 0.00148869 15.0596 0Z" fill="#CFD8DC"/>
<path fill-rule="evenodd" clip-rule="evenodd" d="M23.4033 6.57404C21.1757 4.35441 18.2148 3.13145 15.0633 3.13071C8.55704 3.13071 3.26544 8.39768 3.26245 14.872C3.2617 17.0909 3.88513 19.2509 5.06619 21.1215L5.34725 21.5658L4.15497 25.8987L8.61983 24.733L9.05114 24.9876C10.8616 26.058 12.9382 26.6237 15.0551 26.6244H15.0596C21.5614 26.6244 26.853 21.3567 26.8553 14.8816C26.856 11.7442 25.6308 8.79367 23.4033 6.57404Z" fill="#40C351"/>
<path fill-rule="evenodd" clip-rule="evenodd" d="M11.5119 8.96561C11.2466 8.37758 10.967 8.36567 10.7136 8.35525C10.5066 8.34632 10.2703 8.34706 10.0341 8.34706C9.79792 8.34706 9.4137 8.43564 9.08853 8.7892C8.76337 9.14276 7.84692 9.99653 7.84692 11.7338C7.84692 13.4711 9.11769 15.1504 9.29484 15.3856C9.472 15.6208 11.7482 19.3001 15.3526 20.7158C18.3479 21.8919 18.9579 21.6581 19.6082 21.5993C20.2585 21.5405 21.7064 20.7456 22.0017 19.9209C22.297 19.0961 22.297 18.3897 22.2088 18.2424C22.1198 18.095 21.8836 18.0071 21.5293 17.83C21.175 17.6528 19.431 16.7991 19.1059 16.6815C18.7807 16.5639 18.5445 16.5051 18.3075 16.8586C18.0713 17.2114 17.3918 18.0071 17.1848 18.2424C16.9777 18.4783 16.7707 18.5081 16.4163 18.3309C16.062 18.1538 14.9198 17.7816 13.5646 16.5788C12.5106 15.6431 11.799 14.4871 11.5919 14.1336C11.3849 13.7808 11.5695 13.5895 11.7474 13.4131C11.9066 13.2545 12.1017 13.0007 12.2796 12.7945C12.4568 12.5883 12.5159 12.4409 12.634 12.2057C12.7521 11.9698 12.693 11.7636 12.6041 11.5872C12.5166 11.41 11.8274 9.6638 11.5119 8.96561Z" fill="white"/>
</svg>
