<svg width="30" height="30" viewBox="0 0 30 30" fill="none" xmlns="http://www.w3.org/2000/svg">
<rect x="0.15" y="0.15" width="29.7" height="29.7" rx="4.85" fill="#BCBCBC" stroke="black" stroke-width="0.3"/>
<path fill-rule="evenodd" clip-rule="evenodd" d="M8.27667 19.7263C8.27667 19.7263 8.33534 19.9863 8.48005 19.8883C8.62477 19.7905 8.68344 19.6436 8.82815 19.6436C8.97287 19.6436 9.57613 19.5294 9.72085 19.6436C9.86556 19.7579 9.88006 19.6599 9.95241 19.6599C10.0248 19.6599 10.2373 19.6979 10.2373 19.6979C10.4223 19.6784 10.3846 19.3822 10.2509 19.2955C10.0579 19.1433 9.79805 19.0455 9.60509 18.893C9.58574 18.7462 9.56649 18.5994 9.54719 18.4525C9.60024 18.3765 9.6533 18.3003 9.7064 18.2241C9.7064 17.9794 9.7064 17.7347 9.7064 17.4899C9.67744 17.4247 9.64849 17.3594 9.61955 17.2941C9.60988 17.1093 9.60024 16.9244 9.59059 16.7394C9.56649 16.7068 9.54234 16.6741 9.51823 16.6415C9.51823 16.5709 9.51823 16.5001 9.51823 16.4294C9.56648 16.3587 9.66421 16.288 9.71249 16.2173C9.72695 16.0813 9.66226 15.9854 9.67674 15.8494C9.64295 15.6754 9.63884 15.4614 9.60509 15.2873C9.60509 15.0752 9.60509 14.8631 9.60509 14.651C9.74507 14.609 9.77899 14.5465 9.78899 14.4833C9.80184 14.4019 9.76227 14.3061 9.72085 14.1126C9.70155 13.0956 9.69217 12.0386 9.67288 11.0215C9.74987 10.9 9.84216 10.8371 9.8441 10.7471C9.84561 10.677 9.77088 10.6185 9.67745 10.5394C9.67745 10.4687 9.67745 10.3981 9.67745 10.3273C9.67745 10.3273 9.83666 10.001 9.96688 10.001C10.0971 10.001 10.184 9.90314 10.184 9.80525C10.3028 9.56742 10.0537 9.54419 10.0537 9.54419C9.77806 9.53842 9.46581 9.55264 9.19689 9.54693C8.95967 9.54184 8.76496 9.51668 8.53412 9.51156C8.43281 9.51703 8.33149 9.52242 8.23018 9.52786C7.98119 9.60402 8.03352 9.7402 8.12888 9.81627C8.24464 9.88967 8.34344 9.97375 8.47621 9.97656C8.63824 9.97995 8.76722 10.0334 8.82356 10.1968C8.83805 10.8494 8.85249 11.5021 8.86696 12.1547C8.8718 12.636 8.88654 13.1174 8.89132 13.5986C8.89615 14.0799 8.89115 14.5613 8.89591 15.0426C8.90556 15.6082 8.91521 16.1738 8.92487 16.7394C8.92487 16.7394 8.89592 16.9515 8.8525 17.0005C8.8091 17.0494 8.82356 17.4736 8.82356 17.4736C8.98384 17.6143 8.94977 17.5946 8.83805 17.7836C8.82835 18.2024 8.81871 18.6212 8.8091 19.0399C8.77049 19.1161 8.73189 19.1923 8.69329 19.2683C8.69329 19.2683 8.27667 19.5142 8.27667 19.7263ZM1.26783 21.7545C1.05323 21.71 1.01299 21.6054 1.08922 21.5438C1.13496 21.5067 1.25724 21.5081 1.31222 21.4822C1.39267 21.4441 1.47484 21.394 1.52327 21.3337C1.60605 21.2305 1.55584 20.9915 1.65462 20.7969C1.74954 19.9757 1.77798 18.8876 1.68311 18.5216C1.62615 17.9576 1.68462 16.0839 1.68462 15.8464C1.74765 15.7323 1.7713 15.723 1.77179 15.5231C1.77195 15.445 1.82415 15.3234 1.76855 15.2267C1.68791 15.134 1.71228 14.7714 1.70597 14.567C1.69664 14.2628 1.71881 14.2653 1.80286 13.9897C1.8345 13.886 1.84522 13.7626 1.80286 13.6632C1.73438 13.5025 1.63536 13.6882 1.64195 13.3655C1.65811 12.5823 1.6871 11.7945 1.66665 11.0117C1.67108 10.9419 1.78642 10.9292 1.809 10.8633C1.8377 10.7794 1.84722 10.6757 1.809 10.5961C1.78736 10.551 1.66623 10.6097 1.63069 10.5755C1.41353 10.3665 1.14066 10.2352 1.01482 9.95638C0.966044 9.84824 1.04471 9.60892 1.14811 9.5572C1.31941 9.47148 1.63804 9.56009 1.82547 9.52753C1.92627 9.51004 1.99005 9.44963 2.09216 9.4451C2.88853 9.40977 3.70803 9.32958 4.50156 9.40877C4.62857 9.42144 4.67045 9.64714 4.78622 9.70317C4.94493 9.77999 5.17701 9.76353 5.29865 9.89462C5.49365 10.1047 5.63355 10.2777 5.6583 10.5689C5.68867 10.9262 5.74963 11.3309 5.74664 11.6053C5.74413 11.8352 5.67555 12.0426 5.57381 12.2403C5.43446 12.5113 5.26859 12.7641 5.08896 13.0317C4.98541 13.186 4.80112 13.3292 4.75776 13.5051C4.71294 13.6869 5.17937 13.5534 5.2748 13.7126C5.36651 13.8657 5.19655 14.045 5.24782 14.2175C5.2936 14.3713 5.55806 14.3863 5.58945 14.544C5.67045 14.951 5.49172 15.3814 5.56099 15.7907C5.58314 15.9217 5.78959 15.9264 5.80966 16.0578C5.83402 16.3419 5.82531 16.6425 5.82751 16.9442C5.82981 17.2654 5.84217 17.588 5.83809 17.8933C5.83026 18.0084 5.68066 18.0757 5.6673 18.1901C5.63167 18.4948 5.7356 18.8388 5.66882 19.1376C5.59844 19.4522 5.34729 19.6744 5.24931 19.9809C5.16446 20.2464 5.18853 20.634 5.05158 20.8004C4.8251 20.8721 4.54318 21.0326 4.36477 21.1664C4.10408 21.3618 3.93742 21.5857 3.85728 21.5928C3.75544 21.684 3.54001 21.623 3.41375 21.6705C3.29732 21.7141 3.28634 21.8124 3.16357 21.7964C3.06662 21.7839 3.09684 21.7028 3.02122 21.6384C2.9772 21.6007 2.89255 21.5983 2.85042 21.6384C2.59488 21.8455 2.78548 21.7913 2.49531 21.7643C2.20054 21.7369 1.62667 21.8285 1.26783 21.7545ZM2.91917 20.563C2.98561 20.4344 3.05204 20.3058 3.1185 20.1771C3.09947 19.7518 3.08051 19.3263 3.06152 18.9008C3.1185 18.8216 3.17542 18.7425 3.23234 18.6632C3.23234 18.2347 3.23234 17.8062 3.23234 17.3776C3.23234 17.1828 3.20538 16.988 3.20538 16.7932C3.00554 16.6267 3.1011 16.6292 3.2623 16.4371C3.2623 16.2491 3.30732 16.0974 3.30732 15.9094C3.28829 15.7511 3.26933 15.5928 3.25034 15.4345C3.27885 15.3554 3.30731 15.2762 3.33577 15.197C3.33577 14.959 3.36273 14.7663 3.36273 14.5282C3.36273 14.3047 3.36916 14.2298 3.40974 14.2438C3.45032 14.2578 3.52511 14.3608 3.66166 14.493C3.76541 14.5935 3.86922 14.694 3.973 14.7945C4.16471 14.98 4.35139 14.9969 4.27369 15.3009C4.20108 15.5854 4.40977 15.6643 4.34491 15.9465C4.29537 16.1621 4.23024 16.294 4.24467 16.4276C4.25327 16.5078 4.29059 16.5886 4.37692 16.6886C4.45673 16.781 4.48332 16.7753 4.43562 16.889C4.36165 17.0652 4.29861 17.168 4.29121 17.2738C4.28168 17.4097 4.35521 17.4722 4.4197 17.7124C4.47248 17.9088 4.46753 18.039 4.4187 18.2361C4.36087 18.4698 4.30304 18.7034 4.24519 18.9371C4.23868 19.1139 4.22269 19.2908 4.21023 19.4677C4.19137 19.7372 4.1557 19.7442 3.96963 19.9368C3.80059 20.1119 3.58303 20.2616 3.41994 20.418C3.23966 20.4873 3.09947 20.4937 2.91917 20.563ZM3.35473 13.0631C3.49916 13.0674 3.56375 13.0818 3.60853 13.0632C3.65332 13.0446 3.67833 12.993 3.74366 12.8653C3.82803 12.7003 3.953 12.4941 4.05665 12.4786C4.23126 12.4525 4.32236 12.4263 4.32236 12.4263C4.32236 12.4263 4.41374 12.4089 4.38249 12.182C4.3512 11.9552 4.28676 11.7371 4.34355 11.6761C4.40029 11.615 4.41229 11.4405 4.35187 11.3707C4.29153 11.301 4.23412 11.2312 4.33166 11.1352C4.42918 11.0393 4.49642 10.8786 4.26338 10.9048C4.03035 10.931 4.03323 10.8294 4.00631 10.7596C3.97935 10.6898 3.72516 10.7057 3.59225 10.698C3.45948 10.7242 3.34784 10.7155 3.35166 10.855C3.35554 10.9946 3.33321 11.6674 3.33512 11.7371C3.33703 11.8069 3.35473 13.0631 3.35473 13.0631ZM10.7261 19.1869C10.7157 19.2462 10.5805 19.2465 10.5909 19.306C10.6054 19.389 10.6108 19.5186 10.6938 19.5294C10.9346 19.5608 11.2646 19.4643 11.5033 19.5088C11.5976 19.5264 11.6027 19.6882 11.6892 19.73C11.7602 19.7288 11.8695 19.7313 11.9595 19.73C12.0289 19.6936 12.0102 19.5656 12.0778 19.5259C12.161 19.4768 12.2746 19.4583 12.3651 19.4917C12.4138 19.5098 12.3473 19.6387 12.3988 19.645C12.82 19.6289 13.1962 19.6754 13.5946 19.645C13.6742 19.6318 13.5931 19.5171 13.6583 19.4694C13.7324 19.4152 13.9162 19.5098 13.9287 19.4184C13.9934 18.9458 13.8924 18.418 13.9364 17.9431C13.9505 17.7911 14.0954 17.701 14.1278 17.5517C14.1385 17.502 14.1977 17.5012 14.2024 17.4522C14.2188 17.2818 14.2158 17.0751 14.173 16.9072C14.1162 16.8486 13.9427 16.8273 13.8857 16.854C13.8216 16.9016 13.8799 17.0704 13.8369 17.1379C13.8156 17.1713 13.7397 17.1044 13.7186 17.1379C13.6978 17.1708 13.7247 17.2248 13.7342 17.2675C13.7399 17.2931 13.7394 17.3147 13.7186 17.3251C13.6078 17.3809 13.4446 17.2485 13.3469 17.3251C13.2509 17.4002 13.3586 17.5457 13.2775 17.6368C13.1459 17.7845 12.8639 17.871 12.7329 18.0192C12.577 18.1953 12.591 18.3751 12.4119 18.5272C12.2717 18.6462 12.0335 18.6587 11.8636 18.7281C11.6667 18.8087 11.5727 18.9573 11.3682 19.0152C11.3064 19.0328 11.231 18.924 11.2499 18.8621C11.4031 18.3618 11.6023 17.8588 11.7677 17.3623C11.8738 17.0439 11.9237 16.843 12.0383 16.5274C12.157 16.2009 12.312 15.7973 12.5057 15.5096C12.5438 15.4528 12.6711 15.4899 12.6916 15.4245C12.7422 15.2621 12.6474 15.0782 12.6916 14.9139C12.7242 14.7924 12.8513 14.6757 12.9564 14.6076C13.0275 14.5616 13.1409 14.6257 13.1722 14.5467C13.2454 14.3623 13.177 14.167 13.2232 13.9739C13.2542 13.8438 13.3429 13.7641 13.3994 13.6429C13.4743 13.4821 13.4688 13.3425 13.5515 13.1856C13.6187 13.0579 13.7603 12.8792 13.8011 12.7406C13.857 12.5502 13.8112 12.4568 13.8294 12.259C13.8343 12.2058 13.9117 12.1763 13.9139 12.1229C13.9401 11.4825 13.9737 10.8398 13.9364 10.1999C13.9334 10.1477 13.8171 10.15 13.8182 10.0977C13.8222 9.90219 13.8458 9.72942 13.8351 9.55318C13.833 9.51874 13.8448 9.49053 13.8106 9.4891C13.2816 9.46674 12.7593 9.47888 12.2299 9.4851C11.7962 9.49015 11.3615 9.45514 10.9288 9.4851C10.8634 9.48962 10.8047 9.50096 10.7599 9.54917C10.7168 9.59542 10.6955 9.69412 10.698 9.75738C10.7094 10.0418 10.6923 10.3514 10.698 10.6934C10.699 10.7568 10.823 10.7188 10.8444 10.7785C10.9039 10.9446 10.9085 11.13 10.8951 11.306C10.8908 11.3626 10.8225 11.4388 10.8238 11.4954C10.8509 11.6923 10.8763 11.8314 10.9119 12.0208C10.9325 12.094 10.995 12.1512 11.0133 12.225C11.0352 12.3132 10.9553 12.4914 11.0453 12.4973C11.0752 12.4992 11.1795 12.5168 11.233 12.4973C11.3017 12.4722 11.2077 12.3453 11.233 12.2761C11.2509 12.227 11.343 12.2256 11.3512 12.174C11.3959 11.8938 11.3183 11.5654 11.3624 11.285C11.3759 11.1996 11.4245 11.1093 11.4976 11.0638C11.5598 11.025 11.6723 11.122 11.7173 11.0638C11.7796 10.9831 11.7183 10.8901 11.7568 10.7955C11.8119 10.6601 11.9016 10.5353 12.0102 10.4381C12.11 10.3488 12.2097 10.2419 12.3424 10.228C12.6391 10.197 12.994 10.2248 13.3958 10.2074C13.4334 10.2057 13.4435 10.2641 13.4464 10.302C13.4606 10.4886 13.4944 10.7422 13.4464 10.8636C13.3769 11.0398 13.2195 11.2365 13.0597 11.4195C12.9503 11.5446 12.8398 11.6553 12.7555 11.7808C12.6544 11.9311 12.8054 12.1362 12.7537 12.3101C12.7007 12.4881 12.556 12.6772 12.4438 12.8247C12.3518 12.9457 12.2166 13.0076 12.1303 13.1328C12.0227 13.2891 11.9599 13.443 11.8919 13.6205C11.8354 13.7681 11.799 13.9239 11.7737 14.08C11.7537 14.2033 11.8122 14.3427 11.7568 14.4544C11.7162 14.5362 11.6245 14.5211 11.5654 14.5906C11.4835 14.6869 11.4355 14.8103 11.3965 14.9309C11.3502 15.0737 11.3464 15.1583 11.2743 15.2897C11.1933 15.4372 11.0308 15.5795 10.9572 15.7308C10.8768 15.8957 10.8676 16.0962 10.8275 16.2754C10.7886 16.4487 10.7561 16.6119 10.7206 16.7859C10.6771 16.9989 10.6317 17.2153 10.6361 17.4326C10.6375 17.4987 10.7069 17.5443 10.7375 17.6028C10.7633 17.6522 10.8226 17.703 10.8051 17.7559C10.7812 17.8283 10.6468 17.8336 10.6361 17.9091C10.6251 17.9871 10.6448 18.0591 10.7017 18.1134C10.7511 18.1604 10.852 18.1399 10.8875 18.1984C10.9257 18.2614 10.9188 18.353 10.8875 18.4196C10.8615 18.4752 10.77 18.4616 10.7581 18.5218C10.7095 18.7666 10.7691 18.941 10.7261 19.1869ZM25.376 21.5987C25.3443 21.4973 25.4234 21.4775 25.4761 21.4246C25.5531 21.3472 25.6276 21.2717 25.6582 21.1193C25.6697 21.0615 25.7284 20.9681 25.742 20.8755C25.762 20.7403 25.7315 20.5993 25.6949 20.512C25.6469 20.3976 25.5682 20.338 25.5968 20.2288C25.6068 20.159 25.7635 20.1504 25.887 20.0951C25.9517 20.0662 26.0073 20.0096 26.0279 19.9564C26.0549 19.8863 25.965 19.8983 25.9192 19.8092C25.8704 19.7144 25.8632 19.5725 25.8256 19.5019C25.76 19.3788 25.64 19.2138 25.6357 19.074C25.6239 18.7013 25.7311 18.3249 25.7449 17.9663C25.7565 17.6656 25.8271 17.5939 25.8043 17.2857C25.793 17.1323 25.7112 17.0206 25.6266 16.864C25.5567 16.7341 25.4647 16.6056 25.4295 16.4832C25.3669 16.2652 25.4298 16.0069 25.3919 15.7833C25.3845 15.7394 25.2755 15.6858 25.2714 15.6415C25.2433 15.3345 25.2777 15.0201 25.258 14.7165C25.248 14.6594 25.202 14.6485 25.1966 14.5907C25.1807 14.4205 25.1965 14.2548 25.196 14.1076C25.1954 13.9778 25.1777 13.8668 25.1777 13.716C25.1777 13.6597 25.1314 13.6212 25.1295 13.5649C25.1183 13.2329 25.132 12.8663 25.1277 12.5338C25.123 12.1798 25.1015 11.8598 25.1295 11.5072C25.1344 11.4478 25.2537 11.4492 25.2513 11.3897C25.2402 11.1196 25.2171 11.0121 25.2233 10.7404C25.224 10.7091 25.2877 10.6363 25.2902 10.605C25.3089 10.379 25.3367 10.1527 25.2795 9.95926C25.2382 9.81914 25.1339 9.77549 25.0141 9.68511C24.9084 9.60527 24.7905 9.47548 24.6926 9.40274C24.5675 9.30958 24.4841 9.23466 24.3893 9.09515C24.3323 9.01119 24.4264 9.00385 24.5314 9.00076C24.6663 8.99679 24.8136 9.00865 24.942 9.0289C24.9854 9.03574 25.0671 9.11115 25.1082 9.12719C25.2072 9.16585 25.272 9.11565 25.3733 9.1475C25.4506 9.17185 25.7736 9.34143 25.8605 9.39187C25.9793 9.46078 26.0177 9.56092 26.1417 9.61945C26.164 9.62998 26.547 9.7404 26.5914 9.7516C26.6951 9.77767 26.7596 9.70132 26.8632 9.72739C26.9837 9.75764 27.1979 9.81875 27.3331 9.85953C27.4093 9.88247 27.4575 9.97315 27.5355 9.98879C27.9138 10.0648 27.8462 9.93782 28.1458 10.2396C28.2341 10.3285 28.3799 10.3999 28.4456 10.5067C28.5386 10.6575 28.5483 10.8423 28.6073 11.0066C28.6533 11.1344 28.756 11.2393 28.7803 11.3751C28.8459 11.7404 28.7775 12.1203 28.8219 12.4889C28.8355 12.6015 28.9504 12.7202 28.9625 12.833C29.0083 13.2647 29.016 13.691 28.9639 14.122C28.9462 14.2673 28.8248 14.3264 28.8031 14.4711C28.7671 14.7138 28.839 14.9624 28.8219 15.2073C28.8139 15.3246 28.7491 15.447 28.688 15.5471C28.6434 15.62 28.5414 15.6463 28.5087 15.7252C28.4226 15.9324 28.4443 16.2156 28.4043 16.4401C28.3919 16.8685 28.4007 17.2009 28.4189 17.6291C28.4319 17.9309 28.4626 18.2018 28.4243 18.5014C28.4109 18.6051 28.3247 18.6621 28.3092 18.7656C28.2666 19.0519 28.3032 19.3459 28.2757 19.634C28.271 19.683 28.1988 19.7398 28.1886 19.7879C28.1695 20.0512 28.1512 20.4354 28.0373 20.7318C27.9623 20.9273 27.7799 21.1244 27.6048 21.2376C27.4351 21.3472 27.2528 21.3709 27.0573 21.4211C26.9339 21.4527 26.7956 21.4375 26.6825 21.4964C26.6148 21.5319 26.6602 21.5324 26.5983 21.577C26.5626 21.6026 26.5008 21.6048 26.4671 21.577C26.4195 21.5377 26.4342 21.5216 26.3787 21.4951C26.294 21.4547 26.1836 21.4579 26.0975 21.4951C26.0355 21.522 26.0581 21.5708 25.9917 21.5838C25.8576 21.6102 25.7006 21.6443 25.5556 21.6404C25.4689 21.6382 25.4005 21.6776 25.376 21.5987ZM26.6341 11.9042C26.8223 11.8942 26.8592 11.8839 27.0268 11.9746C27.2001 12.0682 27.2363 12.1299 27.3422 12.299C27.3969 12.3521 27.4514 12.4052 27.5059 12.4582C27.7286 12.6746 27.8336 12.9801 27.9245 13.2663C27.9395 13.577 28.0057 14.1215 27.8517 14.4034C27.7749 14.5442 27.7445 14.6528 27.7314 14.7722C27.695 15.1064 27.6009 15.0542 27.5051 15.3073C27.4791 15.3759 27.4848 15.4613 27.4825 15.6243C27.4741 16.206 27.4655 16.7878 27.4571 17.3695C27.4518 17.7412 27.3823 17.9185 27.2332 18.2618C27.1456 18.4258 27.0996 18.5316 27.0996 18.7178C27.0996 18.9385 27.0548 19.0402 26.9677 19.2413C26.9147 19.3636 26.8616 19.4861 26.8085 19.6086C26.7456 19.7538 26.6879 19.8058 26.6461 19.7864C26.6044 19.7671 26.5785 19.6761 26.5792 19.5351C26.5829 18.8249 26.5866 18.1149 26.5903 17.4047C26.5983 16.6497 26.6064 15.8946 26.6144 15.1396C26.605 14.9774 26.6111 14.9415 26.5054 14.8213C26.4955 14.5768 26.4487 14.4663 26.3718 14.2336C26.2749 14.0501 26.2859 13.9162 26.2836 13.7064C26.2776 13.1817 26.2713 12.6569 26.2653 12.1321C26.2616 11.8101 26.3339 11.9202 26.6341 11.9042ZM14.3474 20.9324C14.2894 20.6468 14.33 20.4199 14.3452 20.2051C14.3524 20.1539 14.455 20.2018 14.4828 20.1585C14.5244 20.0938 14.562 20.0051 14.5345 19.9331C14.518 19.89 14.4888 19.9495 14.4642 19.9104C14.4302 19.8567 14.4422 19.7699 14.4814 19.7198C14.5387 19.6467 14.6533 19.6656 14.6924 19.5811C14.7458 19.4659 14.6542 19.3209 14.6924 19.1997C14.7046 19.1612 14.8034 19.2391 14.8129 19.1997C14.8575 19.0144 14.802 18.8163 14.8301 18.6277C14.8374 18.5786 14.8805 18.5558 14.8862 18.5064C14.91 18.2998 14.9225 18.0872 14.8862 17.8824C14.8636 17.7552 14.7616 17.6637 14.744 17.5357C14.6802 17.0716 14.6608 16.5662 14.7201 16.1015C14.7662 15.7406 14.9946 15.1827 15.1287 14.8449C15.2126 14.6336 15.2537 14.6995 15.3292 14.4849C15.3522 14.4193 15.3682 14.3429 15.3464 14.2769C15.3192 14.1947 15.2229 14.1318 15.2364 14.0463C15.2531 13.9414 15.3811 13.944 15.4152 13.8435C15.4616 13.7069 15.3682 13.5466 15.4152 13.4102C15.4705 13.2497 15.6611 13.1575 15.7078 12.9942C15.7524 12.8384 15.7046 12.5895 15.7483 12.4334C15.8346 12.125 15.9384 11.9258 16.0864 11.6421C16.1738 11.4746 16.3257 11.3331 16.394 11.1568C16.4598 10.9868 16.4531 10.7619 16.4823 10.6194C16.3747 10.484 16.1279 10.673 15.966 10.6141C15.8838 10.5843 15.8841 10.449 15.8028 10.4167C15.6286 10.4048 15.4621 10.4007 15.3381 10.4944C15.1718 10.62 15.1704 10.7673 15.1054 10.9661C15.0083 11.2632 15.0823 11.5969 14.9611 11.8848C14.9131 11.9986 14.7175 12.0306 14.6236 12.1101C14.5739 12.1522 14.5507 12.196 14.4859 12.196C14.421 12.196 14.3644 12.1734 14.3482 12.1101C14.3152 11.9815 14.3546 11.8442 14.3482 11.7115C14.3431 11.607 14.2876 11.5007 14.3138 11.3994C14.3274 11.3467 14.4473 11.3671 14.4515 11.3128C14.5029 10.7172 14.4322 10.1255 14.4412 9.55637C14.4444 9.35655 14.497 9.38618 14.6923 9.38418C15.0213 9.38077 15.5426 9.38334 15.9207 9.38141C16.5841 9.37806 17.2491 9.35313 17.9106 9.37138C18.0091 9.37856 18.1373 9.41538 18.1442 9.51453C18.1581 9.71504 18.0247 9.90838 17.9324 10.0866C17.8836 10.1807 17.7746 10.2423 17.7387 10.3421C17.6776 10.5112 17.7439 10.7116 17.6795 10.8794C17.64 10.9824 17.4395 11.0015 17.4011 11.1048C17.3466 11.2509 17.4407 11.4275 17.3838 11.5728C17.3557 11.6449 17.203 11.6037 17.1773 11.6768C17.0908 11.9241 17.1416 12.2035 17.0741 12.4568C17.0367 12.5967 16.9315 12.6947 16.9126 12.8382C16.8609 13.2276 16.9461 13.6255 16.9126 14.0169C16.9052 14.1019 16.8161 14.1605 16.792 14.2422C16.7353 14.4344 16.6995 14.6422 16.6341 14.8316C16.6059 14.9134 16.5012 14.9558 16.4792 15.0396C16.4469 15.1625 16.5279 15.3037 16.4792 15.4209C16.418 15.5684 16.2024 15.6286 16.1694 15.785C16.0765 16.2261 16.2236 16.6913 16.1553 17.137C16.1247 17.3365 15.9501 17.4932 15.9143 17.6917C15.8682 17.9475 15.9477 18.2499 15.8843 18.5019C15.8233 18.7452 15.6482 18.9561 15.5604 19.1908C15.5398 19.4211 15.2658 19.6325 15.4152 19.8065C15.5954 19.8305 15.8945 19.8675 16.1036 19.7717C16.1999 19.7278 16.0884 19.5243 16.1725 19.4598C16.4294 19.2621 16.7243 19.1908 17.0127 19.0438C17.1777 18.9596 17.385 18.8794 17.5321 18.7665C17.6068 18.709 17.6154 18.5727 17.7041 18.5411C17.7576 18.522 17.7687 18.6528 17.8246 18.6624C18.0168 18.6953 18.1836 18.6125 18.3723 18.6624C18.4478 18.6823 18.4455 18.7846 18.4651 18.8606C18.4827 18.9287 18.5133 19.002 18.4757 19.061C18.453 19.0965 18.371 19.0569 18.355 19.0958C18.3223 19.1759 18.3351 19.2716 18.355 19.3557C18.3708 19.4213 18.4304 19.462 18.4359 19.5291C18.4654 19.8804 18.4752 20.2362 18.4359 20.5865C18.4277 20.66 18.3863 20.7371 18.3133 20.7447C17.8169 20.7217 17.358 20.7584 16.8609 20.7599C16.8097 20.7553 16.8391 20.6641 16.792 20.6438C16.6638 20.5884 16.4326 20.5808 16.2966 20.6122C16.1384 20.6487 16.1251 20.7798 15.966 20.8117C15.6791 20.8695 15.3475 20.8129 15.0583 20.857C14.956 20.8726 14.8779 20.9599 14.7777 20.9851C14.6385 21.0201 14.4191 21.0574 14.3474 20.9324ZM6.68138 21.7465C6.46677 21.8224 6.21639 21.7467 5.98893 21.7516C5.91883 21.7531 5.80471 21.8085 5.73737 21.7886C5.66385 21.767 5.54801 21.6201 5.59396 21.5583C5.77349 21.3172 6.12741 21.2871 6.29132 21.0351C6.38772 20.8869 6.29743 20.6874 6.33885 20.5152C6.35156 20.4623 6.44357 20.4672 6.47078 20.4202C6.49289 20.3821 6.49939 20.3211 6.47078 20.2874C6.40542 20.2105 6.36403 20.3717 6.33824 20.1416C6.31516 19.9358 6.31031 19.7268 6.32927 19.5211C6.34118 19.3902 6.4357 19.4179 6.45357 19.3488C6.48684 19.2202 6.41761 19.1249 6.45189 18.9965C6.46726 18.9388 6.5733 18.9534 6.60268 18.9015C6.63068 18.8521 6.634 18.7781 6.60268 18.7307C6.53847 18.6337 6.36396 18.6352 6.34452 18.5203C6.30875 18.3089 6.32791 18.082 6.3316 17.8722C6.33555 17.6489 6.32031 17.4248 6.33882 17.1973C6.34222 17.155 6.43713 17.1568 6.45189 17.1172C6.48053 17.0402 6.46241 16.9519 6.45189 16.8704C6.44347 16.8049 6.46343 16.6711 6.45845 16.6053C6.45081 16.5042 6.40769 16.4666 6.45434 16.3768C6.48687 16.3142 6.59292 16.3519 6.60268 16.2819C6.65423 15.9122 6.54418 15.5331 6.58382 15.1619C6.59055 15.099 6.68886 15.109 6.70539 15.048C6.732 14.9496 6.74022 14.8364 6.69692 14.7442C6.6765 14.7007 6.58016 14.7006 6.57644 14.6526C6.53411 14.1101 6.60776 13.5972 6.56498 13.0547C6.56097 13.0039 6.43709 13.0752 6.43479 12.8547C6.43224 12.6237 6.41111 12.4083 6.41421 12.2385C6.41661 12.1081 6.69576 12.1046 6.6928 11.9743C6.68831 11.7757 6.71938 11.5516 6.67395 11.3479C6.65935 11.2824 6.57449 11.2932 6.54614 11.2324C6.51945 11.1752 6.54463 11.1182 6.56906 11.0599C6.59838 10.9897 6.67808 10.9454 6.69692 10.8717C6.73141 10.7369 6.72795 10.5897 6.69692 10.454C6.68675 10.4097 6.61068 10.3663 6.58954 10.326C6.55038 10.2514 6.56809 10.1856 6.5158 10.1197C6.47966 10.0743 6.37295 10.1022 6.32898 10.0644C6.21582 9.96708 6.15058 9.85887 6.05567 9.77022C5.96645 9.68697 5.8462 9.62423 5.77746 9.50165C5.73329 9.42291 5.78475 9.2867 5.85613 9.23172C5.91096 9.18951 5.99684 9.19905 6.05774 9.23172C6.10724 9.25831 6.10627 9.36424 6.1618 9.372C6.40473 9.40608 6.64584 9.29838 6.88538 9.3514C6.9898 9.37454 6.99537 9.50738 7.09271 9.55188C7.15782 9.58167 7.2752 9.52408 7.33445 9.5644C7.42142 9.62359 7.4952 9.74952 7.56377 9.81985C7.6519 9.91027 7.72788 9.95052 7.77289 10.0786C7.82968 10.2402 7.80481 10.4061 7.80231 10.5742C7.80011 10.7226 7.82408 10.8728 7.81056 11.0235C7.80603 11.0742 7.70936 11.0504 7.69584 11.0995C7.67212 11.1856 7.68908 11.2821 7.73354 11.3595C7.76586 11.4158 7.85344 11.3871 7.8745 11.4486C7.92362 11.5922 7.92988 11.7683 7.89334 11.9158C7.87975 11.9706 7.77457 11.9353 7.77123 11.9917C7.72891 12.7055 7.71834 13.4255 7.79007 14.1368C7.80224 14.2577 7.99203 14.3008 8.00478 14.4215C8.07591 15.0948 8.01116 15.7763 7.98349 16.4527C7.9796 16.5489 7.93226 16.6699 7.89334 16.7417C7.84978 16.8219 7.87686 16.9021 7.87849 16.9907C7.88062 17.1045 7.8671 17.2287 7.88431 17.3449C7.89414 17.4113 8.02824 17.4745 8.02362 17.5415C8.01092 17.726 8.03697 17.8133 8.04818 17.9952C8.05358 18.0828 7.89521 18.1376 7.84498 18.2092C7.80885 18.2607 7.78687 18.3606 7.81631 18.4164C7.84408 18.4689 7.89395 18.4422 7.90974 18.4997C7.93207 18.5809 7.93395 18.6496 7.89334 18.7234C7.86713 18.7709 7.77056 18.7646 7.7614 18.8182C7.73573 18.9684 7.82042 19.123 7.7991 19.2739C7.79273 19.319 7.6927 19.3047 7.68601 19.3498C7.6525 19.575 7.72392 19.8085 7.68601 20.0331C7.6717 20.1179 7.54126 20.1561 7.53523 20.242C7.53184 20.29 7.64465 20.2565 7.66717 20.2989C7.70273 20.3662 7.61345 20.5054 7.68601 20.5267C7.92716 20.5978 8.22558 20.5794 8.46859 20.5152C8.60623 20.4787 8.66448 20.2844 8.80621 20.2709C8.97695 20.2546 9.10292 20.3682 9.27168 20.3986C9.49419 20.439 9.73761 20.4463 9.95591 20.3871C10.0847 20.3521 10.1596 20.2144 10.2919 20.1967C10.8647 20.1191 11.3962 20.1668 11.9742 20.1637C12.5206 20.1607 13.2197 20.133 13.6254 20.1776C13.8568 20.1854 13.6059 21.0098 13.6894 21.4452C13.7075 21.54 13.7879 21.5931 13.8362 21.6808C13.9133 21.8207 13.9432 21.8918 13.7431 21.891C13.3667 21.8891 12.9858 21.9184 12.5774 21.901C12.4971 21.8976 12.501 21.7418 12.4266 21.711C12.345 21.6774 12.2484 21.7509 12.1627 21.7301C12.0344 21.6989 11.8897 21.575 11.7587 21.5593C11.4094 21.5171 11.0574 21.6053 10.709 21.5568C10.6299 21.5458 10.619 21.3917 10.5394 21.3858C9.72489 21.3258 8.94445 21.412 8.12915 21.3672C7.9545 21.3575 7.93858 21.2962 7.82774 21.2638C7.67089 21.2181 7.3904 21.1999 7.24266 21.2697C6.96732 21.3994 6.96823 21.645 6.68138 21.7465ZM16.4861 18.539C16.316 18.534 16.3046 18.2587 16.3182 18.0899C16.332 17.9172 16.5559 17.9263 16.6358 17.7729C16.694 17.6612 16.6067 17.4649 16.6732 17.3579C16.7446 17.2427 16.9384 17.247 17.0099 17.1318C17.0508 17.0659 16.9898 16.9397 16.9916 16.862C16.9961 16.6783 17.0371 16.5429 17.0287 16.3592C17.0243 16.2637 16.9849 16.0912 17.0028 15.9973C17.0275 15.869 17.1033 15.9002 17.1409 15.7751C17.1877 15.6187 17.1099 15.4407 17.1595 15.2852C17.1793 15.2237 17.3394 15.2545 17.328 15.191C17.3141 15.1136 17.174 15.1552 17.16 15.0779C17.1176 14.8424 17.1152 14.5653 17.1783 14.3346C17.2178 14.1903 17.3803 14.0799 17.4216 13.936C17.4647 13.7852 17.3734 13.6142 17.4216 13.4649C17.4541 13.3635 17.6204 13.3421 17.6461 13.2388C17.7065 12.995 17.6526 12.696 17.7155 12.4529C17.7486 12.3253 17.8147 12.1807 17.8957 12.1007C17.9444 12.0527 17.9881 12.0179 18.011 11.9422C18.0422 11.8386 17.9655 11.7515 17.9831 11.6446C17.9987 11.5501 18.0703 11.4894 18.1158 11.4053C18.1734 11.2992 18.1973 11.1647 18.2525 11.0574C18.3331 10.9006 18.4415 10.7694 18.4992 10.6026C18.5423 10.4782 18.4497 10.2753 18.5049 10.1557C18.583 9.98644 18.785 9.99062 18.862 9.82076C18.9243 9.68355 18.8154 9.50422 18.8808 9.36853C18.9283 9.26968 19.0355 9.22604 19.1444 9.22168C19.2243 9.21849 19.3212 9.27414 19.3484 9.34968C19.4019 9.49768 19.3536 9.67553 19.4142 9.82076C19.5204 10.0762 19.7046 10.2267 19.8067 10.4838C19.8599 10.6179 19.8024 10.8107 19.8349 10.9513C19.8792 11.1425 19.9103 11.3353 19.973 11.5215C20.0508 11.7534 20.1624 11.9783 20.2278 12.2138C20.2857 12.4223 20.2997 12.6486 20.3443 12.8609C20.377 13.0158 20.4367 13.158 20.4897 13.3067C20.5124 13.3705 20.5891 13.3543 20.6073 13.4197C20.6394 13.5353 20.5431 13.6609 20.5699 13.7778C20.6018 13.9174 20.7511 14.0589 20.7756 14.2001C20.8155 14.429 20.7739 14.6479 20.7795 14.8802C20.7845 15.0925 20.8068 15.2897 20.8345 15.4933C20.8516 15.6185 20.9204 15.7971 20.9236 15.8882C20.9352 16.2273 20.9501 16.5612 20.9538 16.9007C20.9595 17.3969 20.9595 17.9273 20.9348 18.4226C20.932 18.4804 20.8635 18.51 20.8434 18.5642C20.767 18.7695 20.7031 18.8831 20.6541 19.0968C20.6283 19.2095 20.6275 19.3309 20.5793 19.436C20.5498 19.5005 20.4181 19.5534 20.3958 19.6208C20.3463 19.7709 20.407 19.9218 20.3961 20.109C20.3869 20.2702 20.3206 20.3628 20.254 20.5127C20.2084 20.6151 20.1342 20.7747 20.106 20.8815C20.0753 20.9975 20.1305 21.1245 20.0968 21.2396C20.079 21.2998 19.9975 21.3288 19.9846 21.3903C19.9522 21.5439 20.0126 21.7115 19.9658 21.8613C19.9395 21.9461 19.9212 21.9337 19.8408 21.9702C19.7838 21.9959 19.6341 22.0252 19.6256 21.9626C19.5893 21.7004 19.6626 21.5182 19.6214 21.2565C19.573 20.9503 19.4459 20.7641 19.3692 20.4637C19.332 20.3178 19.3986 20.0542 19.3298 19.9206C19.206 19.6798 18.8095 19.5825 18.8268 19.3119C18.8434 19.0502 18.9988 18.8799 19.157 18.6669C19.265 18.5211 19.3353 18.283 19.4026 18.1169C19.4521 17.9944 19.4809 17.851 19.4831 17.7301C19.4865 17.5498 19.438 17.4713 19.3024 17.3592C19.0192 17.1248 18.5616 16.9105 18.2091 16.7379C18.1574 16.7126 18.0969 16.8119 18.0969 16.8698C18.0969 16.9277 18.1641 16.9727 18.1708 17.0301C18.1905 17.199 18.089 17.3741 18.1616 17.5275C18.2383 17.6895 18.5408 17.7367 18.496 17.9103C18.4658 18.0266 18.4374 18.0676 18.3394 18.1244C18.2801 18.1588 18.2141 18.1565 18.1447 18.1597C17.9363 18.1693 17.7221 18.095 17.5207 18.1379C17.3021 18.1845 17.1065 18.2863 16.9045 18.3876C16.7708 18.4549 16.6341 18.5436 16.4861 18.539ZM18.3289 15.9047C18.327 15.7385 18.323 15.5749 18.3233 15.4114C18.3237 15.267 18.3272 15.1227 18.3384 14.9766C18.3458 14.8817 18.4321 14.8093 18.4431 14.7148C18.4618 14.5586 18.3665 14.371 18.4099 14.2208C18.4274 14.1598 18.5809 14.221 18.6156 14.1697C18.627 14.1529 18.6503 14.0551 18.6891 13.9717C18.7124 13.9217 18.7609 13.8767 18.7609 13.8576C18.7609 13.8296 18.759 13.6313 18.7798 13.4594C18.7919 13.3597 18.8072 13.2754 18.8223 13.2747C18.8372 13.2741 18.8523 13.3568 18.9048 13.4256C18.9652 13.5048 18.9857 13.5833 19.0385 13.667C19.0697 13.7164 19.1033 13.7746 19.1548 13.7947C19.2204 13.8204 19.2989 13.7843 19.3642 13.8108C19.413 13.8306 19.4249 13.9078 19.4689 13.9385C19.4986 13.9593 19.5667 13.9197 19.5735 13.9577C19.6046 14.1288 19.5777 14.3577 19.6048 14.5296C19.6113 14.5708 19.7017 14.5516 19.7037 14.5935C19.7175 14.8928 19.7244 15.1926 19.7234 15.4923C19.7225 15.7569 19.7157 16.0215 19.7021 16.2858C19.6984 16.3612 19.5007 16.3664 19.4455 16.3241C19.3388 16.2422 19.2712 16.1472 19.1316 16.1134C19.0734 16.0993 19.0763 16.0065 19.0211 15.988C18.8986 15.9469 18.7441 15.9366 18.6161 15.9366C18.5325 15.9366 18.4119 15.9663 18.3289 15.9558C18.3136 15.9538 18.3291 15.9216 18.3289 15.9047ZM22.302 10.7458C22.3023 10.918 22.3206 11.1046 22.3211 11.2849C22.3219 11.517 22.3051 11.7249 22.306 11.9588C22.3068 12.2079 22.3253 12.483 22.3253 12.7266C22.3253 12.9246 22.2894 13.3052 22.3046 13.4697C22.3241 13.6811 22.3357 13.7178 22.6227 13.7178C22.7616 13.7178 22.9499 13.5742 23.0886 13.4292C23.1836 13.3299 23.1693 13.1586 23.2057 13.0844C23.2594 12.9755 23.3512 12.8758 23.3703 12.7493C23.3948 12.5866 23.3357 12.4523 23.4435 12.3482C23.4859 12.3071 23.526 11.8399 23.526 11.7371C23.526 11.5905 23.3732 11.3732 23.1975 11.1788C23.0774 11.0458 22.9333 10.9264 22.8719 10.8353C22.7593 10.6684 22.6751 10.5952 22.5417 10.5652C22.2981 10.5104 22.3018 10.5329 22.302 10.7458ZM21.0159 19.9155C20.9704 20.0963 21.1086 20.1702 21.2722 20.2766C21.4354 20.3831 21.6243 20.5223 21.8022 20.6691C22.1032 20.9175 22.308 21.3709 22.5038 21.8173C22.6046 21.7094 22.5335 21.2061 22.59 20.9047C22.6021 20.8401 22.6712 20.7935 22.6778 20.7281C22.7009 20.4937 22.7066 20.2553 22.6778 20.0216C22.6669 19.9344 22.5831 19.8707 22.5608 19.7861C22.5432 19.7197 22.5474 19.6472 22.5608 19.5799C22.5771 19.4978 22.641 19.4278 22.6484 19.3444C22.6705 19.1 22.685 18.851 22.6484 18.6085C22.6346 18.5169 22.4954 18.4652 22.5023 18.3729C22.5081 18.2966 22.6721 18.3021 22.6778 18.2258C22.6937 18.0069 22.6184 17.7957 22.5915 17.578C22.5308 17.0887 22.4954 16.5965 22.4452 16.106C22.4273 15.9293 22.3572 15.7513 22.3868 15.5761C22.4783 15.3372 22.5618 15.0918 22.6499 14.899C22.6929 14.8422 22.7496 14.9532 22.7932 15.0095C22.9356 15.1927 23.1249 15.4194 23.1658 15.6483C23.216 15.929 23.065 16.1774 23.0972 16.4608C23.1066 16.5435 23.2331 16.5287 23.2623 16.6065C23.4018 16.9785 23.5153 17.3631 23.5839 17.7547C23.6621 18.2009 23.6872 18.656 23.7008 19.109C23.7067 19.306 23.6983 19.5088 23.6423 19.6977C23.5624 19.9676 23.396 20.1827 23.3134 20.4434C23.227 20.7161 23.1992 20.7976 23.4857 20.7974C23.5991 20.7972 23.7315 20.8018 23.8191 20.8459C24.0536 20.964 24.1504 21.2364 24.3731 21.3758C24.4212 21.4059 24.4841 21.4476 24.5504 21.4849C24.8661 21.663 24.9008 21.54 24.9666 21.2616C25.0533 20.8934 25.0753 20.5613 25.1315 20.1982C25.1602 20.014 25.1542 19.8251 25.1622 19.6389C25.1736 19.3734 25.1934 19.1093 25.1798 18.8439C25.1736 18.72 25.1743 18.5845 25.0936 18.4907C25.0331 18.4203 24.8544 18.4922 24.8306 18.4023C24.7978 18.2792 24.9743 18.1766 24.9767 18.049C24.9284 17.7048 24.8841 17.3968 24.8784 17.0576C24.8718 16.6576 24.7868 16.8589 24.6551 16.7022C24.5755 16.6074 24.5507 16.5239 24.5383 16.4005C24.5016 16.0391 24.5536 15.6392 24.4987 15.2803C24.4742 15.1197 24.3997 14.9614 24.2942 14.8387C24.2559 14.7942 24.1858 14.8604 24.1596 14.8077C24.1159 14.7195 24.2504 14.6592 24.1991 14.5752C24.0798 14.3801 23.8302 14.2312 23.6409 14.1041C23.5842 14.0661 23.4844 14.1527 23.4362 14.1041C23.3881 14.0556 23.3893 13.9065 23.4362 13.8568C23.7733 13.8077 23.9468 13.6478 24.1113 13.4565C24.3346 13.1971 24.4439 12.9079 24.5558 12.5836C24.6074 12.4342 24.5413 12.2595 24.5586 12.1023C24.5906 11.8113 24.7421 11.5471 24.6916 11.2588C24.6183 10.8395 24.4131 10.4638 24.1773 10.1106C24.0462 9.91455 23.8427 9.74076 23.6307 9.63959C23.4537 9.55517 23.3055 9.6258 23.1176 9.57043C22.9 9.50632 22.7257 9.38373 22.5038 9.3379C22.331 9.30222 22.1496 9.37484 21.9777 9.33491C21.8703 9.30997 21.8528 9.18841 21.7438 9.17154C21.6686 9.15988 21.5918 9.26958 21.516 9.27604C20.9917 9.32077 20.5614 9.21849 20.0396 9.28782C19.9618 9.29817 19.9839 9.38562 20.0485 9.4306C20.145 9.49784 20.2916 9.46463 20.3993 9.51156C20.5926 9.59591 20.7412 9.70931 20.8845 9.86483C21.0031 9.99346 21.0514 10.1365 21.1591 10.3359C21.2034 10.4176 21.3308 10.2607 21.4224 10.2475C21.5379 10.2309 21.6183 10.2278 21.6913 10.3197C21.7569 10.4021 21.6212 10.512 21.5438 10.5831C21.3873 10.7268 21.2808 10.8029 21.1423 10.8983C21.0477 10.9636 20.8801 11.0223 20.8098 11.1499C20.6538 11.4329 20.8389 11.7548 20.8989 12.0728C20.9209 12.1888 20.9461 12.3022 20.9722 12.4173C21.0571 12.7914 21.0286 13.1027 21.0803 13.4829C21.097 13.6058 21.1836 13.7129 21.1972 13.8362C21.2133 13.9828 21.1871 14.0907 21.209 14.2366C21.218 14.2987 21.2685 14.3645 21.285 14.425C21.3578 14.6942 21.4219 15.0323 21.4311 15.3112C21.4609 16.2234 21.4072 17.117 21.4529 18.0286C21.4571 18.1115 21.5807 18.1443 21.5977 18.2258C21.624 18.352 21.5405 18.497 21.4984 18.6188C21.3254 19.1176 21.1226 19.4909 21.0159 19.9155Z" fill="#0566B0"/>
</svg>
