<svg width="30" height="30" viewBox="0 0 30 30" fill="none" xmlns="http://www.w3.org/2000/svg">
<rect x="0.15" y="0.15" width="29.7" height="29.7" rx="4.85" fill="#BCBCBC" stroke="black" stroke-width="0.3"/>
<path d="M15.2332 6.60001V13.32C15.2332 13.7344 15.5615 14.0704 15.9664 14.0704H22.5331C22.5331 12.0096 22.0844 9.76961 20.7601 8.41441C19.4358 7.05921 17.2469 6.60001 15.2332 6.60001Z" fill="#00832D"/>
<path d="M22.3908 28.8656C19.3264 29.3808 15.6162 28.4512 12.0593 26.2784L13.2522 23.5568L15.9555 22.28L20.191 24.7552L22.3908 28.8656Z" fill="#00832D"/>
<path d="M1.13666 7.1152C0.633217 10.2512 1.53066 14.048 3.66483 17.688L6.40095 16.3776L7.57201 13.6896L5.27367 9.848L1.13666 7.1152Z" fill="#00832D"/>
<path d="M16.3276 1C15.7257 1 15.2332 1.504 15.2332 2.12V6.6C19.2607 6.6 22.5331 9.9488 22.5331 14.0704H26.9109C27.5128 14.0704 28.0053 13.5664 28.0053 12.9504C28.0053 6.3536 22.7739 1 16.3276 1Z" fill="#34A853"/>
<path d="M26.9656 26.2896C27.5457 25.7184 27.5676 24.7888 27.0203 24.1952L21.7451 18.4384C21.1651 17.8784 20.2676 17.8896 19.7094 18.4608L15.9664 22.28L22.3908 28.8544C24.131 28.5968 25.4334 27.8352 26.6154 26.6256L26.9656 26.2896Z" fill="#34A853"/>
<path d="M3.67578 17.688C4.63889 19.3232 5.9194 20.9696 7.37501 22.4592C8.83063 23.9488 10.4723 25.2816 12.0702 26.2672L15.9774 22.28L7.57201 13.6896" fill="#34A853"/>
<path d="M10.3847 10.9008L10.9867 10.3072C11.6981 9.5792 11.6981 8.3808 10.9867 7.6528L6.02883 2.5792C5.31744 1.8512 4.14639 1.8512 3.435 2.5792L3.25988 2.7024C2.11072 3.8784 1.42121 5.4016 1.13666 7.1152L7.572 13.6896L10.3847 10.9008Z" fill="#34A853"/>
</svg>
