<svg width="30" height="30" viewBox="0 0 30 30" fill="none" xmlns="http://www.w3.org/2000/svg">
<path d="M30 25.8333C30 28.135 28.135 30 25.8333 30H4.16667C1.86583 30 0 28.135 0 25.8333V4.16667C0 1.865 1.86583 0 4.16667 0H25.8333C28.135 0 30 1.865 30 4.16667V25.8333Z" fill="#424242"/>
<path d="M20.8334 5H16.6667V24.5833C18.75 24.5833 20.8217 25.01 20.8334 25C20.845 24.99 20.8334 5 20.8334 5Z" fill="#B71C1C"/>
<path d="M9.16662 5H13.3333V24.5833C11.25 24.5833 9.17829 25.01 9.16662 25C9.15496 24.99 9.16662 5 9.16662 5Z" fill="#B71C1C"/>
<path d="M13.3334 5H9.16669L16.6667 24.5833C18.75 24.5833 20.8217 25.01 20.8334 25C20.845 24.99 13.3334 5 13.3334 5Z" fill="#E53935"/>
</svg>
