<svg width="30" height="30" viewBox="0 0 30 30" fill="none" xmlns="http://www.w3.org/2000/svg">
<path d="M23.4783 30H6.52174C2.93478 30 0 27.0652 0 23.4783V6.52174C0 2.93478 2.93478 0 6.52174 0H23.4783C27.0652 0 30 2.93478 30 6.52174V23.4783C30 27.0652 27.0652 30 23.4783 30Z" fill="url(#paint0_radial_57_41)"/>
<path d="M15 5.86958C18 5.86958 18.3261 5.86958 19.5 5.93479C20.6087 6.00001 21.1957 6.19566 21.587 6.3261C22.1087 6.52175 22.5 6.78262 22.8913 7.17393C23.2826 7.56523 23.5435 7.95653 23.7391 8.47827C23.8696 8.86958 24.0652 9.45653 24.1304 10.5652C24.1304 11.6739 24.1304 12 24.1304 15C24.1304 18 24.1304 18.3261 24.0652 19.5C24 20.6087 23.8044 21.1957 23.6739 21.587C23.4783 22.1087 23.2174 22.5 22.8261 22.8913C22.4348 23.2826 22.0435 23.5435 21.5218 23.7391C21.1304 23.8696 20.5435 24.0652 19.4348 24.1304C18.3261 24.1304 18 24.1304 15 24.1304C12 24.1304 11.6739 24.1304 10.5 24.0652C9.39132 24 8.80436 23.8044 8.41306 23.6739C7.89132 23.4783 7.50001 23.2174 7.10871 22.8261C6.7174 22.4348 6.45653 22.0435 6.26088 21.5218C6.13045 21.1304 5.93479 20.5435 5.86958 19.4348C5.86958 18.3261 5.86958 18 5.86958 15C5.86958 12 5.86958 11.6739 5.93479 10.5C6.00001 9.39132 6.19566 8.80436 6.3261 8.41306C6.52175 7.89132 6.78262 7.50001 7.17393 7.10871C7.56523 6.7174 7.95653 6.45653 8.47827 6.26088C8.86958 6.13045 9.45653 5.93479 10.5652 5.86958C11.6739 5.86958 12 5.86958 15 5.86958ZM15 3.91306C12 3.91306 11.6087 3.91306 10.4348 3.97827C9.26088 4.04349 8.47827 4.23914 7.76088 4.50001C7.04349 4.76088 6.39132 5.15219 5.80436 5.80436C5.2174 6.45653 4.8261 7.04349 4.50001 7.76088C4.23914 8.47827 4.04349 9.26088 3.97827 10.4348C3.91306 11.6087 3.91306 12 3.91306 15C3.91306 18 3.91306 18.3913 3.97827 19.5652C4.04349 20.7391 4.23914 21.5218 4.50001 22.2391C4.76088 22.9565 5.15219 23.6087 5.80436 24.1957C6.39132 24.7826 7.04349 25.1739 7.76088 25.5C8.47827 25.7609 9.26088 25.9565 10.4348 26.0218C11.6087 26.087 12 26.087 15 26.087C18 26.087 18.3913 26.087 19.5652 26.0218C20.7391 25.9565 21.5218 25.7609 22.2391 25.5C22.9565 25.2391 23.6087 24.8478 24.1957 24.1957C24.7826 23.6087 25.1739 22.9565 25.5 22.2391C25.7609 21.5218 25.9565 20.7391 26.0218 19.5652C26.087 18.3913 26.087 18 26.087 15C26.087 12 26.087 11.6087 26.0218 10.4348C25.9565 9.26088 25.7609 8.47827 25.5 7.76088C25.2391 7.04349 24.8478 6.39132 24.1957 5.80436C23.5435 5.2174 22.9565 4.8261 22.2391 4.50001C21.5218 4.23914 20.7391 4.04349 19.5652 3.97827C18.3913 3.91306 18 3.91306 15 3.91306Z" fill="white"/>
<path d="M15 9.13043C11.7391 9.13043 9.13043 11.7391 9.13043 15C9.13043 18.2609 11.7391 20.8696 15 20.8696C18.2609 20.8696 20.8696 18.2609 20.8696 15C20.8696 11.7391 18.2609 9.13043 15 9.13043ZM15 18.913C12.8478 18.913 11.087 17.1522 11.087 15C11.087 12.8478 12.8478 11.087 15 11.087C17.1522 11.087 18.913 12.8478 18.913 15C18.913 17.1522 17.1522 18.913 15 18.913Z" fill="white"/>
<path d="M20.8696 10.4348C21.5899 10.4348 22.1739 9.8508 22.1739 9.13043C22.1739 8.41006 21.5899 7.82608 20.8696 7.82608C20.1492 7.82608 19.5652 8.41006 19.5652 9.13043C19.5652 9.8508 20.1492 10.4348 20.8696 10.4348Z" fill="white"/>
<defs>
<radialGradient id="paint0_radial_57_41" cx="0" cy="0" r="1" gradientUnits="userSpaceOnUse" gradientTransform="translate(6.20147 36.0623) rotate(-49.945) scale(45.421 30.0044)">
<stop offset="0.073" stop-color="#EACC7B"/>
<stop offset="0.184" stop-color="#ECAA59"/>
<stop offset="0.307" stop-color="#EF802E"/>
<stop offset="0.358" stop-color="#EF6D3A"/>
<stop offset="0.46" stop-color="#F04B50"/>
<stop offset="0.516" stop-color="#F03E58"/>
<stop offset="0.689" stop-color="#DB359E"/>
<stop offset="0.724" stop-color="#CE37A4"/>
<stop offset="0.789" stop-color="#AC3CB4"/>
<stop offset="0.877" stop-color="#7544CF"/>
<stop offset="0.98" stop-color="#2B4FF2"/>
</radialGradient>
</defs>
</svg>
