<svg width="30" height="30" viewBox="0 0 30 30" fill="none" xmlns="http://www.w3.org/2000/svg">
<path d="M15 0C11.0218 0 7.20644 1.58035 4.3934 4.3934C1.58035 7.20644 0 11.0218 0 15C0 18.9782 1.58035 22.7936 4.3934 25.6066C7.20644 28.4196 11.0218 30 15 30C18.9782 30 22.7936 28.4196 25.6066 25.6066C28.4196 22.7936 30 18.9782 30 15C30 11.0218 28.4196 7.20644 25.6066 4.3934C22.7936 1.58035 18.9782 0 15 0Z" fill="#29B6F6"/>
<path d="M23.3902 7.76786L20.5138 22.4539C20.5138 22.4539 20.3902 23.125 19.5578 23.125C19.1155 23.125 18.8875 22.9146 18.8875 22.9146L12.6571 17.7446L9.60868 16.2081L5.69645 15.1677C5.69645 15.1677 5 14.9665 5 14.3906C5 13.9107 5.71641 13.6819 5.71641 13.6819L22.0841 7.17968C22.0841 7.17968 22.5839 6.99923 22.9487 7C23.1729 7 23.4286 7.09598 23.4286 7.38393C23.4286 7.5759 23.3902 7.76786 23.3902 7.76786Z" fill="white"/>
<path d="M14.9821 19.6735L12.3515 22.2642C12.3515 22.2642 12.237 22.3526 12.0842 22.3564C12.0313 22.3579 11.9744 22.3495 11.9161 22.3234L12.6563 17.7431L14.9821 19.6735Z" fill="#B0BEC5"/>
<path d="M20.278 10.2219C20.1483 10.053 19.9087 10.0223 19.7398 10.1505L9.60712 16.2143C9.60712 16.2143 11.2242 20.7385 11.4707 21.5217C11.718 22.3057 11.9161 22.3241 11.9161 22.3241L12.6563 17.7438L20.2058 10.7594C20.3748 10.6312 20.4063 10.3908 20.278 10.2219Z" fill="#CFD8DC"/>
</svg>
