<svg width="30" height="30" viewBox="0 0 30 30" fill="none" xmlns="http://www.w3.org/2000/svg">
<rect x="0.15" y="0.15" width="29.7" height="29.7" rx="4.85" fill="#BCBCBC" stroke="black" stroke-width="0.3"/>
<path d="M4.43518 11.2895C0.999822 11.2889 0.984368 13.8817 1.00211 14.5542C1.00211 14.5542 0.833835 17.5855 4.46952 17.5855C7.59351 17.5855 7.7469 15.6835 7.7469 15.6835L6.31026 15.6864C6.31026 15.6864 6.03037 16.7344 4.47582 16.7058C2.4771 16.6697 2.39926 14.7237 2.39926 14.7237H7.86939C7.86939 14.7237 8.23742 11.29 4.43518 11.2895ZM2.44505 13.8737C2.44505 13.8737 2.5435 12.1766 4.51932 12.1761C6.48826 12.1755 6.48826 13.8737 6.48826 13.8737H2.44505Z" fill="#F44336"/>
<path d="M11.7758 11.2895C10.0255 11.2797 9.27226 12.2734 9.27226 12.2734V9H7.86938V17.5855H9.19499L9.25337 16.5925C9.25337 16.5925 9.88927 17.5855 11.7466 17.5855C13.6045 17.5855 15.0715 16.4992 15.111 14.4856C15.1493 12.4708 13.5267 11.2986 11.7758 11.2895ZM11.4547 16.6875C9.24421 16.7138 9.28027 14.4621 9.28027 14.4621C9.28027 14.4621 9.19957 12.2453 11.4513 12.1898C13.7024 12.1343 13.6692 14.5085 13.6692 14.5085C13.6692 14.5085 13.6652 16.6606 11.4547 16.6875Z" fill="#1976D2"/>
<path d="M20.7116 11.2895H22.3177L24.6678 15.9743L27.0225 11.2895H28.4746L24.2237 19.875H22.6703L23.9008 17.3205L20.7116 11.2895Z" fill="#8BC34A"/>
<path d="M18.5864 11.2992C18.5864 11.2992 15.7915 11.0611 15.4132 13.0066H16.8945C16.97 12.7691 17.2803 12.1658 18.4885 12.1875C19.9103 12.2127 20.1696 12.7616 20.1616 13.579C20.1616 13.579 18.943 13.5824 18.536 13.5841C17.8034 13.5875 15.2386 13.7816 14.9994 15.2697C14.7143 17.0401 16.3725 17.5924 17.67 17.585C18.967 17.5781 19.7071 17.2078 20.2572 16.5444L20.3161 17.5918L21.6062 17.5855V13.6906C21.5696 13.0249 21.6062 11.4177 18.5864 11.2992ZM17.9122 16.7333C17.9122 16.7333 16.5064 16.735 16.424 15.6647C16.3359 14.5222 18.5864 14.4753 18.5864 14.4753L20.1764 14.4736C20.1764 14.4736 20.4334 16.7653 17.9122 16.7333Z" fill="#FFC107"/>
</svg>
