<svg width="30" height="30" viewBox="0 0 30 30" fill="none" xmlns="http://www.w3.org/2000/svg">
<rect x="0.15" y="0.15" width="29.7" height="29.7" rx="4.85" fill="#BCBCBC" stroke="black" stroke-width="0.3"/>
<path d="M22.9375 14.125C24.836 14.125 26.375 15.664 26.375 17.5625V23.8125C26.375 25.711 24.836 27.25 22.9375 27.25H12.9375C11.039 27.25 9.5 25.711 9.5 23.8125V17.5625C9.5 15.664 11.039 14.125 12.9375 14.125H22.9375Z" fill="#FF884D"/>
<path d="M2 16.6987C2 15.5372 3.22236 14.7817 4.26128 15.3013L10.8568 18.599C11.1744 18.7577 11.375 19.0824 11.375 19.4375V21.9375C11.375 22.2926 11.1744 22.6172 10.8568 22.776L4.26128 26.0737C3.22236 26.5933 2 25.8377 2 24.6763V16.6987ZM12.3125 1C9.03331 1 6.375 3.65831 6.375 6.9375C6.375 10.2167 9.03331 12.875 12.3125 12.875C15.5918 12.875 18.25 10.2167 18.25 6.9375C18.25 3.65831 15.5918 1 12.3125 1Z" fill="#FF884D"/>
<path d="M21.0625 3.5C18.4736 3.5 16.375 5.59866 16.375 8.1875C16.375 10.7763 18.4736 12.875 21.0625 12.875C23.6514 12.875 25.75 10.7763 25.75 8.1875C25.75 5.59866 23.6514 3.5 21.0625 3.5Z" fill="#FF884D"/>
<path fill-rule="evenodd" clip-rule="evenodd" d="M18.1182 8.1875H6.50684C7.08086 10.8665 9.46214 12.875 12.3125 12.875C15.1629 12.875 17.5441 10.8665 18.1182 8.1875Z" fill="#E57A45"/>
<path fill-rule="evenodd" clip-rule="evenodd" d="M25.75 8.1875H16.375C16.375 10.7763 18.4736 12.875 21.0625 12.875C23.6514 12.875 25.75 10.7763 25.75 8.1875ZM26.375 20.6875V23.8125C26.375 25.711 24.836 27.25 22.9375 27.25H12.9375C11.039 27.25 9.5 25.711 9.5 23.8125V20.6875H26.375Z" fill="#E57A45"/>
<path fill-rule="evenodd" clip-rule="evenodd" d="M11.375 20.6875V21.9375C11.375 22.2926 11.1744 22.6172 10.8568 22.776L4.26128 26.0738C3.22236 26.5932 2 25.8377 2 24.6762V20.6875H11.375Z" fill="#E57A45"/>
</svg>
