<svg width="30" height="30" viewBox="0 0 30 30" fill="none" xmlns="http://www.w3.org/2000/svg">
<path d="M15.0004 0.714294C13.0211 0.714294 6.99787 0.714294 3.66787 3.61001C1.68487 5.49144 0.750366 8.21001 0.750366 12.1429V14.2857C0.750366 18.2186 1.68487 20.9372 3.69112 22.84C4.69012 23.7079 6.05212 24.4014 7.71712 24.8807L8.25037 25.0336V28.8393C8.25037 29.2857 8.38612 29.2857 8.43112 29.2857C8.52337 29.2857 8.67112 29.2579 8.95162 29.0207C9.01912 28.9572 9.51412 28.4472 11.9216 25.8786L12.1646 25.6193L12.5284 25.6414C13.3346 25.6893 14.1664 25.7143 15.0004 25.7143C16.9796 25.7143 23.0029 25.7143 26.3329 22.8179C28.3151 20.9364 29.2504 18.2179 29.2504 14.2857V12.1429C29.2504 8.21001 28.3159 5.49144 26.3096 3.58858C23.0029 0.714294 16.9796 0.714294 15.0004 0.714294Z" fill="url(#paint0_linear_57_110)"/>
<path d="M22.0886 17.7529C21.2554 17.0843 20.8706 16.8821 19.7201 16.2243C19.2409 15.9507 18.5104 15.7143 18.1271 15.7143C17.8654 15.7143 17.5519 15.905 17.3599 16.0879C16.8679 16.5564 16.7066 17.1429 15.8441 17.1429C15.0004 17.1429 13.5266 16.325 12.4691 15.2679C11.3591 14.2607 10.5004 12.8571 10.5004 12.0536C10.5004 11.2321 11.1049 11.0679 11.5969 10.5986C11.7889 10.4164 12.0004 10.1179 12.0004 9.86857C12.0004 9.50357 11.7521 8.81857 11.4649 8.36214C10.7741 7.26571 10.5626 6.89929 9.85987 6.10643C9.62212 5.83786 9.35137 5.715 9.06787 5.71429C8.58862 5.71357 7.95937 5.94 7.53337 6.24214C6.89287 6.69714 6.22312 7.31643 6.04387 8.08786C6.01987 8.19286 6.00563 8.29857 6.00113 8.40429C5.96663 9.20786 6.29812 10.0236 6.65587 10.7143C7.49812 12.3421 8.61263 13.9179 9.82537 15.325C10.2131 15.775 10.6354 16.1936 11.0726 16.5979C11.4971 17.0136 11.9366 17.4157 12.4091 17.7857C13.8866 18.9407 15.5411 20.0021 17.2504 20.8043C17.9689 21.1414 18.8149 21.4514 19.6504 21.4286C19.7696 21.425 19.8889 21.4121 20.0081 21.3871C20.8181 21.2171 21.4684 20.5786 21.9461 19.9686C22.2634 19.5629 22.5011 18.9643 22.5004 18.5071C22.4996 18.2371 22.3706 17.9793 22.0886 17.7529ZM22.5004 14.2857C22.0864 14.2857 21.7504 13.9657 21.7504 13.5714V12.8571C21.7504 9.31286 18.7219 6.42857 15.0004 6.42857C14.5864 6.42857 14.2504 6.10857 14.2504 5.71429C14.2504 5.32 14.5864 5 15.0004 5C19.5491 5 23.2504 8.525 23.2504 12.8571V13.5714C23.2504 13.9657 22.9144 14.2857 22.5004 14.2857ZM17.8939 12.8571C17.5609 12.8571 17.2564 12.6443 17.1686 12.3229C16.9631 11.5721 16.3481 10.9857 15.5629 10.7929C15.1616 10.6936 14.9209 10.3043 15.0244 9.92214C15.1279 9.54072 15.5359 9.31143 15.9386 9.40929C17.2496 9.73286 18.2771 10.7107 18.6199 11.9621C18.7241 12.3443 18.4841 12.7336 18.0836 12.8336C18.0199 12.8493 17.9561 12.8571 17.8939 12.8571ZM20.2504 13.5714C19.8364 13.5714 19.5004 13.2514 19.5004 12.8571C19.5004 10.58 17.6299 8.70143 15.2419 8.58143C14.8279 8.56071 14.5106 8.22429 14.5324 7.83071C14.5541 7.43643 14.9134 7.13357 15.3206 7.155C18.5059 7.315 21.0004 9.82 21.0004 12.8571C21.0004 13.2514 20.6644 13.5714 20.2504 13.5714ZM15.0004 0C11.6254 0 6.36637 0.295714 3.16237 3.08286C0.897375 5.23071 0.000375054 8.24357 0.000375054 12.1429C0.000375054 12.4657 -0.00112505 12.8257 0.00187495 13.2143C-0.00112505 13.6021 0.000375054 13.9621 0.000375054 14.285C0.000375054 18.1843 0.897375 21.1971 3.16237 23.345C4.38188 24.4057 5.90287 25.1036 7.50037 25.5636V28.8393C7.50037 29.9793 8.28712 30 8.43112 30H8.43787C8.80837 29.9986 9.12863 29.8257 9.44963 29.5543C9.57038 29.4521 10.9646 27.9721 12.4811 26.3536C13.3841 26.4086 14.2421 26.4286 14.9996 26.4286C18.3746 26.4286 23.6329 26.1321 26.8376 23.345C29.1019 21.1979 29.9996 18.1843 29.9996 14.285C29.9996 13.9621 30.0011 13.6021 29.9981 13.2136C30.0011 12.825 29.9996 12.4657 29.9996 12.1421C29.9996 8.24286 29.1026 5.23 26.8376 3.08214C23.6336 0.295714 18.3754 0 15.0004 0ZM27.7504 14.0364V14.285C27.7504 17.7893 26.9666 20.1771 25.2859 21.7936C22.3744 24.2857 16.8281 24.2857 14.9996 24.2857C14.4431 24.2857 13.5401 24.285 12.4744 24.2143C12.1781 24.5314 9.00037 27.9164 9.00037 27.9164V23.7286C7.42237 23.3679 5.86313 22.7764 4.71488 21.7943C3.03413 20.1771 2.25038 17.7893 2.25038 14.285V14.0364C2.25038 13.7857 2.24962 13.515 2.25187 13.1986C2.24962 12.9129 2.24962 12.6429 2.25038 12.3914V12.1429C2.25038 8.63857 3.03413 6.25071 4.71488 4.63429C7.62563 2.14214 13.1726 2.14214 15.0004 2.14214C16.8281 2.14214 22.3744 2.14214 25.2851 4.63429C26.9666 6.25071 27.7496 8.63857 27.7496 12.1429V12.3914C27.7496 12.6421 27.7504 12.9129 27.7481 13.2293C27.7504 13.5157 27.7504 13.7857 27.7504 14.0364Z" fill="url(#paint1_linear_57_110)"/>
<defs>
<linearGradient id="paint0_linear_57_110" x1="7.58362" y1="-7.12213" x2="21.3555" y2="34.5103" gradientUnits="userSpaceOnUse">
<stop stop-color="#FCFCFC"/>
<stop offset="0.495" stop-color="#F4F4F4"/>
<stop offset="0.946" stop-color="#E8E8E8"/>
<stop offset="1" stop-color="#E8E8E8"/>
</linearGradient>
<linearGradient id="paint1_linear_57_110" x1="28.9564" y1="31.7121" x2="0.792722" y2="-9.34879" gradientUnits="userSpaceOnUse">
<stop stop-color="#912FBD"/>
<stop offset="1" stop-color="#9332BF"/>
</linearGradient>
</defs>
</svg>
