<svg width="30" height="30" viewBox="0 0 30 30" fill="none" xmlns="http://www.w3.org/2000/svg">
<path d="M30 25.8333C30 28.135 28.135 30 25.8333 30H4.16667C1.86583 30 0 28.135 0 25.8333V4.16667C0 1.865 1.86583 0 4.16667 0H25.8333C28.135 0 30 1.865 30 4.16667V25.8333Z" fill="#3F51B5"/>
<path d="M23.64 15.8333H20.8334V26.6667H16.6667V15.8333H14.1667V12.5H16.6667V10.4917C16.6684 7.56834 17.8825 5.83334 21.3267 5.83334H24.1667V9.16668H22.2609C20.92 9.16668 20.8334 9.66668 20.8334 10.6025V12.5H24.1667L23.64 15.8333Z" fill="white"/>
</svg>
