<svg width="139" height="29" viewBox="0 0 139 29" fill="none" xmlns="http://www.w3.org/2000/svg">
<g clip-path="url(#clip0_1_8972)">
<path fill-rule="evenodd" clip-rule="evenodd" d="M5.21816 18.7735L5.21926 21.3993V22.0521C5.22147 24.4732 5.22367 27.2195 5.21816 27.8657C5.21816 28.4577 4.93071 28.7432 4.347 28.7531C3.18839 28.7631 2.01986 28.7631 0.86125 28.7531C0.266525 28.7531 0 28.4677 0 27.8657V0.854725C0 0.272701 0.256613 0.0182038 0.840325 0.0182038C1.83924 0.0182038 2.83816 0.0137777 3.83598 0.00935171H3.83928C6.22259 -0.00171338 8.60589 -0.0127785 10.9892 0.0381209C15.8571 0.141026 19.4773 3.73829 19.692 8.58037C19.8043 11.1585 19.3132 13.5552 17.6325 15.5934C15.9298 17.6626 13.6644 18.6618 11.0101 18.7636C9.54754 18.8244 6.57171 18.789 5.55407 18.7768L5.21816 18.7735ZM5.23799 14.4825L6.84264 14.4803C7.88892 14.4781 8.91868 14.4758 9.95394 14.4825C11.2755 14.4936 12.3527 13.9823 13.1721 12.9743C14.443 11.4141 14.7712 9.62159 14.2591 7.70401C13.6754 5.52198 12.0146 4.29929 9.759 4.29929H5.249C5.23799 7.71397 5.23799 11.0678 5.23799 14.4825ZM37.4941 27.8049C37.7606 28.4577 38.1814 28.8239 38.9391 28.7631C39.4116 28.7222 41.3995 28.7531 41.9127 28.7631C42.8764 28.7631 43.1837 28.3039 42.7839 27.4275C38.7287 18.5356 34.6758 9.6404 30.6261 0.741861C30.4015 0.242825 30.0931 0.0591446 29.56 0.0691032C29.0479 0.0801683 28.8221 0.364541 28.6272 0.782801C26.5417 5.32073 24.4536 9.85741 22.3628 14.3929L22.1238 14.9129L22.1095 14.9439L21.7416 15.7439C19.1843 21.2964 16.8737 26.3133 16.3461 27.4696C15.9673 28.284 16.2856 28.7531 17.1765 28.7531H20.1502C21.0423 28.7531 21.3286 28.5695 21.6667 27.754L21.9586 27.0613L22.1205 26.6762C22.5357 25.6936 22.9498 24.7111 23.3485 23.7174C23.4916 23.3611 23.6657 23.2084 24.0864 23.2084C27.6327 23.2283 31.168 23.2184 34.7143 23.2084H35.0557C35.4335 23.2084 35.6284 23.2992 35.7716 23.6665C36.1494 24.6115 36.5459 25.552 36.9423 26.4914L36.9534 26.5158L36.9831 26.5877L37.0106 26.653L37.4952 27.8037L37.4941 27.8049ZM25.5622 18.8753H33.5788C32.224 15.9184 30.8742 12.9592 29.5292 9.99781C28.2001 12.9539 26.8778 15.9131 25.5622 18.8753ZM57.8811 0.681003C55.81 3.74235 53.7291 6.79707 51.6387 9.84511C51.5748 9.75659 50.827 8.66225 49.8303 7.20609C48.3348 5.01859 46.8362 2.83323 45.3346 0.65002C45.1705 0.41544 44.8632 0.120003 44.6077 0.110044C43.2067 0.0570951 41.8043 0.0500835 40.4028 0.0890203C39.8389 0.100085 39.5525 0.640062 39.7772 1.15901C39.8235 1.27741 42.329 5.02626 44.8698 8.82712L44.8797 8.84151C46.2806 10.9372 47.6926 13.0485 48.7058 14.5732C48.871 14.8255 48.9591 15.1198 48.9624 15.4197C48.969 19.5282 48.9723 23.6366 48.9723 27.744C48.9723 28.4986 49.2179 28.7531 49.9767 28.7531H53.1035C53.9647 28.7531 54.2004 28.5186 54.2004 27.6721C54.2037 23.6521 54.2004 19.63 54.1905 15.6034C54.1786 15.1665 54.3081 14.7374 54.5594 14.3807C57.4841 10.0968 60.4026 5.80868 63.3151 1.51642C63.5409 1.19 63.7248 0.874642 63.52 0.476298C63.3151 0.0691032 62.9252 0.0691032 62.5464 0.0691032H61.9924L61.5452 0.0724227C60.717 0.0768487 59.8866 0.0801683 59.0606 0.0591446C58.5276 0.0480795 58.1784 0.232867 57.8811 0.681003ZM138.769 24.1556C138.746 26.7006 136.661 28.7498 134.105 28.7387C131.549 28.7277 129.483 26.6607 129.482 24.1146C129.498 22.8886 129.995 21.7184 130.864 20.8579C131.733 19.9974 132.906 19.5161 134.126 19.5182C134.736 19.5156 135.341 19.6338 135.906 19.8662C136.471 20.0986 136.985 20.4406 137.418 20.8726C137.849 21.3021 138.191 21.8137 138.423 22.3774C138.655 22.9411 138.772 23.5456 138.769 24.1556ZM138.205 24.1965C138.133 26.4593 136.309 28.2242 134.063 28.1822C133.526 28.1755 132.995 28.0622 132.501 27.8487C132.008 27.6353 131.561 27.3259 131.186 26.9385C130.814 26.5528 130.522 26.0962 130.328 25.5954C130.134 25.0947 130.042 24.56 130.056 24.0228C130.097 21.8109 131.963 20.0482 134.238 20.0892C136.442 20.129 138.267 22.0145 138.205 24.1965ZM134.884 24.5229L135.324 25.1503C135.589 25.5243 135.846 25.8917 136.104 26.2657C135.643 26.4494 135.386 26.3066 135.202 25.9503C135.131 25.8179 135.051 25.691 134.961 25.5708C134.891 25.4712 134.821 25.3716 134.761 25.2665C134.402 24.6546 133.89 24.4521 133.151 24.6358V26.3066C132.98 26.3149 132.809 26.3286 132.639 26.3476V22.4029C132.861 22.4029 133.081 22.3996 133.299 22.3973C133.8 22.3847 134.301 22.3898 134.801 22.4128C135.396 22.4438 135.724 22.8001 135.786 23.3312C135.848 23.8513 135.592 24.2474 135.038 24.461C134.99 24.4888 134.938 24.5096 134.884 24.5229ZM133.619 24.0881C133.467 24.0861 133.314 24.085 133.161 24.0848V22.8311C133.31 22.8311 133.457 22.8289 133.603 22.8278C133.96 22.8234 134.307 22.8189 134.648 22.8411C135.018 22.8709 135.264 23.0956 135.254 23.4729C135.243 23.8203 135.038 24.0538 134.679 24.0748C134.331 24.0969 133.983 24.0925 133.619 24.0881Z" fill="#0F0F0F"/>
<path fill-rule="evenodd" clip-rule="evenodd" d="M121.828 17.2768C121.971 17.5523 122.095 17.7968 122.218 18.0325C123.859 21.1086 125.5 24.1891 127.141 27.2719C127.243 27.4312 127.323 27.6038 127.376 27.7842C127.499 28.2544 127.221 28.6639 126.74 28.6738C125.305 28.6937 123.869 28.6838 122.434 28.6838C122.003 28.6838 121.87 28.3562 121.727 28.0497C120.117 24.7479 118.497 21.4461 116.907 18.1354C116.712 17.726 116.487 17.5523 116.015 17.5622C114.921 17.5929 113.827 17.5929 112.733 17.5622C112.283 17.5512 112.15 17.7061 112.15 18.1553C112.161 21.2934 112.161 24.4215 112.161 27.5596C112.161 28.5399 112.016 28.6838 111.043 28.6838H108.069C107.279 28.6838 107.065 28.4791 107.065 27.6923V0.962403C107.065 0.25645 107.3 0.0108052 108.007 0.0108052C111.751 0.0108052 115.492 -0.00911196 119.234 0.0108052C123.417 0.0329354 126.832 2.76159 127.571 6.77821C128.36 11.0516 126.586 14.9963 122.423 16.9902C122.221 17.0773 122.022 17.1729 121.828 17.2768ZM112.242 13.4029C112.468 13.4029 116.691 13.3918 118.64 13.4029C119.396 13.4074 120.132 13.159 120.732 12.6969C122.27 11.5517 122.988 9.36412 122.454 7.43327C121.89 5.37848 120.394 4.23324 118.271 4.23324H112.242V13.4029ZM71.2555 4.23324V12.2776H80.8317C81.6423 12.2776 81.878 12.5132 81.878 13.3V15.5484C81.878 16.2544 81.6324 16.5 80.9242 16.5H71.2655V24.5443H82.7602C83.6412 24.5443 83.8362 24.738 83.8362 25.6176V27.7643C83.8362 28.53 83.6005 28.7657 82.8318 28.7657C77.9814 28.7657 67.3799 28.7767 66.9394 28.7657C66.4328 28.7568 66.1728 28.5632 66.0991 28.1394C66.088 28.0741 66.0781 9.99815 66.0781 1.20694C66.0781 0.18674 66.2521 0.0229768 67.2566 0.0229768H82.6776C83.6523 0.0229768 83.8263 0.196699 83.8263 1.18813V3.23185C83.8263 4.02854 83.6104 4.2432 82.791 4.2432C79.1709 4.23214 71.5221 4.23214 71.2555 4.23214V4.23324ZM86.6743 14.3622V1.02437C86.6743 0.18674 86.8594 0.00195313 87.6898 0.00195313H103.377C104.177 0.00195313 104.382 0.207764 104.382 0.984533V3.28386C104.382 4.00973 104.177 4.22439 103.438 4.22439H92.5181C91.7703 4.22439 91.7703 4.22439 91.7703 4.96022C91.7703 7.20865 91.7813 9.45707 91.7592 11.7066C91.7592 12.1558 91.8936 12.2787 92.3452 12.2787C95.2968 12.2588 98.2605 12.2676 101.213 12.2676C102.29 12.2676 102.433 12.4114 102.433 13.4538V15.6004C102.433 16.2455 102.198 16.49 101.531 16.49C99.9731 16.5011 93.8309 16.5011 92.3033 16.49C91.9244 16.49 91.7603 16.562 91.7603 16.9913C91.7802 19.3426 91.7802 21.694 91.7603 24.0442C91.7603 24.4624 91.9145 24.5443 92.3033 24.5443C95.9642 24.5355 99.614 24.5355 103.275 24.5355C104.239 24.5355 104.382 24.6782 104.382 25.6597V27.8063C104.382 28.5311 104.166 28.7568 103.448 28.7568H87.7614C86.8484 28.7568 86.6854 28.593 86.6854 27.6934C86.6743 23.2563 86.671 18.8137 86.6743 14.3644V14.3622Z" fill="#0094FF"/>
</g>
<defs>
<clipPath id="clip0_1_8972">
<rect width="138.769" height="28.7692" fill="white"/>
</clipPath>
</defs>
</svg>
