<svg width="164" height="22" viewBox="0 0 164 22" fill="none" xmlns="http://www.w3.org/2000/svg">
<g clip-path="url(#clip0_1_9034)">
<path d="M13.3023 14.1911L12.7974 14.3531V1.34858H14.6335V16.3894H12.7974L3.11237 3.56999L3.61728 3.40801V16.3894H1.78125V1.34858H3.61728L13.3023 14.1911ZM25.5539 16.6208C24.1918 16.6208 22.9525 16.3049 21.8359 15.672C20.7343 15.0241 19.8542 14.1217 19.1966 12.9647C18.538 11.8077 18.2087 10.4425 18.2087 8.86898C18.2087 7.29548 18.538 5.93024 19.1966 4.77326C19.8542 3.60118 20.7333 2.69873 21.8359 2.06591C22.9525 1.43309 24.1918 1.11719 25.5539 1.11719C26.9149 1.11719 28.1473 1.43309 29.2489 2.06591C30.3655 2.69873 31.2525 3.60118 31.9111 4.77326C32.5687 5.93024 32.898 7.29548 32.898 8.86898C32.898 10.4425 32.5687 11.8077 31.9101 12.9647C31.2812 14.0924 30.3617 15.0278 29.2489 15.672C28.1473 16.3049 26.9149 16.6208 25.5539 16.6208ZM25.5539 14.8853C26.5936 14.8853 27.5276 14.6619 28.3538 14.2142C29.18 13.7514 29.8376 13.0723 30.3275 12.1779C30.8165 11.2825 31.062 10.1799 31.062 8.86898C31.062 7.55806 30.8165 6.46245 30.3275 5.58314C29.8376 4.68774 29.18 4.00965 28.3538 3.54685C27.5276 3.08406 26.5936 2.85266 25.5539 2.85266C24.5281 2.85266 23.5951 3.08406 22.7539 3.54685C21.9277 4.00965 21.2691 4.68874 20.7802 5.58314C20.2902 6.46245 20.0458 7.55806 20.0458 8.86898C20.0458 10.1799 20.2902 11.2836 20.7802 12.1779C21.2691 13.0734 21.9277 13.7514 22.7539 14.2142C23.5951 14.6619 24.5281 14.8853 25.5539 14.8853ZM39.7831 16.3894L34.4147 1.34858H36.3884L41.0015 14.3994H40.4507L44.8781 1.34858H46.8518L51.2812 14.3994H50.7304L55.3445 1.34858H57.2723L51.9478 16.3894H50.02L45.6135 2.8758H46.1184L41.7119 16.3894H39.7831Z" fill="#64ACFF"/>
<path d="M61.586 11.0663V9.33084H66.2679C67.1859 9.33084 67.9273 9.04512 68.4931 8.47467C69.0758 7.88813 69.3662 7.13257 69.3662 6.20699C69.3662 5.25122 69.0758 4.49465 68.4941 3.9393C67.9273 3.36886 67.1859 3.08313 66.2679 3.08313H61.9532V16.3884H60.1172V1.34766H66.2679C66.9564 1.34766 67.599 1.45531 68.1957 1.67161C68.7924 1.88792 69.3133 2.20382 69.7564 2.62034C70.2154 3.03685 70.5676 3.54592 70.8121 4.14756C71.0715 4.74919 71.2012 5.43533 71.2012 6.20699C71.2012 6.97864 71.0715 7.66479 70.8121 8.26642C70.5799 8.84978 70.2188 9.37209 69.7564 9.79364C69.306 10.2142 68.7748 10.5371 68.1957 10.7424C67.5766 10.9622 66.9243 11.0718 66.2679 11.0663H61.586ZM78.225 16.6198C77.3342 16.6235 76.4627 16.3575 75.7235 15.8562C74.9741 15.3321 74.3694 14.6218 73.9104 13.7274C73.4663 12.8169 73.2448 11.7836 73.2448 10.6267C73.2448 9.46968 73.4743 8.43644 73.9333 7.52595C74.3923 6.61545 75.011 5.89812 75.7923 5.37396C76.5825 4.85099 77.5093 4.5771 78.4545 4.58721C79.5252 4.58721 80.3365 4.86489 80.8873 5.42024C81.4531 5.9605 81.8352 6.68487 82.0348 7.59537C82.2493 8.50586 82.3561 9.51596 82.3561 10.6267C82.3561 11.2132 82.2953 11.8531 82.1725 12.5473C82.049 13.2295 81.8327 13.8914 81.5299 14.5141C81.249 15.1191 80.8231 15.644 80.2906 16.0413C79.7547 16.4267 79.0662 16.6198 78.225 16.6198ZM78.6841 14.8612C79.4644 14.8612 80.107 14.6681 80.6119 14.2827C81.1318 13.8974 81.5149 13.3873 81.7594 12.7555C82.0039 12.1076 82.1266 11.3973 82.1266 10.6267C82.1266 9.77854 81.9969 9.03707 81.7365 8.40526C81.492 7.75734 81.1088 7.25632 80.5889 6.90118C80.084 6.53094 79.4494 6.34583 78.6831 6.34583C77.5355 6.34583 76.6495 6.75429 76.0218 7.57223C75.3942 8.37407 75.0808 9.39322 75.0808 10.6267C75.0808 11.4446 75.2335 12.177 75.5399 12.8249C75.8355 13.4276 76.2777 13.945 76.8251 14.329C77.3801 14.6851 78.0262 14.8701 78.6841 14.8612ZM82.1266 4.81861H83.9626V16.3884H82.2863L82.2414 15.9719C82.2225 15.6477 82.1992 15.3237 82.1715 15.0001C82.1445 14.6922 82.1295 14.3835 82.1266 14.0745V4.81861ZM86.5201 4.81861H88.4939L92.602 15.9256L90.9954 16.3884L86.5201 4.81861ZM97.192 4.81861L90.7889 21.0164H88.7922L91.5692 14.7687L95.2413 4.81861H97.192ZM99.7385 4.81861H101.575V16.3884H99.7385V4.81861ZM105.522 4.58721C106.134 4.58721 106.685 4.67977 107.174 4.86489C107.664 5.05 108.078 5.31963 108.414 5.67477C108.75 6.02992 109.01 6.46152 109.194 6.9706C109.378 7.46357 109.47 8.02697 109.47 8.65979V16.3884H107.633V9.12259C107.633 8.22718 107.427 7.55714 107.014 7.10943C106.601 6.66173 105.981 6.43838 105.155 6.43838C104.527 6.43838 103.946 6.60036 103.411 6.92432C102.866 7.25716 102.41 7.71756 102.079 8.26642C101.743 8.82177 101.537 9.46968 101.46 10.2101L101.437 8.86805C101.514 8.22014 101.666 7.6336 101.896 7.10943C102.12 6.61588 102.422 6.16254 102.791 5.76733C103.141 5.39349 103.563 5.09447 104.03 4.88803C104.504 4.68681 105.002 4.58721 105.522 4.58721ZM113.233 4.58721C113.845 4.58721 114.396 4.67977 114.886 4.86489C115.376 5.05 115.789 5.31963 116.125 5.67477C116.461 6.02992 116.722 6.46152 116.905 6.9706C117.089 7.46357 117.181 8.02697 117.181 8.65979V16.3884H115.345V9.12259C115.345 8.22718 115.138 7.55714 114.725 7.10943C114.312 6.66173 113.692 6.43838 112.866 6.43838C112.239 6.43838 111.658 6.60036 111.122 6.92432C110.578 7.25716 110.121 7.71756 109.791 8.26642C109.455 8.82177 109.248 9.46968 109.171 10.2101L109.148 8.86805C109.225 8.22014 109.378 7.6336 109.607 7.10943C109.831 6.61588 110.133 6.16254 110.502 5.76733C110.853 5.39349 111.274 5.09447 111.742 4.88803C112.216 4.68681 112.713 4.58721 113.233 4.58721ZM128.88 12.663H130.601C130.487 13.3974 130.204 14.0948 129.775 14.6992C129.346 15.2986 128.779 15.7832 128.122 16.1108C127.449 16.4498 126.668 16.6198 125.781 16.6198C124.71 16.6198 123.746 16.3653 122.889 15.8562C122.037 15.3368 121.334 14.6033 120.847 13.7274C120.357 12.8169 120.112 11.7836 120.112 10.6267C120.112 9.46968 120.349 8.43644 120.824 7.52595C121.288 6.64249 121.977 5.89968 122.821 5.37396C123.662 4.84979 124.611 4.58721 125.666 4.58721C126.783 4.58721 127.724 4.84175 128.489 5.35082C129.27 5.84379 129.843 6.57722 130.211 7.54909C130.593 8.50486 130.747 9.68599 130.67 11.0895H121.949C122.024 11.845 122.231 12.508 122.568 13.0795C122.89 13.6351 123.348 14.0975 123.899 14.4216C124.45 14.7304 125.077 14.8844 125.781 14.8844C126.562 14.8844 127.219 14.6831 127.755 14.2827C128.306 13.8662 128.681 13.327 128.88 12.663ZM125.735 6.32269C124.786 6.32269 123.991 6.60036 123.349 7.15571C122.706 7.71107 122.277 8.46663 122.063 9.4234H128.788C128.726 8.40526 128.398 7.6336 127.801 7.10943C127.237 6.59166 126.498 6.31029 125.735 6.32269ZM133.635 4.81861H135.471V16.3884H133.635V4.81861ZM139.419 4.58721C140.031 4.58721 140.582 4.67977 141.071 4.86489C141.561 5.05 141.974 5.31963 142.311 5.67477C142.648 6.02992 142.907 6.46152 143.091 6.9706C143.274 7.46357 143.366 8.02697 143.366 8.65979V16.3884H141.53V9.12259C141.53 8.22718 141.324 7.55714 140.911 7.10943C140.497 6.66173 139.878 6.43838 139.052 6.43838C138.425 6.43838 137.843 6.60036 137.307 6.92432C136.763 7.25744 136.307 7.71778 135.976 8.26642C135.64 8.82177 135.433 9.46968 135.357 10.2101L135.334 8.86805C135.41 8.22014 135.563 7.6336 135.793 7.10943C136.038 6.58527 136.336 6.13757 136.688 5.76733C137.038 5.39349 137.46 5.09447 137.927 4.88803C138.402 4.68681 138.899 4.58721 139.419 4.58721ZM146.139 4.81861H152.887V6.55408H146.139V4.81861ZM148.595 1.81045H150.431V16.3884H148.595V1.81045ZM155.104 12.663H156.802C156.848 13.327 157.093 13.8662 157.537 14.2827C157.996 14.6992 158.653 14.9075 159.51 14.9075C160.03 14.9075 160.435 14.8381 160.727 14.6992C161.032 14.5604 161.255 14.3753 161.392 14.1439C161.53 13.8974 161.599 13.6268 161.599 13.334C161.599 12.9789 161.507 12.7012 161.323 12.501C161.132 12.2682 160.888 12.0855 160.612 11.9688C160.284 11.8156 159.947 11.6842 159.602 11.5754C159.143 11.3995 158.684 11.2221 158.225 11.0432C157.766 10.842 157.33 10.6106 156.917 10.349C156.533 10.0858 156.205 9.74741 155.953 9.35398C155.708 8.95256 155.586 8.47467 155.586 7.91932C155.586 7.45653 155.678 7.02392 155.861 6.6235C156.039 6.21434 156.306 5.85061 156.642 5.55908C157 5.24658 157.412 5.0034 157.858 4.84175C158.36 4.66738 158.888 4.58128 159.419 4.58721C160.183 4.58721 160.825 4.74114 161.346 5.05C161.881 5.35887 162.287 5.79852 162.563 6.36897C162.853 6.92432 163.006 7.57223 163.022 8.3127H161.438C161.33 7.61851 161.109 7.11748 160.773 6.80862C160.451 6.48466 159.984 6.32269 159.373 6.32269C158.745 6.32269 158.263 6.46152 157.927 6.7392C157.589 7.01688 157.422 7.38711 157.422 7.8499C157.422 8.18895 157.544 8.47468 157.789 8.70607C158.034 8.92238 158.347 9.12259 158.73 9.3077C159.127 9.47773 159.548 9.6548 159.992 9.83992C160.435 10.025 160.864 10.2101 161.278 10.3953C161.691 10.5804 162.058 10.7967 162.379 11.0432C162.7 11.2897 162.953 11.5985 163.137 11.9688C163.335 12.3239 163.435 12.7706 163.435 13.3109C163.435 13.9588 163.281 14.5373 162.976 15.0463C162.684 15.5393 162.248 15.9256 161.668 16.2033C161.101 16.481 160.405 16.6198 159.579 16.6198C158.829 16.6198 158.186 16.5273 157.651 16.3422C157.174 16.1673 156.731 15.9088 156.343 15.5786C156.016 15.2856 155.737 14.9419 155.517 14.5604C155.343 14.234 155.219 13.8829 155.15 13.5191C155.091 13.2378 155.075 12.949 155.104 12.663Z" fill="black"/>
</g>
<defs>
<clipPath id="clip0_1_9034">
<rect width="162.648" height="21.1275" fill="white" transform="translate(0.9375 0.291016)"/>
</clipPath>
</defs>
</svg>
