<svg width="160" height="34" viewBox="0 0 160 34" fill="none" xmlns="http://www.w3.org/2000/svg">
<g clip-path="url(#clip0_1_8977)">
<path d="M47.7721 25.7714C51.0346 25.7714 53.0849 23.6933 53.6446 21.8041L50.9883 20.718C50.5921 22.1347 49.4269 23.1032 47.8424 23.1032C45.8617 23.1032 44.3242 21.5917 44.3242 19.2777C44.3242 16.9638 45.8617 15.4523 47.8192 15.4523C49.4037 15.4523 50.5219 16.4207 50.918 17.861L53.5744 16.7984C53.0153 14.8622 50.9644 12.7841 47.7721 12.7841C44.0678 12.7841 41.3644 15.6176 41.3644 19.3013C41.3644 22.9849 44.1142 25.7714 47.7721 25.7714ZM58.1924 14.4374V13.0442H55.3969V25.4877H58.356V18.404C58.356 16.7279 59.7074 15.5706 61.851 15.5706V12.7606C60.3128 12.7606 59.031 13.4455 58.1924 14.4374ZM72.0244 13.0442L68.5519 23.0797L65.3835 13.0442H62.3303L66.6646 25.4877H67.5967L65.9194 29.7144H68.8321L70.416 25.4877L75.1001 13.0442H72.0244ZM83.4325 12.7606C81.6851 12.7606 80.2641 13.469 79.3082 14.6733V13.0442H76.5592V29.7144H79.5182V24.1658C80.4503 25.1806 81.7553 25.7707 83.363 25.7707C86.8812 25.7707 89.4448 22.9849 89.4448 19.2777C89.4448 15.547 86.9514 12.7606 83.4325 12.7606ZM82.9669 23.1267C80.8464 23.1267 79.4016 21.5447 79.4016 19.2777C79.4016 17.0108 80.8464 15.4288 82.9669 15.4288C84.9939 15.4288 86.485 17.0579 86.485 19.2777C86.485 21.4734 84.9939 23.1267 82.9669 23.1267ZM96.7573 25.4877H98.6916V22.8666H97.3402C96.0121 22.8666 95.2893 22.0877 95.2893 20.6474V15.6183H98.5982V13.0442H95.3828V9.80953H92.4932V11.7693C92.4932 12.6188 92.0971 13.0442 91.2816 13.0442H90.1634V15.6176H92.3071V20.9781C92.3071 23.7175 93.8214 25.4877 96.7573 25.4877ZM106.052 25.7714C109.873 25.7714 112.6 22.9849 112.6 19.2777C112.6 15.547 109.873 12.7613 106.052 12.7613C102.207 12.7613 99.5043 15.547 99.5043 19.2777C99.5043 22.9849 102.207 25.7714 106.052 25.7714ZM106.075 23.1032C103.931 23.1032 102.463 21.4976 102.463 19.2777C102.463 17.0343 103.931 15.4523 106.075 15.4523C108.195 15.4523 109.617 17.0343 109.617 19.2542C109.617 21.4976 108.172 23.1032 106.075 23.1032ZM129.26 12.7606C127.186 12.7606 125.788 13.6343 125.112 14.7916C124.413 13.4925 123.178 12.7606 121.221 12.7606C119.566 12.7606 118.285 13.469 117.516 14.4139V13.0442H114.72V25.4642H117.679V17.9316C117.702 16.7514 118.634 15.4523 120.312 15.4288C121.966 15.4288 122.875 16.6808 122.875 18.31V25.4642H125.834V17.9316C125.858 16.7749 126.766 15.4523 128.467 15.4288C130.122 15.4288 131.007 16.7037 131.007 18.31V25.4642H133.967V17.7669C133.967 14.957 132.312 12.7606 129.26 12.7606ZM144.836 13.0442V20.5762C144.836 21.9459 143.764 23.0797 142.11 23.1032C140.456 23.1032 139.407 21.9929 139.407 20.3873V13.0442H136.448V20.765C136.448 23.6463 138.125 25.7714 141.248 25.7714C142.832 25.7714 144.161 25.0865 145.022 24.118V25.4877H147.795V13.0442H144.836ZM154.871 25.7714C157.946 25.7714 159.95 24.3069 159.95 21.8283C159.95 17.2709 153.216 18.5694 153.216 16.3025C153.216 15.547 153.799 15.0746 154.894 15.0746C155.919 15.0746 156.641 15.5235 156.968 16.4678L159.554 15.4523C159.041 13.7526 157.317 12.7613 154.94 12.7613C152.051 12.7613 150.187 14.1773 150.187 16.4443C150.187 20.718 156.921 19.5849 156.921 22.0407C156.921 22.9144 156.176 23.4104 154.987 23.4104C153.495 23.4104 152.54 22.7255 152.191 21.5682L149.604 22.5837C150.28 24.6853 152.214 25.7714 154.871 25.7714ZM30.0879 8.24821L17.6392 0.965284C17.3617 0.803746 17.0473 0.71875 16.7273 0.71875C16.4073 0.71875 16.0929 0.803746 15.8154 0.965284L3.36676 8.24821C3.08919 8.41048 2.85862 8.64404 2.69824 8.9254C2.53786 9.20676 2.45332 9.52601 2.45312 9.85103V24.4162C2.45312 25.0741 2.8029 25.687 3.36676 26.019L15.8154 33.3019C16.0932 33.4642 16.4084 33.5492 16.729 33.5482C17.0501 33.5482 17.3651 33.4617 17.6426 33.3019L30.0913 26.019C30.3687 25.8568 30.5992 25.6234 30.7596 25.3421C30.92 25.0609 31.0046 24.7418 31.0049 24.4169V9.85103C31.0049 9.19385 30.6551 8.58026 30.0913 8.24821H30.0879ZM17.0092 16.2305C16.9235 16.2807 16.8263 16.307 16.7273 16.307C16.6283 16.307 16.5311 16.2807 16.4454 16.2305L4.34312 9.15096L16.4454 2.07419C16.5316 2.02548 16.6286 1.99992 16.7273 1.99992C16.826 1.99992 16.923 2.02548 17.0092 2.07419L29.1115 9.15235L17.0092 16.2305ZM15.8154 17.3346C15.904 17.3858 15.9981 17.4307 16.099 17.466V31.9862L3.99676 24.9115C3.91103 24.8614 3.83973 24.7893 3.78997 24.7025C3.74021 24.6158 3.71371 24.5173 3.71312 24.4169V10.2564L15.8154 17.3346Z" fill="black"/>
</g>
<defs>
<clipPath id="clip0_1_8977">
<rect width="159.545" height="33.2048" fill="white" transform="translate(0.40625 0.398438)"/>
</clipPath>
</defs>
</svg>
