<svg width="162" height="29" viewBox="0 0 162 29" fill="none" xmlns="http://www.w3.org/2000/svg">
<g clip-path="url(#clip0_1_9017)">
<mask id="mask0_1_9017" style="mask-type:luminance" maskUnits="userSpaceOnUse" x="0" y="0" width="161" height="29">
<path d="M160.898 0.566406H0.40625V28.6628H160.898V0.566406Z" fill="white"/>
</mask>
<g mask="url(#mask0_1_9017)">
<path d="M32.7977 8.41039C26.9674 8.41039 22.4119 12.7479 22.4119 18.5544C22.4119 24.361 26.8523 28.6613 32.7977 28.6613C38.7431 28.6613 43.2607 24.2868 43.2607 18.5173C43.2607 12.785 38.8203 8.41039 32.7977 8.41039ZM32.8371 24.4767C29.5169 24.4767 27.084 21.9496 27.084 18.5559C27.084 15.1236 29.4776 12.5979 32.7977 12.5979C36.1572 12.5979 38.5887 15.1621 38.5887 18.5559C38.5887 21.9496 36.1572 24.4767 32.8371 24.4767ZM44.5341 12.8235H47.4301V28.2859H52.0628V8.78732H44.5341V12.8235ZM10.7528 12.5965C13.1857 12.5965 15.116 14.0671 15.8488 16.2543H20.7525C19.8639 11.5785 15.926 8.41039 10.7921 8.41039C4.96179 8.41039 0.40625 12.7479 0.40625 18.5559C0.40625 24.3639 4.84671 28.6628 10.7921 28.6628C15.8109 28.6628 19.826 25.4947 20.7146 20.7803H15.8488C15.1539 22.9676 13.2235 24.4767 10.7906 24.4767C7.43115 24.4767 5.07687 21.9496 5.07687 18.5559C5.07835 15.1236 7.39473 12.5965 10.7528 12.5965ZM132.559 16.6698L129.162 16.1801C127.541 15.9545 126.382 15.4263 126.382 14.1813C126.382 12.8235 127.889 12.1453 129.934 12.1453C132.174 12.1453 133.603 13.0876 133.911 14.6339H138.39C137.887 10.7119 134.799 8.4118 130.051 8.4118C125.147 8.4118 121.904 10.8632 121.904 14.3326C121.904 17.6507 124.028 19.5753 128.313 20.1778L131.71 20.6675C133.371 20.893 134.297 21.5355 134.297 22.742C134.297 24.2882 132.676 24.9293 130.437 24.9293C127.695 24.9293 126.151 23.8356 125.919 22.1766H121.364C121.789 25.9858 124.838 28.6628 130.397 28.6628C135.456 28.6628 138.814 26.3998 138.814 22.515C138.814 19.0456 136.382 17.2352 132.559 16.6698ZM49.7464 0.754867C48.0478 0.754867 46.7734 1.9613 46.7734 3.62033C46.7734 5.27936 48.0464 6.48579 49.7464 6.48579C51.4451 6.48579 52.72 5.27936 52.72 3.62033C52.72 1.9613 51.4451 0.754867 49.7464 0.754867ZM117.735 15.4634C117.735 11.2401 115.11 8.4118 109.55 8.4118C104.3 8.4118 101.365 11.0146 100.786 15.0122H105.38C105.612 13.466 106.847 12.1839 109.473 12.1839C111.829 12.1839 112.987 13.2018 112.987 14.4469C112.987 16.0688 110.863 16.4828 108.238 16.7469C104.686 17.1238 100.284 18.3303 100.284 22.8562C100.284 26.3642 102.949 28.6257 107.196 28.6257C110.516 28.6257 112.601 27.2679 113.644 25.1177C113.798 27.0409 115.266 28.2859 117.312 28.2859H120.015V24.2511H117.736V15.4634H117.735ZM113.179 20.3662C113.179 22.969 110.863 24.8921 108.044 24.8921C106.306 24.8921 104.839 24.1754 104.839 22.6677C104.839 20.7446 107.194 20.2163 109.356 19.9908C111.441 19.8023 112.599 19.3497 113.179 18.4816V20.3662ZM88.5861 8.41039C85.9987 8.41039 83.8369 9.4669 82.2927 11.2387V0.566406H77.66V28.2859H82.2152V25.7217C83.7594 27.5691 85.9611 28.6628 88.5861 28.6628C94.1452 28.6628 98.3542 24.3639 98.3542 18.5559C98.3542 12.7479 94.0682 8.41039 88.5861 8.41039ZM87.8913 24.4767C84.5711 24.4767 82.1382 21.9496 82.1382 18.5559C82.1382 15.1621 84.6091 12.5979 87.9289 12.5979C91.2886 12.5979 93.6426 15.125 93.6426 18.5559C93.6426 21.9496 91.2111 24.4767 87.8913 24.4767ZM66.5789 8.41039C63.5677 8.41039 61.598 9.61682 60.4401 11.3144V8.78732H55.8449V28.2845H60.4777V17.6878C60.4777 14.7081 62.4079 12.5965 65.265 12.5965C67.9295 12.5965 69.5887 14.444 69.5887 17.1224V28.2859H74.2215V16.784C74.2233 11.8798 71.6372 8.41039 66.5789 8.41039ZM160.898 17.9148C160.898 12.3338 156.728 8.4118 151.13 8.4118C145.185 8.4118 140.821 12.7864 140.821 18.5559C140.821 24.628 145.493 28.6628 151.207 28.6628C156.034 28.6628 159.817 25.8716 160.781 21.9125H155.955C155.26 23.6471 153.561 24.628 151.283 24.628C148.309 24.628 146.07 22.8176 145.569 19.6495H160.897V17.9148H160.898ZM145.84 16.4057C146.575 13.6901 148.659 12.3709 151.053 12.3709C153.678 12.3709 155.686 13.8415 156.149 16.4057H145.84Z" fill="#0052FF"/>
</g>
</g>
<defs>
<clipPath id="clip0_1_9017">
<rect width="160.816" height="28.0964" fill="white" transform="translate(0.40625 0.566406)"/>
</clipPath>
</defs>
</svg>
