<svg width="160" height="44" viewBox="0 0 160 44" fill="none" xmlns="http://www.w3.org/2000/svg">
<g clip-path="url(#clip0_1_8981)">
<mask id="mask0_1_8981" style="mask-type:luminance" maskUnits="userSpaceOnUse" x="0" y="0" width="43" height="44">
<path d="M42.3918 0.927734H0.40625V43.0723H42.3918V0.927734Z" fill="white"/>
</mask>
<g mask="url(#mask0_1_8981)">
<path d="M19.8319 0.900358C19.6891 0.918798 19.1799 0.983338 18.7154 1.03866C16.259 1.32448 13.3292 2.30181 11.0783 3.5834C5.39722 6.84731 1.60096 12.4162 0.609462 18.9624C0.386153 20.3916 0.395085 23.5633 0.609462 24.9555C0.814907 26.2187 1.30619 28.1918 1.66349 29.1783C3.85192 35.1252 8.6754 39.8736 14.6065 41.902C16.92 42.7042 18.8762 43.0176 21.4398 43.0176C24.9502 43.0176 27.8443 42.3353 30.9082 40.7679C33.6147 39.3941 35.9102 37.5409 37.8039 35.2175C39.117 33.5947 40.4747 31.1975 41.2161 29.1783C41.5913 28.1456 42.0825 26.1818 42.2701 24.9095C42.4845 23.4619 42.4845 20.3824 42.2701 18.9624C41.7163 15.3574 40.3497 12.0659 38.2505 9.27218C34.892 4.82811 30.0238 1.91457 24.5125 1.07554C23.6282 0.937238 20.4037 0.817377 19.8319 0.900358ZM24.4321 2.37557C32.6321 3.65716 39.1706 9.91758 40.8141 18.0681L41.0464 19.2022L40.3139 19.9306C39.5725 20.6497 39.5725 20.6497 39.3849 20.4746C39.0634 20.1703 38.2774 20.3362 38.2774 20.7143C38.2774 20.788 38.1702 20.8711 38.0362 20.8987C37.2233 21.0739 35.7852 21.4704 35.017 21.7469C34.1237 22.0604 32.1407 23.0193 31.4262 23.4803L31.051 23.72L31.1761 23.3973C31.2475 23.2129 31.3101 22.8902 31.3101 22.6597C31.3101 22.2725 31.3368 22.2356 31.7388 21.9775C33.5968 20.742 33.6771 19.1099 31.9621 17.3766L31.3101 16.722L31.5423 15.9475C32.0872 14.1681 33.0609 12.1488 33.7486 11.3836L34.1059 10.9779L33.5878 10.1942C31.7567 7.40972 28.9876 5.54727 25.8792 4.99407C24.1641 4.68981 22.3956 4.75434 20.4751 5.19691C19.5104 5.41819 19.5729 5.34443 19.4746 6.33098C19.3942 7.17001 18.9298 9.41971 18.5814 10.7013C18.2419 11.8907 17.849 12.8034 17.0898 14.1035C16.6699 14.8318 16.6252 14.8687 16.3572 14.8411C16.0983 14.8134 16.0803 14.795 16.1072 14.4815C16.134 14.2234 16.0714 14.0666 15.8303 13.7347L15.5265 13.3198L16.5359 12.8403C17.0898 12.573 17.6167 12.2687 17.6971 12.1765C17.7864 12.0751 17.8668 11.7892 17.8937 11.5035L17.9294 11.0056L17.2326 10.941C16.6877 10.8857 16.1876 10.9226 15.0175 11.0978C13.5703 11.3098 13.5079 11.3098 13.1684 11.1531C12.8557 11.0148 12.7754 11.0148 12.3556 11.1254C12.0965 11.19 11.6945 11.2268 11.4356 11.1992C11.1407 11.1623 10.8728 11.1992 10.6495 11.2914C10.2832 11.4573 9.51505 12.0475 8.88085 12.6652C8.13947 13.3843 7.37128 14.9886 7.37128 15.8092C7.37128 16.1596 7.16583 16.5191 6.4959 17.3489C6.47804 17.3766 6.28152 17.1923 6.07609 16.9525L5.68306 16.5099L5.49548 17.183C5.38829 17.5518 5.26324 18.022 5.20071 18.2249C5.14711 18.4277 5.09352 18.6121 5.07565 18.6397C5.05779 18.6582 4.9238 18.5384 4.77195 18.3631C4.43252 17.9482 4.40572 18.0035 4.16456 19.322C3.20879 24.5499 4.35213 28.828 7.34448 31.1514C9.3364 32.7004 11.7749 33.4472 15.1246 33.5486C16.7414 33.6039 16.7503 33.6039 16.7503 33.816C16.7503 34.0372 16.7056 34.0465 15.8571 34.1849C14.151 34.443 12.1322 35.5678 10.1046 37.3934L9.60438 37.8359L8.77366 37.1445C1.1454 30.7457 -0.560681 19.6724 4.78088 11.3098C6.62095 8.44237 9.13096 6.10969 12.1054 4.50541C14.3385 3.29757 17.0004 2.48621 19.5283 2.22805C20.6626 2.11741 23.2799 2.19116 24.4321 2.37557ZM25.0664 6.248C25.5309 6.33098 26.3258 6.53382 26.8349 6.709C27.7371 7.01326 28.9876 7.62179 28.9876 7.75086C28.9876 7.78775 28.8001 8.06435 28.5768 8.36861C27.8622 9.29984 26.9868 10.7289 26.4419 11.8261C26.1561 12.407 25.9149 12.8865 25.906 12.9049C25.8971 12.9141 25.6291 12.8219 25.3075 12.7021C24.3071 12.3148 23.1726 12.0566 21.5917 11.8538C21.1986 11.8077 21.1183 11.7708 21.1629 11.6417C21.1807 11.5588 21.4041 10.9041 21.6541 10.185C22.065 8.97713 22.3867 7.62179 22.5117 6.53382L22.5653 6.10047H23.396C23.8515 6.10047 24.6018 6.16502 25.0664 6.248ZM32.6767 10.4062C32.8107 10.5907 32.9179 10.7935 32.9179 10.858C32.9179 10.9226 32.6946 11.319 32.4176 11.7432C31.7299 12.7943 30.926 14.4815 30.4705 15.8185C30.4168 15.9751 30.3633 15.9475 29.9702 15.551L29.5325 15.1085L29.7559 14.5184C30.3007 13.0155 32.0068 10.0559 32.3194 10.0651C32.382 10.0743 32.5338 10.2218 32.6767 10.4062ZM17.054 11.5035C17.2773 11.5864 17.2237 11.7985 16.9557 11.946C16.8129 12.0106 16.3572 12.1765 15.9285 12.3148C15.5087 12.4438 15.1425 12.6006 15.1246 12.6652C15.071 12.8219 14.8209 12.6928 14.6422 12.4162C14.4368 12.0935 14.544 11.9091 15.0175 11.7432C15.5891 11.5404 16.7949 11.402 17.054 11.5035ZM12.9719 11.8814C13.3649 12.0751 15.2318 13.9375 15.2318 14.1312C15.2318 14.2418 15.0888 14.3063 14.678 14.3893C14.3653 14.4446 13.9098 14.6014 13.6596 14.7397L13.2041 14.9886L12.5253 14.6475C11.766 14.2787 11.248 13.9283 10.7388 13.4396C10.5512 13.2552 10.3904 13.1077 10.3815 13.1077C10.3726 13.1077 10.3994 13.5135 10.444 14.0206C10.5512 15.2836 10.4797 15.6617 9.9974 16.3347C9.64011 16.8418 9.53292 17.0724 9.64904 17.0724C9.77409 17.0724 10.3815 16.7036 10.5155 16.556C10.7834 16.2334 11.0425 15.6248 11.0961 15.1546L11.1496 14.6936L11.632 15.0162C11.9 15.1914 12.2484 15.3943 12.4091 15.4589C12.6681 15.5695 12.695 15.6248 12.6592 15.8645C12.6146 16.2057 12.7039 16.2149 13.4453 16.012C13.7133 15.9382 14.1152 15.8738 14.3385 15.8738C14.8298 15.8738 15.455 16.2149 15.455 16.4731C15.455 16.639 15.3746 16.6667 14.8209 16.7128C14.3029 16.7496 14.0169 16.8418 13.3023 17.2014C12.82 17.4411 12.1948 17.7731 11.9268 17.9482C11.4891 18.2156 11.3819 18.2433 10.9353 18.2065C10.2832 18.1419 10.0957 18.2525 9.91701 18.8242C9.77409 19.2667 9.76516 19.276 9.48825 19.2207C8.69327 19.0639 7.01398 18.1512 7.01398 17.8745C7.01398 17.6625 7.20156 17.1646 7.29089 17.1646C7.32662 17.1646 7.42487 17.2752 7.49633 17.4135L7.62139 17.6717L7.67498 17.4411C7.88043 16.4177 7.96082 16.1043 8.18413 15.4773C8.83619 13.6148 10.1761 12.0106 11.0961 12.0013C11.2837 11.9921 11.6588 11.9367 11.9268 11.863C12.5788 11.697 12.6057 11.697 12.9719 11.8814ZM22.4223 12.5914C23.7086 12.8311 24.5751 13.163 26.4598 14.1312C28.3088 15.0901 28.3713 15.2468 26.6027 14.5276C26.0579 14.3063 25.5665 14.1219 25.5219 14.1219C25.4057 14.1219 25.2003 14.7305 25.2718 14.8503C25.2986 14.8964 25.6291 14.9609 26.0042 14.9978C26.7992 15.0717 27.9783 15.3851 28.9876 15.7907C29.7737 16.095 29.8809 16.2425 29.2021 16.0673C27.4156 15.5972 25.8971 15.4035 22.333 15.1914C19.2871 14.9978 18.4206 14.9056 17.7775 14.6843L17.2415 14.5L18.5189 14.5184L19.8052 14.5461L20.1088 13.9191C20.4126 13.2921 20.4126 13.2921 20.7967 13.2921C21.0021 13.2921 21.8775 13.3751 22.735 13.4765C23.5925 13.5688 24.3071 13.6425 24.3249 13.6241C24.3696 13.5779 22.9583 13.1907 22.1991 13.0432C21.8328 12.9786 20.7967 12.8956 19.9034 12.8587C18.5903 12.8127 18.2688 12.7758 18.2688 12.6744C18.2688 12.6099 18.3581 12.5084 18.4742 12.4623C18.76 12.324 21.4665 12.4254 22.4223 12.5914ZM17.4649 15.6894C17.983 15.8461 18.5636 16.012 18.769 16.0582C19.0638 16.1319 21.9579 16.6021 22.1811 16.6114C22.2169 16.6206 22.0829 16.7036 21.8864 16.8142C21.3237 17.1092 20.8592 17.6441 20.8592 17.9944C20.8592 18.1972 21.2433 18.0681 21.5113 17.7731C22.2705 16.934 22.8511 17.1277 23.8961 18.5475C24.4411 19.2852 24.5572 19.3866 24.6376 19.1653C24.7359 18.8887 24.0123 17.3766 23.6282 17.0355C23.271 16.7312 23.3156 16.7312 24.9413 17.0815C26.5938 17.432 27.3441 17.6532 28.1391 18.0404C29.3807 18.6397 29.8809 19.1838 29.8809 19.9398C29.8809 20.4469 29.8273 20.4838 29.0859 20.4838C28.6572 20.4838 28.5142 20.5299 28.2463 20.742C27.7996 21.0923 27.6656 21.3689 27.8443 21.5625C28.0319 21.7469 28.3267 21.6732 28.684 21.3597C28.943 21.1292 29.1752 21.0831 29.7915 21.1199C30.2382 21.1568 30.5687 21.5072 30.6937 22.0973C30.783 22.5122 30.7741 22.6228 30.6402 22.9179C30.3453 23.5448 29.4075 24.0612 28.4071 24.135C27.4602 24.2087 27.3798 24.2363 27.3798 24.4945C27.3798 24.6789 27.4245 24.725 27.6032 24.725C28.0676 24.725 27.9605 24.9832 27.1655 25.7485C25.4236 27.4357 24.0391 29.6025 23.3334 31.7507C23.2977 31.8429 23.1906 31.9166 23.0833 31.9166C22.86 31.9166 22.0114 31.4648 21.6184 31.1422L21.3505 30.9209L21.538 30.6536C21.7792 30.3216 21.94 30.294 22.5742 30.4968C23.0833 30.6536 23.1013 30.6536 23.2263 30.4783C23.2977 30.3862 23.3603 30.2755 23.3603 30.2478C23.3603 30.2202 23.0833 30.1003 22.744 29.9804C22.1454 29.7684 22.1276 29.75 22.3152 29.6209C22.601 29.4273 23.1817 28.8556 23.2799 28.662C23.3513 28.5421 23.1906 28.5883 22.6725 28.8556C21.9757 29.2152 21.9668 29.2152 20.5912 29.2798C19.1263 29.3535 18.6976 29.2982 17.8222 28.9478C17.1969 28.6989 16.3215 28.0627 15.9017 27.5648L15.5802 27.1683L16.1876 27.0946C16.9646 27.0116 17.7864 26.7903 18.1259 26.5874C18.3849 26.4308 18.3938 26.4308 19.1084 26.8087C20.1892 27.3896 20.7341 27.5279 21.7345 27.4634C22.3956 27.4264 22.6725 27.362 23.1191 27.1407C24.3696 26.5321 25.3253 25.5179 25.3253 24.7987C25.3253 24.3839 25.3075 24.3839 24.5214 24.6421C23.1726 25.0846 22.1901 24.7711 21.0199 23.5264C20.2696 22.7334 19.9034 22.4846 19.5372 22.5306C19.3496 22.549 19.2871 22.6136 19.2692 22.8165C19.2425 23.0285 19.2871 23.093 19.5372 23.1945C19.698 23.2682 20.0464 23.6001 20.3322 23.9597C21.0646 24.8818 22.458 25.647 23.4049 25.647C23.6282 25.647 23.8068 25.6839 23.8068 25.73C23.8068 26.0527 22.4671 26.6428 21.5559 26.7258C20.761 26.8087 19.7158 26.4584 18.644 25.7669L18.1706 25.4534L17.7953 25.7853C17.3309 26.2002 16.8932 26.3293 15.9375 26.3385C15.2407 26.3385 15.1246 26.3109 14.5618 26.0159C13.8562 25.647 13.1058 24.9371 12.829 24.3839C12.6592 24.0335 12.5877 23.7108 12.6771 23.7108C12.695 23.7108 13.0254 23.8675 13.4096 24.0519C14.3653 24.5222 14.9281 24.5314 15.7945 24.0796C16.4287 23.7569 16.9557 23.2405 16.9111 23.0008C16.8485 22.6874 16.6073 22.6505 16.3037 22.9179C15.8392 23.3144 15.33 23.5448 14.7762 23.591L14.2671 23.6463L14.2045 22.5675C14.1688 21.9866 14.1688 21.2214 14.1956 20.8802C14.3653 19.1745 14.9817 17.4964 15.5354 17.2199C16.0714 16.9617 16.3752 17.0447 17.2058 17.6994C17.6525 18.0497 17.7329 17.9759 17.5095 17.3951C17.3398 16.9249 16.7681 16.3532 16.393 16.2702C16.2144 16.2334 16.125 16.1596 16.125 16.0489C16.125 15.8092 16.3126 15.4127 16.4287 15.4127C16.4823 15.4127 16.9468 15.5418 17.4649 15.6894ZM27.7729 16.7128C30.6313 17.1 32.4713 18.2433 32.4713 19.6539C32.4713 20.2718 32.0336 20.9724 31.4441 21.286C31.2297 21.4058 31.1761 21.4058 31.1403 21.3044C31.0868 21.1384 30.6759 20.7143 30.5151 20.659C30.4168 20.6221 30.4347 20.5391 30.5865 20.2256C31.0868 19.2114 30.6044 18.4277 29.0323 17.6717C28.2463 17.2936 27.496 17.0447 26.3079 16.7496L25.37 16.5191L26.2186 16.5653C26.6831 16.5929 27.3798 16.6574 27.7729 16.7128ZM14.6958 17.2383C14.6958 17.2845 14.535 17.7454 14.3475 18.2802C13.8741 19.5617 13.7133 20.5852 13.7133 22.2632V23.6278L13.5168 23.5633C13.1327 23.4435 12.6771 23.1668 12.3823 22.8902L12.0965 22.6136L12.0161 22.8442C11.9 23.1576 11.9089 23.3051 12.0608 23.8307C12.3823 24.9186 12.963 25.7853 13.8383 26.4584L14.3832 26.8733L14.0527 26.818C13.5257 26.735 13.0969 26.4768 12.4895 25.8868C11.4445 24.8818 11.0961 24.0059 11.0872 22.3924C11.0872 21.6179 11.0603 21.3136 10.98 21.3136C10.712 21.3136 10.8013 20.4284 11.1318 19.8569C11.2211 19.6909 11.3015 19.5341 11.3015 19.5157C11.3015 19.4973 11.0693 19.4695 10.7924 19.4511C10.319 19.4235 10.2743 19.4051 10.2475 19.193C10.2296 19.0639 10.2832 18.8795 10.3547 18.7781C10.4619 18.6213 10.5691 18.5937 11.1229 18.6213C11.7214 18.6397 11.8196 18.6121 12.5788 18.2433C13.0344 18.022 13.6418 17.6901 13.9365 17.5057C14.4636 17.1738 14.6958 17.0908 14.6958 17.2383ZM6.86213 18.3447C7.95189 19.2391 9.14882 19.7462 10.1493 19.7462C10.4351 19.7462 10.6763 19.7831 10.6763 19.82C10.6763 19.8569 10.5959 20.1519 10.4887 20.4653L10.3011 21.037H9.78302C9.16669 21.037 8.27344 20.7696 7.41594 20.3271C6.69241 19.949 5.89744 19.4419 5.62053 19.1745L5.42402 18.9993L5.60267 18.2894C5.85278 17.2383 5.83491 17.266 6.08502 17.5979C6.20114 17.7547 6.54949 18.0957 6.86213 18.3447ZM40.7426 21.1108C39.912 21.498 39.8316 21.1845 40.5818 20.4746L41.091 19.9951L41.1357 20.4469L41.1803 20.8987L40.7426 21.1108ZM39.3224 21.6363C39.3403 21.6916 39.0455 21.7838 38.6703 21.8484C37.5628 22.0235 36.8482 22.5859 36.8482 23.2682C36.8482 23.6094 37.1787 24.0335 37.3483 23.9137C37.402 23.8768 37.5359 23.6739 37.6432 23.4619C38.0183 22.6874 38.5185 22.2448 39.1528 22.0973C39.4206 22.0419 39.4475 22.0604 39.5814 22.3831C39.7066 22.6966 39.7066 22.7334 39.5725 22.8073C39.251 23.0008 38.7955 23.4803 38.6257 23.8122C38.4024 24.2732 38.4113 24.7803 38.6614 25.2782C38.9472 25.8683 39.0455 25.8406 39.0991 25.1583C39.1259 24.8449 39.2152 24.4392 39.3045 24.264C39.4743 23.9137 39.8763 23.4342 39.9924 23.4342C40.1442 23.4342 40.0638 24.347 39.8763 24.6789C39.7065 24.9739 39.6976 25.0477 39.7959 25.4442C39.903 25.896 40.1532 26.3846 40.439 26.7165C40.6087 26.9194 40.6087 26.9286 40.2603 28.0074C40.0638 28.6159 39.7155 29.5287 39.4832 30.0358C39.0813 30.9393 39.0544 30.9762 38.7418 31.0315C38.1166 31.133 36.0175 31.0869 35.0795 30.9393C34.3114 30.8287 34.1237 30.8195 34.0702 30.9209C33.9272 31.1514 33.9809 32.2209 34.1595 32.5621C34.3828 32.9954 35.0885 33.3642 35.9817 33.5025L36.6695 33.6132V34.0926C36.6695 34.4245 36.6159 34.6365 36.4998 34.7841L36.339 34.9961L36.2764 34.7933C36.1961 34.5443 36.1693 34.5443 35.7316 34.7749C35.5351 34.8763 35.2671 34.9593 35.1332 34.9593C34.8563 34.9593 34.8294 35.033 34.9991 35.2728C35.0885 35.4019 35.2136 35.4295 35.5351 35.411C35.9191 35.3742 35.9371 35.3834 35.7941 35.5217C35.5887 35.7246 34.8383 35.9735 34.4186 35.9735C33.8022 35.9735 33.8826 36.4898 34.5079 36.5452L34.8383 36.582L34.5972 36.6927C33.8111 37.043 31.9086 36.9969 30.9082 36.6096C28.7733 35.7891 27.1476 33.1429 27.3173 30.7734C27.478 28.6159 28.5946 26.5598 30.4705 25.0017C32.2211 23.5541 34.8474 22.3647 37.7414 21.7285C38.7955 21.498 39.2689 21.4704 39.3224 21.6363ZM41.2071 21.9313C41.1804 22.2448 41.1536 22.2817 40.8678 22.3371C40.5283 22.4108 40.4211 22.3278 40.4211 21.9959C40.4211 21.8576 40.5015 21.7746 40.7159 21.7008C41.2071 21.5441 41.234 21.5626 41.2071 21.9313ZM4.83448 22.0328C4.87914 22.0697 4.96846 22.6781 5.03099 23.3881C5.09352 24.2179 5.20964 24.9739 5.36149 25.5088C6.57629 29.9067 10.4708 32.5621 15.7052 32.5621H16.6699L16.6431 32.811L16.6163 33.0692L15.3657 33.0507C10.31 32.9954 6.54056 30.672 5.10245 26.7165C4.76302 25.7945 4.50398 24.4208 4.45038 23.2221C4.40572 22.3371 4.42359 22.1065 4.52184 22.0419C4.67369 21.9406 4.70942 21.9406 4.83448 22.0328ZM29.1038 25.3981C27.8711 26.7258 27.1207 28.0996 26.701 29.7776C26.1114 32.1196 26.6295 34.3508 28.1122 35.909L28.7107 36.5359L28.0051 36.4714L27.3084 36.4161L26.9332 36.7664L26.567 37.126L24.8519 36.2501C23.9052 35.7706 22.7529 35.2359 22.2884 35.0607C21.8238 34.8855 21.3326 34.6365 21.1896 34.5075C20.5465 33.899 19.8677 32.4422 19.7337 31.3819L19.6711 30.8933L20.5108 31.4648C21.7256 32.2855 22.6814 32.7465 23.1726 32.7465L23.5836 32.7373L23.8337 32.1564C24.2625 31.1791 25.37 29.3166 26.2365 28.118C27.1744 26.8364 29.1127 24.7619 29.4432 24.6974C29.5594 24.6789 29.6933 24.6512 29.738 24.6421C29.7826 24.6421 29.4968 24.9739 29.1038 25.3981ZM17.8579 30.2478C17.6792 30.6627 17.5453 31.0039 17.5631 31.0223C18.2419 31.4464 19.1531 32.138 19.1173 32.1933C19.0906 32.2394 18.769 32.4514 18.4027 32.6635C18.0365 32.8848 17.7329 33.0876 17.7329 33.1153C17.7329 33.1522 17.8133 33.2536 17.9204 33.355C18.0276 33.4472 18.1616 33.6409 18.233 33.7791C18.3581 34.0281 18.3581 34.0372 18.108 34.0372C17.849 34.0372 17.4917 33.7238 17.2952 33.3181C17.1969 33.1338 17.2326 33.0599 17.6614 32.599L18.1348 32.0827L17.8668 31.889C17.3398 31.4926 17.0183 31.1607 17.0183 31.0039C17.0183 30.672 18.0902 29.1876 18.1616 29.418C18.1795 29.4641 18.0365 29.8422 17.8579 30.2478ZM37.0447 31.6769C37.9201 31.6769 38.6347 31.7046 38.6347 31.7231C38.6347 31.7876 37.4734 33.567 37.393 33.6132C37.3483 33.6409 37.268 33.5486 37.2055 33.4011C37.0804 33.0876 36.8214 32.9677 36.1068 32.894C35.5529 32.8295 35.026 32.6451 34.7848 32.4146C34.624 32.2671 34.481 31.6954 34.5614 31.557C34.5883 31.511 34.8026 31.5202 35.0349 31.5663C35.276 31.6216 36.1782 31.6678 37.0447 31.6769ZM19.0817 34.8671C20.8145 35.0699 22.4938 35.6785 24.9502 36.9969L26.5045 37.8268L26.9868 37.4487C27.2548 37.2459 27.5317 37.0523 27.6032 37.0246C27.6746 36.9969 28.0498 37.1536 28.4249 37.3842C29.6218 38.0941 30.792 38.6658 30.926 38.6012C31.0332 38.5643 31.051 38.4629 31.0064 38.131L30.9528 37.7069L31.2475 37.7622C31.3994 37.7991 31.8907 37.8452 32.3283 37.8821L33.1233 37.9374L32.2748 38.4998C31.2565 39.1729 29.8898 39.8921 28.7286 40.353C27.9157 40.6757 27.8801 40.6849 27.7282 40.519C27.6388 40.4268 27.487 40.1225 27.3887 39.8459C27.2369 39.4034 27.2101 39.3757 27.2101 39.6247C27.2011 39.7813 27.2637 40.1133 27.3352 40.3623C27.4067 40.6112 27.4691 40.8233 27.4691 40.8324C27.4691 40.8878 25.0038 41.441 24.2088 41.5609C22.8511 41.7729 20.0821 41.7729 18.6796 41.5609C16.5895 41.2473 14.4368 40.5743 12.5968 39.6523C11.641 39.1729 10.2296 38.3062 10.2296 38.2047C10.2296 38.1218 11.7303 37.0246 12.436 36.582C13.8741 35.6969 15.5623 35.0514 16.8842 34.8763C17.7686 34.7657 18.1973 34.7657 19.0817 34.8671Z" fill="#342828"/>
<path d="M12.0443 12.6092C11.9728 12.8027 12.6428 13.5035 13.2234 13.8538C13.4735 14.0014 13.6969 14.1212 13.7415 14.1212C13.7772 14.1212 13.5182 13.7524 13.1609 13.3007C12.5088 12.4708 12.1784 12.268 12.0443 12.6092Z" fill="#342828"/>
<path d="M27.5129 18.7604C27.1735 18.8895 26.968 19.0186 26.9501 19.1292C26.9055 19.3782 27.1735 19.415 27.7451 19.2398C28.3614 19.0463 28.5312 18.8895 28.3614 18.6867C28.2186 18.5115 28.1649 18.5207 27.5129 18.7604Z" fill="#342828"/>
<path d="M16.2195 18.9987C16.0766 19.2569 16.0945 19.4229 16.282 19.5888C16.5053 19.7917 16.6839 19.7825 16.8805 19.5611C17.0145 19.4136 17.0323 19.3214 16.9608 19.1186C16.8537 18.7959 16.3624 18.713 16.2195 18.9987Z" fill="#342828"/>
<path d="M21.62 19.1573C21.4503 19.3417 21.4771 19.7381 21.6736 19.8672C21.888 20.0055 22.2632 19.8764 22.3167 19.6367C22.3882 19.3785 22.1649 19.0098 21.9327 19.0098C21.8433 19.0098 21.7004 19.0742 21.62 19.1573Z" fill="#342828"/>
<path d="M28.183 19.5439C27.9418 19.6453 27.7721 19.7745 27.7543 19.8758C27.6917 20.1801 27.8704 20.2447 28.3348 20.0695C28.8618 19.8666 29.0137 19.7376 28.9333 19.5346C28.8618 19.3411 28.701 19.3411 28.183 19.5439Z" fill="#342828"/>
<path d="M17.6266 20.8077C17.3229 20.9828 16.9834 21.7205 16.9924 22.1722C17.0282 22.8914 17.439 23.2142 18.2518 23.1311C18.7788 23.0758 18.9843 22.9468 18.9843 22.6886C18.9843 22.5318 18.9129 22.5134 18.4215 22.5134C18.1 22.5134 17.8141 22.4673 17.7517 22.4028C17.5372 22.1815 17.698 21.5176 18.0375 21.2318C18.1179 21.158 18.1803 21.0105 18.1803 20.8906C18.1803 20.6325 17.9928 20.6049 17.6266 20.8077Z" fill="#342828"/>
<path d="M5.76387 18.6306C5.64776 18.8612 5.72814 19.0731 5.95145 19.1469C6.29088 19.2575 6.53206 18.8242 6.28195 18.566C6.12117 18.4001 5.87106 18.437 5.76387 18.6306Z" fill="#342828"/>
<path d="M31.039 26.9375C30.9676 26.9835 30.8604 27.1587 30.8069 27.3247C30.7532 27.4906 30.6461 27.6381 30.5656 27.6565C30.3959 27.6935 30.3692 27.4814 30.5031 27.2049C30.5746 27.0665 30.5657 27.0112 30.4674 26.9743C30.262 26.8913 29.9671 27.1126 29.9136 27.38C29.8778 27.5828 29.735 27.7027 29.2794 27.9424C28.5469 28.3389 28.2521 28.7631 28.2521 29.3992C28.2611 30.2013 28.5201 30.6531 29.065 30.8099C29.5742 30.9574 29.6098 31.0035 29.6635 31.7595L29.726 32.4695H29.4581C29.1812 32.4695 28.797 32.2205 28.5023 31.8426C28.404 31.7134 28.3058 31.6581 28.2521 31.7134C28.145 31.824 28.3147 32.8936 28.4933 33.1702C28.6362 33.4007 29.1097 33.5759 29.592 33.5759C29.8154 33.5759 29.9047 33.622 29.9582 33.7971C30.1012 34.1844 30.5924 34.1936 30.5209 33.8064C30.4674 33.5021 30.6461 33.5114 30.9229 33.8156C31.1731 34.0922 31.45 34.0738 31.4231 33.7787C31.4053 33.6036 31.441 33.5759 31.6911 33.5759C32.0394 33.5759 32.2985 33.3269 32.5129 32.8198C32.7184 32.2942 32.6827 31.7318 32.3967 31.1694C32.2003 30.7729 32.0574 30.6347 31.5928 30.3673C30.9944 30.0261 30.9586 29.9616 31.0927 29.1318L31.1462 28.7907L31.5839 29.0212C31.8251 29.141 32.0752 29.3255 32.1288 29.4268C32.3254 29.7403 32.3789 29.6297 32.37 28.9382C32.3521 27.8964 32.3163 27.8318 31.7626 27.7396C31.307 27.6565 31.2892 27.6474 31.3428 27.4169C31.45 26.9651 31.441 26.9006 31.307 26.8729C31.2355 26.8544 31.1105 26.8821 31.039 26.9375ZM30.53 29.307C30.4674 29.9248 30.4674 29.9248 30.2798 29.8602C30.0208 29.7496 30.1369 28.7815 30.4138 28.7815C30.5567 28.7815 30.5746 28.846 30.53 29.307ZM29.5831 29.4453C29.5563 29.6297 29.5474 29.6389 29.4848 29.4914C29.4401 29.4084 29.4401 29.224 29.4848 29.0765C29.5474 28.846 29.5563 28.8368 29.5831 29.0304C29.6098 29.1503 29.6098 29.3346 29.5831 29.4453ZM30.5478 31.3815C30.5656 31.4461 30.5924 31.7227 30.6193 31.9808C30.655 32.4419 30.6461 32.4695 30.4496 32.4695C30.262 32.4695 30.2351 32.4234 30.2351 32.156C30.2351 31.9901 30.2084 31.7134 30.1816 31.5567C30.1279 31.3077 30.1458 31.2709 30.3155 31.2709C30.4227 31.2709 30.5209 31.3262 30.5478 31.3815ZM31.45 31.778C31.575 31.9716 31.5839 32.0638 31.5035 32.2389C31.3249 32.6447 31.1284 32.5248 31.1284 32.0085C31.1284 31.5014 31.2266 31.4276 31.45 31.778Z" fill="#342828"/>
<path d="M38.502 29.9525C38.4753 30.1461 38.3859 30.395 38.3234 30.4965C38.1804 30.7177 38.2251 30.8099 38.4663 30.8099C38.8057 30.8099 39.0737 29.7865 38.7611 29.6666C38.6807 29.639 38.6092 29.6113 38.5914 29.6113C38.5824 29.6113 38.5377 29.7681 38.502 29.9525Z" fill="#342828"/>
<path d="M34.1391 34.2863C33.8443 34.4153 33.3977 34.5352 33.1297 34.5628C32.7099 34.609 32.6562 34.6366 32.6562 34.8303C32.6562 34.9778 32.7188 35.0515 32.9064 35.0884C33.228 35.1621 33.9961 35.0055 34.4427 34.7749C34.7376 34.6182 34.8 34.5444 34.8 34.314C34.8 33.9913 34.818 33.9913 34.1391 34.2863Z" fill="#342828"/>
<path d="M30.9444 35.3822C30.6853 35.7049 31.2749 36.0461 32.1323 36.0552C32.7041 36.0645 33.0077 35.9354 33.0077 35.6772C33.0077 35.4744 32.981 35.4652 32.2306 35.4652C31.793 35.4652 31.3642 35.4099 31.2571 35.3453C31.0962 35.2624 31.0426 35.2624 30.9444 35.3822Z" fill="#342828"/>
<path d="M24.0695 33.1525C23.8195 33.4752 24.1679 34.0099 24.4983 33.7979C24.811 33.595 24.6948 33.0234 24.3375 33.0234C24.2482 33.0234 24.1321 33.088 24.0695 33.1525Z" fill="#342828"/>
<path d="M25.166 34.3323C25.0142 34.4891 25.0321 34.738 25.2018 34.904C25.3983 35.1161 25.568 35.0884 25.7288 34.8302C25.8449 34.655 25.8538 34.5628 25.7734 34.4153C25.6663 34.2032 25.3357 34.1572 25.166 34.3323Z" fill="#342828"/>
<path d="M26.218 35.3634C25.9679 35.6862 26.3163 36.2209 26.6467 36.0089C26.9594 35.806 26.8433 35.2344 26.486 35.2344C26.3967 35.2344 26.2805 35.2989 26.218 35.3634Z" fill="#342828"/>
</g>
<path d="M56.4609 13.8414H60.8253C61.5937 13.8414 62.2864 13.9109 62.9036 14.05C63.5208 14.1891 64.0498 14.4166 64.4907 14.7327C64.9315 15.0488 65.2716 15.4534 65.5109 15.9465C65.7502 16.4396 65.8699 17.0338 65.8699 17.7292C65.8699 18.4752 65.7314 19.101 65.4542 19.6068C65.1771 20.1125 64.7993 20.5234 64.3206 20.8395C63.8546 21.1429 63.3067 21.3642 62.6769 21.5033C62.0471 21.6423 61.3795 21.7119 60.6742 21.7119H58.8415V27.2686H56.4609V13.8414ZM60.5041 19.7016C60.8946 19.7016 61.2662 19.6763 61.6189 19.6257C61.9715 19.5625 62.2864 19.4614 62.5635 19.3223C62.8406 19.1706 63.0611 18.9683 63.2248 18.7154C63.3886 18.4625 63.4704 18.1338 63.4704 17.7292C63.4704 17.3373 63.3886 17.0212 63.2248 16.781C63.0611 16.5281 62.8406 16.3321 62.5635 16.193C62.299 16.054 61.9904 15.9655 61.6378 15.9275C61.2977 15.877 60.945 15.8517 60.5797 15.8517H58.8415V19.7016H60.5041ZM71.0615 13.8414H73.1209L78.8834 27.2686H76.1628L74.9158 24.1963H69.1155L67.9063 27.2686H65.2423L71.0615 13.8414ZM74.0845 22.1481L72.0251 16.6861L69.9279 22.1481H74.0845ZM82.3123 21.4464L77.2866 13.8414H80.1962L83.5593 19.493L86.9601 13.8414H89.7186L84.6929 21.4464V27.2686H82.3123V21.4464ZM90.8345 13.8414H95.1989C95.9673 13.8414 96.66 13.9109 97.2772 14.05C97.8944 14.1891 98.4234 14.4166 98.8643 14.7327C99.3051 15.0488 99.6452 15.4534 99.8845 15.9465C100.124 16.4396 100.243 17.0338 100.243 17.7292C100.243 18.4752 100.105 19.101 99.8278 19.6068C99.5507 20.1125 99.1729 20.5234 98.6942 20.8395C98.2282 21.1429 97.6803 21.3642 97.0505 21.5033C96.4207 21.6423 95.7531 21.7119 95.0478 21.7119H93.2151V27.2686H90.8345V13.8414ZM94.8777 19.7016C95.2682 19.7016 95.6398 19.6763 95.9925 19.6257C96.3451 19.5625 96.66 19.4614 96.9371 19.3223C97.2142 19.1706 97.4347 18.9683 97.5984 18.7154C97.7622 18.4625 97.844 18.1338 97.844 17.7292C97.844 17.3373 97.7622 17.0212 97.5984 16.781C97.4347 16.5281 97.2142 16.3321 96.9371 16.193C96.6726 16.054 96.364 15.9655 96.0114 15.9275C95.6713 15.877 95.3186 15.8517 94.9533 15.8517H93.2151V19.7016H94.8777ZM105.435 13.8414H107.494L113.257 27.2686H110.536L109.289 24.1963H103.489L102.28 27.2686H99.6159L105.435 13.8414ZM108.458 22.1481L106.399 16.6861L104.302 22.1481H108.458ZM114.581 13.8414H116.961V25.1445H122.648V27.2686H114.581V13.8414ZM125.838 21.4464L120.812 13.8414H123.722L127.085 19.493L130.486 13.8414H133.244L128.218 21.4464V27.2686H125.838V21.4464ZM143.479 16.9896C143.127 16.5091 142.667 16.1614 142.1 15.9465C141.533 15.7189 140.979 15.6051 140.437 15.6051C139.745 15.6051 139.115 15.7316 138.548 15.9844C137.981 16.2373 137.49 16.585 137.074 17.0275C136.671 17.47 136.356 17.9884 136.13 18.5826C135.915 19.1769 135.808 19.8217 135.808 20.5171C135.808 21.2504 135.915 21.9205 136.13 22.5274C136.344 23.1343 136.646 23.6589 137.037 24.1015C137.44 24.5313 137.918 24.8664 138.472 25.1066C139.027 25.3468 139.65 25.467 140.343 25.467C141.061 25.467 141.697 25.3279 142.251 25.0497C142.805 24.7589 143.252 24.3796 143.593 23.9118L145.501 25.2583C144.909 26.0043 144.185 26.5859 143.328 27.0031C142.472 27.4077 141.47 27.61 140.324 27.61C139.279 27.61 138.315 27.4393 137.433 27.0979C136.564 26.7439 135.815 26.2572 135.185 25.6376C134.555 25.0055 134.064 24.2595 133.711 23.3998C133.359 22.5274 133.182 21.5665 133.182 20.5171C133.182 19.4424 133.365 18.4752 133.73 17.6154C134.108 16.743 134.618 16.0034 135.261 15.3965C135.916 14.7896 136.684 14.3218 137.566 13.9931C138.447 13.6644 139.404 13.5 140.437 13.5C140.866 13.5 141.313 13.5443 141.779 13.6328C142.245 13.7086 142.692 13.835 143.12 14.0121C143.548 14.1764 143.952 14.385 144.329 14.6379C144.707 14.8908 145.028 15.1942 145.293 15.5482L143.479 16.9896ZM146.98 13.8414H149.36V19.2654H155.614V13.8414H157.995V27.2686H155.614V21.3136H149.36V27.2686H146.98V13.8414Z" fill="#342828"/>
</g>
<defs>
<clipPath id="clip0_1_8981">
<rect width="159.545" height="42.1446" fill="white" transform="translate(0.40625 0.927734)"/>
</clipPath>
</defs>
</svg>
