<svg width="78" height="78" viewBox="0 0 78 78" fill="none" xmlns="http://www.w3.org/2000/svg">
<path d="M38.8155 77.9526C60.0542 77.9526 77.2716 60.6562 77.2716 39.32C77.2716 17.9839 60.0542 0.6875 38.8155 0.6875C17.5768 0.6875 0.359375 17.9839 0.359375 39.32C0.359375 60.6562 17.5768 77.9526 38.8155 77.9526Z" fill="#FF8C00"/>
<path d="M54.6582 47.6372C54.7808 48.6055 54.5068 48.9797 54.2015 48.9797C53.8963 48.9797 53.4684 48.6055 53.0118 47.8569C52.5551 47.1084 52.37 46.2634 52.6152 45.8287C52.7666 45.5462 53.1031 45.4207 53.4997 45.5776C54.2928 45.8915 54.5981 47.106 54.6582 47.6372ZM50.3871 49.762C51.3317 50.5733 51.6081 51.5077 51.1178 52.1959C50.9639 52.3765 50.7719 52.5205 50.5557 52.6174C50.3395 52.7143 50.1046 52.7616 49.868 52.756C49.3411 52.7613 48.8306 52.5723 48.4331 52.2248C47.5798 51.4763 47.3347 50.228 47.8827 49.5423C47.9996 49.3968 48.1493 49.2814 48.3194 49.2054C48.4895 49.1294 48.6751 49.0951 48.8609 49.1053C49.3488 49.1053 49.8992 49.3226 50.3871 49.7596V49.762ZM17.1875 36.6487C17.1875 24.7861 26.5852 15.1738 38.1797 15.1738C49.7766 15.1738 59.1744 24.7885 59.1744 36.6487C59.1746 40.5201 58.1537 44.3224 56.2156 47.6686C56.1532 47.7628 55.9993 47.7314 55.9705 47.6058C55.2398 42.3301 52.096 39.4278 47.5198 38.5538C47.1208 38.491 47.0607 38.2399 47.5798 38.1795C48.9835 38.0539 50.9664 38.0853 52.0023 38.2737C52.0655 37.7238 52.0968 37.1708 52.096 36.6173C52.096 28.7821 45.871 22.415 38.211 22.415C30.5534 22.415 24.3283 28.7821 24.3283 36.6173C24.3283 44.4549 30.5534 50.822 38.211 50.822H38.8527C38.6348 49.5546 38.5422 48.2686 38.5763 46.9829C38.6076 46.1088 38.7926 45.9833 39.158 46.669C41.0808 50.0735 43.8256 53.1327 49.1974 54.3472C53.591 55.3493 57.9846 56.5034 62.7147 62.6532C63.1401 63.1844 62.5008 63.7446 62.0129 63.3075C57.1915 58.9372 52.7979 57.5006 48.8008 57.5006C44.3135 57.5344 41.2634 58.1284 38.1797 58.1284C26.5852 58.1284 17.1875 48.5089 17.1875 36.6463V36.6487Z" fill="white"/>
</svg>
