<svg width="162" height="41" viewBox="0 0 162 41" fill="none" xmlns="http://www.w3.org/2000/svg">
<path fill-rule="evenodd" clip-rule="evenodd" d="M33.2475 25.7165C39.0571 27.6704 40.3749 27.7759 40.3749 27.7759V6.76534C40.3749 3.17914 37.4846 0.273438 33.9145 0.273438H6.49402C2.92307 0.273438 0.03125 3.17914 0.03125 6.76534V34.3035C0.03125 37.8874 2.92307 40.7946 6.49402 40.7946H33.9145C37.4846 40.7946 40.3749 37.8874 40.3749 34.3035V34.0378C40.3749 34.0378 29.8816 29.6447 24.5824 27.0848C21.0282 31.4775 16.4435 34.1425 11.6843 34.1425C3.63459 34.1425 0.901311 27.0684 4.71273 22.4101C5.54392 21.3948 6.95744 20.4259 9.15107 19.8824C12.5829 19.0356 18.046 20.4111 23.1654 22.1072C24.0854 20.4035 24.8606 18.5282 25.4379 16.53H9.66061V14.9242H17.7957V12.0473H7.94335V10.4419H17.7957V6.33723C17.7957 6.33723 17.7957 5.64572 18.4931 5.64572H22.4695V10.4419H32.2105V12.0473H22.4695V14.9242H30.4213C29.6606 18.0553 28.5039 20.9367 27.0542 23.4667C29.467 24.3434 31.6339 25.1738 33.2475 25.7165Z" fill="#00A3FF"/>
<path fill-rule="evenodd" clip-rule="evenodd" d="M9.83702 22.2852C8.82862 22.3861 6.9372 22.8336 5.90212 23.7517C2.80031 26.468 4.65591 31.4338 10.9327 31.4338C14.5802 31.4338 18.2266 29.0913 21.0895 25.3404C17.0166 23.3437 13.5654 21.9148 9.83702 22.2852Z" fill="#00A3FF"/>
<path fill-rule="evenodd" clip-rule="evenodd" d="M87.6406 6.20415C87.6406 8.30031 89.1788 9.71141 91.3244 9.71141C93.47 9.71141 95.0081 8.30031 95.0081 6.20415C95.0081 4.14822 93.47 2.69727 91.3244 2.69727C89.1788 2.69727 87.6406 4.14822 87.6406 6.20415Z" fill="#00A3FF"/>
<path fill-rule="evenodd" clip-rule="evenodd" d="M77.3516 33.0137H83.7476V3.58398H77.3516V33.0137Z" fill="#00A3FF"/>
<path fill-rule="evenodd" clip-rule="evenodd" d="M56.8266 22.8123L60.6315 9.7105H60.7939L64.3968 22.8123H56.8266ZM66.1377 4.58984H57.5552L47.9609 33.0119H53.8715L55.4908 27.4487H65.6518L67.1895 33.0119H74.7602L66.1377 4.58984Z" fill="#00A3FF"/>
<path fill-rule="evenodd" clip-rule="evenodd" d="M88.125 33.0137H94.5211V11.4043H88.125V33.0137Z" fill="#00A3FF"/>
<path fill-rule="evenodd" clip-rule="evenodd" d="M161.349 11.4441L161.389 11.4043H155.358L151.553 24.5464H151.35L146.978 11.4043H139.812L148.436 33.0934L144.833 39.7049V39.8666H150.46L161.349 11.4441Z" fill="#00A3FF"/>
<path fill-rule="evenodd" clip-rule="evenodd" d="M106.379 29.3061C105.651 29.3061 104.962 29.2252 104.194 28.9835V17.2927C105.529 16.3648 106.622 15.9215 107.999 15.9215C110.387 15.9215 112.29 17.8169 112.29 21.8483C112.29 27.008 109.497 29.3061 106.379 29.3061ZM110.428 10.9629C108.08 10.9629 106.258 11.8499 104.194 13.543V11.4062H97.7969V39.8685H104.194V32.8133C105.408 33.1359 106.541 33.2976 107.918 33.2976C113.626 33.2976 118.767 29.1046 118.767 21.646C118.767 14.9544 115.042 10.9629 110.428 10.9629Z" fill="#00A3FF"/>
<path fill-rule="evenodd" clip-rule="evenodd" d="M132.165 27.7743C130.465 28.7015 129.493 29.0639 128.36 29.0639C126.821 29.0639 125.85 28.0563 125.85 26.4436C125.85 25.8391 125.971 25.2348 126.457 24.7506C127.226 23.985 128.724 23.4199 132.165 22.6138V27.7743ZM138.561 27.613V18.5824C138.561 13.664 135.647 10.9629 130.506 10.9629C127.226 10.9629 124.959 11.5273 120.83 12.7771L121.963 17.7364C125.728 16.0426 127.388 15.3169 129.129 15.3169C131.234 15.3169 132.165 16.8085 132.165 19.1065V19.2678C124.837 20.6383 122.571 21.4046 121.154 22.8161C120.101 23.8636 119.656 25.3551 119.656 27.0889C119.656 31.2417 122.895 33.4589 125.931 33.4589C128.198 33.4589 130.019 32.6118 132.489 30.7574L132.934 33.0156H139.33L138.561 27.613Z" fill="#00A3FF"/>
</svg>
