<svg width="40" height="40" viewBox="0 0 40 40" fill="none" xmlns="http://www.w3.org/2000/svg">
<mask id="mask0_5_3774" style="mask-type:alpha" maskUnits="userSpaceOnUse" x="0" y="0" width="40" height="40">
<circle cx="20" cy="20" r="20" fill="#D9D9D9"/>
</mask>
<g mask="url(#mask0_5_3774)">
<rect width="56" height="40" rx="2" fill="#06A86E"/>
<mask id="mask1_5_3774" style="mask-type:luminance" maskUnits="userSpaceOnUse" x="0" y="0" width="56" height="40">
<rect width="56" height="40" rx="2" fill="white"/>
</mask>
<g mask="url(#mask1_5_3774)">
<path fill-rule="evenodd" clip-rule="evenodd" d="M0 5.3335L18.6667 20.0002L0 34.6668V5.3335Z" fill="#FFBF2E"/>
<path fill-rule="evenodd" clip-rule="evenodd" d="M-2.66699 6L15.333 20L-2.66699 34V6Z" fill="#262626"/>
<path fill-rule="evenodd" clip-rule="evenodd" d="M23.9997 16L5.33301 0H55.9997V16H23.9997Z" fill="white"/>
<path fill-rule="evenodd" clip-rule="evenodd" d="M24.667 13.3333L8.66699 0H56.0003V13.3333H24.667Z" fill="#F44E46"/>
<path fill-rule="evenodd" clip-rule="evenodd" d="M5.33301 40H55.9997V24H23.9997L5.33301 40Z" fill="white"/>
<path fill-rule="evenodd" clip-rule="evenodd" d="M8.66699 39.9998H56.0003V26.6665H24.667L8.66699 39.9998Z" fill="#072CB4"/>
</g>
</g>
</svg>
